0
SECTION
2
HEADER
9
$INSUNITS
70
4
0
ENDSEC
0
SECTION
2
TABLES
0
TABLE
2
LTYPE
0
LTYPE
72
65
70
64
2
CONTINUOUS
3
______
73
0
40
0
0
ENDTAB
0
TABLE
2
LAYER
0
ENDTAB
0
ENDSEC
0
SECTION
2
ENTITIES
0
LINE
8
0
10
111
20
-110.5
11
111
21
-112
0
LINE
8
0
10
91
20
-114
11
109
21
-114
0
LINE
8
0
10
89
20
-112
11
89
21
-34
0
LINE
8
0
10
91
20
-32
11
106
21
-32
0
LINE
8
0
10
130
20
-103.25
11
130
21
-106.5
0
LINE
8
0
10
113
20
-108.5
11
128
21
-108.5
0
LINE
8
0
10
110
20
-26.5
11
125
21
-26.5
0
LINE
8
0
10
108
20
-30
11
108
21
-28.5
0
LINE
8
0
10
132
20
-101.25
11
144
21
-101.25
0
LINE
8
0
10
129
20
-22.25
11
147
21
-22.25
0
LINE
8
0
10
149
20
-24.25
11
149
21
-24.5
0
LINE
8
0
10
127
20
-24.5
11
127
21
-24.25
0
LINE
8
0
10
148
20
-105.5
11
165
21
-105.5
0
LINE
8
0
10
146
20
-103.5
11
146
21
-103.25
0
LINE
8
0
10
151
20
-26.5
11
166
21
-26.5
0
LINE
8
0
10
168
20
-28.5
11
168
21
-29.05
0
LINE
8
0
10
190
20
-101.6608185
11
190
21
-88.05
0
LINE
8
0
10
171.5316549
20
-118.05
11
169
21
-118.05
0
LINE
8
0
10
167
20
-116.05
11
167
21
-107.5
0
LINE
8
0
10
209
20
-84.05
11
209
21
-33.05
0
LINE
8
0
10
207
20
-86.05
11
192
21
-86.05
0
LINE
8
0
10
170
20
-31.05
11
207
21
-31.05
0
LINE
8
0
10
201.4631627
20
-165.324829
11
219.0354149
21
-158.9290523
0
LINE
8
0
10
212.6484817
20
-135.7134393
11
212.7063167
21
-135.6923891
0
LINE
8
0
10
212.7063167
20
-135.6923891
11
212.8256984
21
-136.0203876
0
LINE
8
0
10
212.9958671
20
-136.4879223
11
220.2307599
21
-156.3656269
0
LINE
8
0
10
219.035415
20
-158.9290523
11
219.0354149
21
-158.9290523
0
LINE
8
0
10
193.0338221
20
-148.0130143
11
198.8997373
21
-164.129484
0
LINE
8
0
10
201.432269
20
-116.286389
11
212.6484817
21
-135.7134393
0
LINE
8
0
10
212.8256984
20
-136.0203876
11
213.070689
21
-136.4447238
0
LINE
8
0
10
213.070689
20
-136.4447238
11
212.9958671
21
-136.4879223
0
LINE
8
0
10
193.0338221
20
-148.0130143
11
192.9788997
21
-148.0447238
0
LINE
8
0
10
182.8010375
20
-130.4161494
11
192.9788997
21
-148.0447238
0
LINE
8
0
10
190.4679111
20
-102.9463937
11
201.566785
21
-116.1735166
0
LINE
8
0
10
201.566785
20
-116.1735166
11
201.432269
21
-116.286389
0
LINE
8
0
10
173.0637438
20
-118.7644248
11
182.6010756
21
-130.1305742
0
ARC
8
0
10
109
20
-112
40
2
50
270
51
0
0
ARC
8
0
10
91
20
-112
40
2
50
180
51
270
0
ARC
8
0
10
91
20
-34
40
2
50
90
51
180
0
ARC
8
0
10
106
20
-30
40
2
50
270
51
0
0
ARC
8
0
10
110
20
-28.5
40
2
50
90
51
180
0
ARC
8
0
10
125
20
-24.5
40
2
50
270
51
0
0
ARC
8
0
10
129
20
-24.25
40
2
50
90
51
180
0
ARC
8
0
10
147
20
-24.25
40
2
50
0
51
90
0
ARC
8
0
10
151
20
-24.5
40
2
50
180
51
270
0
ARC
8
0
10
166
20
-28.5
40
2
50
0
51
90
0
ARC
8
0
10
170
20
-29.05
40
2
50
180
51
270
0
ARC
8
0
10
207
20
-33.05
40
2
50
0
51
90
0
ARC
8
0
10
207
20
-84.05
40
2
50
270
51
0
0
ARC
8
0
10
192
20
-88.05
40
2
50
90
51
180
0
ARC
8
0
10
192
20
-101.6608185
40
2
50
180
51
220.0000012
0
ARC
8
0
10
218.3513746
20
-157.0496671
40
2
50
290.0000035
51
19.9999981
0
ARC
8
0
10
200.7791225
20
-163.4454438
40
2
50
199.9999981
51
289.9999981
0
ARC
8
0
10
181.0689867
20
-131.4161494
40
2
50
30.0000001
51
40.0000012
0
ARC
8
0
10
171.5316549
20
-120.05
40
2
50
40.0000012
51
90
0
ARC
8
0
10
169
20
-116.05
40
2
50
180
51
270
0
ARC
8
0
10
165
20
-107.5
40
2
50
0
51
90
0
ARC
8
0
10
148
20
-103.5
40
2
50
180
51
270
0
ARC
8
0
10
144
20
-103.25
40
2
50
0
51
90
0
ARC
8
0
10
132
20
-103.25
40
2
50
90
51
180
0
ARC
8
0
10
128
20
-106.5
40
2
50
270
51
0
0
ARC
8
0
10
113
20
-110.5
40
2
50
90
51
180
0
ENDSEC
0
EOF