0
SECTION
2
HEADER
9
$INSUNITS
70
4
0
ENDSEC
0
SECTION
2
TABLES
0
TABLE
2
LTYPE
0
LTYPE
72
65
70
64
2
CONTINUOUS
3
______
73
0
40
0
0
ENDTAB
0
TABLE
2
LAYER
0
ENDTAB
0
ENDSEC
0
SECTION
2
ENTITIES
0
LINE
8
0
10
111
20
-110.5
11
111
21
-112
0
LINE
8
0
10
91
20
-114
11
109
21
-114
0
LINE
8
0
10
89
20
-112
11
89
21
-34
0
LINE
8
0
10
91
20
-32
11
106
21
-32
0
LINE
8
0
10
130
20
-103.25
11
130
21
-106.5
0
LINE
8
0
10
113
20
-108.5
11
128
21
-108.5
0
LINE
8
0
10
110
20
-26.5
11
125
21
-26.5
0
LINE
8
0
10
108
20
-30
11
108
21
-28.5
0
LINE
8
0
10
132
20
-101.25
11
144
21
-101.25
0
LINE
8
0
10
129
20
-22.25
11
147
21
-22.25
0
LINE
8
0
10
149
20
-24.25
11
149
21
-24.5
0
LINE
8
0
10
127
20
-24.5
11
127
21
-24.25
0
LINE
8
0
10
148
20
-105.5
11
165
21
-105.5
0
LINE
8
0
10
146
20
-103.5
11
146
21
-103.25
0
LINE
8
0
10
151
20
-26.5
11
166
21
-26.5
0
LINE
8
0
10
168
20
-28.5
11
168
21
-29.05
0
LINE
8
0
10
190
20
-111.9106699
11
190
21
-88.05
0
LINE
8
0
10
167.4151457
20
-130.05
11
167
21
-130.05
0
LINE
8
0
10
167
20
-130.05
11
167
21
-107.5
0
LINE
8
0
10
209
20
-84.05
11
209
21
-33.05
0
LINE
8
0
10
207
20
-86.05
11
192
21
-86.05
0
LINE
8
0
10
170
20
-31.05
11
207
21
-31.05
0
LINE
8
0
10
221.2736876
20
-158.7253463
11
233.7759067
21
-143.8257818
0
LINE
8
0
10
217.6877009
20
-127.7153598
11
233.529393
21
-141.0081178
0
LINE
8
0
10
205.7136558
20
-148.2797439
11
218.4560235
21
-158.9718599
0
LINE
8
0
10
197.8056371
20
-116.1521045
11
197.811158
21
-116.1425419
0
LINE
8
0
10
197.811158
20
-116.1425419
11
197.86539
21
-116.1738527
0
LINE
8
0
10
197.9815146
20
-116.2408973
11
217.7297423
21
-127.6425419
0
LINE
8
0
10
217.7297423
20
-127.6425419
11
217.6877009
21
-127.7153598
0
LINE
8
0
10
186.1534432
20
-136.9515649
11
205.4280805
21
-148.0797819
0
LINE
8
0
10
191.3159598
20
-113.7900551
11
197.8056371
21
-116.1521045
0
LINE
8
0
10
197.86539
20
-116.1738527
11
197.9894783
21
-116.2190172
0
LINE
8
0
10
197.9894783
20
-116.2190172
11
197.9815146
21
-116.2408973
0
LINE
8
0
10
167.399382
20
-130.0933104
11
185.8374834
21
-136.8042304
0
LINE
8
0
10
167.399382
20
-130.0933104
11
167.4151457
21
-130.05
0
ARC
8
0
10
109
20
-112
40
2
50
270
51
0
0
ARC
8
0
10
91
20
-112
40
2
50
180
51
270
0
ARC
8
0
10
91
20
-34
40
2
50
90
51
180
0
ARC
8
0
10
106
20
-30
40
2
50
270
51
0
0
ARC
8
0
10
110
20
-28.5
40
2
50
90
51
180
0
ARC
8
0
10
125
20
-24.5
40
2
50
270
51
0
0
ARC
8
0
10
129
20
-24.25
40
2
50
90
51
180
0
ARC
8
0
10
147
20
-24.25
40
2
50
0
51
90
0
ARC
8
0
10
151
20
-24.5
40
2
50
180
51
270
0
ARC
8
0
10
166
20
-28.5
40
2
50
0
51
90
0
ARC
8
0
10
170
20
-29.05
40
2
50
180
51
270
0
ARC
8
0
10
207
20
-33.05
40
2
50
0
51
90
0
ARC
8
0
10
207
20
-84.05
40
2
50
270
51
0
0
ARC
8
0
10
192
20
-88.05
40
2
50
90
51
180
0
ARC
8
0
10
192
20
-111.9106699
40
2
50
180
51
250.0000019
0
ARC
8
0
10
232.2438177
20
-142.5402066
40
2
50
320.0000025
51
49.9999988
0
ARC
8
0
10
219.7415987
20
-157.439771
40
2
50
229.9999988
51
319.9999988
0
ARC
8
0
10
204.4280805
20
-149.8118327
40
2
50
49.9999988
51
59.9999999
0
ARC
8
0
10
185.1534432
20
-138.6836157
40
2
50
59.9999999
51
70.0000019
0
ARC
8
0
10
165
20
-107.5
40
2
50
0
51
90
0
ARC
8
0
10
148
20
-103.5
40
2
50
180
51
270
0
ARC
8
0
10
144
20
-103.25
40
2
50
0
51
90
0
ARC
8
0
10
132
20
-103.25
40
2
50
90
51
180
0
ARC
8
0
10
128
20
-106.5
40
2
50
270
51
0
0
ARC
8
0
10
113
20
-110.5
40
2
50
90
51
180
0
LINE
8
0
10
93.1
20
-106.9
11
106.9
21
-106.9
0
LINE
8
0
10
106.9
20
-106.9
11
106.9
21
-93.1
0
LINE
8
0
10
106.9
20
-93.1
11
93.1
21
-93.1
0
LINE
8
0
10
93.1
20
-93.1
11
93.1
21
-106.9
0
LINE
8
0
10
93.1
20
-89.9
11
106.9
21
-89.9
0
LINE
8
0
10
106.9
20
-89.9
11
106.9
21
-76.1
0
LINE
8
0
10
106.9
20
-76.1
11
93.1
21
-76.1
0
LINE
8
0
10
93.1
20
-76.1
11
93.1
21
-89.9
0
LINE
8
0
10
93.1
20
-72.9
11
106.9
21
-72.9
0
LINE
8
0
10
106.9
20
-72.9
11
106.9
21
-59.1
0
LINE
8
0
10
106.9
20
-59.1
11
93.1
21
-59.1
0
LINE
8
0
10
93.1
20
-59.1
11
93.1
21
-72.9
0
LINE
8
0
10
93.1
20
-55.9
11
106.9
21
-55.9
0
LINE
8
0
10
106.9
20
-55.9
11
106.9
21
-42.1
0
LINE
8
0
10
106.9
20
-42.1
11
93.1
21
-42.1
0
LINE
8
0
10
93.1
20
-42.1
11
93.1
21
-55.9
0
LINE
8
0
10
112.1
20
-98.4
11
125.9
21
-98.4
0
LINE
8
0
10
125.9
20
-98.4
11
125.9
21
-84.6
0
LINE
8
0
10
125.9
20
-84.6
11
112.1
21
-84.6
0
LINE
8
0
10
112.1
20
-84.6
11
112.1
21
-98.4
0
LINE
8
0
10
112.1
20
-81.4
11
125.9
21
-81.4
0
LINE
8
0
10
125.9
20
-81.4
11
125.9
21
-67.6
0
LINE
8
0
10
125.9
20
-67.6
11
112.1
21
-67.6
0
LINE
8
0
10
112.1
20
-67.6
11
112.1
21
-81.4
0
LINE
8
0
10
112.1
20
-64.4
11
125.9
21
-64.4
0
LINE
8
0
10
125.9
20
-64.4
11
125.9
21
-50.6
0
LINE
8
0
10
125.9
20
-50.6
11
112.1
21
-50.6
0
LINE
8
0
10
112.1
20
-50.6
11
112.1
21
-64.4
0
LINE
8
0
10
112.1
20
-47.4
11
125.9
21
-47.4
0
LINE
8
0
10
125.9
20
-47.4
11
125.9
21
-33.6
0
LINE
8
0
10
125.9
20
-33.6
11
112.1
21
-33.6
0
LINE
8
0
10
112.1
20
-33.6
11
112.1
21
-47.4
0
LINE
8
0
10
131.1
20
-94.15
11
144.9
21
-94.15
0
LINE
8
0
10
144.9
20
-94.15
11
144.9
21
-80.35
0
LINE
8
0
10
144.9
20
-80.35
11
131.1
21
-80.35
0
LINE
8
0
10
131.1
20
-80.35
11
131.1
21
-94.15
0
LINE
8
0
10
131.1
20
-77.15
11
144.9
21
-77.15
0
LINE
8
0
10
144.9
20
-77.15
11
144.9
21
-63.35
0
LINE
8
0
10
144.9
20
-63.35
11
131.1
21
-63.35
0
LINE
8
0
10
131.1
20
-63.35
11
131.1
21
-77.15
0
LINE
8
0
10
131.1
20
-60.15
11
144.9
21
-60.15
0
LINE
8
0
10
144.9
20
-60.15
11
144.9
21
-46.35
0
LINE
8
0
10
144.9
20
-46.35
11
131.1
21
-46.35
0
LINE
8
0
10
131.1
20
-46.35
11
131.1
21
-60.15
0
LINE
8
0
10
131.1
20
-43.15
11
144.9
21
-43.15
0
LINE
8
0
10
144.9
20
-43.15
11
144.9
21
-29.35
0
LINE
8
0
10
144.9
20
-29.35
11
131.1
21
-29.35
0
LINE
8
0
10
131.1
20
-29.35
11
131.1
21
-43.15
0
LINE
8
0
10
150.1
20
-98.4
11
163.9
21
-98.4
0
LINE
8
0
10
163.9
20
-98.4
11
163.9
21
-84.6
0
LINE
8
0
10
163.9
20
-84.6
11
150.1
21
-84.6
0
LINE
8
0
10
150.1
20
-84.6
11
150.1
21
-98.4
0
LINE
8
0
10
150.1
20
-81.4
11
163.9
21
-81.4
0
LINE
8
0
10
163.9
20
-81.4
11
163.9
21
-67.6
0
LINE
8
0
10
163.9
20
-67.6
11
150.1
21
-67.6
0
LINE
8
0
10
150.1
20
-67.6
11
150.1
21
-81.4
0
LINE
8
0
10
150.1
20
-64.4
11
163.9
21
-64.4
0
LINE
8
0
10
163.9
20
-64.4
11
163.9
21
-50.6
0
LINE
8
0
10
163.9
20
-50.6
11
150.1
21
-50.6
0
LINE
8
0
10
150.1
20
-50.6
11
150.1
21
-64.4
0
LINE
8
0
10
150.1
20
-47.4
11
163.9
21
-47.4
0
LINE
8
0
10
163.9
20
-47.4
11
163.9
21
-33.6
0
LINE
8
0
10
163.9
20
-33.6
11
150.1
21
-33.6
0
LINE
8
0
10
150.1
20
-33.6
11
150.1
21
-47.4
0
LINE
8
0
10
169.1
20
-100.95
11
182.9
21
-100.95
0
LINE
8
0
10
182.9
20
-100.95
11
182.9
21
-87.15
0
LINE
8
0
10
182.9
20
-87.15
11
169.1
21
-87.15
0
LINE
8
0
10
169.1
20
-87.15
11
169.1
21
-100.95
0
LINE
8
0
10
169.1
20
-83.95
11
182.9
21
-83.95
0
LINE
8
0
10
182.9
20
-83.95
11
182.9
21
-70.15
0
LINE
8
0
10
182.9
20
-70.15
11
169.1
21
-70.15
0
LINE
8
0
10
169.1
20
-70.15
11
169.1
21
-83.95
0
LINE
8
0
10
169.1
20
-66.95
11
182.9
21
-66.95
0
LINE
8
0
10
182.9
20
-66.95
11
182.9
21
-53.15
0
LINE
8
0
10
182.9
20
-53.15
11
169.1
21
-53.15
0
LINE
8
0
10
169.1
20
-53.15
11
169.1
21
-66.95
0
LINE
8
0
10
169.1
20
-49.95
11
182.9
21
-49.95
0
LINE
8
0
10
182.9
20
-49.95
11
182.9
21
-36.15
0
LINE
8
0
10
182.9
20
-36.15
11
169.1
21
-36.15
0
LINE
8
0
10
169.1
20
-36.15
11
169.1
21
-49.95
0
LINE
8
0
10
221.8504722
20
-154.7709412
11
230.7209412
21
-144.1995278
0
LINE
8
0
10
230.7209412
20
-144.1995278
11
220.1495278
21
-135.3290588
0
LINE
8
0
10
220.1495278
20
-135.3290588
11
211.2790588
21
-145.9004722
0
LINE
8
0
10
211.2790588
20
-145.9004722
11
221.8504722
21
-154.7709412
0
LINE
8
0
10
206.536089
20
-142.8305182
11
213.436089
21
-130.8793676
0
LINE
8
0
10
213.436089
20
-130.8793676
11
201.4849384
21
-123.9793676
0
LINE
8
0
10
201.4849384
20
-123.9793676
11
194.5849384
21
-135.9305182
0
LINE
8
0
10
194.5849384
20
-135.9305182
11
206.536089
21
-142.8305182
0
LINE
8
0
10
189.380933
20
-133.7308118
11
194.100811
21
-120.7630536
0
LINE
8
0
10
194.100811
20
-120.7630536
11
181.1330528
21
-116.0431756
0
LINE
8
0
10
181.1330528
20
-116.0431756
11
176.4131748
21
-129.0109338
0
LINE
8
0
10
176.4131748
20
-129.0109338
11
189.380933
21
-133.7308118
0
ENDSEC
0
EOF