G04 #@! TF.GenerationSoftware,KiCad,Pcbnew,8.0.1*
G04 #@! TF.CreationDate,2024-03-30T10:30:43-04:00*
G04 #@! TF.ProjectId,kipra-kicad,6b697072-612d-46b6-9963-61642e6b6963,v1.0.0*
G04 #@! TF.SameCoordinates,Original*
G04 #@! TF.FileFunction,Copper,L2,Bot*
G04 #@! TF.FilePolarity,Positive*
%FSLAX46Y46*%
G04 Gerber Fmt 4.6, Leading zero omitted, Abs format (unit mm)*
G04 Created by KiCad (PCBNEW 8.0.1) date 2024-03-30 10:30:43*
%MOMM*%
%LPD*%
G01*
G04 APERTURE LIST*
G04 Aperture macros list*
%AMRotRect*
0 Rectangle, with rotation*
0 The origin of the aperture is its center*
0 $1 length*
0 $2 width*
0 $3 Rotation angle, in degrees counterclockwise*
0 Add horizontal line*
21,1,$1,$2,0,0,$3*%
%AMFreePoly0*
4,1,6,1.300000,-1.300000,0.000000,-1.300000,-1.300000,0.000000,-1.300000,1.300000,1.300000,1.300000,1.300000,-1.300000,1.300000,-1.300000,$1*%
G04 Aperture macros list end*
G04 #@! TA.AperFunction,SMDPad,CuDef*
%ADD10R,2.600000X2.600000*%
G04 #@! TD*
G04 #@! TA.AperFunction,SMDPad,CuDef*
%ADD11FreePoly0,0.000000*%
G04 #@! TD*
G04 #@! TA.AperFunction,ComponentPad*
%ADD12C,0.800000*%
G04 #@! TD*
G04 #@! TA.AperFunction,SMDPad,CuDef*
%ADD13RotRect,2.600000X2.600000X315.000000*%
G04 #@! TD*
G04 #@! TA.AperFunction,SMDPad,CuDef*
%ADD14FreePoly0,315.000000*%
G04 #@! TD*
G04 #@! TA.AperFunction,SMDPad,CuDef*
%ADD15RotRect,2.600000X2.600000X325.000000*%
G04 #@! TD*
G04 #@! TA.AperFunction,SMDPad,CuDef*
%ADD16FreePoly0,325.000000*%
G04 #@! TD*
G04 #@! TA.AperFunction,SMDPad,CuDef*
%ADD17RotRect,2.600000X2.600000X335.000000*%
G04 #@! TD*
G04 #@! TA.AperFunction,SMDPad,CuDef*
%ADD18FreePoly0,335.000000*%
G04 #@! TD*
G04 #@! TA.AperFunction,SMDPad,CuDef*
%ADD19R,0.900000X1.200000*%
G04 #@! TD*
G04 #@! TA.AperFunction,ComponentPad*
%ADD20R,1.778000X1.778000*%
G04 #@! TD*
G04 #@! TA.AperFunction,ComponentPad*
%ADD21C,1.905000*%
G04 #@! TD*
G04 #@! TA.AperFunction,SMDPad,CuDef*
%ADD22RotRect,0.900000X1.200000X315.000000*%
G04 #@! TD*
G04 #@! TA.AperFunction,ComponentPad*
%ADD23RotRect,1.778000X1.778000X315.000000*%
G04 #@! TD*
G04 #@! TA.AperFunction,SMDPad,CuDef*
%ADD24RotRect,0.900000X1.200000X325.000000*%
G04 #@! TD*
G04 #@! TA.AperFunction,ComponentPad*
%ADD25RotRect,1.778000X1.778000X325.000000*%
G04 #@! TD*
G04 #@! TA.AperFunction,SMDPad,CuDef*
%ADD26RotRect,0.900000X1.200000X335.000000*%
G04 #@! TD*
G04 #@! TA.AperFunction,ComponentPad*
%ADD27RotRect,1.778000X1.778000X335.000000*%
G04 #@! TD*
G04 #@! TA.AperFunction,ComponentPad*
%ADD28C,1.700000*%
G04 #@! TD*
G04 #@! TA.AperFunction,SMDPad,CuDef*
%ADD29R,0.600000X1.200000*%
G04 #@! TD*
G04 #@! TA.AperFunction,ComponentPad*
%ADD30O,2.200000X1.600000*%
G04 #@! TD*
G04 #@! TA.AperFunction,ComponentPad*
%ADD31C,0.700000*%
G04 #@! TD*
G04 #@! TA.AperFunction,ComponentPad*
%ADD32C,4.400000*%
G04 #@! TD*
G04 #@! TA.AperFunction,ViaPad*
%ADD33C,0.800000*%
G04 #@! TD*
G04 #@! TA.AperFunction,Conductor*
%ADD34C,0.250000*%
G04 #@! TD*
G04 APERTURE END LIST*
D10*
X107839702Y-95852060D03*
D11*
X96289702Y-93652060D03*
D12*
X98064702Y-96602060D03*
X106564702Y-102102060D03*
D10*
X107839703Y-78852061D03*
D11*
X96289703Y-76652061D03*
D12*
X98064703Y-79602061D03*
X106564703Y-85102061D03*
D10*
X107839702Y-61852057D03*
D11*
X96289702Y-59652057D03*
D12*
X98064702Y-62602057D03*
X106564702Y-68102057D03*
D10*
X107839702Y-44852060D03*
D11*
X96289702Y-42652060D03*
D12*
X98064702Y-45602060D03*
X106564702Y-51102060D03*
D10*
X126839700Y-85652055D03*
D11*
X115289700Y-83452055D03*
D12*
X117064700Y-86402055D03*
X125564700Y-91902055D03*
D10*
X126839704Y-68652056D03*
D11*
X115289704Y-66452056D03*
D12*
X117064704Y-69402056D03*
X125564704Y-74902056D03*
D10*
X126839704Y-51652053D03*
D11*
X115289704Y-49452053D03*
D12*
X117064704Y-52402053D03*
X125564704Y-57902053D03*
D10*
X126839707Y-34652059D03*
D11*
X115289707Y-32452059D03*
D12*
X117064707Y-35402059D03*
X125564707Y-40902059D03*
D10*
X145839703Y-81402060D03*
D11*
X134289703Y-79202060D03*
D12*
X136064703Y-82152060D03*
X144564703Y-87652060D03*
D10*
X145839700Y-64402056D03*
D11*
X134289700Y-62202056D03*
D12*
X136064700Y-65152056D03*
X144564700Y-70652056D03*
D10*
X145839705Y-47402059D03*
D11*
X134289705Y-45202059D03*
D12*
X136064705Y-48152059D03*
X144564705Y-53652059D03*
D10*
X145839701Y-30402059D03*
D11*
X134289701Y-28202059D03*
D12*
X136064701Y-31152059D03*
X144564701Y-36652059D03*
D10*
X164839700Y-85652056D03*
D11*
X153289700Y-83452056D03*
D12*
X155064700Y-86402056D03*
X163564700Y-91902056D03*
D10*
X164839701Y-68652059D03*
D11*
X153289701Y-66452059D03*
D12*
X155064701Y-69402059D03*
X163564701Y-74902059D03*
D10*
X164839703Y-51652057D03*
D11*
X153289703Y-49452057D03*
D12*
X155064703Y-52402057D03*
X163564703Y-57902057D03*
D10*
X164839707Y-34652059D03*
D11*
X153289707Y-32452059D03*
D12*
X155064707Y-35402059D03*
X163564707Y-40902059D03*
D10*
X183839700Y-71202058D03*
D11*
X172289700Y-69002058D03*
D12*
X174064700Y-71952058D03*
X182564700Y-77452058D03*
D10*
X183839700Y-54202060D03*
D11*
X172289700Y-52002060D03*
D12*
X174064700Y-54952060D03*
X182564700Y-60452060D03*
D10*
X183839704Y-37202060D03*
D11*
X172289704Y-35002060D03*
D12*
X174064704Y-37952060D03*
X182564704Y-43452060D03*
D13*
X202067665Y-139351723D03*
D14*
X195456216Y-129629003D03*
D12*
X194625365Y-132970083D03*
X196746686Y-142869577D03*
D15*
X187291301Y-125027948D03*
D16*
X179091963Y-116601005D03*
D12*
X178853907Y-120035602D03*
X182662029Y-129416337D03*
D17*
X170252129Y-113487685D03*
D18*
X160714036Y-106612567D03*
D12*
X161076008Y-110036322D03*
X166455224Y-118613270D03*
D19*
X101214707Y-104602056D03*
X97914707Y-104602056D03*
D20*
X95754707Y-104602056D03*
D21*
X103374707Y-104602056D03*
D19*
X101214704Y-87602059D03*
X97914704Y-87602059D03*
D20*
X95754704Y-87602059D03*
D21*
X103374704Y-87602059D03*
D19*
X101214709Y-70602059D03*
X97914709Y-70602059D03*
D20*
X95754709Y-70602059D03*
D21*
X103374709Y-70602059D03*
D19*
X101214705Y-53602057D03*
X97914705Y-53602057D03*
D20*
X95754705Y-53602057D03*
D21*
X103374705Y-53602057D03*
D19*
X120214705Y-94402054D03*
X116914705Y-94402054D03*
D20*
X114754705Y-94402054D03*
D21*
X122374705Y-94402054D03*
D19*
X120214704Y-77402058D03*
X116914704Y-77402058D03*
D20*
X114754704Y-77402058D03*
D21*
X122374704Y-77402058D03*
D19*
X120214706Y-60402060D03*
X116914706Y-60402060D03*
D20*
X114754706Y-60402060D03*
D21*
X122374706Y-60402060D03*
D19*
X120214706Y-43402055D03*
X116914706Y-43402055D03*
D20*
X114754706Y-43402055D03*
D21*
X122374706Y-43402055D03*
D19*
X139214707Y-90152058D03*
X135914707Y-90152058D03*
D20*
X133754707Y-90152058D03*
D21*
X141374707Y-90152058D03*
D19*
X139214705Y-73152062D03*
X135914705Y-73152062D03*
D20*
X133754705Y-73152062D03*
D21*
X141374705Y-73152062D03*
D19*
X139214703Y-56152059D03*
X135914703Y-56152059D03*
D20*
X133754703Y-56152059D03*
D21*
X141374703Y-56152059D03*
D19*
X139214704Y-39152057D03*
X135914704Y-39152057D03*
D20*
X133754704Y-39152057D03*
D21*
X141374704Y-39152057D03*
D19*
X158214707Y-94402057D03*
X154914707Y-94402057D03*
D20*
X152754707Y-94402057D03*
D21*
X160374707Y-94402057D03*
D19*
X158214707Y-77402055D03*
X154914707Y-77402055D03*
D20*
X152754707Y-77402055D03*
D21*
X160374707Y-77402055D03*
D19*
X158214705Y-60402059D03*
X154914705Y-60402059D03*
D20*
X152754705Y-60402059D03*
D21*
X160374705Y-60402059D03*
D19*
X158214703Y-43402054D03*
X154914703Y-43402054D03*
D20*
X152754703Y-43402054D03*
D21*
X160374703Y-43402054D03*
D19*
X177214704Y-79952057D03*
X173914704Y-79952057D03*
D20*
X171754704Y-79952057D03*
D21*
X179374704Y-79952057D03*
D19*
X177214700Y-62952058D03*
X173914700Y-62952058D03*
D20*
X171754700Y-62952058D03*
D21*
X179374700Y-62952058D03*
D19*
X177214700Y-45952056D03*
X173914700Y-45952056D03*
D20*
X171754700Y-45952056D03*
D21*
X179374700Y-45952056D03*
D22*
X191195893Y-140854317D03*
X188862441Y-138520865D03*
D23*
X187335090Y-136993514D03*
D21*
X192723244Y-142381668D03*
D24*
X176845629Y-128395584D03*
X174142427Y-126502782D03*
D25*
X172373059Y-125263857D03*
D21*
X178614997Y-129634509D03*
D26*
X160549936Y-118618029D03*
X157559120Y-117223389D03*
D27*
X155601495Y-116310534D03*
D21*
X162507561Y-119530884D03*
D28*
X189944704Y-33252055D03*
X205184704Y-33252055D03*
D12*
X200964704Y-33252055D03*
X194164704Y-33252055D03*
D29*
X192084704Y-33252055D03*
X192984705Y-33252055D03*
X202144704Y-33252055D03*
X203044703Y-33252055D03*
D28*
X189944704Y-35792055D03*
X205184704Y-35792055D03*
D12*
X200964704Y-35792055D03*
X194164704Y-35792055D03*
D29*
X192084703Y-35792055D03*
X192984704Y-35792055D03*
X202144703Y-35792055D03*
X203044704Y-35792055D03*
D28*
X189944704Y-38332055D03*
X205184704Y-38332055D03*
D12*
X200964705Y-38332055D03*
X194164703Y-38332056D03*
D29*
X192084704Y-38332055D03*
X192984704Y-38332055D03*
X202144704Y-38332054D03*
X203044705Y-38332055D03*
D28*
X189944705Y-40872055D03*
X205184704Y-40872055D03*
D12*
X200964704Y-40872055D03*
X194164703Y-40872055D03*
D29*
X192084704Y-40872055D03*
X192984705Y-40872054D03*
X202144704Y-40872055D03*
X203044704Y-40872055D03*
D28*
X189944704Y-43412055D03*
X205184704Y-43412055D03*
D12*
X200964704Y-43412055D03*
X194164704Y-43412055D03*
D29*
X192084704Y-43412055D03*
X192984704Y-43412055D03*
X202144704Y-43412055D03*
X203044704Y-43412055D03*
D28*
X189944704Y-45952055D03*
X205184704Y-45952055D03*
D12*
X200964704Y-45952055D03*
X194164704Y-45952055D03*
D29*
X192084705Y-45952055D03*
X192984704Y-45952055D03*
X202144704Y-45952055D03*
X203044703Y-45952055D03*
D28*
X189944704Y-48492055D03*
X205184704Y-48492055D03*
D12*
X200964704Y-48492055D03*
X194164704Y-48492055D03*
D29*
X192084704Y-48492055D03*
X192984704Y-48492055D03*
X202144704Y-48492055D03*
X203044704Y-48492055D03*
D28*
X189944704Y-51032055D03*
X205184703Y-51032055D03*
D12*
X200964705Y-51032055D03*
X194164704Y-51032055D03*
D29*
X192084704Y-51032055D03*
X192984704Y-51032055D03*
X202144703Y-51032056D03*
X203044704Y-51032055D03*
D28*
X189944704Y-53572055D03*
X205184704Y-53572055D03*
D12*
X200964705Y-53572054D03*
X194164703Y-53572055D03*
D29*
X192084703Y-53572055D03*
X192984704Y-53572056D03*
X202144704Y-53572055D03*
X203044704Y-53572055D03*
D28*
X189944704Y-56112055D03*
X205184704Y-56112055D03*
D12*
X200964704Y-56112055D03*
X194164704Y-56112055D03*
D29*
X192084704Y-56112055D03*
X192984705Y-56112055D03*
X202144704Y-56112055D03*
X203044705Y-56112055D03*
D28*
X189944704Y-58652055D03*
X205184704Y-58652055D03*
D12*
X200964704Y-58652055D03*
X194164704Y-58652055D03*
D29*
X192084705Y-58652055D03*
X192984704Y-58652055D03*
X202144703Y-58652055D03*
X203044704Y-58652055D03*
D28*
X189944706Y-61192054D03*
X205184704Y-61192055D03*
D12*
X200964704Y-61192055D03*
X194164704Y-61192055D03*
D29*
X192084704Y-61192055D03*
X192984703Y-61192055D03*
X202144702Y-61192055D03*
X203044704Y-61192055D03*
D30*
X196264699Y-76652058D03*
X197364698Y-81252058D03*
X201364699Y-81252058D03*
X204364700Y-81252058D03*
X196264699Y-78952058D03*
X197364699Y-74352058D03*
X201364700Y-74352057D03*
X204364699Y-74352057D03*
D31*
X100731431Y-113518785D03*
D32*
X99564705Y-112352059D03*
D31*
X99564705Y-114002059D03*
X100731431Y-111185333D03*
X97914705Y-112352059D03*
X98397979Y-111185333D03*
X98397979Y-113518785D03*
X101214705Y-112352059D03*
X99564705Y-110702059D03*
X100731426Y-37018783D03*
D32*
X99564700Y-35852057D03*
D31*
X99564700Y-37502057D03*
X100731426Y-34685331D03*
X97914700Y-35852057D03*
X98397974Y-34685331D03*
X98397974Y-37018783D03*
X101214700Y-35852057D03*
X99564700Y-34202057D03*
X201731430Y-88118785D03*
D32*
X200564704Y-86952059D03*
D31*
X200564704Y-88602059D03*
X201731430Y-85785333D03*
X198914704Y-86952059D03*
X199397978Y-85785333D03*
X199397978Y-88118785D03*
X202214704Y-86952059D03*
X200564704Y-85302059D03*
X146324713Y-107755152D03*
D32*
X145760381Y-106204659D03*
D31*
X145063061Y-107700067D03*
X147310874Y-105640327D03*
X144264973Y-105507339D03*
X145196049Y-104654166D03*
X144209888Y-106768991D03*
X147255789Y-106901979D03*
X146457701Y-104709251D03*
X203110645Y-147347999D03*
D32*
X203110645Y-145697999D03*
D31*
X201943919Y-146864725D03*
X204760645Y-145697999D03*
X201943919Y-144531273D03*
X203110645Y-144047999D03*
X201460645Y-145697999D03*
X204277371Y-146864725D03*
X204277371Y-144531273D03*
D33*
X198200079Y-84147059D03*
D34*
X198200079Y-84147059D02*
X198469698Y-84147059D01*
X198469698Y-84147059D02*
X201364699Y-81252058D01*
X179374700Y-62952058D02*
X181874698Y-60452060D01*
X181874698Y-60452060D02*
X182564700Y-60452060D01*
X177214700Y-62952058D02*
X179374700Y-62952058D01*
X192984704Y-53572056D02*
X192984704Y-52401759D01*
X192790000Y-52207055D02*
X189458003Y-52207055D01*
X192984704Y-52401759D02*
X192790000Y-52207055D01*
X189458003Y-52207055D02*
X187869699Y-53795359D01*
X153439700Y-90400300D02*
X153439700Y-83602056D01*
X187869699Y-53795359D02*
X187869699Y-73750301D01*
X187869699Y-73750301D02*
X165100000Y-96520000D01*
X165100000Y-96520000D02*
X152400000Y-96520000D01*
X152400000Y-96520000D02*
X151540707Y-95660707D01*
X151540707Y-95660707D02*
X151540707Y-92299293D01*
X151540707Y-92299293D02*
X153439700Y-90400300D01*
X153439700Y-83602056D02*
X153289700Y-83452056D01*
X192459704Y-54937055D02*
X193139698Y-55617049D01*
X188319699Y-56075359D02*
X189458003Y-54937055D01*
X188319699Y-73383303D02*
X188319699Y-56075359D01*
X188410000Y-73473604D02*
X188319699Y-73383303D01*
X134620000Y-101600000D02*
X162878198Y-101600000D01*
X188410000Y-76068198D02*
X188410000Y-73473604D01*
X132080000Y-99060000D02*
X134620000Y-101600000D01*
X132080000Y-89436757D02*
X132080000Y-99060000D01*
X189458003Y-54937055D02*
X192459704Y-54937055D01*
X134439703Y-87077054D02*
X132080000Y-89436757D01*
X134439703Y-79352060D02*
X134439703Y-87077054D01*
X162878198Y-101600000D02*
X188410000Y-76068198D01*
X134289703Y-79202060D02*
X134439703Y-79352060D01*
X193139698Y-55617049D02*
X193139698Y-56112056D01*
X177214704Y-79952057D02*
X179374704Y-79952057D01*
X179374704Y-79952057D02*
X180064701Y-79952057D01*
X180064701Y-79952057D02*
X182564700Y-77452058D01*
X134289700Y-62202056D02*
X132540703Y-60453059D01*
X132540703Y-60453059D02*
X132540703Y-52879297D01*
X132540703Y-52879297D02*
X136064705Y-49355295D01*
X136064705Y-49355295D02*
X136064705Y-48152059D01*
X153289701Y-66452059D02*
X151540705Y-64703063D01*
X151540705Y-64703063D02*
X151540705Y-56739295D01*
X151540705Y-56739295D02*
X155064703Y-53215297D01*
X155064703Y-53215297D02*
X155064703Y-52402057D01*
X115289700Y-83452055D02*
X113540704Y-81703059D01*
X113540704Y-81703059D02*
X113540703Y-81703059D01*
X91004708Y-88207055D02*
X91004708Y-91440000D01*
X91004708Y-91440000D02*
X91004708Y-106244708D01*
X96289702Y-93652060D02*
X93216768Y-93652060D01*
X93216768Y-93652060D02*
X91004708Y-91440000D01*
X163569188Y-102500000D02*
X192984703Y-73084485D01*
X188860000Y-76572792D02*
X188860000Y-73287208D01*
X153672792Y-109220000D02*
X160392792Y-102500000D01*
X96284705Y-76652063D02*
X98064700Y-79602060D01*
X113540705Y-74471058D02*
X113540703Y-81703059D01*
X98064700Y-79602060D02*
X98064700Y-81147063D01*
X160392792Y-102500000D02*
X163569188Y-102500000D01*
X91004708Y-106244708D02*
X93980000Y-109220000D01*
X188860000Y-73287208D02*
X188769699Y-73196907D01*
X98064700Y-81147063D02*
X91004708Y-88207055D01*
X117064701Y-69402057D02*
X117064705Y-70947058D01*
X192984703Y-73084485D02*
X192984703Y-61192056D01*
X177214707Y-79952059D02*
X177214707Y-79669000D01*
X192459705Y-57477057D02*
X192984704Y-58002055D01*
X182166546Y-76277058D02*
X182969861Y-75473743D01*
X113540703Y-81703059D02*
X111324705Y-83919057D01*
X188769699Y-73196907D02*
X188769699Y-58165355D01*
X93980000Y-109220000D02*
X153672792Y-109220000D01*
X115284703Y-66452059D02*
X117064701Y-69402057D01*
X180606649Y-76277058D02*
X182166546Y-76277058D01*
X189458004Y-57477059D02*
X192459705Y-57477057D01*
X117290000Y-102050000D02*
X163382792Y-102050000D01*
X182969861Y-75473743D02*
X183844703Y-71202059D01*
X111324705Y-83919057D02*
X111324705Y-96084705D01*
X192984704Y-58002055D02*
X192984704Y-58652058D01*
X177214707Y-79669000D02*
X180606649Y-76277058D01*
X117064705Y-70947058D02*
X113540705Y-74471058D01*
X163382792Y-102050000D02*
X188860000Y-76572792D01*
X188769699Y-58165355D02*
X189458004Y-57477059D01*
X111324705Y-96084705D02*
X117290000Y-102050000D01*
X172289704Y-35002060D02*
X174271764Y-33020000D01*
X174271764Y-33020000D02*
X182907644Y-33020000D01*
X182907644Y-33020000D02*
X188769704Y-38882060D01*
X192459704Y-49857055D02*
X192984704Y-50382055D01*
X188769704Y-38882060D02*
X188769704Y-48978756D01*
X188769704Y-48978756D02*
X189648003Y-49857055D01*
X189648003Y-49857055D02*
X192459704Y-49857055D01*
X192984704Y-50382055D02*
X192984704Y-51032055D01*
X187335090Y-136993510D02*
X187335093Y-136993519D01*
X187335093Y-136993519D02*
X188862444Y-138520870D01*
X192723240Y-142381670D02*
X192723241Y-142381665D01*
X192723241Y-142381665D02*
X191195896Y-140854315D01*
X192723240Y-142381670D02*
X196258778Y-142381668D01*
X196258778Y-142381668D02*
X196746688Y-142869579D01*
X178614992Y-129634513D02*
X179180209Y-130030278D01*
X179180209Y-130030278D02*
X182662030Y-129416342D01*
X176845627Y-128395585D02*
X178614991Y-129634510D01*
X178614991Y-129634510D02*
X178614992Y-129634513D01*
X172373058Y-125263856D02*
X174142421Y-126502783D01*
X174142421Y-126502783D02*
X174142424Y-126502786D01*
X162507565Y-119530886D02*
X165829872Y-118321667D01*
X165829872Y-118321667D02*
X166455225Y-118613274D01*
X157559118Y-117223392D02*
X155601495Y-116310535D01*
X162507565Y-119530886D02*
X160549933Y-118618031D01*
X172289700Y-52002058D02*
X170540705Y-50253058D01*
X170540705Y-50253058D02*
X170540705Y-44526055D01*
X170540705Y-44526055D02*
X173475204Y-41591556D01*
X173475204Y-41591556D02*
X173475202Y-38541554D01*
X173475202Y-38541554D02*
X174064705Y-37952062D01*
X172289702Y-69002056D02*
X170540706Y-67253059D01*
X170540706Y-67253059D02*
X170540704Y-59766055D01*
X170540704Y-59766055D02*
X174064705Y-56242060D01*
X174064705Y-56242060D02*
X174064702Y-54952056D01*
X171754704Y-79952053D02*
X173914703Y-79952057D01*
X171754706Y-62952060D02*
X173914703Y-62952061D01*
X171754703Y-45952058D02*
X173914704Y-45952059D01*
X177214703Y-45952052D02*
X179374706Y-45952051D01*
X182564701Y-43452061D02*
X180064703Y-45952057D01*
X180064703Y-45952057D02*
X179374706Y-45952051D01*
X152754705Y-43402060D02*
X154914706Y-43402057D01*
X158214697Y-43402054D02*
X160374707Y-43402059D01*
X163564702Y-40902056D02*
X162874705Y-40902059D01*
X162874705Y-40902059D02*
X160374707Y-43402059D01*
X153289701Y-49452060D02*
X151540700Y-47703055D01*
X151540700Y-47703055D02*
X151540701Y-39659739D01*
X151540701Y-39659739D02*
X155064703Y-36135743D01*
X155064703Y-36135743D02*
X155064701Y-35402059D01*
X152754703Y-60402060D02*
X154914702Y-60402061D01*
X158214704Y-60402059D02*
X160374706Y-60402061D01*
X163564703Y-57902060D02*
X161064707Y-60402055D01*
X161064707Y-60402055D02*
X160374706Y-60402061D01*
X153289706Y-83452058D02*
X151540703Y-81703056D01*
X151540703Y-81703056D02*
X151540704Y-73659743D01*
X155064705Y-70135745D02*
X155064701Y-69402063D01*
X151540704Y-73659743D02*
X155064705Y-70135745D01*
X160374702Y-77402057D02*
X162874703Y-74902054D01*
X162874703Y-74902054D02*
X163564702Y-74902061D01*
X158214704Y-77402060D02*
X160374702Y-77402057D01*
X152754701Y-77402057D02*
X154914703Y-77402058D01*
X154914704Y-94402061D02*
X152754701Y-94402058D01*
X160374704Y-94402061D02*
X158214706Y-94402057D01*
X160374704Y-94402061D02*
X162874703Y-91902056D01*
X162874703Y-91902056D02*
X163564702Y-91902059D01*
X141374702Y-90152059D02*
X143874702Y-87652058D01*
X143874702Y-87652058D02*
X144564701Y-87652058D01*
X139214707Y-90152059D02*
X141374702Y-90152059D01*
X133754702Y-90152059D02*
X135914705Y-90152058D01*
X134289705Y-79202058D02*
X132540705Y-77453060D01*
X132540705Y-77453060D02*
X132540703Y-70036063D01*
X132540703Y-70036063D02*
X136064703Y-66512056D01*
X136064703Y-66512056D02*
X136064705Y-65152055D01*
X139214705Y-73152058D02*
X141374704Y-73152056D01*
X133754706Y-73152056D02*
X135914705Y-73152060D01*
X144564702Y-70652055D02*
X143874706Y-70652059D01*
X143874706Y-70652059D02*
X141374704Y-73152056D01*
X139214704Y-56152060D02*
X141374704Y-56152057D01*
X133754705Y-56152052D02*
X135914705Y-56152058D01*
X144564700Y-53652054D02*
X142064702Y-56152059D01*
X142064702Y-56152059D02*
X141374704Y-56152057D01*
X134289702Y-45202062D02*
X132540700Y-43453057D01*
X132540700Y-43453057D02*
X132540701Y-36221056D01*
X132540701Y-36221056D02*
X136064708Y-32697057D01*
X136064708Y-32697057D02*
X136064705Y-31152056D01*
X139214706Y-39152059D02*
X141374704Y-39152057D01*
X133754706Y-39152058D02*
X135914700Y-39152059D01*
X144564706Y-36652057D02*
X143874704Y-36652057D01*
X143874704Y-36652057D02*
X141374704Y-39152057D01*
X114754703Y-94402059D02*
X116914700Y-94402058D01*
X120214699Y-94402053D02*
X122374707Y-94402052D01*
X122374707Y-94402052D02*
X124874700Y-91902056D01*
X124874700Y-91902056D02*
X125564704Y-91902058D01*
X120214703Y-77402060D02*
X122374701Y-77402058D01*
X114754701Y-77402060D02*
X116914697Y-77402059D01*
X125564706Y-74902061D02*
X123064703Y-77402057D01*
X123064703Y-77402057D02*
X122374701Y-77402058D01*
X115289702Y-66452058D02*
X113540702Y-64703055D01*
X113540702Y-64703055D02*
X113540703Y-56659746D01*
X113540703Y-56659746D02*
X117064705Y-53135739D01*
X117064705Y-53135739D02*
X117064703Y-52402060D01*
X114754699Y-60402064D02*
X116914710Y-60402059D01*
X120214704Y-60402060D02*
X122374704Y-60402055D01*
X122374704Y-60402055D02*
X124874703Y-57902058D01*
X124874703Y-57902058D02*
X125564699Y-57902059D01*
X115289704Y-49452059D02*
X113540704Y-47703060D01*
X113540704Y-47703060D02*
X113540703Y-39659742D01*
X113540703Y-39659742D02*
X117064703Y-36135738D01*
X117064703Y-36135738D02*
X117064702Y-35402055D01*
X114754703Y-43402056D02*
X116914709Y-43402058D01*
X120214702Y-43402059D02*
X122374704Y-43402055D01*
X122374704Y-43402055D02*
X124874703Y-40902052D01*
X124874703Y-40902052D02*
X125564700Y-40902060D01*
X101214701Y-53602056D02*
X103374704Y-53602058D01*
X95754703Y-53602055D02*
X97914706Y-53602056D01*
X101214709Y-70602057D02*
X103374704Y-70602058D01*
X95754698Y-70602056D02*
X97914706Y-70602061D01*
X97914706Y-87602058D02*
X95754701Y-87602059D01*
X103374704Y-87602059D02*
X101214704Y-87602060D01*
X101214700Y-104602059D02*
X103374701Y-104602055D01*
X97914705Y-104602057D02*
X95754698Y-104602057D01*
X103374701Y-104602055D02*
X105874704Y-102102057D01*
X105874704Y-102102057D02*
X106564706Y-102102056D01*
X103374704Y-87602059D02*
X105874700Y-85102055D01*
X105874700Y-85102055D02*
X106564706Y-85102061D01*
X103374704Y-70602058D02*
X105874705Y-68102061D01*
X105874705Y-68102061D02*
X106564704Y-68102059D01*
X103374704Y-53602058D02*
X105874704Y-51102057D01*
X105874704Y-51102057D02*
X106564701Y-51102059D01*
X96289706Y-59652054D02*
X94540703Y-57903058D01*
X94540703Y-57903058D02*
X94540700Y-49859739D01*
X98064703Y-46335744D02*
X98064701Y-45602059D01*
X94540700Y-49859739D02*
X98064703Y-46335744D01*
X96289703Y-76652054D02*
X94540704Y-74903055D01*
X94540704Y-74903055D02*
X94540706Y-67186058D01*
X94540706Y-67186058D02*
X98064707Y-63662057D01*
X98064707Y-63662057D02*
X98064702Y-62602059D01*
X179091964Y-116601004D02*
X184271703Y-116601006D01*
X184271703Y-116601006D02*
X195456214Y-127785521D01*
X195456214Y-127785521D02*
X195456214Y-129628999D01*
X160714041Y-106612562D02*
X161696034Y-105630566D01*
X161696034Y-105630566D02*
X168121526Y-105630567D01*
X168121526Y-105630567D02*
X179091964Y-116601004D01*
X195456214Y-129628999D02*
X207844706Y-117240511D01*
X207844706Y-117240511D02*
X207844703Y-53003757D01*
X207844703Y-53003757D02*
X206359704Y-51518762D01*
X205671403Y-49857058D02*
X201764019Y-49857058D01*
X206359704Y-51518762D02*
X206359701Y-50545357D01*
X206359701Y-50545357D02*
X205671403Y-49857058D01*
X201764019Y-49857058D02*
X200964702Y-49057743D01*
X200964702Y-49057743D02*
X200964700Y-48492061D01*
X96284706Y-93652058D02*
X98064702Y-96602059D01*
X107844705Y-95852060D02*
X106564706Y-102102056D01*
X107844700Y-78852061D02*
X106564706Y-85102061D01*
X96284701Y-59652059D02*
X98064702Y-62602059D01*
X107844703Y-61852059D02*
X106564704Y-68102059D01*
X96284703Y-42652056D02*
X98064701Y-45602059D01*
X107844705Y-44852059D02*
X106564701Y-51102059D01*
X115284703Y-83452057D02*
X117064706Y-86402057D01*
X126844704Y-85652059D02*
X125564704Y-91902058D01*
X126844703Y-68652058D02*
X125564706Y-74902061D01*
X115284704Y-49452063D02*
X117064703Y-52402060D01*
X126844706Y-51652052D02*
X125564699Y-57902059D01*
X115284707Y-32452057D02*
X117064702Y-35402055D01*
X126844705Y-34652056D02*
X125564700Y-40902060D01*
X134284704Y-79202060D02*
X136064700Y-82152057D01*
X145844706Y-81402059D02*
X144564701Y-87652058D01*
X134284703Y-62202055D02*
X136064705Y-65152055D01*
X145844706Y-64402057D02*
X144564702Y-70652055D01*
X134284703Y-45202061D02*
X136064705Y-48152056D01*
X145844700Y-47402055D02*
X144564700Y-53652054D01*
X134284702Y-28202060D02*
X136064705Y-31152056D01*
X145844702Y-30402059D02*
X144564706Y-36652057D01*
X153284704Y-83452059D02*
X155064705Y-86402062D01*
X164844706Y-85652058D02*
X163564702Y-91902059D01*
X153284700Y-66452061D02*
X155064701Y-69402063D01*
X164844701Y-68652054D02*
X163564702Y-74902061D01*
X153284703Y-49452058D02*
X155064703Y-52402061D01*
X164844705Y-51652060D02*
X163564703Y-57902060D01*
X153284703Y-32452062D02*
X155064701Y-35402059D01*
X164844697Y-34652064D02*
X163564702Y-40902056D01*
X172284703Y-69002059D02*
X174064702Y-71952059D01*
X172284699Y-52002054D02*
X174064702Y-54952056D01*
X183844703Y-54202058D02*
X182564703Y-60452057D01*
X172284703Y-35002059D02*
X174064705Y-37952062D01*
X183844708Y-37202060D02*
X182564701Y-43452061D01*
X195454700Y-129632061D02*
X194624705Y-132972054D01*
X202064703Y-139352061D02*
X196744701Y-142872058D01*
X179094703Y-116602061D02*
X178854706Y-120032056D01*
X187294704Y-125032060D02*
X182664702Y-129412055D01*
X160714703Y-106612056D02*
X161074705Y-110032060D01*
X170254704Y-113492058D02*
X166454704Y-118612060D01*
X189944705Y-33252053D02*
X192064702Y-33252055D01*
X205184704Y-33252062D02*
X203064702Y-33252060D01*
X194959705Y-33482054D02*
X200734705Y-33482055D01*
X192789702Y-33252059D02*
X193139704Y-33252060D01*
X193864698Y-33977058D02*
X194464700Y-33977058D01*
X193139704Y-33252060D02*
X193864698Y-33977058D01*
X194464700Y-33977058D02*
X194959705Y-33482054D01*
X202339703Y-33252057D02*
X201989703Y-33252057D01*
X200159705Y-33032054D02*
X194384707Y-33032060D01*
X201989703Y-33252057D02*
X201264702Y-32527058D01*
X201264702Y-32527058D02*
X200664703Y-32527065D01*
X200664703Y-32527065D02*
X200159705Y-33032054D01*
X189944706Y-35792057D02*
X192064706Y-35792060D01*
X205184703Y-35792056D02*
X203064704Y-35792059D01*
X194959706Y-36022059D02*
X200734702Y-36022058D01*
X192789704Y-35792057D02*
X193139704Y-35792054D01*
X193864706Y-36517057D02*
X194464704Y-36517058D01*
X193139704Y-35792054D02*
X193864706Y-36517057D01*
X194464704Y-36517058D02*
X194959706Y-36022059D01*
X202339703Y-35792055D02*
X201989704Y-35792056D01*
X200159701Y-35572060D02*
X194384703Y-35572059D01*
X201989704Y-35792056D02*
X201264703Y-35067056D01*
X201264703Y-35067056D02*
X200664706Y-35067055D01*
X200664706Y-35067055D02*
X200159701Y-35572060D01*
X189944700Y-38332057D02*
X192064703Y-38332054D01*
X205184698Y-38332058D02*
X203064698Y-38332055D01*
X194959706Y-38562062D02*
X200734704Y-38562061D01*
X192789706Y-38332056D02*
X193139706Y-38332056D01*
X193864703Y-39057056D02*
X194464704Y-39057058D01*
X193139706Y-38332056D02*
X193864703Y-39057056D01*
X194464704Y-39057058D02*
X194959706Y-38562062D01*
X202339704Y-38332061D02*
X201989700Y-38332060D01*
X200159703Y-38112061D02*
X194384703Y-38112059D01*
X201989700Y-38332060D02*
X201264703Y-37607056D01*
X201264703Y-37607056D02*
X200664705Y-37607056D01*
X200664705Y-37607056D02*
X200159703Y-38112061D01*
X189944703Y-40872056D02*
X192064705Y-40872054D01*
X205184703Y-40872055D02*
X203064700Y-40872056D01*
X194959707Y-41102060D02*
X200734705Y-41102060D01*
X192789708Y-40872059D02*
X193139704Y-40872058D01*
X193864703Y-41597061D02*
X194464703Y-41597056D01*
X193139704Y-40872058D02*
X193864703Y-41597061D01*
X194464703Y-41597056D02*
X194959707Y-41102060D01*
X202339702Y-40872054D02*
X201989708Y-40872059D01*
X200159702Y-40652056D02*
X194384705Y-40652057D01*
X201989708Y-40872059D02*
X201264706Y-40147058D01*
X201264706Y-40147058D02*
X200664705Y-40147055D01*
X200664705Y-40147055D02*
X200159702Y-40652056D01*
X189944704Y-43412059D02*
X192064707Y-43412059D01*
X205184703Y-43412057D02*
X203064701Y-43412061D01*
X194959701Y-43642061D02*
X200734706Y-43642055D01*
X192789702Y-43412058D02*
X193139703Y-43412058D01*
X193864705Y-44137058D02*
X194464708Y-44137059D01*
X193139703Y-43412058D02*
X193864705Y-44137058D01*
X194464708Y-44137059D02*
X194959701Y-43642061D01*
X202339702Y-43412061D02*
X201989706Y-43412058D01*
X200159700Y-43192053D02*
X194384700Y-43192059D01*
X201989706Y-43412058D02*
X201264704Y-42687057D01*
X201264704Y-42687057D02*
X200664707Y-42687054D01*
X200664707Y-42687054D02*
X200159700Y-43192053D01*
X189944707Y-45952057D02*
X192064705Y-45952057D01*
X205184704Y-45952058D02*
X203064706Y-45952057D01*
X194959706Y-46182058D02*
X200734702Y-46182052D01*
X192789700Y-45952057D02*
X193139705Y-45952060D01*
X193864702Y-46677054D02*
X194464703Y-46677057D01*
X193139705Y-45952060D02*
X193864702Y-46677054D01*
X194464703Y-46677057D02*
X194959706Y-46182058D01*
X202339703Y-45952059D02*
X201989702Y-45952058D01*
X200159700Y-45732053D02*
X194384704Y-45732061D01*
X201989702Y-45952058D02*
X201264703Y-45227053D01*
X201264703Y-45227053D02*
X200664701Y-45227059D01*
X200664701Y-45227059D02*
X200159700Y-45732053D01*
X189944703Y-48492058D02*
X192064704Y-48492065D01*
X205184704Y-48492060D02*
X203064702Y-48492058D01*
X194959701Y-48722056D02*
X200734701Y-48722059D01*
X192789703Y-48492056D02*
X193139705Y-48492059D01*
X193864704Y-49217058D02*
X194464703Y-49217055D01*
X193139705Y-48492059D02*
X193864704Y-49217058D01*
X194464703Y-49217055D02*
X194959701Y-48722056D01*
X202339701Y-48492057D02*
X201989703Y-48492060D01*
X200159703Y-48272059D02*
X194384704Y-48272057D01*
X201989703Y-48492060D02*
X201264703Y-47767054D01*
X201264703Y-47767054D02*
X200664700Y-47767058D01*
X200664700Y-47767058D02*
X200159703Y-48272059D01*
X189944701Y-51032058D02*
X192064702Y-51032059D01*
X205184705Y-51032058D02*
X203064703Y-51032060D01*
X194959708Y-51262058D02*
X200734698Y-51262057D01*
X192789705Y-51032060D02*
X193139703Y-51032064D01*
X193864702Y-51757056D02*
X194464704Y-51757059D01*
X193139703Y-51032064D02*
X193864702Y-51757056D01*
X194464704Y-51757059D02*
X194959708Y-51262058D01*
X202339702Y-51032061D02*
X201989699Y-51032057D01*
X200159705Y-50812057D02*
X194384705Y-50812057D01*
X201989699Y-51032057D02*
X201264702Y-50307058D01*
X201264702Y-50307058D02*
X200664703Y-50307058D01*
X200664703Y-50307058D02*
X200159705Y-50812057D01*
X189944704Y-53572058D02*
X192064700Y-53572057D01*
X205184699Y-53572056D02*
X203064705Y-53572054D01*
X194959699Y-53802058D02*
X200734702Y-53802054D01*
X192789704Y-53572061D02*
X193139704Y-53572055D01*
X193864704Y-54297059D02*
X194464704Y-54297057D01*
X193139704Y-53572055D02*
X193864704Y-54297059D01*
X194464704Y-54297057D02*
X194959699Y-53802058D01*
X202339703Y-53572061D02*
X201989700Y-53572058D01*
X200159704Y-53352059D02*
X194384704Y-53352056D01*
X201989700Y-53572058D02*
X201264700Y-52847057D01*
X201264700Y-52847057D02*
X200664706Y-52847061D01*
X200664706Y-52847061D02*
X200159704Y-53352059D01*
X189944704Y-56112058D02*
X192064702Y-56112058D01*
X205184703Y-56112059D02*
X203064703Y-56112056D01*
X194959705Y-56342058D02*
X200734698Y-56342059D01*
X192789704Y-56112056D02*
X193139698Y-56112056D01*
X193864704Y-56837060D02*
X194464706Y-56837059D01*
X193139698Y-56112056D02*
X193864704Y-56837060D01*
X194464706Y-56837059D02*
X194959705Y-56342058D01*
X202339705Y-56112060D02*
X201989704Y-56112056D01*
X200159705Y-55892059D02*
X194384700Y-55892058D01*
X201989704Y-56112056D02*
X201264702Y-55387056D01*
X201264702Y-55387056D02*
X200664701Y-55387054D01*
X200664701Y-55387054D02*
X200159705Y-55892059D01*
X189944700Y-58652064D02*
X192064705Y-58652060D01*
X205184700Y-58652059D02*
X203064702Y-58652055D01*
X194959703Y-58882060D02*
X200734697Y-58882059D01*
X192789702Y-58652058D02*
X193139701Y-58652053D01*
X193864700Y-59377059D02*
X194464701Y-59377059D01*
X193139701Y-58652053D02*
X193864700Y-59377059D01*
X194464701Y-59377059D02*
X194959703Y-58882060D01*
X202339706Y-58652060D02*
X201989702Y-58652057D01*
X200159702Y-58432060D02*
X194384703Y-58432058D01*
X201989702Y-58652057D02*
X201264701Y-57927056D01*
X201264701Y-57927056D02*
X200664704Y-57927057D01*
X200664704Y-57927057D02*
X200159702Y-58432060D01*
X189944706Y-61192056D02*
X192064707Y-61192055D01*
X205184705Y-61192059D02*
X203064701Y-61192059D01*
X194959705Y-61422056D02*
X200734699Y-61422060D01*
X192789702Y-61192059D02*
X193139701Y-61192055D01*
X193864702Y-61917063D02*
X194464702Y-61917058D01*
X193139701Y-61192055D02*
X193864702Y-61917063D01*
X194464702Y-61917058D02*
X194959705Y-61422056D01*
X202339700Y-61192060D02*
X201989706Y-61192057D01*
X200159703Y-60972058D02*
X194384701Y-60972059D01*
X201989706Y-61192057D02*
X201264702Y-60467058D01*
X201264702Y-60467058D02*
X200664698Y-60467058D01*
X200664698Y-60467058D02*
X200159703Y-60972058D01*
M02*
