G04 #@! TF.GenerationSoftware,KiCad,Pcbnew,8.0.1*
G04 #@! TF.CreationDate,2024-03-30T10:30:43-04:00*
G04 #@! TF.ProjectId,kipra-kicad,6b697072-612d-46b6-9963-61642e6b6963,v1.0.0*
G04 #@! TF.SameCoordinates,Original*
G04 #@! TF.FileFunction,Legend,Top*
G04 #@! TF.FilePolarity,Positive*
%FSLAX46Y46*%
G04 Gerber Fmt 4.6, Leading zero omitted, Abs format (unit mm)*
G04 Created by KiCad (PCBNEW 8.0.1) date 2024-03-30 10:30:43*
%MOMM*%
%LPD*%
G01*
G04 APERTURE LIST*
%ADD10C,0.150000*%
%ADD11C,0.100000*%
%ADD12C,0.120000*%
G04 APERTURE END LIST*
D10*
G36*
X111599719Y-113747020D02*
G01*
X112027632Y-113747020D01*
X112027632Y-112140879D01*
X111599719Y-112140879D01*
X111599719Y-111927899D01*
X112733006Y-111927899D01*
X112733006Y-112140879D01*
X112305092Y-112140879D01*
X112305092Y-113747020D01*
X112733006Y-113747020D01*
X112733006Y-113960000D01*
X111599719Y-113960000D01*
X111599719Y-113747020D01*
G37*
G36*
X114112489Y-113960000D02*
G01*
X114012581Y-113956050D01*
X113910650Y-113941457D01*
X113813449Y-113911614D01*
X113728694Y-113861253D01*
X113713397Y-113847648D01*
X113651830Y-113761877D01*
X113615916Y-113658090D01*
X113600753Y-113559949D01*
X113596648Y-113463698D01*
X113596648Y-112641088D01*
X113188274Y-112641088D01*
X113188274Y-112428108D01*
X113596648Y-112428108D01*
X113596648Y-112029016D01*
X113848219Y-111919595D01*
X113848219Y-112428108D01*
X114419747Y-112428108D01*
X114419747Y-112641088D01*
X113848219Y-112641088D01*
X113848219Y-113452463D01*
X113855838Y-113553145D01*
X113887574Y-113648060D01*
X113912699Y-113681563D01*
X114000992Y-113730655D01*
X114098468Y-113745997D01*
X114136914Y-113747020D01*
X114419747Y-113747020D01*
X114419747Y-113960000D01*
X114112489Y-113960000D01*
G37*
G36*
X115415281Y-111927899D02*
G01*
X115653173Y-111927899D01*
X115653173Y-112678213D01*
X115415281Y-112678213D01*
X115415281Y-111927899D01*
G37*
G36*
X117183110Y-113991263D02*
G01*
X117083697Y-113986634D01*
X116976945Y-113972750D01*
X116879601Y-113953481D01*
X116776864Y-113927412D01*
X116668735Y-113894542D01*
X116668735Y-113635645D01*
X116774231Y-113684120D01*
X116875296Y-113722565D01*
X116971930Y-113750981D01*
X117079070Y-113771457D01*
X117180180Y-113778283D01*
X117282436Y-113770490D01*
X117376740Y-113744215D01*
X117435658Y-113712337D01*
X117504379Y-113640288D01*
X117531307Y-113541904D01*
X117531401Y-113535017D01*
X117506053Y-113438657D01*
X117451289Y-113380167D01*
X117363293Y-113333083D01*
X117268441Y-113301993D01*
X117196300Y-113284912D01*
X117091275Y-113263419D01*
X116990525Y-113238201D01*
X116894406Y-113201510D01*
X116808997Y-113150410D01*
X116774736Y-113120781D01*
X116713416Y-113035945D01*
X116682068Y-112940437D01*
X116674108Y-112849672D01*
X116683512Y-112747028D01*
X116716570Y-112646590D01*
X116773431Y-112562072D01*
X116824562Y-112514570D01*
X116907727Y-112463066D01*
X117006767Y-112426277D01*
X117106451Y-112406158D01*
X117218289Y-112397305D01*
X117252475Y-112396845D01*
X117354737Y-112401286D01*
X117455502Y-112414610D01*
X117554772Y-112436816D01*
X117652545Y-112467905D01*
X117707744Y-112489658D01*
X117707744Y-112736831D01*
X117612989Y-112687344D01*
X117516365Y-112650011D01*
X117417870Y-112624833D01*
X117317505Y-112611810D01*
X117259314Y-112609825D01*
X117146926Y-112617673D01*
X117045196Y-112646668D01*
X116960905Y-112715340D01*
X116928932Y-112819329D01*
X116928609Y-112833063D01*
X116947313Y-112931344D01*
X116956942Y-112948346D01*
X117037958Y-113008698D01*
X117066362Y-113020153D01*
X117166502Y-113049584D01*
X117266611Y-113072459D01*
X117304743Y-113080237D01*
X117405860Y-113099288D01*
X117515345Y-113128859D01*
X117606273Y-113171168D01*
X117690891Y-113238750D01*
X117748788Y-113324674D01*
X117779964Y-113428939D01*
X117785902Y-113508639D01*
X117775796Y-113614823D01*
X117745480Y-113709162D01*
X117687215Y-113801134D01*
X117624213Y-113862302D01*
X117536194Y-113918722D01*
X117433337Y-113959023D01*
X117331166Y-113981062D01*
X117217635Y-113990759D01*
X117183110Y-113991263D01*
G37*
G36*
X120055406Y-111834110D02*
G01*
X120314792Y-111834110D01*
X120314792Y-113067048D01*
X120975225Y-112428108D01*
X121281505Y-112428108D01*
X120678714Y-113008429D01*
X121375783Y-113960000D01*
X121068037Y-113960000D01*
X120502371Y-113172072D01*
X120314792Y-113347438D01*
X120314792Y-113960000D01*
X120055406Y-113960000D01*
X120055406Y-111834110D01*
G37*
G36*
X122145637Y-112146741D02*
G01*
X122104604Y-112106685D01*
X122104604Y-111874166D01*
X122145637Y-111834110D01*
X122342496Y-111834110D01*
X122383529Y-111874166D01*
X122383529Y-112106685D01*
X122342496Y-112146741D01*
X122145637Y-112146741D01*
G37*
G36*
X122604813Y-113960000D02*
G01*
X122498354Y-113951085D01*
X122393841Y-113919743D01*
X122305480Y-113865836D01*
X122255546Y-113817362D01*
X122195804Y-113727932D01*
X122159114Y-113632997D01*
X122137873Y-113523531D01*
X122131959Y-113415826D01*
X122131959Y-112641088D01*
X121796858Y-112641088D01*
X121796858Y-112428108D01*
X122383529Y-112428108D01*
X122383529Y-113408011D01*
X122390917Y-113512287D01*
X122418700Y-113611709D01*
X122446055Y-113660069D01*
X122523480Y-113725282D01*
X122622241Y-113746935D01*
X122629726Y-113747020D01*
X122923306Y-113747020D01*
X122923306Y-113960000D01*
X122604813Y-113960000D01*
G37*
G36*
X123381505Y-112428108D02*
G01*
X123608163Y-112428108D01*
X123633076Y-112662581D01*
X123690864Y-112572273D01*
X123760914Y-112500648D01*
X123843226Y-112447709D01*
X123937799Y-112413454D01*
X124044634Y-112397883D01*
X124082971Y-112396845D01*
X124192880Y-112406493D01*
X124288135Y-112435436D01*
X124386595Y-112498748D01*
X124462158Y-112592209D01*
X124506122Y-112688685D01*
X124535431Y-112804456D01*
X124547796Y-112903947D01*
X124551917Y-113014291D01*
X124551917Y-113960000D01*
X124298882Y-113960000D01*
X124298882Y-113010872D01*
X124293201Y-112903298D01*
X124273567Y-112804074D01*
X124231492Y-112713216D01*
X124227074Y-112707034D01*
X124149189Y-112640582D01*
X124049910Y-112612198D01*
X124004813Y-112609825D01*
X123900876Y-112622180D01*
X123805279Y-112664312D01*
X123729307Y-112736343D01*
X123678560Y-112825625D01*
X123648958Y-112923436D01*
X123635425Y-113024262D01*
X123633076Y-113093914D01*
X123633076Y-113960000D01*
X123381505Y-113960000D01*
X123381505Y-112428108D01*
G37*
G36*
X126223515Y-113960000D02*
G01*
X125996858Y-113960000D01*
X125971945Y-113759232D01*
X125905828Y-113849642D01*
X125825873Y-113917847D01*
X125732079Y-113963845D01*
X125624449Y-113987637D01*
X125556732Y-113991263D01*
X125457518Y-113984393D01*
X125360394Y-113960969D01*
X125275853Y-113920921D01*
X125197245Y-113861203D01*
X125131414Y-113788297D01*
X125094625Y-113732365D01*
X125049287Y-113640270D01*
X125014391Y-113541306D01*
X124996928Y-113471514D01*
X124979963Y-113372884D01*
X124970040Y-113273792D01*
X124967428Y-113192588D01*
X125232378Y-113192588D01*
X125236238Y-113293196D01*
X125246055Y-113387006D01*
X125265717Y-113485680D01*
X125297346Y-113577515D01*
X125347375Y-113662358D01*
X125408233Y-113722107D01*
X125499320Y-113765939D01*
X125601673Y-113778283D01*
X125702974Y-113766154D01*
X125793648Y-113723084D01*
X125865106Y-113650080D01*
X125905511Y-113578981D01*
X125938240Y-113486779D01*
X125958267Y-113387983D01*
X125968526Y-113288087D01*
X125971945Y-113192588D01*
X125968085Y-113092394D01*
X125958267Y-112999637D01*
X125938240Y-112901329D01*
X125905511Y-112809616D01*
X125854720Y-112724667D01*
X125793648Y-112665512D01*
X125702974Y-112622061D01*
X125601673Y-112609825D01*
X125499320Y-112622061D01*
X125408233Y-112665512D01*
X125337083Y-112738276D01*
X125297346Y-112809616D01*
X125264137Y-112907280D01*
X125246055Y-112999637D01*
X125235797Y-113098433D01*
X125232378Y-113192588D01*
X124967428Y-113192588D01*
X124967130Y-113183307D01*
X124971054Y-113073443D01*
X124982824Y-112970997D01*
X125007308Y-112857854D01*
X125043091Y-112755392D01*
X125090175Y-112663612D01*
X125127842Y-112608360D01*
X125203553Y-112525943D01*
X125290063Y-112463770D01*
X125387372Y-112421839D01*
X125495481Y-112400150D01*
X125562106Y-112396845D01*
X125666340Y-112406600D01*
X125761545Y-112435865D01*
X125802441Y-112455952D01*
X125882024Y-112514221D01*
X125946935Y-112593774D01*
X125971945Y-112637669D01*
X125971945Y-111834110D01*
X126223515Y-111834110D01*
X126223515Y-113960000D01*
G37*
G36*
X127399667Y-112402135D02*
G01*
X127498951Y-112418003D01*
X127563920Y-112434459D01*
X127656061Y-112469103D01*
X127744717Y-112521983D01*
X127787646Y-112557069D01*
X127853928Y-112635722D01*
X127896792Y-112725355D01*
X127913676Y-112785191D01*
X127927592Y-112884117D01*
X127933469Y-112983036D01*
X127935169Y-113089030D01*
X127935169Y-113401172D01*
X127937161Y-113501006D01*
X127942487Y-113599280D01*
X127949335Y-113684494D01*
X127963797Y-113787133D01*
X127989580Y-113889623D01*
X128015769Y-113960000D01*
X127763222Y-113960000D01*
X127731570Y-113865464D01*
X127726097Y-113842274D01*
X127708006Y-113745901D01*
X127704115Y-113719665D01*
X127641314Y-113806000D01*
X127563737Y-113875596D01*
X127480389Y-113924340D01*
X127380478Y-113962441D01*
X127276874Y-113984727D01*
X127179482Y-113991263D01*
X127073450Y-113983325D01*
X126977126Y-113959511D01*
X126880368Y-113913744D01*
X126813606Y-113864256D01*
X126743947Y-113784044D01*
X126697085Y-113686289D01*
X126674569Y-113584669D01*
X126669619Y-113501311D01*
X126921073Y-113501311D01*
X126935665Y-113602817D01*
X126988766Y-113691088D01*
X127009489Y-113709406D01*
X127097565Y-113756490D01*
X127197768Y-113776601D01*
X127241031Y-113778283D01*
X127341293Y-113769625D01*
X127435002Y-113740430D01*
X127494555Y-113705010D01*
X127569942Y-113631867D01*
X127621861Y-113548544D01*
X127637193Y-113512547D01*
X127666606Y-113413199D01*
X127680448Y-113316341D01*
X127682622Y-113257557D01*
X127682622Y-113203824D01*
X127363641Y-113203824D01*
X127264773Y-113208868D01*
X127167836Y-113224002D01*
X127155057Y-113226782D01*
X127062245Y-113260122D01*
X126987018Y-113314221D01*
X126935563Y-113398894D01*
X126921073Y-113501311D01*
X126669619Y-113501311D01*
X126669503Y-113499357D01*
X126677037Y-113395227D01*
X126703084Y-113295660D01*
X126753223Y-113205751D01*
X126764757Y-113191612D01*
X126837507Y-113123170D01*
X126924111Y-113070312D01*
X127014862Y-113035785D01*
X127113599Y-113012085D01*
X127216248Y-112997164D01*
X127322808Y-112991019D01*
X127344590Y-112990844D01*
X127682622Y-112990844D01*
X127682622Y-112951765D01*
X127674778Y-112853250D01*
X127643887Y-112757821D01*
X127583459Y-112685052D01*
X127489668Y-112636345D01*
X127389653Y-112614527D01*
X127305023Y-112609825D01*
X127201296Y-112615252D01*
X127098943Y-112631532D01*
X127031471Y-112648415D01*
X126933560Y-112681617D01*
X126840595Y-112723337D01*
X126781366Y-112755882D01*
X126781366Y-112503824D01*
X126876231Y-112471286D01*
X126971784Y-112443282D01*
X127035867Y-112427131D01*
X127132976Y-112408676D01*
X127231597Y-112398738D01*
X127298184Y-112396845D01*
X127399667Y-112402135D01*
G37*
G36*
X130875212Y-112404333D02*
G01*
X130980305Y-112431995D01*
X131074178Y-112480040D01*
X131156831Y-112548469D01*
X131209000Y-112609825D01*
X131262621Y-112695154D01*
X131305148Y-112791404D01*
X131336581Y-112898577D01*
X131354300Y-112996232D01*
X131364316Y-113101471D01*
X131366781Y-113191123D01*
X131362893Y-113303451D01*
X131351230Y-113408098D01*
X131331790Y-113505066D01*
X131298199Y-113611288D01*
X131253411Y-113706452D01*
X131207535Y-113777306D01*
X131132465Y-113860674D01*
X131046596Y-113923565D01*
X130949928Y-113965981D01*
X130842460Y-113987920D01*
X130776202Y-113991263D01*
X130674227Y-113983105D01*
X130569755Y-113952968D01*
X130480897Y-113900626D01*
X130407654Y-113826077D01*
X130364897Y-113759232D01*
X130364897Y-114553998D01*
X130111861Y-114553998D01*
X130111861Y-113192588D01*
X130364897Y-113192588D01*
X130368332Y-113293568D01*
X130381021Y-113399916D01*
X130406972Y-113506345D01*
X130445134Y-113596654D01*
X130462594Y-113626364D01*
X130532003Y-113706477D01*
X130618108Y-113756919D01*
X130720909Y-113777689D01*
X130743473Y-113778283D01*
X130847048Y-113764019D01*
X130948164Y-113709248D01*
X131013117Y-113632226D01*
X131060516Y-113526676D01*
X131085795Y-113421698D01*
X131099839Y-113298462D01*
X131102999Y-113194054D01*
X131099839Y-113089646D01*
X131085795Y-112966410D01*
X131060516Y-112861431D01*
X131013117Y-112755882D01*
X130948164Y-112678860D01*
X130847048Y-112624088D01*
X130743473Y-112609825D01*
X130636608Y-112624613D01*
X130546820Y-112668978D01*
X130474110Y-112742918D01*
X130461617Y-112761256D01*
X130414863Y-112856598D01*
X130386149Y-112958409D01*
X130370942Y-113060667D01*
X130364991Y-113175220D01*
X130364897Y-113192588D01*
X130111861Y-113192588D01*
X130111861Y-112428108D01*
X130339984Y-112428108D01*
X130364897Y-112637669D01*
X130419245Y-112555826D01*
X130495934Y-112481745D01*
X130586929Y-112430711D01*
X130692229Y-112402725D01*
X130776202Y-112396845D01*
X130875212Y-112404333D01*
G37*
G36*
X131949056Y-112428108D02*
G01*
X132177667Y-112428108D01*
X132202092Y-112731458D01*
X132248689Y-112637749D01*
X132307879Y-112558732D01*
X132387535Y-112488785D01*
X132395532Y-112483307D01*
X132490531Y-112434081D01*
X132587312Y-112407062D01*
X132694016Y-112396930D01*
X132705232Y-112396845D01*
X132807430Y-112403762D01*
X132911920Y-112427671D01*
X133006870Y-112468658D01*
X133033494Y-112484284D01*
X133033494Y-112748066D01*
X132956100Y-112687586D01*
X132860930Y-112640200D01*
X132757181Y-112614685D01*
X132683250Y-112609825D01*
X132573738Y-112619198D01*
X132477720Y-112647316D01*
X132385829Y-112701356D01*
X132326167Y-112759790D01*
X132271884Y-112842924D01*
X132233110Y-112942362D01*
X132211906Y-113042743D01*
X132202576Y-113155607D01*
X132202092Y-113190146D01*
X132202092Y-113960000D01*
X131949056Y-113960000D01*
X131949056Y-112428108D01*
G37*
G36*
X134136861Y-112402135D02*
G01*
X134236146Y-112418003D01*
X134301115Y-112434459D01*
X134393255Y-112469103D01*
X134481912Y-112521983D01*
X134524841Y-112557069D01*
X134591122Y-112635722D01*
X134633987Y-112725355D01*
X134650870Y-112785191D01*
X134664786Y-112884117D01*
X134670664Y-112983036D01*
X134672364Y-113089030D01*
X134672364Y-113401172D01*
X134674356Y-113501006D01*
X134679682Y-113599280D01*
X134686530Y-113684494D01*
X134700992Y-113787133D01*
X134726775Y-113889623D01*
X134752964Y-113960000D01*
X134500417Y-113960000D01*
X134468764Y-113865464D01*
X134463292Y-113842274D01*
X134445200Y-113745901D01*
X134441310Y-113719665D01*
X134378509Y-113806000D01*
X134300931Y-113875596D01*
X134217584Y-113924340D01*
X134117673Y-113962441D01*
X134014068Y-113984727D01*
X133916676Y-113991263D01*
X133810644Y-113983325D01*
X133714321Y-113959511D01*
X133617562Y-113913744D01*
X133550801Y-113864256D01*
X133481141Y-113784044D01*
X133434280Y-113686289D01*
X133411763Y-113584669D01*
X133406813Y-113501311D01*
X133658267Y-113501311D01*
X133672860Y-113602817D01*
X133725961Y-113691088D01*
X133746683Y-113709406D01*
X133834760Y-113756490D01*
X133934963Y-113776601D01*
X133978226Y-113778283D01*
X134078488Y-113769625D01*
X134172197Y-113740430D01*
X134231750Y-113705010D01*
X134307137Y-113631867D01*
X134359056Y-113548544D01*
X134374387Y-113512547D01*
X134403801Y-113413199D01*
X134417643Y-113316341D01*
X134419817Y-113257557D01*
X134419817Y-113203824D01*
X134100835Y-113203824D01*
X134001967Y-113208868D01*
X133905031Y-113224002D01*
X133892252Y-113226782D01*
X133799440Y-113260122D01*
X133724213Y-113314221D01*
X133672757Y-113398894D01*
X133658267Y-113501311D01*
X133406813Y-113501311D01*
X133406697Y-113499357D01*
X133414232Y-113395227D01*
X133440278Y-113295660D01*
X133490417Y-113205751D01*
X133501952Y-113191612D01*
X133574702Y-113123170D01*
X133661305Y-113070312D01*
X133752057Y-113035785D01*
X133850794Y-113012085D01*
X133953443Y-112997164D01*
X134060003Y-112991019D01*
X134081785Y-112990844D01*
X134419817Y-112990844D01*
X134419817Y-112951765D01*
X134411973Y-112853250D01*
X134381081Y-112757821D01*
X134320654Y-112685052D01*
X134226863Y-112636345D01*
X134126847Y-112614527D01*
X134042217Y-112609825D01*
X133938490Y-112615252D01*
X133836137Y-112631532D01*
X133768665Y-112648415D01*
X133670754Y-112681617D01*
X133577789Y-112723337D01*
X133518561Y-112755882D01*
X133518561Y-112503824D01*
X133613426Y-112471286D01*
X133708978Y-112443282D01*
X133773062Y-112427131D01*
X133870171Y-112408676D01*
X133968792Y-112398738D01*
X134035378Y-112396845D01*
X134136861Y-112402135D01*
G37*
G36*
X135804666Y-112404951D02*
G01*
X135900237Y-112432027D01*
X135946823Y-112454487D01*
X136029757Y-112518106D01*
X136094544Y-112600790D01*
X136116327Y-112638646D01*
X136140752Y-112428108D01*
X136367898Y-112428108D01*
X136367898Y-113864745D01*
X136364177Y-113962697D01*
X136349888Y-114071645D01*
X136324884Y-114171216D01*
X136282168Y-114275531D01*
X136224867Y-114367083D01*
X136215490Y-114379120D01*
X136139859Y-114453352D01*
X136046323Y-114509351D01*
X135951899Y-114542839D01*
X135844319Y-114562932D01*
X135744621Y-114569444D01*
X135723585Y-114569630D01*
X135619872Y-114564907D01*
X135522687Y-114551977D01*
X135501812Y-114548136D01*
X135404921Y-114526525D01*
X135309151Y-114499303D01*
X135281994Y-114490495D01*
X135281994Y-114232575D01*
X135375186Y-114273741D01*
X135472679Y-114310045D01*
X135501324Y-114319525D01*
X135596114Y-114343562D01*
X135699818Y-114355744D01*
X135737263Y-114356650D01*
X135838997Y-114348269D01*
X135934246Y-114317308D01*
X135967339Y-114297055D01*
X136037193Y-114225736D01*
X136080498Y-114137579D01*
X136082622Y-114130969D01*
X136105663Y-114032141D01*
X136115505Y-113929488D01*
X136116327Y-113887215D01*
X136116327Y-113702568D01*
X136063983Y-113792327D01*
X135993324Y-113867241D01*
X135949265Y-113897962D01*
X135857806Y-113938129D01*
X135754092Y-113957818D01*
X135702092Y-113960000D01*
X135596031Y-113951861D01*
X135493495Y-113924418D01*
X135425609Y-113891123D01*
X135346795Y-113832780D01*
X135275366Y-113755311D01*
X135242915Y-113707452D01*
X135196547Y-113618288D01*
X135160758Y-113522255D01*
X135142775Y-113454417D01*
X135123725Y-113350507D01*
X135113466Y-113246871D01*
X135111512Y-113177934D01*
X135111781Y-113171584D01*
X135376760Y-113171584D01*
X135380212Y-113271910D01*
X135392965Y-113377237D01*
X135419045Y-113482155D01*
X135463056Y-113580480D01*
X135474946Y-113599497D01*
X135544440Y-113677292D01*
X135629582Y-113726274D01*
X135730370Y-113746443D01*
X135752406Y-113747020D01*
X135855961Y-113732709D01*
X135950257Y-113683908D01*
X136018149Y-113609490D01*
X136024004Y-113600474D01*
X136068633Y-113507532D01*
X136096041Y-113407270D01*
X136110557Y-113305917D01*
X136116237Y-113191848D01*
X136116327Y-113174515D01*
X136112467Y-113076429D01*
X136102650Y-112986448D01*
X136081362Y-112885710D01*
X136051359Y-112802777D01*
X135997915Y-112716653D01*
X135940961Y-112663558D01*
X135851325Y-112621632D01*
X135750940Y-112609825D01*
X135645715Y-112623755D01*
X135557187Y-112665543D01*
X135485355Y-112735190D01*
X135472992Y-112752463D01*
X135426474Y-112843087D01*
X135397905Y-112941547D01*
X135382775Y-113041524D01*
X135376854Y-113154405D01*
X135376760Y-113171584D01*
X135111781Y-113171584D01*
X135115909Y-113074322D01*
X135129098Y-112970846D01*
X135142775Y-112901939D01*
X135171650Y-112801624D01*
X135211377Y-112708041D01*
X135243892Y-112649392D01*
X135302464Y-112570052D01*
X135379871Y-112498518D01*
X135427563Y-112466210D01*
X135520299Y-112423941D01*
X135617617Y-112402332D01*
X135705999Y-112396845D01*
X135804666Y-112404951D01*
G37*
G36*
X136738170Y-112428108D02*
G01*
X136944799Y-112428108D01*
X136966293Y-112565373D01*
X137025768Y-112483907D01*
X137108257Y-112424659D01*
X137208015Y-112398326D01*
X137241310Y-112396845D01*
X137341830Y-112412185D01*
X137431494Y-112465213D01*
X137492369Y-112545322D01*
X137513397Y-112590774D01*
X137566489Y-112505930D01*
X137642202Y-112439457D01*
X137734839Y-112403663D01*
X137805999Y-112396845D01*
X137911348Y-112410441D01*
X138001887Y-112456802D01*
X138065874Y-112536064D01*
X138102238Y-112636588D01*
X138122294Y-112742449D01*
X138133754Y-112852461D01*
X138139264Y-112957729D01*
X138141101Y-113075352D01*
X138141101Y-113960000D01*
X137911024Y-113960000D01*
X137911024Y-113088541D01*
X137910165Y-112988964D01*
X137906868Y-112889496D01*
X137902231Y-112823293D01*
X137887233Y-112725138D01*
X137874387Y-112684563D01*
X137800687Y-112618656D01*
X137739077Y-112609825D01*
X137642425Y-112635637D01*
X137595462Y-112691402D01*
X137567985Y-112787206D01*
X137562245Y-112830132D01*
X137555583Y-112932163D01*
X137553190Y-113038054D01*
X137552964Y-113088541D01*
X137552964Y-113960000D01*
X137323376Y-113960000D01*
X137323376Y-113088541D01*
X137322221Y-112983446D01*
X137317880Y-112880080D01*
X137313606Y-112827690D01*
X137298624Y-112731089D01*
X137283808Y-112686029D01*
X137207523Y-112618830D01*
X137145567Y-112609825D01*
X137048050Y-112638068D01*
X137007325Y-112689937D01*
X136981680Y-112786748D01*
X136976062Y-112831109D01*
X136969050Y-112934628D01*
X136966531Y-113039237D01*
X136966293Y-113088541D01*
X136966293Y-113960000D01*
X136738170Y-113960000D01*
X136738170Y-112428108D01*
G37*
G36*
X139189757Y-112402135D02*
G01*
X139289042Y-112418003D01*
X139354011Y-112434459D01*
X139446151Y-112469103D01*
X139534808Y-112521983D01*
X139577737Y-112557069D01*
X139644018Y-112635722D01*
X139686883Y-112725355D01*
X139703766Y-112785191D01*
X139717683Y-112884117D01*
X139723560Y-112983036D01*
X139725260Y-113089030D01*
X139725260Y-113401172D01*
X139727252Y-113501006D01*
X139732578Y-113599280D01*
X139739426Y-113684494D01*
X139753888Y-113787133D01*
X139779671Y-113889623D01*
X139805860Y-113960000D01*
X139553313Y-113960000D01*
X139521660Y-113865464D01*
X139516188Y-113842274D01*
X139498096Y-113745901D01*
X139494206Y-113719665D01*
X139431405Y-113806000D01*
X139353827Y-113875596D01*
X139270480Y-113924340D01*
X139170569Y-113962441D01*
X139066964Y-113984727D01*
X138969572Y-113991263D01*
X138863540Y-113983325D01*
X138767217Y-113959511D01*
X138670458Y-113913744D01*
X138603697Y-113864256D01*
X138534037Y-113784044D01*
X138487176Y-113686289D01*
X138464659Y-113584669D01*
X138459709Y-113501311D01*
X138711163Y-113501311D01*
X138725756Y-113602817D01*
X138778857Y-113691088D01*
X138799579Y-113709406D01*
X138887656Y-113756490D01*
X138987859Y-113776601D01*
X139031122Y-113778283D01*
X139131384Y-113769625D01*
X139225093Y-113740430D01*
X139284646Y-113705010D01*
X139360033Y-113631867D01*
X139411952Y-113548544D01*
X139427283Y-113512547D01*
X139456697Y-113413199D01*
X139470539Y-113316341D01*
X139472713Y-113257557D01*
X139472713Y-113203824D01*
X139153732Y-113203824D01*
X139054863Y-113208868D01*
X138957927Y-113224002D01*
X138945148Y-113226782D01*
X138852336Y-113260122D01*
X138777109Y-113314221D01*
X138725653Y-113398894D01*
X138711163Y-113501311D01*
X138459709Y-113501311D01*
X138459593Y-113499357D01*
X138467128Y-113395227D01*
X138493174Y-113295660D01*
X138543313Y-113205751D01*
X138554848Y-113191612D01*
X138627598Y-113123170D01*
X138714201Y-113070312D01*
X138804953Y-113035785D01*
X138903690Y-113012085D01*
X139006339Y-112997164D01*
X139112899Y-112991019D01*
X139134681Y-112990844D01*
X139472713Y-112990844D01*
X139472713Y-112951765D01*
X139464869Y-112853250D01*
X139433977Y-112757821D01*
X139373550Y-112685052D01*
X139279759Y-112636345D01*
X139179743Y-112614527D01*
X139095113Y-112609825D01*
X138991386Y-112615252D01*
X138889033Y-112631532D01*
X138821561Y-112648415D01*
X138723650Y-112681617D01*
X138630685Y-112723337D01*
X138571457Y-112755882D01*
X138571457Y-112503824D01*
X138666322Y-112471286D01*
X138761874Y-112443282D01*
X138825958Y-112427131D01*
X138923067Y-112408676D01*
X139021688Y-112398738D01*
X139088274Y-112396845D01*
X139189757Y-112402135D01*
G37*
G36*
X141061268Y-113960000D02*
G01*
X140961359Y-113956050D01*
X140859429Y-113941457D01*
X140762228Y-113911614D01*
X140677473Y-113861253D01*
X140662175Y-113847648D01*
X140600609Y-113761877D01*
X140564695Y-113658090D01*
X140549532Y-113559949D01*
X140545427Y-113463698D01*
X140545427Y-112641088D01*
X140137053Y-112641088D01*
X140137053Y-112428108D01*
X140545427Y-112428108D01*
X140545427Y-112029016D01*
X140796997Y-111919595D01*
X140796997Y-112428108D01*
X141368526Y-112428108D01*
X141368526Y-112641088D01*
X140796997Y-112641088D01*
X140796997Y-113452463D01*
X140804617Y-113553145D01*
X140836353Y-113648060D01*
X140861477Y-113681563D01*
X140949771Y-113730655D01*
X141047247Y-113745997D01*
X141085692Y-113747020D01*
X141368526Y-113747020D01*
X141368526Y-113960000D01*
X141061268Y-113960000D01*
G37*
G36*
X142357221Y-112146741D02*
G01*
X142316188Y-112106685D01*
X142316188Y-111874166D01*
X142357221Y-111834110D01*
X142554080Y-111834110D01*
X142595113Y-111874166D01*
X142595113Y-112106685D01*
X142554080Y-112146741D01*
X142357221Y-112146741D01*
G37*
G36*
X142816397Y-113960000D02*
G01*
X142709938Y-113951085D01*
X142605425Y-113919743D01*
X142517064Y-113865836D01*
X142467130Y-113817362D01*
X142407388Y-113727932D01*
X142370698Y-113632997D01*
X142349457Y-113523531D01*
X142343543Y-113415826D01*
X142343543Y-112641088D01*
X142008442Y-112641088D01*
X142008442Y-112428108D01*
X142595113Y-112428108D01*
X142595113Y-113408011D01*
X142602502Y-113512287D01*
X142630284Y-113611709D01*
X142657639Y-113660069D01*
X142735064Y-113725282D01*
X142833825Y-113746935D01*
X142841310Y-113747020D01*
X143134890Y-113747020D01*
X143134890Y-113960000D01*
X142816397Y-113960000D01*
G37*
G36*
X144290159Y-113991263D02*
G01*
X144188041Y-113986424D01*
X144080322Y-113969045D01*
X143982190Y-113939026D01*
X143893644Y-113896367D01*
X143883250Y-113890146D01*
X143797027Y-113827008D01*
X143723555Y-113751351D01*
X143662835Y-113663175D01*
X143634611Y-113608778D01*
X143597852Y-113515264D01*
X143571596Y-113414972D01*
X143555842Y-113307902D01*
X143550673Y-113208656D01*
X143550591Y-113194054D01*
X143554635Y-113093542D01*
X143569160Y-112985312D01*
X143594248Y-112884165D01*
X143629900Y-112790101D01*
X143635099Y-112778841D01*
X143689247Y-112683946D01*
X143756068Y-112601492D01*
X143835563Y-112531481D01*
X143885204Y-112497962D01*
X143972948Y-112453723D01*
X144070584Y-112422124D01*
X144178112Y-112403165D01*
X144280313Y-112396944D01*
X144295532Y-112396845D01*
X144394929Y-112401763D01*
X144492596Y-112418059D01*
X144525120Y-112426643D01*
X144622257Y-112460560D01*
X144714661Y-112503837D01*
X144734681Y-112514570D01*
X144734681Y-112783726D01*
X144655618Y-112719150D01*
X144570293Y-112666737D01*
X144539775Y-112652323D01*
X144442280Y-112621819D01*
X144340633Y-112610199D01*
X144317514Y-112609825D01*
X144219561Y-112616046D01*
X144115899Y-112640546D01*
X144022957Y-112688471D01*
X143949112Y-112754783D01*
X143892440Y-112836482D01*
X143864199Y-112899497D01*
X143836666Y-112994029D01*
X143820562Y-113095603D01*
X143815839Y-113194054D01*
X143820609Y-113291827D01*
X143836876Y-113393207D01*
X143864688Y-113488122D01*
X143910140Y-113580446D01*
X143972490Y-113657383D01*
X144023445Y-113700125D01*
X144115884Y-113747752D01*
X144218843Y-113772100D01*
X144316048Y-113778283D01*
X144418350Y-113770803D01*
X144514106Y-113748363D01*
X144540263Y-113739204D01*
X144628687Y-113696315D01*
X144711874Y-113636034D01*
X144734681Y-113615617D01*
X144734681Y-113874026D01*
X144646624Y-113919707D01*
X144553426Y-113954168D01*
X144455085Y-113977409D01*
X144351601Y-113989431D01*
X144290159Y-113991263D01*
G37*
G36*
X145848916Y-113991263D02*
G01*
X145753072Y-113970706D01*
X145691136Y-113926294D01*
X145639392Y-113840445D01*
X145627144Y-113756789D01*
X145645204Y-113657268D01*
X145691136Y-113587773D01*
X145777866Y-113533119D01*
X145848916Y-113522316D01*
X145948971Y-113545392D01*
X146005720Y-113587773D01*
X146057859Y-113673228D01*
X146070200Y-113756789D01*
X146052002Y-113856449D01*
X146005720Y-113926294D01*
X145919570Y-113980540D01*
X145848916Y-113991263D01*
G37*
G36*
X111633914Y-103394110D02*
G01*
X111893300Y-103394110D01*
X111893300Y-104627048D01*
X112553733Y-103988108D01*
X112860013Y-103988108D01*
X112257222Y-104568429D01*
X112954291Y-105520000D01*
X112646545Y-105520000D01*
X112080878Y-104732072D01*
X111893300Y-104907438D01*
X111893300Y-105520000D01*
X111633914Y-105520000D01*
X111633914Y-103394110D01*
G37*
G36*
X113724144Y-103706741D02*
G01*
X113683111Y-103666685D01*
X113683111Y-103434166D01*
X113724144Y-103394110D01*
X113921004Y-103394110D01*
X113962037Y-103434166D01*
X113962037Y-103666685D01*
X113921004Y-103706741D01*
X113724144Y-103706741D01*
G37*
G36*
X114183321Y-105520000D02*
G01*
X114076861Y-105511085D01*
X113972349Y-105479743D01*
X113883988Y-105425836D01*
X113834054Y-105377362D01*
X113774312Y-105287932D01*
X113737622Y-105192997D01*
X113716380Y-105083531D01*
X113710467Y-104975826D01*
X113710467Y-104201088D01*
X113375365Y-104201088D01*
X113375365Y-103988108D01*
X113962037Y-103988108D01*
X113962037Y-104968011D01*
X113969425Y-105072287D01*
X113997208Y-105171709D01*
X114024563Y-105220069D01*
X114101988Y-105285282D01*
X114200749Y-105306935D01*
X114208234Y-105307020D01*
X114501813Y-105307020D01*
X114501813Y-105520000D01*
X114183321Y-105520000D01*
G37*
G36*
X115716525Y-103964333D02*
G01*
X115821618Y-103991995D01*
X115915491Y-104040040D01*
X115998144Y-104108469D01*
X116050313Y-104169825D01*
X116103934Y-104255154D01*
X116146461Y-104351404D01*
X116177894Y-104458577D01*
X116195613Y-104556232D01*
X116205629Y-104661471D01*
X116208094Y-104751123D01*
X116204206Y-104863451D01*
X116192543Y-104968098D01*
X116173103Y-105065066D01*
X116139512Y-105171288D01*
X116094724Y-105266452D01*
X116048848Y-105337306D01*
X115973778Y-105420674D01*
X115887909Y-105483565D01*
X115791241Y-105525981D01*
X115683773Y-105547920D01*
X115617515Y-105551263D01*
X115515540Y-105543105D01*
X115411068Y-105512968D01*
X115322210Y-105460626D01*
X115248967Y-105386077D01*
X115206210Y-105319232D01*
X115206210Y-106113998D01*
X114953174Y-106113998D01*
X114953174Y-104752588D01*
X115206210Y-104752588D01*
X115209644Y-104853568D01*
X115222334Y-104959916D01*
X115248284Y-105066345D01*
X115286447Y-105156654D01*
X115303907Y-105186364D01*
X115373316Y-105266477D01*
X115459421Y-105316919D01*
X115562222Y-105337689D01*
X115584786Y-105338283D01*
X115688360Y-105324019D01*
X115789477Y-105269248D01*
X115854430Y-105192226D01*
X115901829Y-105086676D01*
X115927108Y-104981698D01*
X115941152Y-104858462D01*
X115944312Y-104754054D01*
X115941152Y-104649646D01*
X115927108Y-104526410D01*
X115901829Y-104421431D01*
X115854430Y-104315882D01*
X115789477Y-104238860D01*
X115688360Y-104184088D01*
X115584786Y-104169825D01*
X115477920Y-104184613D01*
X115388133Y-104228978D01*
X115315423Y-104302918D01*
X115302930Y-104321256D01*
X115256176Y-104416598D01*
X115227462Y-104518409D01*
X115212255Y-104620667D01*
X115206304Y-104735220D01*
X115206210Y-104752588D01*
X114953174Y-104752588D01*
X114953174Y-103988108D01*
X115181297Y-103988108D01*
X115206210Y-104197669D01*
X115260558Y-104115826D01*
X115337247Y-104041745D01*
X115428242Y-103990711D01*
X115533542Y-103962725D01*
X115617515Y-103956845D01*
X115716525Y-103964333D01*
G37*
G36*
X116790369Y-103988108D02*
G01*
X117018980Y-103988108D01*
X117043405Y-104291458D01*
X117090001Y-104197749D01*
X117149192Y-104118732D01*
X117228848Y-104048785D01*
X117236845Y-104043307D01*
X117331844Y-103994081D01*
X117428625Y-103967062D01*
X117535329Y-103956930D01*
X117546545Y-103956845D01*
X117648743Y-103963762D01*
X117753233Y-103987671D01*
X117848183Y-104028658D01*
X117874807Y-104044284D01*
X117874807Y-104308066D01*
X117797413Y-104247586D01*
X117702242Y-104200200D01*
X117598494Y-104174685D01*
X117524563Y-104169825D01*
X117415051Y-104179198D01*
X117319033Y-104207316D01*
X117227142Y-104261356D01*
X117167480Y-104319790D01*
X117113197Y-104402924D01*
X117074423Y-104502362D01*
X117053219Y-104602743D01*
X117043889Y-104715607D01*
X117043405Y-104750146D01*
X117043405Y-105520000D01*
X116790369Y-105520000D01*
X116790369Y-103988108D01*
G37*
G36*
X118978174Y-103962135D02*
G01*
X119077459Y-103978003D01*
X119142428Y-103994459D01*
X119234568Y-104029103D01*
X119323225Y-104081983D01*
X119366154Y-104117069D01*
X119432435Y-104195722D01*
X119475300Y-104285355D01*
X119492183Y-104345191D01*
X119506099Y-104444117D01*
X119511977Y-104543036D01*
X119513677Y-104649030D01*
X119513677Y-104961172D01*
X119515669Y-105061006D01*
X119520995Y-105159280D01*
X119527843Y-105244494D01*
X119542305Y-105347133D01*
X119568087Y-105449623D01*
X119594277Y-105520000D01*
X119341730Y-105520000D01*
X119310077Y-105425464D01*
X119304605Y-105402274D01*
X119286513Y-105305901D01*
X119282623Y-105279665D01*
X119219822Y-105366000D01*
X119142244Y-105435596D01*
X119058896Y-105484340D01*
X118958986Y-105522441D01*
X118855381Y-105544727D01*
X118757989Y-105551263D01*
X118651957Y-105543325D01*
X118555634Y-105519511D01*
X118458875Y-105473744D01*
X118392114Y-105424256D01*
X118322454Y-105344044D01*
X118275593Y-105246289D01*
X118253076Y-105144669D01*
X118248126Y-105061311D01*
X118499580Y-105061311D01*
X118514172Y-105162817D01*
X118567274Y-105251088D01*
X118587996Y-105269406D01*
X118676073Y-105316490D01*
X118776276Y-105336601D01*
X118819539Y-105338283D01*
X118919801Y-105329625D01*
X119013510Y-105300430D01*
X119073063Y-105265010D01*
X119148450Y-105191867D01*
X119200368Y-105108544D01*
X119215700Y-105072547D01*
X119245114Y-104973199D01*
X119258956Y-104876341D01*
X119261130Y-104817557D01*
X119261130Y-104763824D01*
X118942148Y-104763824D01*
X118843280Y-104768868D01*
X118746344Y-104784002D01*
X118733565Y-104786782D01*
X118640753Y-104820122D01*
X118565526Y-104874221D01*
X118514070Y-104958894D01*
X118499580Y-105061311D01*
X118248126Y-105061311D01*
X118248010Y-105059357D01*
X118255545Y-104955227D01*
X118281591Y-104855660D01*
X118331730Y-104765751D01*
X118343265Y-104751612D01*
X118416015Y-104683170D01*
X118502618Y-104630312D01*
X118593370Y-104595785D01*
X118692107Y-104572085D01*
X118794755Y-104557164D01*
X118901316Y-104551019D01*
X118923097Y-104550844D01*
X119261130Y-104550844D01*
X119261130Y-104511765D01*
X119253286Y-104413250D01*
X119222394Y-104317821D01*
X119161967Y-104245052D01*
X119068176Y-104196345D01*
X118968160Y-104174527D01*
X118883530Y-104169825D01*
X118779803Y-104175252D01*
X118677450Y-104191532D01*
X118609978Y-104208415D01*
X118512067Y-104241617D01*
X118419102Y-104283337D01*
X118359873Y-104315882D01*
X118359873Y-104063824D01*
X118454739Y-104031286D01*
X118550291Y-104003282D01*
X118614375Y-103987131D01*
X118711484Y-103968676D01*
X118810105Y-103958738D01*
X118876691Y-103956845D01*
X118978174Y-103962135D01*
G37*
G36*
X121945847Y-104197669D02*
G01*
X121999771Y-104114412D01*
X122073228Y-104044683D01*
X122119259Y-104015952D01*
X122213869Y-103977683D01*
X122317508Y-103958923D01*
X122368387Y-103956845D01*
X122465865Y-103963667D01*
X122561299Y-103986929D01*
X122644381Y-104026699D01*
X122728250Y-104091033D01*
X122797285Y-104170523D01*
X122824144Y-104212323D01*
X122869642Y-104302724D01*
X122904286Y-104400268D01*
X122921353Y-104469267D01*
X122938040Y-104566265D01*
X122948344Y-104671950D01*
X122950662Y-104751123D01*
X122947083Y-104849071D01*
X122936347Y-104946788D01*
X122920376Y-105035422D01*
X122895388Y-105129870D01*
X122857858Y-105226189D01*
X122822679Y-105293831D01*
X122765801Y-105374637D01*
X122689919Y-105447758D01*
X122642916Y-105480921D01*
X122551668Y-105523785D01*
X122455111Y-105545698D01*
X122366922Y-105551263D01*
X122263859Y-105543105D01*
X122157684Y-105512968D01*
X122066656Y-105460626D01*
X121990774Y-105386077D01*
X121945847Y-105319232D01*
X121921423Y-105520000D01*
X121694277Y-105520000D01*
X121694277Y-104752588D01*
X121945847Y-104752588D01*
X121949707Y-104854202D01*
X121959525Y-104947983D01*
X121979552Y-105046779D01*
X122012281Y-105138981D01*
X122063315Y-105223686D01*
X122124144Y-105283084D01*
X122214956Y-105326154D01*
X122316608Y-105338283D01*
X122418853Y-105326154D01*
X122509559Y-105283084D01*
X122580709Y-105209926D01*
X122620446Y-105138492D01*
X122652075Y-105046046D01*
X122671737Y-104947494D01*
X122681995Y-104848332D01*
X122685414Y-104754054D01*
X122681554Y-104653584D01*
X122671737Y-104560125D01*
X122652075Y-104461451D01*
X122620446Y-104369616D01*
X122570417Y-104284667D01*
X122509559Y-104225512D01*
X122418853Y-104182061D01*
X122316608Y-104169825D01*
X122214956Y-104182061D01*
X122124144Y-104225512D01*
X122052926Y-104297967D01*
X122012281Y-104368639D01*
X121977929Y-104466060D01*
X121959525Y-104558660D01*
X121949266Y-104658189D01*
X121945847Y-104752588D01*
X121694277Y-104752588D01*
X121694277Y-103394110D01*
X121945847Y-103394110D01*
X121945847Y-104197669D01*
G37*
G36*
X123366363Y-105901018D02*
G01*
X123515351Y-105901018D01*
X123613537Y-105885387D01*
X123686321Y-105838492D01*
X123745453Y-105750208D01*
X123791962Y-105651685D01*
X123831289Y-105553898D01*
X123848987Y-105506322D01*
X123256943Y-103988108D01*
X123523656Y-103988108D01*
X123977459Y-105198087D01*
X124424423Y-103988108D01*
X124691137Y-103988108D01*
X124287647Y-105032979D01*
X124250848Y-105128470D01*
X124213596Y-105225427D01*
X124204605Y-105248890D01*
X124187019Y-105292365D01*
X124172365Y-105332909D01*
X124144521Y-105412533D01*
X124127913Y-105456496D01*
X124091999Y-105555268D01*
X124054401Y-105653145D01*
X124027284Y-105719790D01*
X123986326Y-105814150D01*
X123947173Y-105891249D01*
X123887150Y-105978043D01*
X123814364Y-106043519D01*
X123715552Y-106092245D01*
X123615418Y-106112040D01*
X123568596Y-106113998D01*
X123366363Y-106113998D01*
X123366363Y-105901018D01*
G37*
G36*
X127120376Y-104201088D02*
G01*
X126711513Y-104201088D01*
X126711513Y-103988108D01*
X127120376Y-103988108D01*
X127120376Y-103881618D01*
X127125892Y-103778319D01*
X127145707Y-103675775D01*
X127185222Y-103580192D01*
X127235659Y-103512812D01*
X127320609Y-103450215D01*
X127418600Y-103413700D01*
X127522831Y-103397008D01*
X127596161Y-103394110D01*
X127898534Y-103394110D01*
X127898534Y-103607090D01*
X127612769Y-103607090D01*
X127510989Y-103617561D01*
X127425191Y-103661800D01*
X127382137Y-103749538D01*
X127371946Y-103854752D01*
X127371946Y-103988108D01*
X127898534Y-103988108D01*
X127898534Y-104201088D01*
X127371946Y-104201088D01*
X127371946Y-105520000D01*
X127120376Y-105520000D01*
X127120376Y-104201088D01*
G37*
G36*
X129124986Y-103964075D02*
G01*
X129228260Y-103985765D01*
X129321128Y-104021915D01*
X129416320Y-104082366D01*
X129497347Y-104162498D01*
X129554786Y-104245909D01*
X129600341Y-104342268D01*
X129634013Y-104451576D01*
X129652994Y-104552558D01*
X129663722Y-104662532D01*
X129666363Y-104756985D01*
X129662249Y-104873284D01*
X129649906Y-104980686D01*
X129629333Y-105079192D01*
X129593785Y-105185655D01*
X129546386Y-105279307D01*
X129497836Y-105347564D01*
X129417189Y-105426935D01*
X129322284Y-105486811D01*
X129229588Y-105522617D01*
X129126417Y-105544101D01*
X129012769Y-105551263D01*
X128898092Y-105544050D01*
X128794027Y-105522411D01*
X128700576Y-105486347D01*
X128604963Y-105426040D01*
X128523795Y-105346099D01*
X128466356Y-105262676D01*
X128420801Y-105166649D01*
X128387130Y-105058016D01*
X128368149Y-104957860D01*
X128357420Y-104848950D01*
X128354779Y-104755519D01*
X128354883Y-104752588D01*
X128621492Y-104752588D01*
X128625047Y-104854031D01*
X128638181Y-104960704D01*
X128665040Y-105067217D01*
X128704538Y-105157304D01*
X128722609Y-105186852D01*
X128794250Y-105266708D01*
X128882779Y-105316988D01*
X128988194Y-105337691D01*
X129011304Y-105338283D01*
X129109703Y-105326304D01*
X129202992Y-105284898D01*
X129279394Y-105213915D01*
X129299022Y-105186852D01*
X129347666Y-105091278D01*
X129377540Y-104988872D01*
X129393361Y-104885792D01*
X129399257Y-104787429D01*
X129399650Y-104752588D01*
X129396112Y-104651678D01*
X129383043Y-104545583D01*
X129356313Y-104439673D01*
X129317005Y-104350128D01*
X129299022Y-104320767D01*
X129227686Y-104241169D01*
X129139463Y-104191051D01*
X129034353Y-104170415D01*
X129011304Y-104169825D01*
X128912197Y-104181765D01*
X128818392Y-104223038D01*
X128741761Y-104293792D01*
X128722121Y-104320767D01*
X128673477Y-104415753D01*
X128643603Y-104517572D01*
X128627782Y-104620087D01*
X128621886Y-104717929D01*
X128621492Y-104752588D01*
X128354883Y-104752588D01*
X128358918Y-104639172D01*
X128371332Y-104531627D01*
X128392024Y-104432883D01*
X128427779Y-104326007D01*
X128475452Y-104231806D01*
X128524284Y-104162986D01*
X128593200Y-104092931D01*
X128686670Y-104029518D01*
X128777986Y-103990867D01*
X128879640Y-103966709D01*
X128991633Y-103957047D01*
X129011304Y-103956845D01*
X129124986Y-103964075D01*
G37*
G36*
X130815770Y-105551263D02*
G01*
X130713652Y-105546424D01*
X130605934Y-105529045D01*
X130507801Y-105499026D01*
X130419256Y-105456367D01*
X130408862Y-105450146D01*
X130322639Y-105387008D01*
X130249167Y-105311351D01*
X130188446Y-105223175D01*
X130160222Y-105168778D01*
X130123464Y-105075264D01*
X130097208Y-104974972D01*
X130081454Y-104867902D01*
X130076285Y-104768656D01*
X130076203Y-104754054D01*
X130080247Y-104653542D01*
X130094772Y-104545312D01*
X130119860Y-104444165D01*
X130155512Y-104350101D01*
X130160711Y-104338841D01*
X130214858Y-104243946D01*
X130281680Y-104161492D01*
X130361175Y-104091481D01*
X130410816Y-104057962D01*
X130498560Y-104013723D01*
X130596196Y-103982124D01*
X130703724Y-103963165D01*
X130805925Y-103956944D01*
X130821144Y-103956845D01*
X130920541Y-103961763D01*
X131018207Y-103978059D01*
X131050732Y-103986643D01*
X131147868Y-104020560D01*
X131240272Y-104063837D01*
X131260292Y-104074570D01*
X131260292Y-104343726D01*
X131181230Y-104279150D01*
X131095905Y-104226737D01*
X131065386Y-104212323D01*
X130967892Y-104181819D01*
X130866245Y-104170199D01*
X130843125Y-104169825D01*
X130745173Y-104176046D01*
X130641511Y-104200546D01*
X130548569Y-104248471D01*
X130474723Y-104314783D01*
X130418051Y-104396482D01*
X130389811Y-104459497D01*
X130362278Y-104554029D01*
X130346173Y-104655603D01*
X130341451Y-104754054D01*
X130346221Y-104851827D01*
X130362488Y-104953207D01*
X130390299Y-105048122D01*
X130435751Y-105140446D01*
X130498102Y-105217383D01*
X130549057Y-105260125D01*
X130641495Y-105307752D01*
X130744455Y-105332100D01*
X130841660Y-105338283D01*
X130943961Y-105330803D01*
X131039718Y-105308363D01*
X131065875Y-105299204D01*
X131154298Y-105256315D01*
X131237486Y-105196034D01*
X131260292Y-105175617D01*
X131260292Y-105434026D01*
X131172236Y-105479707D01*
X131079037Y-105514168D01*
X130980696Y-105537409D01*
X130877213Y-105549431D01*
X130815770Y-105551263D01*
G37*
G36*
X132269015Y-105551263D02*
G01*
X132159793Y-105541615D01*
X132065133Y-105512672D01*
X131967288Y-105449360D01*
X131892198Y-105355899D01*
X131848509Y-105259423D01*
X131819383Y-105143652D01*
X131807096Y-105044161D01*
X131803000Y-104933817D01*
X131803000Y-103988108D01*
X132054570Y-103988108D01*
X132054570Y-104937236D01*
X132061881Y-105052772D01*
X132083812Y-105148726D01*
X132129430Y-105238021D01*
X132209262Y-105306559D01*
X132317751Y-105336716D01*
X132354012Y-105338283D01*
X132455582Y-105325928D01*
X132549458Y-105283796D01*
X132624633Y-105211765D01*
X132675122Y-105122483D01*
X132704575Y-105024672D01*
X132718038Y-104923846D01*
X132720376Y-104854193D01*
X132720376Y-103988108D01*
X132973412Y-103988108D01*
X132973412Y-105520000D01*
X132744800Y-105520000D01*
X132720376Y-105287969D01*
X132662834Y-105377448D01*
X132592790Y-105448413D01*
X132510243Y-105500867D01*
X132415194Y-105534807D01*
X132307644Y-105550234D01*
X132269015Y-105551263D01*
G37*
G36*
X134026098Y-105551263D02*
G01*
X133926685Y-105546634D01*
X133819932Y-105532750D01*
X133722588Y-105513481D01*
X133619852Y-105487412D01*
X133511723Y-105454542D01*
X133511723Y-105195645D01*
X133617218Y-105244120D01*
X133718283Y-105282565D01*
X133814918Y-105310981D01*
X133922058Y-105331457D01*
X134023167Y-105338283D01*
X134125423Y-105330490D01*
X134219728Y-105304215D01*
X134278645Y-105272337D01*
X134347367Y-105200288D01*
X134374295Y-105101904D01*
X134374388Y-105095017D01*
X134349041Y-104998657D01*
X134294277Y-104940167D01*
X134206281Y-104893083D01*
X134111429Y-104861993D01*
X134039287Y-104844912D01*
X133934263Y-104823419D01*
X133833513Y-104798201D01*
X133737394Y-104761510D01*
X133651985Y-104710410D01*
X133617724Y-104680781D01*
X133556404Y-104595945D01*
X133525056Y-104500437D01*
X133517096Y-104409672D01*
X133526499Y-104307028D01*
X133559558Y-104206590D01*
X133616419Y-104122072D01*
X133667550Y-104074570D01*
X133750714Y-104023066D01*
X133849755Y-103986277D01*
X133949438Y-103966158D01*
X134061277Y-103957305D01*
X134095463Y-103956845D01*
X134197725Y-103961286D01*
X134298490Y-103974610D01*
X134397759Y-103996816D01*
X134495533Y-104027905D01*
X134550732Y-104049658D01*
X134550732Y-104296831D01*
X134455977Y-104247344D01*
X134359352Y-104210011D01*
X134260858Y-104184833D01*
X134160493Y-104171810D01*
X134102302Y-104169825D01*
X133989914Y-104177673D01*
X133888183Y-104206668D01*
X133803893Y-104275340D01*
X133771920Y-104379329D01*
X133771597Y-104393063D01*
X133790301Y-104491344D01*
X133799929Y-104508346D01*
X133880945Y-104568698D01*
X133909350Y-104580153D01*
X134009490Y-104609584D01*
X134109599Y-104632459D01*
X134147731Y-104640237D01*
X134248848Y-104659288D01*
X134358332Y-104688859D01*
X134449260Y-104731168D01*
X134533879Y-104798750D01*
X134591776Y-104884674D01*
X134622951Y-104988939D01*
X134628890Y-105068639D01*
X134618784Y-105174823D01*
X134588467Y-105269162D01*
X134530203Y-105361134D01*
X134467201Y-105422302D01*
X134379182Y-105478722D01*
X134276325Y-105519023D01*
X134174154Y-105541062D01*
X134060622Y-105550759D01*
X134026098Y-105551263D01*
G37*
G36*
X135821161Y-103962135D02*
G01*
X135920446Y-103978003D01*
X135985414Y-103994459D01*
X136077555Y-104029103D01*
X136166211Y-104081983D01*
X136209141Y-104117069D01*
X136275422Y-104195722D01*
X136318287Y-104285355D01*
X136335170Y-104345191D01*
X136349086Y-104444117D01*
X136354963Y-104543036D01*
X136356663Y-104649030D01*
X136356663Y-104961172D01*
X136358656Y-105061006D01*
X136363982Y-105159280D01*
X136370830Y-105244494D01*
X136385291Y-105347133D01*
X136411074Y-105449623D01*
X136437264Y-105520000D01*
X136184716Y-105520000D01*
X136153064Y-105425464D01*
X136147592Y-105402274D01*
X136129500Y-105305901D01*
X136125610Y-105279665D01*
X136062809Y-105366000D01*
X135985231Y-105435596D01*
X135901883Y-105484340D01*
X135801973Y-105522441D01*
X135698368Y-105544727D01*
X135600976Y-105551263D01*
X135494944Y-105543325D01*
X135398621Y-105519511D01*
X135301862Y-105473744D01*
X135235100Y-105424256D01*
X135165441Y-105344044D01*
X135118579Y-105246289D01*
X135096063Y-105144669D01*
X135091113Y-105061311D01*
X135342567Y-105061311D01*
X135357159Y-105162817D01*
X135410261Y-105251088D01*
X135430983Y-105269406D01*
X135519059Y-105316490D01*
X135619263Y-105336601D01*
X135662525Y-105338283D01*
X135762787Y-105329625D01*
X135856497Y-105300430D01*
X135916049Y-105265010D01*
X135991436Y-105191867D01*
X136043355Y-105108544D01*
X136058687Y-105072547D01*
X136088101Y-104973199D01*
X136101942Y-104876341D01*
X136104116Y-104817557D01*
X136104116Y-104763824D01*
X135785135Y-104763824D01*
X135686267Y-104768868D01*
X135589331Y-104784002D01*
X135576552Y-104786782D01*
X135483739Y-104820122D01*
X135408513Y-104874221D01*
X135357057Y-104958894D01*
X135342567Y-105061311D01*
X135091113Y-105061311D01*
X135090997Y-105059357D01*
X135098532Y-104955227D01*
X135124578Y-104855660D01*
X135174717Y-104765751D01*
X135186252Y-104751612D01*
X135259002Y-104683170D01*
X135345605Y-104630312D01*
X135436356Y-104595785D01*
X135535093Y-104572085D01*
X135637742Y-104557164D01*
X135744303Y-104551019D01*
X135766084Y-104550844D01*
X136104116Y-104550844D01*
X136104116Y-104511765D01*
X136096272Y-104413250D01*
X136065381Y-104317821D01*
X136004954Y-104245052D01*
X135911163Y-104196345D01*
X135811147Y-104174527D01*
X135726517Y-104169825D01*
X135622790Y-104175252D01*
X135520437Y-104191532D01*
X135452965Y-104208415D01*
X135355054Y-104241617D01*
X135262089Y-104283337D01*
X135202860Y-104315882D01*
X135202860Y-104063824D01*
X135297726Y-104031286D01*
X135393278Y-104003282D01*
X135457361Y-103987131D01*
X135554471Y-103968676D01*
X135653091Y-103958738D01*
X135719678Y-103956845D01*
X135821161Y-103962135D01*
G37*
G36*
X137321911Y-105551263D02*
G01*
X137212689Y-105541615D01*
X137118029Y-105512672D01*
X137020184Y-105449360D01*
X136945094Y-105355899D01*
X136901405Y-105259423D01*
X136872279Y-105143652D01*
X136859992Y-105044161D01*
X136855896Y-104933817D01*
X136855896Y-103988108D01*
X137107466Y-103988108D01*
X137107466Y-104937236D01*
X137114777Y-105052772D01*
X137136708Y-105148726D01*
X137182326Y-105238021D01*
X137262158Y-105306559D01*
X137370647Y-105336716D01*
X137406908Y-105338283D01*
X137508478Y-105325928D01*
X137602354Y-105283796D01*
X137677529Y-105211765D01*
X137728018Y-105122483D01*
X137757471Y-105024672D01*
X137770934Y-104923846D01*
X137773272Y-104854193D01*
X137773272Y-103988108D01*
X138026308Y-103988108D01*
X138026308Y-105520000D01*
X137797696Y-105520000D01*
X137773272Y-105287969D01*
X137715730Y-105377448D01*
X137645686Y-105448413D01*
X137563139Y-105500867D01*
X137468090Y-105534807D01*
X137360540Y-105550234D01*
X137321911Y-105551263D01*
G37*
G36*
X138686252Y-103988108D02*
G01*
X138914863Y-103988108D01*
X138939287Y-104291458D01*
X138985884Y-104197749D01*
X139045075Y-104118732D01*
X139124731Y-104048785D01*
X139132728Y-104043307D01*
X139227727Y-103994081D01*
X139324508Y-103967062D01*
X139431211Y-103956930D01*
X139442428Y-103956845D01*
X139544626Y-103963762D01*
X139649116Y-103987671D01*
X139744066Y-104028658D01*
X139770690Y-104044284D01*
X139770690Y-104308066D01*
X139693295Y-104247586D01*
X139598125Y-104200200D01*
X139494377Y-104174685D01*
X139420446Y-104169825D01*
X139310933Y-104179198D01*
X139214915Y-104207316D01*
X139123025Y-104261356D01*
X139063363Y-104319790D01*
X139009080Y-104402924D01*
X138970306Y-104502362D01*
X138949102Y-104602743D01*
X138939772Y-104715607D01*
X138939287Y-104750146D01*
X138939287Y-105520000D01*
X138686252Y-105520000D01*
X138686252Y-103988108D01*
G37*
G36*
X140690509Y-105551263D02*
G01*
X140581286Y-105541615D01*
X140486627Y-105512672D01*
X140388782Y-105449360D01*
X140313691Y-105355899D01*
X140270002Y-105259423D01*
X140240877Y-105143652D01*
X140228589Y-105044161D01*
X140224493Y-104933817D01*
X140224493Y-103988108D01*
X140476063Y-103988108D01*
X140476063Y-104937236D01*
X140483374Y-105052772D01*
X140505306Y-105148726D01*
X140550924Y-105238021D01*
X140630755Y-105306559D01*
X140739244Y-105336716D01*
X140775505Y-105338283D01*
X140877076Y-105325928D01*
X140970952Y-105283796D01*
X141046126Y-105211765D01*
X141096616Y-105122483D01*
X141126068Y-105024672D01*
X141139532Y-104923846D01*
X141141869Y-104854193D01*
X141141869Y-103988108D01*
X141394905Y-103988108D01*
X141394905Y-105520000D01*
X141166294Y-105520000D01*
X141141869Y-105287969D01*
X141084327Y-105377448D01*
X141014283Y-105448413D01*
X140931736Y-105500867D01*
X140836688Y-105534807D01*
X140729137Y-105550234D01*
X140690509Y-105551263D01*
G37*
G36*
X142447592Y-105551263D02*
G01*
X142348179Y-105546634D01*
X142241426Y-105532750D01*
X142144082Y-105513481D01*
X142041345Y-105487412D01*
X141933216Y-105454542D01*
X141933216Y-105195645D01*
X142038712Y-105244120D01*
X142139777Y-105282565D01*
X142236411Y-105310981D01*
X142343551Y-105331457D01*
X142444661Y-105338283D01*
X142546917Y-105330490D01*
X142641221Y-105304215D01*
X142700139Y-105272337D01*
X142768861Y-105200288D01*
X142795788Y-105101904D01*
X142795882Y-105095017D01*
X142770534Y-104998657D01*
X142715770Y-104940167D01*
X142627774Y-104893083D01*
X142532922Y-104861993D01*
X142460781Y-104844912D01*
X142355756Y-104823419D01*
X142255006Y-104798201D01*
X142158887Y-104761510D01*
X142073478Y-104710410D01*
X142039218Y-104680781D01*
X141977897Y-104595945D01*
X141946549Y-104500437D01*
X141938589Y-104409672D01*
X141947993Y-104307028D01*
X141981051Y-104206590D01*
X142037912Y-104122072D01*
X142089043Y-104074570D01*
X142172208Y-104023066D01*
X142271248Y-103986277D01*
X142370932Y-103966158D01*
X142482770Y-103957305D01*
X142516957Y-103956845D01*
X142619218Y-103961286D01*
X142719983Y-103974610D01*
X142819253Y-103996816D01*
X142917026Y-104027905D01*
X142972225Y-104049658D01*
X142972225Y-104296831D01*
X142877470Y-104247344D01*
X142780846Y-104210011D01*
X142682351Y-104184833D01*
X142581986Y-104171810D01*
X142523795Y-104169825D01*
X142411407Y-104177673D01*
X142309677Y-104206668D01*
X142225386Y-104275340D01*
X142193413Y-104379329D01*
X142193090Y-104393063D01*
X142211794Y-104491344D01*
X142221423Y-104508346D01*
X142302439Y-104568698D01*
X142330843Y-104580153D01*
X142430983Y-104609584D01*
X142531092Y-104632459D01*
X142569224Y-104640237D01*
X142670341Y-104659288D01*
X142779826Y-104688859D01*
X142870754Y-104731168D01*
X142955372Y-104798750D01*
X143013269Y-104884674D01*
X143044445Y-104988939D01*
X143050383Y-105068639D01*
X143040277Y-105174823D01*
X143009961Y-105269162D01*
X142951696Y-105361134D01*
X142888694Y-105422302D01*
X142800675Y-105478722D01*
X142697818Y-105519023D01*
X142595647Y-105541062D01*
X142482116Y-105550759D01*
X142447592Y-105551263D01*
G37*
G36*
X111461478Y-107348108D02*
G01*
X111722330Y-107348108D01*
X112166852Y-108634291D01*
X112612351Y-107348108D01*
X112873691Y-107348108D01*
X112329518Y-108880000D01*
X112005652Y-108880000D01*
X111461478Y-107348108D01*
G37*
G36*
X113378296Y-108667020D02*
G01*
X113807675Y-108667020D01*
X113807675Y-107207424D01*
X113481855Y-107576720D01*
X113331890Y-107394026D01*
X113804744Y-106847899D01*
X114080739Y-106847899D01*
X114080739Y-108667020D01*
X114504744Y-108667020D01*
X114504744Y-108880000D01*
X113378296Y-108880000D01*
X113378296Y-108667020D01*
G37*
G36*
X116585205Y-108696329D02*
G01*
X116619399Y-108611332D01*
X116687578Y-108539575D01*
X116758813Y-108464322D01*
X116804047Y-108416427D01*
X116872339Y-108343688D01*
X116943494Y-108267133D01*
X117009980Y-108194971D01*
X117032658Y-108170230D01*
X117100490Y-108095979D01*
X117169389Y-108020589D01*
X117172365Y-108017334D01*
X117239391Y-107943142D01*
X117244172Y-107937711D01*
X117294975Y-107878115D01*
X117356312Y-107801479D01*
X117410257Y-107728639D01*
X117462416Y-107644470D01*
X117481088Y-107606517D01*
X117513812Y-107513005D01*
X117528539Y-107413020D01*
X117528959Y-107393049D01*
X117519180Y-107294007D01*
X117485833Y-107201700D01*
X117428820Y-107126824D01*
X117342404Y-107067588D01*
X117244602Y-107037305D01*
X117151360Y-107029616D01*
X117041415Y-107038615D01*
X116942599Y-107060654D01*
X116839560Y-107095917D01*
X116732295Y-107144403D01*
X116639681Y-107194909D01*
X116601813Y-107217683D01*
X116601813Y-106942177D01*
X116697411Y-106903105D01*
X116792777Y-106871190D01*
X116879273Y-106848387D01*
X116980413Y-106829039D01*
X117080865Y-106818620D01*
X117147452Y-106816636D01*
X117251522Y-106822063D01*
X117350509Y-106838343D01*
X117413677Y-106855226D01*
X117509725Y-106893440D01*
X117595454Y-106946165D01*
X117631541Y-106975394D01*
X117700936Y-107050713D01*
X117752921Y-107133794D01*
X117762455Y-107153203D01*
X117796182Y-107250148D01*
X117810588Y-107349210D01*
X117811793Y-107389630D01*
X117803343Y-107490586D01*
X117777995Y-107591954D01*
X117751709Y-107659762D01*
X117704595Y-107748259D01*
X117674040Y-107793607D01*
X117612782Y-107874270D01*
X117553384Y-107947480D01*
X117488683Y-108022264D01*
X117459106Y-108055924D01*
X117391992Y-108130422D01*
X117332100Y-108195631D01*
X117263925Y-108267793D01*
X117235379Y-108297236D01*
X117165953Y-108366845D01*
X117141590Y-108391025D01*
X117070955Y-108461861D01*
X117028750Y-108504842D01*
X116958286Y-108577871D01*
X116890783Y-108649076D01*
X116873900Y-108667020D01*
X117825470Y-108667020D01*
X117825470Y-108880000D01*
X116585205Y-108880000D01*
X116585205Y-108696329D01*
G37*
G36*
X118966084Y-107432128D02*
G01*
X118999332Y-107525238D01*
X119012002Y-107581605D01*
X119027640Y-107679799D01*
X119033984Y-107736943D01*
X119041477Y-107836245D01*
X119042288Y-107869323D01*
X119037995Y-107968756D01*
X119037403Y-107978743D01*
X119028503Y-108077166D01*
X119018841Y-108146294D01*
X118996168Y-108244053D01*
X118947227Y-108332530D01*
X118906977Y-108348527D01*
X118839078Y-108288932D01*
X118808708Y-108192665D01*
X118799022Y-108149225D01*
X118782293Y-108048999D01*
X118776063Y-107995352D01*
X118768310Y-107895895D01*
X118767271Y-107858576D01*
X118771385Y-107760054D01*
X118772644Y-107739385D01*
X118783221Y-107640736D01*
X118794626Y-107577208D01*
X118819046Y-107481574D01*
X118865636Y-107395021D01*
X118901116Y-107379371D01*
X118966084Y-107432128D01*
G37*
G36*
X119002681Y-106823112D02*
G01*
X119110621Y-106847979D01*
X119207192Y-106891496D01*
X119292395Y-106953663D01*
X119366229Y-107034481D01*
X119398883Y-107081884D01*
X119446310Y-107169134D01*
X119486009Y-107269073D01*
X119515130Y-107369867D01*
X119523446Y-107405750D01*
X119542039Y-107507141D01*
X119555320Y-107617386D01*
X119562583Y-107721113D01*
X119565779Y-107831620D01*
X119565945Y-107864438D01*
X119563911Y-107977048D01*
X119557810Y-108082785D01*
X119547642Y-108181651D01*
X119531041Y-108286225D01*
X119523446Y-108323126D01*
X119496411Y-108426874D01*
X119463117Y-108520499D01*
X119418781Y-108612653D01*
X119398883Y-108646015D01*
X119330287Y-108736158D01*
X119250528Y-108807650D01*
X119159607Y-108860493D01*
X119057523Y-108894685D01*
X118944276Y-108910226D01*
X118904047Y-108911263D01*
X118805448Y-108904787D01*
X118697645Y-108879920D01*
X118601314Y-108836403D01*
X118516455Y-108774235D01*
X118443068Y-108693418D01*
X118410676Y-108646015D01*
X118362548Y-108556737D01*
X118322577Y-108455296D01*
X118290763Y-108341689D01*
X118271186Y-108242046D01*
X118256829Y-108134617D01*
X118247693Y-108019403D01*
X118243777Y-107896404D01*
X118243614Y-107864438D01*
X118521074Y-107864438D01*
X118522570Y-107967211D01*
X118528647Y-108085909D01*
X118539400Y-108193755D01*
X118554827Y-108290749D01*
X118579511Y-108392816D01*
X118616817Y-108492142D01*
X118670672Y-108582329D01*
X118745565Y-108652988D01*
X118835605Y-108691036D01*
X118904047Y-108698283D01*
X119005957Y-108681977D01*
X119091871Y-108633059D01*
X119161788Y-108551528D01*
X119193719Y-108492142D01*
X119230644Y-108391981D01*
X119255076Y-108289571D01*
X119270346Y-108192553D01*
X119280989Y-108084922D01*
X119287004Y-107966676D01*
X119288485Y-107864438D01*
X119287004Y-107761993D01*
X119280989Y-107643597D01*
X119270346Y-107535935D01*
X119255076Y-107439006D01*
X119230644Y-107336859D01*
X119193719Y-107237222D01*
X119140260Y-107146394D01*
X119065011Y-107075232D01*
X118973765Y-107036914D01*
X118904047Y-107029616D01*
X118803316Y-107045922D01*
X118718197Y-107094840D01*
X118648688Y-107176370D01*
X118616817Y-107235757D01*
X118581872Y-107327334D01*
X118556627Y-107427180D01*
X118545010Y-107492212D01*
X118532387Y-107594679D01*
X118525024Y-107697668D01*
X118521658Y-107797777D01*
X118521074Y-107864438D01*
X118243614Y-107864438D01*
X118246224Y-107739263D01*
X118254055Y-107621905D01*
X118267107Y-107512362D01*
X118285379Y-107410635D01*
X118315562Y-107294467D01*
X118353901Y-107190511D01*
X118400398Y-107098767D01*
X118410676Y-107081884D01*
X118478327Y-106991741D01*
X118557451Y-106920248D01*
X118648046Y-106867406D01*
X118750112Y-106833214D01*
X118863651Y-106817672D01*
X118904047Y-106816636D01*
X119002681Y-106823112D01*
G37*
G36*
X119953802Y-108696329D02*
G01*
X119987996Y-108611332D01*
X120056175Y-108539575D01*
X120127410Y-108464322D01*
X120172644Y-108416427D01*
X120240936Y-108343688D01*
X120312091Y-108267133D01*
X120378578Y-108194971D01*
X120401255Y-108170230D01*
X120469087Y-108095979D01*
X120537986Y-108020589D01*
X120540962Y-108017334D01*
X120607988Y-107943142D01*
X120612769Y-107937711D01*
X120663572Y-107878115D01*
X120724909Y-107801479D01*
X120778855Y-107728639D01*
X120831014Y-107644470D01*
X120849685Y-107606517D01*
X120882410Y-107513005D01*
X120897136Y-107413020D01*
X120897557Y-107393049D01*
X120887777Y-107294007D01*
X120854430Y-107201700D01*
X120797417Y-107126824D01*
X120711001Y-107067588D01*
X120613200Y-107037305D01*
X120519957Y-107029616D01*
X120410012Y-107038615D01*
X120311197Y-107060654D01*
X120208157Y-107095917D01*
X120100892Y-107144403D01*
X120008278Y-107194909D01*
X119970411Y-107217683D01*
X119970411Y-106942177D01*
X120066008Y-106903105D01*
X120161374Y-106871190D01*
X120247871Y-106848387D01*
X120349010Y-106829039D01*
X120449463Y-106818620D01*
X120516049Y-106816636D01*
X120620120Y-106822063D01*
X120719107Y-106838343D01*
X120782274Y-106855226D01*
X120878323Y-106893440D01*
X120964052Y-106946165D01*
X121000139Y-106975394D01*
X121069533Y-107050713D01*
X121121519Y-107133794D01*
X121131053Y-107153203D01*
X121164779Y-107250148D01*
X121179185Y-107349210D01*
X121180390Y-107389630D01*
X121171941Y-107490586D01*
X121146593Y-107591954D01*
X121120306Y-107659762D01*
X121073193Y-107748259D01*
X121042637Y-107793607D01*
X120981380Y-107874270D01*
X120921981Y-107947480D01*
X120857280Y-108022264D01*
X120827703Y-108055924D01*
X120760590Y-108130422D01*
X120700697Y-108195631D01*
X120632523Y-108267793D01*
X120603977Y-108297236D01*
X120534551Y-108366845D01*
X120510187Y-108391025D01*
X120439552Y-108461861D01*
X120397347Y-108504842D01*
X120326883Y-108577871D01*
X120259380Y-108649076D01*
X120242497Y-108667020D01*
X121194067Y-108667020D01*
X121194067Y-108880000D01*
X119953802Y-108880000D01*
X119953802Y-108696329D01*
G37*
G36*
X122710327Y-108166810D02*
G01*
X122982414Y-108166810D01*
X122982414Y-108379790D01*
X122710327Y-108379790D01*
X122710327Y-108880000D01*
X122435310Y-108880000D01*
X122435310Y-108379790D01*
X121569713Y-108379790D01*
X121569713Y-108166810D01*
X121791485Y-108166810D01*
X122435310Y-108166810D01*
X122435310Y-107107773D01*
X121791485Y-108166810D01*
X121569713Y-108166810D01*
X121569713Y-108130174D01*
X122390369Y-106847899D01*
X122710327Y-106847899D01*
X122710327Y-108166810D01*
G37*
G36*
X123396649Y-107947969D02*
G01*
X124518701Y-107947969D01*
X124518701Y-108160949D01*
X123396649Y-108160949D01*
X123396649Y-107947969D01*
G37*
G36*
X125703279Y-107432128D02*
G01*
X125736526Y-107525238D01*
X125749197Y-107581605D01*
X125764834Y-107679799D01*
X125771178Y-107736943D01*
X125778672Y-107836245D01*
X125779483Y-107869323D01*
X125775189Y-107968756D01*
X125774598Y-107978743D01*
X125765697Y-108077166D01*
X125756035Y-108146294D01*
X125733362Y-108244053D01*
X125684422Y-108332530D01*
X125644172Y-108348527D01*
X125576273Y-108288932D01*
X125545903Y-108192665D01*
X125536217Y-108149225D01*
X125519488Y-108048999D01*
X125513258Y-107995352D01*
X125505504Y-107895895D01*
X125504465Y-107858576D01*
X125508579Y-107760054D01*
X125509839Y-107739385D01*
X125520416Y-107640736D01*
X125531820Y-107577208D01*
X125556241Y-107481574D01*
X125602830Y-107395021D01*
X125638310Y-107379371D01*
X125703279Y-107432128D01*
G37*
G36*
X125739876Y-106823112D02*
G01*
X125847816Y-106847979D01*
X125944387Y-106891496D01*
X126029590Y-106953663D01*
X126103424Y-107034481D01*
X126136077Y-107081884D01*
X126183504Y-107169134D01*
X126223203Y-107269073D01*
X126252325Y-107369867D01*
X126260641Y-107405750D01*
X126279234Y-107507141D01*
X126292515Y-107617386D01*
X126299778Y-107721113D01*
X126302973Y-107831620D01*
X126303139Y-107864438D01*
X126301106Y-107977048D01*
X126295005Y-108082785D01*
X126284837Y-108181651D01*
X126268236Y-108286225D01*
X126260641Y-108323126D01*
X126233606Y-108426874D01*
X126200311Y-108520499D01*
X126155975Y-108612653D01*
X126136077Y-108646015D01*
X126067481Y-108736158D01*
X125987723Y-108807650D01*
X125896801Y-108860493D01*
X125794717Y-108894685D01*
X125681471Y-108910226D01*
X125641241Y-108911263D01*
X125542642Y-108904787D01*
X125434840Y-108879920D01*
X125338509Y-108836403D01*
X125253650Y-108774235D01*
X125180262Y-108693418D01*
X125147871Y-108646015D01*
X125099742Y-108556737D01*
X125059772Y-108455296D01*
X125027958Y-108341689D01*
X125008380Y-108242046D01*
X124994023Y-108134617D01*
X124984887Y-108019403D01*
X124980972Y-107896404D01*
X124980809Y-107864438D01*
X125258268Y-107864438D01*
X125259764Y-107967211D01*
X125265842Y-108085909D01*
X125276594Y-108193755D01*
X125292022Y-108290749D01*
X125316705Y-108392816D01*
X125354012Y-108492142D01*
X125407867Y-108582329D01*
X125482760Y-108652988D01*
X125572800Y-108691036D01*
X125641241Y-108698283D01*
X125743152Y-108681977D01*
X125829066Y-108633059D01*
X125898983Y-108551528D01*
X125930913Y-108492142D01*
X125967839Y-108391981D01*
X125992271Y-108289571D01*
X126007541Y-108192553D01*
X126018183Y-108084922D01*
X126024199Y-107966676D01*
X126025679Y-107864438D01*
X126024199Y-107761993D01*
X126018183Y-107643597D01*
X126007541Y-107535935D01*
X125992271Y-107439006D01*
X125967839Y-107336859D01*
X125930913Y-107237222D01*
X125877455Y-107146394D01*
X125802205Y-107075232D01*
X125710959Y-107036914D01*
X125641241Y-107029616D01*
X125540511Y-107045922D01*
X125455392Y-107094840D01*
X125385882Y-107176370D01*
X125354012Y-107235757D01*
X125319066Y-107327334D01*
X125293822Y-107427180D01*
X125282204Y-107492212D01*
X125269582Y-107594679D01*
X125262219Y-107697668D01*
X125258853Y-107797777D01*
X125258268Y-107864438D01*
X124980809Y-107864438D01*
X124983419Y-107739263D01*
X124991250Y-107621905D01*
X125004302Y-107512362D01*
X125022574Y-107410635D01*
X125052756Y-107294467D01*
X125091096Y-107190511D01*
X125137592Y-107098767D01*
X125147871Y-107081884D01*
X125215522Y-106991741D01*
X125294645Y-106920248D01*
X125385240Y-106867406D01*
X125487307Y-106833214D01*
X125600846Y-106817672D01*
X125641241Y-106816636D01*
X125739876Y-106823112D01*
G37*
G36*
X127763223Y-108166810D02*
G01*
X128035310Y-108166810D01*
X128035310Y-108379790D01*
X127763223Y-108379790D01*
X127763223Y-108880000D01*
X127488206Y-108880000D01*
X127488206Y-108379790D01*
X126622609Y-108379790D01*
X126622609Y-108166810D01*
X126844381Y-108166810D01*
X127488206Y-108166810D01*
X127488206Y-107107773D01*
X126844381Y-108166810D01*
X126622609Y-108166810D01*
X126622609Y-108130174D01*
X127443265Y-106847899D01*
X127763223Y-106847899D01*
X127763223Y-108166810D01*
G37*
G36*
X190683124Y-82090276D02*
G01*
X191201896Y-82090276D01*
X191201896Y-84556152D01*
X192522762Y-83278273D01*
X193135323Y-83278273D01*
X191929740Y-84438915D01*
X193323878Y-86342056D01*
X192708386Y-86342056D01*
X191577053Y-84766201D01*
X191201896Y-85116933D01*
X191201896Y-86342056D01*
X190683124Y-86342056D01*
X190683124Y-82090276D01*
G37*
G36*
X191494988Y-89435538D02*
G01*
X191412922Y-89355426D01*
X191412922Y-88890388D01*
X191494988Y-88810276D01*
X191888707Y-88810276D01*
X191970773Y-88890388D01*
X191970773Y-89355426D01*
X191888707Y-89435538D01*
X191494988Y-89435538D01*
G37*
G36*
X192413341Y-93062056D02*
G01*
X192200422Y-93044226D01*
X191991397Y-92981543D01*
X191814675Y-92873729D01*
X191714806Y-92776780D01*
X191595323Y-92597920D01*
X191521943Y-92408051D01*
X191479460Y-92189118D01*
X191467632Y-91973709D01*
X191467632Y-90424233D01*
X190797430Y-90424233D01*
X190797430Y-89998273D01*
X191970773Y-89998273D01*
X191970773Y-91958078D01*
X191985549Y-92166631D01*
X192041115Y-92365475D01*
X192095825Y-92462195D01*
X192250675Y-92592621D01*
X192448197Y-92635926D01*
X192463166Y-92636096D01*
X193050326Y-92636096D01*
X193050326Y-93062056D01*
X192413341Y-93062056D01*
G37*
G36*
X192111151Y-96670722D02*
G01*
X192321337Y-96726047D01*
X192509084Y-96822137D01*
X192674391Y-96958994D01*
X192778728Y-97081707D01*
X192885970Y-97252364D01*
X192971023Y-97444865D01*
X193033889Y-97659211D01*
X193069328Y-97854520D01*
X193089359Y-98064998D01*
X193094290Y-98244303D01*
X193086514Y-98468958D01*
X193063187Y-98678253D01*
X193024308Y-98872188D01*
X192957126Y-99084633D01*
X192867550Y-99274960D01*
X192775797Y-99416668D01*
X192625657Y-99583404D01*
X192453919Y-99709187D01*
X192260583Y-99794018D01*
X192045648Y-99837896D01*
X191913131Y-99844582D01*
X191709181Y-99828267D01*
X191500237Y-99767993D01*
X191322522Y-99663308D01*
X191176035Y-99514210D01*
X191090521Y-99380520D01*
X191090521Y-100970053D01*
X190584450Y-100970053D01*
X190584450Y-98247233D01*
X191090521Y-98247233D01*
X191097391Y-98449192D01*
X191122769Y-98661889D01*
X191174671Y-98874747D01*
X191250997Y-99055364D01*
X191285916Y-99114784D01*
X191424733Y-99275011D01*
X191596944Y-99375895D01*
X191802547Y-99417435D01*
X191847674Y-99418622D01*
X192054823Y-99390095D01*
X192257056Y-99280552D01*
X192386962Y-99126508D01*
X192481759Y-98915409D01*
X192532318Y-98705452D01*
X192560405Y-98458981D01*
X192566725Y-98250164D01*
X192560405Y-98041348D01*
X192532318Y-97794877D01*
X192481759Y-97584919D01*
X192386962Y-97373821D01*
X192257056Y-97219776D01*
X192054823Y-97110233D01*
X191847674Y-97081707D01*
X191633943Y-97111283D01*
X191454367Y-97200012D01*
X191308947Y-97347893D01*
X191283962Y-97384568D01*
X191190453Y-97575252D01*
X191133025Y-97778874D01*
X191102611Y-97983390D01*
X191090710Y-98212497D01*
X191090521Y-98247233D01*
X190584450Y-98247233D01*
X190584450Y-96718273D01*
X191040696Y-96718273D01*
X191090521Y-97137394D01*
X191199217Y-96973709D01*
X191352596Y-96825546D01*
X191534585Y-96723479D01*
X191745186Y-96667506D01*
X191913131Y-96655747D01*
X192111151Y-96670722D01*
G37*
G36*
X190890242Y-103438273D02*
G01*
X191347465Y-103438273D01*
X191396314Y-104044972D01*
X191489507Y-103857554D01*
X191607889Y-103699521D01*
X191767200Y-103559626D01*
X191783194Y-103548671D01*
X191973192Y-103450219D01*
X192166755Y-103396180D01*
X192380162Y-103375916D01*
X192402594Y-103375747D01*
X192606991Y-103389580D01*
X192815971Y-103437398D01*
X193005870Y-103519372D01*
X193059119Y-103550625D01*
X193059119Y-104078189D01*
X192904330Y-103957228D01*
X192713989Y-103862457D01*
X192506493Y-103811427D01*
X192358630Y-103801707D01*
X192139606Y-103820452D01*
X191947570Y-103876689D01*
X191763789Y-103984769D01*
X191644464Y-104101637D01*
X191535898Y-104267905D01*
X191458351Y-104466780D01*
X191415943Y-104667543D01*
X191397283Y-104893270D01*
X191396314Y-104962349D01*
X191396314Y-106502056D01*
X190890242Y-106502056D01*
X190890242Y-103438273D01*
G37*
G36*
X191897256Y-110106326D02*
G01*
X192095825Y-110138062D01*
X192225762Y-110170974D01*
X192410043Y-110240262D01*
X192587356Y-110346023D01*
X192673215Y-110416194D01*
X192805778Y-110573500D01*
X192891507Y-110752767D01*
X192925274Y-110872439D01*
X192953106Y-111070291D01*
X192964860Y-111268128D01*
X192968260Y-111480116D01*
X192968260Y-112104400D01*
X192972245Y-112304069D01*
X192982897Y-112500616D01*
X192996593Y-112671044D01*
X193025516Y-112876322D01*
X193077082Y-113081303D01*
X193129461Y-113222056D01*
X192624367Y-113222056D01*
X192561062Y-113032985D01*
X192550117Y-112986605D01*
X192513933Y-112793859D01*
X192506153Y-112741386D01*
X192380551Y-112914057D01*
X192225396Y-113053249D01*
X192058700Y-113150737D01*
X191858879Y-113226939D01*
X191651669Y-113271511D01*
X191456886Y-113284582D01*
X191244822Y-113268706D01*
X191052175Y-113221079D01*
X190858658Y-113129545D01*
X190725134Y-113030569D01*
X190585816Y-112870144D01*
X190492092Y-112674635D01*
X190447060Y-112471394D01*
X190437160Y-112304679D01*
X190940068Y-112304679D01*
X190969252Y-112507691D01*
X191075455Y-112684233D01*
X191116900Y-112720869D01*
X191293052Y-112815036D01*
X191493459Y-112855259D01*
X191579984Y-112858622D01*
X191780508Y-112841306D01*
X191967927Y-112782916D01*
X192087032Y-112712076D01*
X192237806Y-112565790D01*
X192341644Y-112399144D01*
X192372308Y-112327150D01*
X192431135Y-112128454D01*
X192458819Y-111934739D01*
X192463166Y-111817171D01*
X192463166Y-111709704D01*
X191825204Y-111709704D01*
X191627467Y-111719793D01*
X191433595Y-111750061D01*
X191408037Y-111755621D01*
X191222413Y-111822300D01*
X191071959Y-111930499D01*
X190969048Y-112099845D01*
X190940068Y-112304679D01*
X190437160Y-112304679D01*
X190436928Y-112300771D01*
X190451997Y-112092511D01*
X190504090Y-111893376D01*
X190604368Y-111713558D01*
X190627437Y-111685280D01*
X190772937Y-111548396D01*
X190946143Y-111442681D01*
X191127646Y-111373626D01*
X191325121Y-111326227D01*
X191530418Y-111296384D01*
X191743539Y-111284095D01*
X191787102Y-111283744D01*
X192463166Y-111283744D01*
X192463166Y-111205587D01*
X192447478Y-111008557D01*
X192385695Y-110817698D01*
X192264841Y-110672160D01*
X192077259Y-110574747D01*
X191877228Y-110531110D01*
X191707967Y-110521707D01*
X191500514Y-110532560D01*
X191295808Y-110565121D01*
X191160863Y-110598887D01*
X190965042Y-110665291D01*
X190779112Y-110748730D01*
X190660654Y-110813821D01*
X190660654Y-110309704D01*
X190850385Y-110244628D01*
X191041490Y-110188620D01*
X191169656Y-110156319D01*
X191363875Y-110119408D01*
X191561116Y-110099533D01*
X191694290Y-110095747D01*
X191897256Y-110106326D01*
G37*
X194901483Y-33706875D02*
X194901483Y-32706875D01*
X194901483Y-32706875D02*
X195282435Y-32706875D01*
X195282435Y-32706875D02*
X195377673Y-32754494D01*
X195377673Y-32754494D02*
X195425292Y-32802113D01*
X195425292Y-32802113D02*
X195472911Y-32897351D01*
X195472911Y-32897351D02*
X195472911Y-33040208D01*
X195472911Y-33040208D02*
X195425292Y-33135446D01*
X195425292Y-33135446D02*
X195377673Y-33183065D01*
X195377673Y-33183065D02*
X195282435Y-33230684D01*
X195282435Y-33230684D02*
X194901483Y-33230684D01*
X196425292Y-33706875D02*
X195853864Y-33706875D01*
X196139578Y-33706875D02*
X196139578Y-32706875D01*
X196139578Y-32706875D02*
X196044340Y-32849732D01*
X196044340Y-32849732D02*
X195949102Y-32944970D01*
X195949102Y-32944970D02*
X195853864Y-32992589D01*
X198275542Y-33706873D02*
X197942209Y-33230682D01*
X197704114Y-33706873D02*
X197704114Y-32706873D01*
X197704114Y-32706873D02*
X198085066Y-32706873D01*
X198085066Y-32706873D02*
X198180304Y-32754492D01*
X198180304Y-32754492D02*
X198227923Y-32802111D01*
X198227923Y-32802111D02*
X198275542Y-32897349D01*
X198275542Y-32897349D02*
X198275542Y-33040206D01*
X198275542Y-33040206D02*
X198227923Y-33135444D01*
X198227923Y-33135444D02*
X198180304Y-33183063D01*
X198180304Y-33183063D02*
X198085066Y-33230682D01*
X198085066Y-33230682D02*
X197704114Y-33230682D01*
X198656495Y-33421158D02*
X199132685Y-33421158D01*
X198561257Y-33706873D02*
X198894590Y-32706873D01*
X198894590Y-32706873D02*
X199227923Y-33706873D01*
X199466019Y-32706873D02*
X199704114Y-33706873D01*
X199704114Y-33706873D02*
X199894590Y-32992587D01*
X199894590Y-32992587D02*
X200085066Y-33706873D01*
X200085066Y-33706873D02*
X200323162Y-32706873D01*
X194901483Y-36246874D02*
X194901483Y-35246874D01*
X194901483Y-35246874D02*
X195282435Y-35246874D01*
X195282435Y-35246874D02*
X195377673Y-35294493D01*
X195377673Y-35294493D02*
X195425292Y-35342112D01*
X195425292Y-35342112D02*
X195472911Y-35437350D01*
X195472911Y-35437350D02*
X195472911Y-35580207D01*
X195472911Y-35580207D02*
X195425292Y-35675445D01*
X195425292Y-35675445D02*
X195377673Y-35723064D01*
X195377673Y-35723064D02*
X195282435Y-35770683D01*
X195282435Y-35770683D02*
X194901483Y-35770683D01*
X196091959Y-35246874D02*
X196187197Y-35246874D01*
X196187197Y-35246874D02*
X196282435Y-35294493D01*
X196282435Y-35294493D02*
X196330054Y-35342112D01*
X196330054Y-35342112D02*
X196377673Y-35437350D01*
X196377673Y-35437350D02*
X196425292Y-35627826D01*
X196425292Y-35627826D02*
X196425292Y-35865921D01*
X196425292Y-35865921D02*
X196377673Y-36056397D01*
X196377673Y-36056397D02*
X196330054Y-36151635D01*
X196330054Y-36151635D02*
X196282435Y-36199255D01*
X196282435Y-36199255D02*
X196187197Y-36246874D01*
X196187197Y-36246874D02*
X196091959Y-36246874D01*
X196091959Y-36246874D02*
X195996721Y-36199255D01*
X195996721Y-36199255D02*
X195949102Y-36151635D01*
X195949102Y-36151635D02*
X195901483Y-36056397D01*
X195901483Y-36056397D02*
X195853864Y-35865921D01*
X195853864Y-35865921D02*
X195853864Y-35627826D01*
X195853864Y-35627826D02*
X195901483Y-35437350D01*
X195901483Y-35437350D02*
X195949102Y-35342112D01*
X195949102Y-35342112D02*
X195996721Y-35294493D01*
X195996721Y-35294493D02*
X196091959Y-35246874D01*
X198180305Y-35294492D02*
X198085067Y-35246873D01*
X198085067Y-35246873D02*
X197942210Y-35246873D01*
X197942210Y-35246873D02*
X197799353Y-35294492D01*
X197799353Y-35294492D02*
X197704115Y-35389730D01*
X197704115Y-35389730D02*
X197656496Y-35484968D01*
X197656496Y-35484968D02*
X197608877Y-35675444D01*
X197608877Y-35675444D02*
X197608877Y-35818301D01*
X197608877Y-35818301D02*
X197656496Y-36008777D01*
X197656496Y-36008777D02*
X197704115Y-36104015D01*
X197704115Y-36104015D02*
X197799353Y-36199254D01*
X197799353Y-36199254D02*
X197942210Y-36246873D01*
X197942210Y-36246873D02*
X198037448Y-36246873D01*
X198037448Y-36246873D02*
X198180305Y-36199254D01*
X198180305Y-36199254D02*
X198227924Y-36151634D01*
X198227924Y-36151634D02*
X198227924Y-35818301D01*
X198227924Y-35818301D02*
X198037448Y-35818301D01*
X198656496Y-36246873D02*
X198656496Y-35246873D01*
X198656496Y-35246873D02*
X199227924Y-36246873D01*
X199227924Y-36246873D02*
X199227924Y-35246873D01*
X199704115Y-36246873D02*
X199704115Y-35246873D01*
X199704115Y-35246873D02*
X199942210Y-35246873D01*
X199942210Y-35246873D02*
X200085067Y-35294492D01*
X200085067Y-35294492D02*
X200180305Y-35389730D01*
X200180305Y-35389730D02*
X200227924Y-35484968D01*
X200227924Y-35484968D02*
X200275543Y-35675444D01*
X200275543Y-35675444D02*
X200275543Y-35818301D01*
X200275543Y-35818301D02*
X200227924Y-36008777D01*
X200227924Y-36008777D02*
X200180305Y-36104015D01*
X200180305Y-36104015D02*
X200085067Y-36199254D01*
X200085067Y-36199254D02*
X199942210Y-36246873D01*
X199942210Y-36246873D02*
X199704115Y-36246873D01*
X195425292Y-37834493D02*
X195330054Y-37786874D01*
X195330054Y-37786874D02*
X195187197Y-37786874D01*
X195187197Y-37786874D02*
X195044340Y-37834493D01*
X195044340Y-37834493D02*
X194949102Y-37929731D01*
X194949102Y-37929731D02*
X194901483Y-38024969D01*
X194901483Y-38024969D02*
X194853864Y-38215445D01*
X194853864Y-38215445D02*
X194853864Y-38358302D01*
X194853864Y-38358302D02*
X194901483Y-38548778D01*
X194901483Y-38548778D02*
X194949102Y-38644016D01*
X194949102Y-38644016D02*
X195044340Y-38739255D01*
X195044340Y-38739255D02*
X195187197Y-38786874D01*
X195187197Y-38786874D02*
X195282435Y-38786874D01*
X195282435Y-38786874D02*
X195425292Y-38739255D01*
X195425292Y-38739255D02*
X195472911Y-38691635D01*
X195472911Y-38691635D02*
X195472911Y-38358302D01*
X195472911Y-38358302D02*
X195282435Y-38358302D01*
X195901483Y-38786874D02*
X195901483Y-37786874D01*
X195901483Y-37786874D02*
X196472911Y-38786874D01*
X196472911Y-38786874D02*
X196472911Y-37786874D01*
X196949102Y-38786874D02*
X196949102Y-37786874D01*
X196949102Y-37786874D02*
X197187197Y-37786874D01*
X197187197Y-37786874D02*
X197330054Y-37834493D01*
X197330054Y-37834493D02*
X197425292Y-37929731D01*
X197425292Y-37929731D02*
X197472911Y-38024969D01*
X197472911Y-38024969D02*
X197520530Y-38215445D01*
X197520530Y-38215445D02*
X197520530Y-38358302D01*
X197520530Y-38358302D02*
X197472911Y-38548778D01*
X197472911Y-38548778D02*
X197425292Y-38644016D01*
X197425292Y-38644016D02*
X197330054Y-38739255D01*
X197330054Y-38739255D02*
X197187197Y-38786874D01*
X197187197Y-38786874D02*
X196949102Y-38786874D01*
X198561257Y-38786874D02*
X198227924Y-38310683D01*
X197989829Y-38786874D02*
X197989829Y-37786874D01*
X197989829Y-37786874D02*
X198370781Y-37786874D01*
X198370781Y-37786874D02*
X198466019Y-37834493D01*
X198466019Y-37834493D02*
X198513638Y-37882112D01*
X198513638Y-37882112D02*
X198561257Y-37977350D01*
X198561257Y-37977350D02*
X198561257Y-38120207D01*
X198561257Y-38120207D02*
X198513638Y-38215445D01*
X198513638Y-38215445D02*
X198466019Y-38263064D01*
X198466019Y-38263064D02*
X198370781Y-38310683D01*
X198370781Y-38310683D02*
X197989829Y-38310683D01*
X198942210Y-38739255D02*
X199085067Y-38786874D01*
X199085067Y-38786874D02*
X199323162Y-38786874D01*
X199323162Y-38786874D02*
X199418400Y-38739255D01*
X199418400Y-38739255D02*
X199466019Y-38691635D01*
X199466019Y-38691635D02*
X199513638Y-38596397D01*
X199513638Y-38596397D02*
X199513638Y-38501159D01*
X199513638Y-38501159D02*
X199466019Y-38405921D01*
X199466019Y-38405921D02*
X199418400Y-38358302D01*
X199418400Y-38358302D02*
X199323162Y-38310683D01*
X199323162Y-38310683D02*
X199132686Y-38263064D01*
X199132686Y-38263064D02*
X199037448Y-38215445D01*
X199037448Y-38215445D02*
X198989829Y-38167826D01*
X198989829Y-38167826D02*
X198942210Y-38072588D01*
X198942210Y-38072588D02*
X198942210Y-37977350D01*
X198942210Y-37977350D02*
X198989829Y-37882112D01*
X198989829Y-37882112D02*
X199037448Y-37834493D01*
X199037448Y-37834493D02*
X199132686Y-37786874D01*
X199132686Y-37786874D02*
X199370781Y-37786874D01*
X199370781Y-37786874D02*
X199513638Y-37834493D01*
X199799353Y-37786874D02*
X200370781Y-37786874D01*
X200085067Y-38786874D02*
X200085067Y-37786874D01*
X195425292Y-40374493D02*
X195330054Y-40326874D01*
X195330054Y-40326874D02*
X195187197Y-40326874D01*
X195187197Y-40326874D02*
X195044340Y-40374493D01*
X195044340Y-40374493D02*
X194949102Y-40469731D01*
X194949102Y-40469731D02*
X194901483Y-40564969D01*
X194901483Y-40564969D02*
X194853864Y-40755445D01*
X194853864Y-40755445D02*
X194853864Y-40898302D01*
X194853864Y-40898302D02*
X194901483Y-41088778D01*
X194901483Y-41088778D02*
X194949102Y-41184016D01*
X194949102Y-41184016D02*
X195044340Y-41279255D01*
X195044340Y-41279255D02*
X195187197Y-41326874D01*
X195187197Y-41326874D02*
X195282435Y-41326874D01*
X195282435Y-41326874D02*
X195425292Y-41279255D01*
X195425292Y-41279255D02*
X195472911Y-41231635D01*
X195472911Y-41231635D02*
X195472911Y-40898302D01*
X195472911Y-40898302D02*
X195282435Y-40898302D01*
X195901483Y-41326874D02*
X195901483Y-40326874D01*
X195901483Y-40326874D02*
X196472911Y-41326874D01*
X196472911Y-41326874D02*
X196472911Y-40326874D01*
X196949102Y-41326874D02*
X196949102Y-40326874D01*
X196949102Y-40326874D02*
X197187197Y-40326874D01*
X197187197Y-40326874D02*
X197330054Y-40374493D01*
X197330054Y-40374493D02*
X197425292Y-40469731D01*
X197425292Y-40469731D02*
X197472911Y-40564969D01*
X197472911Y-40564969D02*
X197520530Y-40755445D01*
X197520530Y-40755445D02*
X197520530Y-40898302D01*
X197520530Y-40898302D02*
X197472911Y-41088778D01*
X197472911Y-41088778D02*
X197425292Y-41184016D01*
X197425292Y-41184016D02*
X197330054Y-41279255D01*
X197330054Y-41279255D02*
X197187197Y-41326874D01*
X197187197Y-41326874D02*
X196949102Y-41326874D01*
X197704115Y-40326873D02*
X198037448Y-41326873D01*
X198037448Y-41326873D02*
X198370781Y-40326873D01*
X199275543Y-41231634D02*
X199227924Y-41279254D01*
X199227924Y-41279254D02*
X199085067Y-41326873D01*
X199085067Y-41326873D02*
X198989829Y-41326873D01*
X198989829Y-41326873D02*
X198846972Y-41279254D01*
X198846972Y-41279254D02*
X198751734Y-41184015D01*
X198751734Y-41184015D02*
X198704115Y-41088777D01*
X198704115Y-41088777D02*
X198656496Y-40898301D01*
X198656496Y-40898301D02*
X198656496Y-40755444D01*
X198656496Y-40755444D02*
X198704115Y-40564968D01*
X198704115Y-40564968D02*
X198751734Y-40469730D01*
X198751734Y-40469730D02*
X198846972Y-40374492D01*
X198846972Y-40374492D02*
X198989829Y-40326873D01*
X198989829Y-40326873D02*
X199085067Y-40326873D01*
X199085067Y-40326873D02*
X199227924Y-40374492D01*
X199227924Y-40374492D02*
X199275543Y-40422111D01*
X200275543Y-41231634D02*
X200227924Y-41279254D01*
X200227924Y-41279254D02*
X200085067Y-41326873D01*
X200085067Y-41326873D02*
X199989829Y-41326873D01*
X199989829Y-41326873D02*
X199846972Y-41279254D01*
X199846972Y-41279254D02*
X199751734Y-41184015D01*
X199751734Y-41184015D02*
X199704115Y-41088777D01*
X199704115Y-41088777D02*
X199656496Y-40898301D01*
X199656496Y-40898301D02*
X199656496Y-40755444D01*
X199656496Y-40755444D02*
X199704115Y-40564968D01*
X199704115Y-40564968D02*
X199751734Y-40469730D01*
X199751734Y-40469730D02*
X199846972Y-40374492D01*
X199846972Y-40374492D02*
X199989829Y-40326873D01*
X199989829Y-40326873D02*
X200085067Y-40326873D01*
X200085067Y-40326873D02*
X200227924Y-40374492D01*
X200227924Y-40374492D02*
X200275543Y-40422111D01*
X194901483Y-43866875D02*
X194901483Y-42866875D01*
X194901483Y-42866875D02*
X195282435Y-42866875D01*
X195282435Y-42866875D02*
X195377673Y-42914494D01*
X195377673Y-42914494D02*
X195425292Y-42962113D01*
X195425292Y-42962113D02*
X195472911Y-43057351D01*
X195472911Y-43057351D02*
X195472911Y-43200208D01*
X195472911Y-43200208D02*
X195425292Y-43295446D01*
X195425292Y-43295446D02*
X195377673Y-43343065D01*
X195377673Y-43343065D02*
X195282435Y-43390684D01*
X195282435Y-43390684D02*
X194901483Y-43390684D01*
X195853864Y-42962113D02*
X195901483Y-42914494D01*
X195901483Y-42914494D02*
X195996721Y-42866875D01*
X195996721Y-42866875D02*
X196234816Y-42866875D01*
X196234816Y-42866875D02*
X196330054Y-42914494D01*
X196330054Y-42914494D02*
X196377673Y-42962113D01*
X196377673Y-42962113D02*
X196425292Y-43057351D01*
X196425292Y-43057351D02*
X196425292Y-43152589D01*
X196425292Y-43152589D02*
X196377673Y-43295446D01*
X196377673Y-43295446D02*
X195806245Y-43866875D01*
X195806245Y-43866875D02*
X196425292Y-43866875D01*
X197799353Y-43866874D02*
X197799353Y-42866874D01*
X197799353Y-42866874D02*
X198180305Y-42866874D01*
X198180305Y-42866874D02*
X198275543Y-42914493D01*
X198275543Y-42914493D02*
X198323162Y-42962112D01*
X198323162Y-42962112D02*
X198370781Y-43057350D01*
X198370781Y-43057350D02*
X198370781Y-43200207D01*
X198370781Y-43200207D02*
X198323162Y-43295445D01*
X198323162Y-43295445D02*
X198275543Y-43343064D01*
X198275543Y-43343064D02*
X198180305Y-43390683D01*
X198180305Y-43390683D02*
X197799353Y-43390683D01*
X198751734Y-42962112D02*
X198799353Y-42914493D01*
X198799353Y-42914493D02*
X198894591Y-42866874D01*
X198894591Y-42866874D02*
X199132686Y-42866874D01*
X199132686Y-42866874D02*
X199227924Y-42914493D01*
X199227924Y-42914493D02*
X199275543Y-42962112D01*
X199275543Y-42962112D02*
X199323162Y-43057350D01*
X199323162Y-43057350D02*
X199323162Y-43152588D01*
X199323162Y-43152588D02*
X199275543Y-43295445D01*
X199275543Y-43295445D02*
X198704115Y-43866874D01*
X198704115Y-43866874D02*
X199323162Y-43866874D01*
X200275543Y-43866874D02*
X199704115Y-43866874D01*
X199989829Y-43866874D02*
X199989829Y-42866874D01*
X199989829Y-42866874D02*
X199894591Y-43009731D01*
X199894591Y-43009731D02*
X199799353Y-43104969D01*
X199799353Y-43104969D02*
X199704115Y-43152588D01*
X194901483Y-46406874D02*
X194901483Y-45406874D01*
X194901483Y-45406874D02*
X195282435Y-45406874D01*
X195282435Y-45406874D02*
X195377673Y-45454493D01*
X195377673Y-45454493D02*
X195425292Y-45502112D01*
X195425292Y-45502112D02*
X195472911Y-45597350D01*
X195472911Y-45597350D02*
X195472911Y-45740207D01*
X195472911Y-45740207D02*
X195425292Y-45835445D01*
X195425292Y-45835445D02*
X195377673Y-45883064D01*
X195377673Y-45883064D02*
X195282435Y-45930683D01*
X195282435Y-45930683D02*
X194901483Y-45930683D01*
X195806245Y-45406874D02*
X196425292Y-45406874D01*
X196425292Y-45406874D02*
X196091959Y-45787826D01*
X196091959Y-45787826D02*
X196234816Y-45787826D01*
X196234816Y-45787826D02*
X196330054Y-45835445D01*
X196330054Y-45835445D02*
X196377673Y-45883064D01*
X196377673Y-45883064D02*
X196425292Y-45978302D01*
X196425292Y-45978302D02*
X196425292Y-46216397D01*
X196425292Y-46216397D02*
X196377673Y-46311635D01*
X196377673Y-46311635D02*
X196330054Y-46359255D01*
X196330054Y-46359255D02*
X196234816Y-46406874D01*
X196234816Y-46406874D02*
X195949102Y-46406874D01*
X195949102Y-46406874D02*
X195853864Y-46359255D01*
X195853864Y-46359255D02*
X195806245Y-46311635D01*
X197799353Y-46406874D02*
X197799353Y-45406874D01*
X197799353Y-45406874D02*
X198180305Y-45406874D01*
X198180305Y-45406874D02*
X198275543Y-45454493D01*
X198275543Y-45454493D02*
X198323162Y-45502112D01*
X198323162Y-45502112D02*
X198370781Y-45597350D01*
X198370781Y-45597350D02*
X198370781Y-45740207D01*
X198370781Y-45740207D02*
X198323162Y-45835445D01*
X198323162Y-45835445D02*
X198275543Y-45883064D01*
X198275543Y-45883064D02*
X198180305Y-45930683D01*
X198180305Y-45930683D02*
X197799353Y-45930683D01*
X198751734Y-45502112D02*
X198799353Y-45454493D01*
X198799353Y-45454493D02*
X198894591Y-45406874D01*
X198894591Y-45406874D02*
X199132686Y-45406874D01*
X199132686Y-45406874D02*
X199227924Y-45454493D01*
X199227924Y-45454493D02*
X199275543Y-45502112D01*
X199275543Y-45502112D02*
X199323162Y-45597350D01*
X199323162Y-45597350D02*
X199323162Y-45692588D01*
X199323162Y-45692588D02*
X199275543Y-45835445D01*
X199275543Y-45835445D02*
X198704115Y-46406874D01*
X198704115Y-46406874D02*
X199323162Y-46406874D01*
X199942210Y-45406874D02*
X200037448Y-45406874D01*
X200037448Y-45406874D02*
X200132686Y-45454493D01*
X200132686Y-45454493D02*
X200180305Y-45502112D01*
X200180305Y-45502112D02*
X200227924Y-45597350D01*
X200227924Y-45597350D02*
X200275543Y-45787826D01*
X200275543Y-45787826D02*
X200275543Y-46025921D01*
X200275543Y-46025921D02*
X200227924Y-46216397D01*
X200227924Y-46216397D02*
X200180305Y-46311635D01*
X200180305Y-46311635D02*
X200132686Y-46359255D01*
X200132686Y-46359255D02*
X200037448Y-46406874D01*
X200037448Y-46406874D02*
X199942210Y-46406874D01*
X199942210Y-46406874D02*
X199846972Y-46359255D01*
X199846972Y-46359255D02*
X199799353Y-46311635D01*
X199799353Y-46311635D02*
X199751734Y-46216397D01*
X199751734Y-46216397D02*
X199704115Y-46025921D01*
X199704115Y-46025921D02*
X199704115Y-45787826D01*
X199704115Y-45787826D02*
X199751734Y-45597350D01*
X199751734Y-45597350D02*
X199799353Y-45502112D01*
X199799353Y-45502112D02*
X199846972Y-45454493D01*
X199846972Y-45454493D02*
X199942210Y-45406874D01*
X194901483Y-48946874D02*
X194901483Y-47946874D01*
X194901483Y-47946874D02*
X195282435Y-47946874D01*
X195282435Y-47946874D02*
X195377673Y-47994493D01*
X195377673Y-47994493D02*
X195425292Y-48042112D01*
X195425292Y-48042112D02*
X195472911Y-48137350D01*
X195472911Y-48137350D02*
X195472911Y-48280207D01*
X195472911Y-48280207D02*
X195425292Y-48375445D01*
X195425292Y-48375445D02*
X195377673Y-48423064D01*
X195377673Y-48423064D02*
X195282435Y-48470683D01*
X195282435Y-48470683D02*
X194901483Y-48470683D01*
X196330054Y-48280207D02*
X196330054Y-48946874D01*
X196091959Y-47899255D02*
X195853864Y-48613540D01*
X195853864Y-48613540D02*
X196472911Y-48613540D01*
X197799353Y-48946873D02*
X197799353Y-47946873D01*
X197799353Y-47946873D02*
X198180305Y-47946873D01*
X198180305Y-47946873D02*
X198275543Y-47994492D01*
X198275543Y-47994492D02*
X198323162Y-48042111D01*
X198323162Y-48042111D02*
X198370781Y-48137349D01*
X198370781Y-48137349D02*
X198370781Y-48280206D01*
X198370781Y-48280206D02*
X198323162Y-48375444D01*
X198323162Y-48375444D02*
X198275543Y-48423063D01*
X198275543Y-48423063D02*
X198180305Y-48470682D01*
X198180305Y-48470682D02*
X197799353Y-48470682D01*
X199323162Y-48946873D02*
X198751734Y-48946873D01*
X199037448Y-48946873D02*
X199037448Y-47946873D01*
X199037448Y-47946873D02*
X198942210Y-48089730D01*
X198942210Y-48089730D02*
X198846972Y-48184968D01*
X198846972Y-48184968D02*
X198751734Y-48232587D01*
X199799353Y-48946873D02*
X199989829Y-48946873D01*
X199989829Y-48946873D02*
X200085067Y-48899254D01*
X200085067Y-48899254D02*
X200132686Y-48851634D01*
X200132686Y-48851634D02*
X200227924Y-48708777D01*
X200227924Y-48708777D02*
X200275543Y-48518301D01*
X200275543Y-48518301D02*
X200275543Y-48137349D01*
X200275543Y-48137349D02*
X200227924Y-48042111D01*
X200227924Y-48042111D02*
X200180305Y-47994492D01*
X200180305Y-47994492D02*
X200085067Y-47946873D01*
X200085067Y-47946873D02*
X199894591Y-47946873D01*
X199894591Y-47946873D02*
X199799353Y-47994492D01*
X199799353Y-47994492D02*
X199751734Y-48042111D01*
X199751734Y-48042111D02*
X199704115Y-48137349D01*
X199704115Y-48137349D02*
X199704115Y-48375444D01*
X199704115Y-48375444D02*
X199751734Y-48470682D01*
X199751734Y-48470682D02*
X199799353Y-48518301D01*
X199799353Y-48518301D02*
X199894591Y-48565920D01*
X199894591Y-48565920D02*
X200085067Y-48565920D01*
X200085067Y-48565920D02*
X200180305Y-48518301D01*
X200180305Y-48518301D02*
X200227924Y-48470682D01*
X200227924Y-48470682D02*
X200275543Y-48375444D01*
X194901483Y-51486875D02*
X194901483Y-50486875D01*
X194901483Y-50486875D02*
X195282435Y-50486875D01*
X195282435Y-50486875D02*
X195377673Y-50534494D01*
X195377673Y-50534494D02*
X195425292Y-50582113D01*
X195425292Y-50582113D02*
X195472911Y-50677351D01*
X195472911Y-50677351D02*
X195472911Y-50820208D01*
X195472911Y-50820208D02*
X195425292Y-50915446D01*
X195425292Y-50915446D02*
X195377673Y-50963065D01*
X195377673Y-50963065D02*
X195282435Y-51010684D01*
X195282435Y-51010684D02*
X194901483Y-51010684D01*
X196377673Y-50486875D02*
X195901483Y-50486875D01*
X195901483Y-50486875D02*
X195853864Y-50963065D01*
X195853864Y-50963065D02*
X195901483Y-50915446D01*
X195901483Y-50915446D02*
X195996721Y-50867827D01*
X195996721Y-50867827D02*
X196234816Y-50867827D01*
X196234816Y-50867827D02*
X196330054Y-50915446D01*
X196330054Y-50915446D02*
X196377673Y-50963065D01*
X196377673Y-50963065D02*
X196425292Y-51058303D01*
X196425292Y-51058303D02*
X196425292Y-51296398D01*
X196425292Y-51296398D02*
X196377673Y-51391636D01*
X196377673Y-51391636D02*
X196330054Y-51439256D01*
X196330054Y-51439256D02*
X196234816Y-51486875D01*
X196234816Y-51486875D02*
X195996721Y-51486875D01*
X195996721Y-51486875D02*
X195901483Y-51439256D01*
X195901483Y-51439256D02*
X195853864Y-51391636D01*
X197799353Y-51486874D02*
X197799353Y-50486874D01*
X197799353Y-50486874D02*
X198180305Y-50486874D01*
X198180305Y-50486874D02*
X198275543Y-50534493D01*
X198275543Y-50534493D02*
X198323162Y-50582112D01*
X198323162Y-50582112D02*
X198370781Y-50677350D01*
X198370781Y-50677350D02*
X198370781Y-50820207D01*
X198370781Y-50820207D02*
X198323162Y-50915445D01*
X198323162Y-50915445D02*
X198275543Y-50963064D01*
X198275543Y-50963064D02*
X198180305Y-51010683D01*
X198180305Y-51010683D02*
X197799353Y-51010683D01*
X199323162Y-51486874D02*
X198751734Y-51486874D01*
X199037448Y-51486874D02*
X199037448Y-50486874D01*
X199037448Y-50486874D02*
X198942210Y-50629731D01*
X198942210Y-50629731D02*
X198846972Y-50724969D01*
X198846972Y-50724969D02*
X198751734Y-50772588D01*
X199894591Y-50915445D02*
X199799353Y-50867826D01*
X199799353Y-50867826D02*
X199751734Y-50820207D01*
X199751734Y-50820207D02*
X199704115Y-50724969D01*
X199704115Y-50724969D02*
X199704115Y-50677350D01*
X199704115Y-50677350D02*
X199751734Y-50582112D01*
X199751734Y-50582112D02*
X199799353Y-50534493D01*
X199799353Y-50534493D02*
X199894591Y-50486874D01*
X199894591Y-50486874D02*
X200085067Y-50486874D01*
X200085067Y-50486874D02*
X200180305Y-50534493D01*
X200180305Y-50534493D02*
X200227924Y-50582112D01*
X200227924Y-50582112D02*
X200275543Y-50677350D01*
X200275543Y-50677350D02*
X200275543Y-50724969D01*
X200275543Y-50724969D02*
X200227924Y-50820207D01*
X200227924Y-50820207D02*
X200180305Y-50867826D01*
X200180305Y-50867826D02*
X200085067Y-50915445D01*
X200085067Y-50915445D02*
X199894591Y-50915445D01*
X199894591Y-50915445D02*
X199799353Y-50963064D01*
X199799353Y-50963064D02*
X199751734Y-51010683D01*
X199751734Y-51010683D02*
X199704115Y-51105921D01*
X199704115Y-51105921D02*
X199704115Y-51296397D01*
X199704115Y-51296397D02*
X199751734Y-51391635D01*
X199751734Y-51391635D02*
X199799353Y-51439255D01*
X199799353Y-51439255D02*
X199894591Y-51486874D01*
X199894591Y-51486874D02*
X200085067Y-51486874D01*
X200085067Y-51486874D02*
X200180305Y-51439255D01*
X200180305Y-51439255D02*
X200227924Y-51391635D01*
X200227924Y-51391635D02*
X200275543Y-51296397D01*
X200275543Y-51296397D02*
X200275543Y-51105921D01*
X200275543Y-51105921D02*
X200227924Y-51010683D01*
X200227924Y-51010683D02*
X200180305Y-50963064D01*
X200180305Y-50963064D02*
X200085067Y-50915445D01*
X194901483Y-54026874D02*
X194901483Y-53026874D01*
X194901483Y-53026874D02*
X195282435Y-53026874D01*
X195282435Y-53026874D02*
X195377673Y-53074493D01*
X195377673Y-53074493D02*
X195425292Y-53122112D01*
X195425292Y-53122112D02*
X195472911Y-53217350D01*
X195472911Y-53217350D02*
X195472911Y-53360207D01*
X195472911Y-53360207D02*
X195425292Y-53455445D01*
X195425292Y-53455445D02*
X195377673Y-53503064D01*
X195377673Y-53503064D02*
X195282435Y-53550683D01*
X195282435Y-53550683D02*
X194901483Y-53550683D01*
X196330054Y-53026874D02*
X196139578Y-53026874D01*
X196139578Y-53026874D02*
X196044340Y-53074493D01*
X196044340Y-53074493D02*
X195996721Y-53122112D01*
X195996721Y-53122112D02*
X195901483Y-53264969D01*
X195901483Y-53264969D02*
X195853864Y-53455445D01*
X195853864Y-53455445D02*
X195853864Y-53836397D01*
X195853864Y-53836397D02*
X195901483Y-53931635D01*
X195901483Y-53931635D02*
X195949102Y-53979255D01*
X195949102Y-53979255D02*
X196044340Y-54026874D01*
X196044340Y-54026874D02*
X196234816Y-54026874D01*
X196234816Y-54026874D02*
X196330054Y-53979255D01*
X196330054Y-53979255D02*
X196377673Y-53931635D01*
X196377673Y-53931635D02*
X196425292Y-53836397D01*
X196425292Y-53836397D02*
X196425292Y-53598302D01*
X196425292Y-53598302D02*
X196377673Y-53503064D01*
X196377673Y-53503064D02*
X196330054Y-53455445D01*
X196330054Y-53455445D02*
X196234816Y-53407826D01*
X196234816Y-53407826D02*
X196044340Y-53407826D01*
X196044340Y-53407826D02*
X195949102Y-53455445D01*
X195949102Y-53455445D02*
X195901483Y-53503064D01*
X195901483Y-53503064D02*
X195853864Y-53598302D01*
X197799353Y-54026874D02*
X197799353Y-53026874D01*
X197799353Y-53026874D02*
X198180305Y-53026874D01*
X198180305Y-53026874D02*
X198275543Y-53074493D01*
X198275543Y-53074493D02*
X198323162Y-53122112D01*
X198323162Y-53122112D02*
X198370781Y-53217350D01*
X198370781Y-53217350D02*
X198370781Y-53360207D01*
X198370781Y-53360207D02*
X198323162Y-53455445D01*
X198323162Y-53455445D02*
X198275543Y-53503064D01*
X198275543Y-53503064D02*
X198180305Y-53550683D01*
X198180305Y-53550683D02*
X197799353Y-53550683D01*
X199323162Y-54026874D02*
X198751734Y-54026874D01*
X199037448Y-54026874D02*
X199037448Y-53026874D01*
X199037448Y-53026874D02*
X198942210Y-53169731D01*
X198942210Y-53169731D02*
X198846972Y-53264969D01*
X198846972Y-53264969D02*
X198751734Y-53312588D01*
X200227924Y-53026874D02*
X199751734Y-53026874D01*
X199751734Y-53026874D02*
X199704115Y-53503064D01*
X199704115Y-53503064D02*
X199751734Y-53455445D01*
X199751734Y-53455445D02*
X199846972Y-53407826D01*
X199846972Y-53407826D02*
X200085067Y-53407826D01*
X200085067Y-53407826D02*
X200180305Y-53455445D01*
X200180305Y-53455445D02*
X200227924Y-53503064D01*
X200227924Y-53503064D02*
X200275543Y-53598302D01*
X200275543Y-53598302D02*
X200275543Y-53836397D01*
X200275543Y-53836397D02*
X200227924Y-53931635D01*
X200227924Y-53931635D02*
X200180305Y-53979255D01*
X200180305Y-53979255D02*
X200085067Y-54026874D01*
X200085067Y-54026874D02*
X199846972Y-54026874D01*
X199846972Y-54026874D02*
X199751734Y-53979255D01*
X199751734Y-53979255D02*
X199704115Y-53931635D01*
X194901483Y-56566875D02*
X194901483Y-55566875D01*
X194901483Y-55566875D02*
X195282435Y-55566875D01*
X195282435Y-55566875D02*
X195377673Y-55614494D01*
X195377673Y-55614494D02*
X195425292Y-55662113D01*
X195425292Y-55662113D02*
X195472911Y-55757351D01*
X195472911Y-55757351D02*
X195472911Y-55900208D01*
X195472911Y-55900208D02*
X195425292Y-55995446D01*
X195425292Y-55995446D02*
X195377673Y-56043065D01*
X195377673Y-56043065D02*
X195282435Y-56090684D01*
X195282435Y-56090684D02*
X194901483Y-56090684D01*
X195806245Y-55566875D02*
X196472911Y-55566875D01*
X196472911Y-55566875D02*
X196044340Y-56566875D01*
X197799353Y-56566874D02*
X197799353Y-55566874D01*
X197799353Y-55566874D02*
X198180305Y-55566874D01*
X198180305Y-55566874D02*
X198275543Y-55614493D01*
X198275543Y-55614493D02*
X198323162Y-55662112D01*
X198323162Y-55662112D02*
X198370781Y-55757350D01*
X198370781Y-55757350D02*
X198370781Y-55900207D01*
X198370781Y-55900207D02*
X198323162Y-55995445D01*
X198323162Y-55995445D02*
X198275543Y-56043064D01*
X198275543Y-56043064D02*
X198180305Y-56090683D01*
X198180305Y-56090683D02*
X197799353Y-56090683D01*
X199323162Y-56566874D02*
X198751734Y-56566874D01*
X199037448Y-56566874D02*
X199037448Y-55566874D01*
X199037448Y-55566874D02*
X198942210Y-55709731D01*
X198942210Y-55709731D02*
X198846972Y-55804969D01*
X198846972Y-55804969D02*
X198751734Y-55852588D01*
X200180305Y-55900207D02*
X200180305Y-56566874D01*
X199942210Y-55519255D02*
X199704115Y-56233540D01*
X199704115Y-56233540D02*
X200323162Y-56233540D01*
X194901484Y-59106875D02*
X194901484Y-58106875D01*
X194901484Y-58106875D02*
X195282436Y-58106875D01*
X195282436Y-58106875D02*
X195377674Y-58154494D01*
X195377674Y-58154494D02*
X195425293Y-58202113D01*
X195425293Y-58202113D02*
X195472912Y-58297351D01*
X195472912Y-58297351D02*
X195472912Y-58440208D01*
X195472912Y-58440208D02*
X195425293Y-58535446D01*
X195425293Y-58535446D02*
X195377674Y-58583065D01*
X195377674Y-58583065D02*
X195282436Y-58630684D01*
X195282436Y-58630684D02*
X194901484Y-58630684D01*
X196044341Y-58535446D02*
X195949103Y-58487827D01*
X195949103Y-58487827D02*
X195901484Y-58440208D01*
X195901484Y-58440208D02*
X195853865Y-58344970D01*
X195853865Y-58344970D02*
X195853865Y-58297351D01*
X195853865Y-58297351D02*
X195901484Y-58202113D01*
X195901484Y-58202113D02*
X195949103Y-58154494D01*
X195949103Y-58154494D02*
X196044341Y-58106875D01*
X196044341Y-58106875D02*
X196234817Y-58106875D01*
X196234817Y-58106875D02*
X196330055Y-58154494D01*
X196330055Y-58154494D02*
X196377674Y-58202113D01*
X196377674Y-58202113D02*
X196425293Y-58297351D01*
X196425293Y-58297351D02*
X196425293Y-58344970D01*
X196425293Y-58344970D02*
X196377674Y-58440208D01*
X196377674Y-58440208D02*
X196330055Y-58487827D01*
X196330055Y-58487827D02*
X196234817Y-58535446D01*
X196234817Y-58535446D02*
X196044341Y-58535446D01*
X196044341Y-58535446D02*
X195949103Y-58583065D01*
X195949103Y-58583065D02*
X195901484Y-58630684D01*
X195901484Y-58630684D02*
X195853865Y-58725922D01*
X195853865Y-58725922D02*
X195853865Y-58916398D01*
X195853865Y-58916398D02*
X195901484Y-59011636D01*
X195901484Y-59011636D02*
X195949103Y-59059256D01*
X195949103Y-59059256D02*
X196044341Y-59106875D01*
X196044341Y-59106875D02*
X196234817Y-59106875D01*
X196234817Y-59106875D02*
X196330055Y-59059256D01*
X196330055Y-59059256D02*
X196377674Y-59011636D01*
X196377674Y-59011636D02*
X196425293Y-58916398D01*
X196425293Y-58916398D02*
X196425293Y-58725922D01*
X196425293Y-58725922D02*
X196377674Y-58630684D01*
X196377674Y-58630684D02*
X196330055Y-58583065D01*
X196330055Y-58583065D02*
X196234817Y-58535446D01*
X197799353Y-59106873D02*
X197799353Y-58106873D01*
X197799353Y-58106873D02*
X198180305Y-58106873D01*
X198180305Y-58106873D02*
X198275543Y-58154492D01*
X198275543Y-58154492D02*
X198323162Y-58202111D01*
X198323162Y-58202111D02*
X198370781Y-58297349D01*
X198370781Y-58297349D02*
X198370781Y-58440206D01*
X198370781Y-58440206D02*
X198323162Y-58535444D01*
X198323162Y-58535444D02*
X198275543Y-58583063D01*
X198275543Y-58583063D02*
X198180305Y-58630682D01*
X198180305Y-58630682D02*
X197799353Y-58630682D01*
X199323162Y-59106873D02*
X198751734Y-59106873D01*
X199037448Y-59106873D02*
X199037448Y-58106873D01*
X199037448Y-58106873D02*
X198942210Y-58249730D01*
X198942210Y-58249730D02*
X198846972Y-58344968D01*
X198846972Y-58344968D02*
X198751734Y-58392587D01*
X200180305Y-58106873D02*
X199989829Y-58106873D01*
X199989829Y-58106873D02*
X199894591Y-58154492D01*
X199894591Y-58154492D02*
X199846972Y-58202111D01*
X199846972Y-58202111D02*
X199751734Y-58344968D01*
X199751734Y-58344968D02*
X199704115Y-58535444D01*
X199704115Y-58535444D02*
X199704115Y-58916396D01*
X199704115Y-58916396D02*
X199751734Y-59011634D01*
X199751734Y-59011634D02*
X199799353Y-59059254D01*
X199799353Y-59059254D02*
X199894591Y-59106873D01*
X199894591Y-59106873D02*
X200085067Y-59106873D01*
X200085067Y-59106873D02*
X200180305Y-59059254D01*
X200180305Y-59059254D02*
X200227924Y-59011634D01*
X200227924Y-59011634D02*
X200275543Y-58916396D01*
X200275543Y-58916396D02*
X200275543Y-58678301D01*
X200275543Y-58678301D02*
X200227924Y-58583063D01*
X200227924Y-58583063D02*
X200180305Y-58535444D01*
X200180305Y-58535444D02*
X200085067Y-58487825D01*
X200085067Y-58487825D02*
X199894591Y-58487825D01*
X199894591Y-58487825D02*
X199799353Y-58535444D01*
X199799353Y-58535444D02*
X199751734Y-58583063D01*
X199751734Y-58583063D02*
X199704115Y-58678301D01*
X194901483Y-61646874D02*
X194901483Y-60646874D01*
X194901483Y-60646874D02*
X195282435Y-60646874D01*
X195282435Y-60646874D02*
X195377673Y-60694493D01*
X195377673Y-60694493D02*
X195425292Y-60742112D01*
X195425292Y-60742112D02*
X195472911Y-60837350D01*
X195472911Y-60837350D02*
X195472911Y-60980207D01*
X195472911Y-60980207D02*
X195425292Y-61075445D01*
X195425292Y-61075445D02*
X195377673Y-61123064D01*
X195377673Y-61123064D02*
X195282435Y-61170683D01*
X195282435Y-61170683D02*
X194901483Y-61170683D01*
X195949102Y-61646874D02*
X196139578Y-61646874D01*
X196139578Y-61646874D02*
X196234816Y-61599255D01*
X196234816Y-61599255D02*
X196282435Y-61551635D01*
X196282435Y-61551635D02*
X196377673Y-61408778D01*
X196377673Y-61408778D02*
X196425292Y-61218302D01*
X196425292Y-61218302D02*
X196425292Y-60837350D01*
X196425292Y-60837350D02*
X196377673Y-60742112D01*
X196377673Y-60742112D02*
X196330054Y-60694493D01*
X196330054Y-60694493D02*
X196234816Y-60646874D01*
X196234816Y-60646874D02*
X196044340Y-60646874D01*
X196044340Y-60646874D02*
X195949102Y-60694493D01*
X195949102Y-60694493D02*
X195901483Y-60742112D01*
X195901483Y-60742112D02*
X195853864Y-60837350D01*
X195853864Y-60837350D02*
X195853864Y-61075445D01*
X195853864Y-61075445D02*
X195901483Y-61170683D01*
X195901483Y-61170683D02*
X195949102Y-61218302D01*
X195949102Y-61218302D02*
X196044340Y-61265921D01*
X196044340Y-61265921D02*
X196234816Y-61265921D01*
X196234816Y-61265921D02*
X196330054Y-61218302D01*
X196330054Y-61218302D02*
X196377673Y-61170683D01*
X196377673Y-61170683D02*
X196425292Y-61075445D01*
X197799353Y-61646874D02*
X197799353Y-60646874D01*
X197799353Y-60646874D02*
X198180305Y-60646874D01*
X198180305Y-60646874D02*
X198275543Y-60694493D01*
X198275543Y-60694493D02*
X198323162Y-60742112D01*
X198323162Y-60742112D02*
X198370781Y-60837350D01*
X198370781Y-60837350D02*
X198370781Y-60980207D01*
X198370781Y-60980207D02*
X198323162Y-61075445D01*
X198323162Y-61075445D02*
X198275543Y-61123064D01*
X198275543Y-61123064D02*
X198180305Y-61170683D01*
X198180305Y-61170683D02*
X197799353Y-61170683D01*
X199323162Y-61646874D02*
X198751734Y-61646874D01*
X199037448Y-61646874D02*
X199037448Y-60646874D01*
X199037448Y-60646874D02*
X198942210Y-60789731D01*
X198942210Y-60789731D02*
X198846972Y-60884969D01*
X198846972Y-60884969D02*
X198751734Y-60932588D01*
X199942210Y-60646874D02*
X200037448Y-60646874D01*
X200037448Y-60646874D02*
X200132686Y-60694493D01*
X200132686Y-60694493D02*
X200180305Y-60742112D01*
X200180305Y-60742112D02*
X200227924Y-60837350D01*
X200227924Y-60837350D02*
X200275543Y-61027826D01*
X200275543Y-61027826D02*
X200275543Y-61265921D01*
X200275543Y-61265921D02*
X200227924Y-61456397D01*
X200227924Y-61456397D02*
X200180305Y-61551635D01*
X200180305Y-61551635D02*
X200132686Y-61599255D01*
X200132686Y-61599255D02*
X200037448Y-61646874D01*
X200037448Y-61646874D02*
X199942210Y-61646874D01*
X199942210Y-61646874D02*
X199846972Y-61599255D01*
X199846972Y-61599255D02*
X199799353Y-61551635D01*
X199799353Y-61551635D02*
X199751734Y-61456397D01*
X199751734Y-61456397D02*
X199704115Y-61265921D01*
X199704115Y-61265921D02*
X199704115Y-61027826D01*
X199704115Y-61027826D02*
X199751734Y-60837350D01*
X199751734Y-60837350D02*
X199799353Y-60742112D01*
X199799353Y-60742112D02*
X199846972Y-60694493D01*
X199846972Y-60694493D02*
X199942210Y-60646874D01*
X189517083Y-31161874D02*
X189183750Y-30685683D01*
X188945655Y-31161874D02*
X188945655Y-30161874D01*
X188945655Y-30161874D02*
X189326607Y-30161874D01*
X189326607Y-30161874D02*
X189421845Y-30209493D01*
X189421845Y-30209493D02*
X189469464Y-30257112D01*
X189469464Y-30257112D02*
X189517083Y-30352350D01*
X189517083Y-30352350D02*
X189517083Y-30495207D01*
X189517083Y-30495207D02*
X189469464Y-30590445D01*
X189469464Y-30590445D02*
X189421845Y-30638064D01*
X189421845Y-30638064D02*
X189326607Y-30685683D01*
X189326607Y-30685683D02*
X188945655Y-30685683D01*
X189945655Y-31066635D02*
X189993274Y-31114255D01*
X189993274Y-31114255D02*
X189945655Y-31161874D01*
X189945655Y-31161874D02*
X189898036Y-31114255D01*
X189898036Y-31114255D02*
X189945655Y-31066635D01*
X189945655Y-31066635D02*
X189945655Y-31161874D01*
X191136131Y-31114255D02*
X191278988Y-31161874D01*
X191278988Y-31161874D02*
X191517083Y-31161874D01*
X191517083Y-31161874D02*
X191612321Y-31114255D01*
X191612321Y-31114255D02*
X191659940Y-31066635D01*
X191659940Y-31066635D02*
X191707559Y-30971397D01*
X191707559Y-30971397D02*
X191707559Y-30876159D01*
X191707559Y-30876159D02*
X191659940Y-30780921D01*
X191659940Y-30780921D02*
X191612321Y-30733302D01*
X191612321Y-30733302D02*
X191517083Y-30685683D01*
X191517083Y-30685683D02*
X191326607Y-30638064D01*
X191326607Y-30638064D02*
X191231369Y-30590445D01*
X191231369Y-30590445D02*
X191183750Y-30542826D01*
X191183750Y-30542826D02*
X191136131Y-30447588D01*
X191136131Y-30447588D02*
X191136131Y-30352350D01*
X191136131Y-30352350D02*
X191183750Y-30257112D01*
X191183750Y-30257112D02*
X191231369Y-30209493D01*
X191231369Y-30209493D02*
X191326607Y-30161874D01*
X191326607Y-30161874D02*
X191564702Y-30161874D01*
X191564702Y-30161874D02*
X191707559Y-30209493D01*
X192136131Y-31161874D02*
X192136131Y-30495207D01*
X192136131Y-30161874D02*
X192088512Y-30209493D01*
X192088512Y-30209493D02*
X192136131Y-30257112D01*
X192136131Y-30257112D02*
X192183750Y-30209493D01*
X192183750Y-30209493D02*
X192136131Y-30161874D01*
X192136131Y-30161874D02*
X192136131Y-30257112D01*
X193040892Y-31161874D02*
X193040892Y-30161874D01*
X193040892Y-31114255D02*
X192945654Y-31161874D01*
X192945654Y-31161874D02*
X192755178Y-31161874D01*
X192755178Y-31161874D02*
X192659940Y-31114255D01*
X192659940Y-31114255D02*
X192612321Y-31066635D01*
X192612321Y-31066635D02*
X192564702Y-30971397D01*
X192564702Y-30971397D02*
X192564702Y-30685683D01*
X192564702Y-30685683D02*
X192612321Y-30590445D01*
X192612321Y-30590445D02*
X192659940Y-30542826D01*
X192659940Y-30542826D02*
X192755178Y-30495207D01*
X192755178Y-30495207D02*
X192945654Y-30495207D01*
X192945654Y-30495207D02*
X193040892Y-30542826D01*
X193898035Y-31114255D02*
X193802797Y-31161874D01*
X193802797Y-31161874D02*
X193612321Y-31161874D01*
X193612321Y-31161874D02*
X193517083Y-31114255D01*
X193517083Y-31114255D02*
X193469464Y-31019016D01*
X193469464Y-31019016D02*
X193469464Y-30638064D01*
X193469464Y-30638064D02*
X193517083Y-30542826D01*
X193517083Y-30542826D02*
X193612321Y-30495207D01*
X193612321Y-30495207D02*
X193802797Y-30495207D01*
X193802797Y-30495207D02*
X193898035Y-30542826D01*
X193898035Y-30542826D02*
X193945654Y-30638064D01*
X193945654Y-30638064D02*
X193945654Y-30733302D01*
X193945654Y-30733302D02*
X193469464Y-30828540D01*
X195136131Y-30780921D02*
X195898036Y-30780921D01*
X197421845Y-30161874D02*
X197421845Y-30876159D01*
X197421845Y-30876159D02*
X197374226Y-31019016D01*
X197374226Y-31019016D02*
X197278988Y-31114255D01*
X197278988Y-31114255D02*
X197136131Y-31161874D01*
X197136131Y-31161874D02*
X197040893Y-31161874D01*
X198326607Y-30495207D02*
X198326607Y-31161874D01*
X197898036Y-30495207D02*
X197898036Y-31019016D01*
X197898036Y-31019016D02*
X197945655Y-31114255D01*
X197945655Y-31114255D02*
X198040893Y-31161874D01*
X198040893Y-31161874D02*
X198183750Y-31161874D01*
X198183750Y-31161874D02*
X198278988Y-31114255D01*
X198278988Y-31114255D02*
X198326607Y-31066635D01*
X198802798Y-31161874D02*
X198802798Y-30495207D01*
X198802798Y-30590445D02*
X198850417Y-30542826D01*
X198850417Y-30542826D02*
X198945655Y-30495207D01*
X198945655Y-30495207D02*
X199088512Y-30495207D01*
X199088512Y-30495207D02*
X199183750Y-30542826D01*
X199183750Y-30542826D02*
X199231369Y-30638064D01*
X199231369Y-30638064D02*
X199231369Y-31161874D01*
X199231369Y-30638064D02*
X199278988Y-30542826D01*
X199278988Y-30542826D02*
X199374226Y-30495207D01*
X199374226Y-30495207D02*
X199517083Y-30495207D01*
X199517083Y-30495207D02*
X199612322Y-30542826D01*
X199612322Y-30542826D02*
X199659941Y-30638064D01*
X199659941Y-30638064D02*
X199659941Y-31161874D01*
X200136131Y-30495207D02*
X200136131Y-31495207D01*
X200136131Y-30542826D02*
X200231369Y-30495207D01*
X200231369Y-30495207D02*
X200421845Y-30495207D01*
X200421845Y-30495207D02*
X200517083Y-30542826D01*
X200517083Y-30542826D02*
X200564702Y-30590445D01*
X200564702Y-30590445D02*
X200612321Y-30685683D01*
X200612321Y-30685683D02*
X200612321Y-30971397D01*
X200612321Y-30971397D02*
X200564702Y-31066635D01*
X200564702Y-31066635D02*
X200517083Y-31114255D01*
X200517083Y-31114255D02*
X200421845Y-31161874D01*
X200421845Y-31161874D02*
X200231369Y-31161874D01*
X200231369Y-31161874D02*
X200136131Y-31114255D01*
X201421845Y-31114255D02*
X201326607Y-31161874D01*
X201326607Y-31161874D02*
X201136131Y-31161874D01*
X201136131Y-31161874D02*
X201040893Y-31114255D01*
X201040893Y-31114255D02*
X200993274Y-31019016D01*
X200993274Y-31019016D02*
X200993274Y-30638064D01*
X200993274Y-30638064D02*
X201040893Y-30542826D01*
X201040893Y-30542826D02*
X201136131Y-30495207D01*
X201136131Y-30495207D02*
X201326607Y-30495207D01*
X201326607Y-30495207D02*
X201421845Y-30542826D01*
X201421845Y-30542826D02*
X201469464Y-30638064D01*
X201469464Y-30638064D02*
X201469464Y-30733302D01*
X201469464Y-30733302D02*
X200993274Y-30828540D01*
X201898036Y-31161874D02*
X201898036Y-30495207D01*
X201898036Y-30685683D02*
X201945655Y-30590445D01*
X201945655Y-30590445D02*
X201993274Y-30542826D01*
X201993274Y-30542826D02*
X202088512Y-30495207D01*
X202088512Y-30495207D02*
X202183750Y-30495207D01*
X203278989Y-31161874D02*
X203278989Y-30161874D01*
X203278989Y-30638064D02*
X203850417Y-30638064D01*
X203850417Y-31161874D02*
X203850417Y-30161874D01*
X204707560Y-31114255D02*
X204612322Y-31161874D01*
X204612322Y-31161874D02*
X204421846Y-31161874D01*
X204421846Y-31161874D02*
X204326608Y-31114255D01*
X204326608Y-31114255D02*
X204278989Y-31019016D01*
X204278989Y-31019016D02*
X204278989Y-30638064D01*
X204278989Y-30638064D02*
X204326608Y-30542826D01*
X204326608Y-30542826D02*
X204421846Y-30495207D01*
X204421846Y-30495207D02*
X204612322Y-30495207D01*
X204612322Y-30495207D02*
X204707560Y-30542826D01*
X204707560Y-30542826D02*
X204755179Y-30638064D01*
X204755179Y-30638064D02*
X204755179Y-30733302D01*
X204755179Y-30733302D02*
X204278989Y-30828540D01*
X205183751Y-31161874D02*
X205183751Y-30495207D01*
X205183751Y-30685683D02*
X205231370Y-30590445D01*
X205231370Y-30590445D02*
X205278989Y-30542826D01*
X205278989Y-30542826D02*
X205374227Y-30495207D01*
X205374227Y-30495207D02*
X205469465Y-30495207D01*
X206183751Y-31114255D02*
X206088513Y-31161874D01*
X206088513Y-31161874D02*
X205898037Y-31161874D01*
X205898037Y-31161874D02*
X205802799Y-31114255D01*
X205802799Y-31114255D02*
X205755180Y-31019016D01*
X205755180Y-31019016D02*
X205755180Y-30638064D01*
X205755180Y-30638064D02*
X205802799Y-30542826D01*
X205802799Y-30542826D02*
X205898037Y-30495207D01*
X205898037Y-30495207D02*
X206088513Y-30495207D01*
X206088513Y-30495207D02*
X206183751Y-30542826D01*
X206183751Y-30542826D02*
X206231370Y-30638064D01*
X206231370Y-30638064D02*
X206231370Y-30733302D01*
X206231370Y-30733302D02*
X205755180Y-30828540D01*
D11*
X99814708Y-104602055D02*
X100314707Y-104602056D01*
X99814707Y-105002056D02*
X99214707Y-104602056D01*
X99814707Y-104202056D02*
X99814707Y-105002056D01*
X99214707Y-104602056D02*
X99814707Y-104202056D01*
X99214707Y-104602056D02*
X99214706Y-105152057D01*
X99214707Y-104602056D02*
X99214707Y-104052055D01*
X98814707Y-104602056D02*
X99214707Y-104602056D01*
X99814705Y-87602058D02*
X100314704Y-87602059D01*
X99814704Y-88002059D02*
X99214704Y-87602059D01*
X99814704Y-87202059D02*
X99814704Y-88002059D01*
X99214704Y-87602059D02*
X99814704Y-87202059D01*
X99214704Y-87602059D02*
X99214703Y-88152060D01*
X99214704Y-87602059D02*
X99214704Y-87052058D01*
X98814704Y-87602059D02*
X99214704Y-87602059D01*
X99814710Y-70602058D02*
X100314709Y-70602059D01*
X99814709Y-71002059D02*
X99214709Y-70602059D01*
X99814709Y-70202059D02*
X99814709Y-71002059D01*
X99214709Y-70602059D02*
X99814709Y-70202059D01*
X99214709Y-70602059D02*
X99214708Y-71152060D01*
X99214709Y-70602059D02*
X99214709Y-70052058D01*
X98814709Y-70602059D02*
X99214709Y-70602059D01*
X99814706Y-53602056D02*
X100314705Y-53602057D01*
X99814705Y-54002057D02*
X99214705Y-53602057D01*
X99814705Y-53202057D02*
X99814705Y-54002057D01*
X99214705Y-53602057D02*
X99814705Y-53202057D01*
X99214705Y-53602057D02*
X99214704Y-54152058D01*
X99214705Y-53602057D02*
X99214705Y-53052056D01*
X98814705Y-53602057D02*
X99214705Y-53602057D01*
X118814706Y-94402053D02*
X119314705Y-94402054D01*
X118814705Y-94802054D02*
X118214705Y-94402054D01*
X118814705Y-94002054D02*
X118814705Y-94802054D01*
X118214705Y-94402054D02*
X118814705Y-94002054D01*
X118214705Y-94402054D02*
X118214704Y-94952055D01*
X118214705Y-94402054D02*
X118214705Y-93852053D01*
X117814705Y-94402054D02*
X118214705Y-94402054D01*
X118814705Y-77402057D02*
X119314704Y-77402058D01*
X118814704Y-77802058D02*
X118214704Y-77402058D01*
X118814704Y-77002058D02*
X118814704Y-77802058D01*
X118214704Y-77402058D02*
X118814704Y-77002058D01*
X118214704Y-77402058D02*
X118214703Y-77952059D01*
X118214704Y-77402058D02*
X118214704Y-76852057D01*
X117814704Y-77402058D02*
X118214704Y-77402058D01*
X118814707Y-60402059D02*
X119314706Y-60402060D01*
X118814706Y-60802060D02*
X118214706Y-60402060D01*
X118814706Y-60002060D02*
X118814706Y-60802060D01*
X118214706Y-60402060D02*
X118814706Y-60002060D01*
X118214706Y-60402060D02*
X118214705Y-60952061D01*
X118214706Y-60402060D02*
X118214706Y-59852059D01*
X117814706Y-60402060D02*
X118214706Y-60402060D01*
X118814707Y-43402054D02*
X119314706Y-43402055D01*
X118814706Y-43802055D02*
X118214706Y-43402055D01*
X118814706Y-43002055D02*
X118814706Y-43802055D01*
X118214706Y-43402055D02*
X118814706Y-43002055D01*
X118214706Y-43402055D02*
X118214705Y-43952056D01*
X118214706Y-43402055D02*
X118214706Y-42852054D01*
X117814706Y-43402055D02*
X118214706Y-43402055D01*
X137814708Y-90152057D02*
X138314707Y-90152058D01*
X137814707Y-90552058D02*
X137214707Y-90152058D01*
X137814707Y-89752058D02*
X137814707Y-90552058D01*
X137214707Y-90152058D02*
X137814707Y-89752058D01*
X137214707Y-90152058D02*
X137214706Y-90702059D01*
X137214707Y-90152058D02*
X137214707Y-89602057D01*
X136814707Y-90152058D02*
X137214707Y-90152058D01*
X137814706Y-73152061D02*
X138314705Y-73152062D01*
X137814705Y-73552062D02*
X137214705Y-73152062D01*
X137814705Y-72752062D02*
X137814705Y-73552062D01*
X137214705Y-73152062D02*
X137814705Y-72752062D01*
X137214705Y-73152062D02*
X137214704Y-73702063D01*
X137214705Y-73152062D02*
X137214705Y-72602061D01*
X136814705Y-73152062D02*
X137214705Y-73152062D01*
X137814704Y-56152058D02*
X138314703Y-56152059D01*
X137814703Y-56552059D02*
X137214703Y-56152059D01*
X137814703Y-55752059D02*
X137814703Y-56552059D01*
X137214703Y-56152059D02*
X137814703Y-55752059D01*
X137214703Y-56152059D02*
X137214702Y-56702060D01*
X137214703Y-56152059D02*
X137214703Y-55602058D01*
X136814703Y-56152059D02*
X137214703Y-56152059D01*
X137814705Y-39152056D02*
X138314704Y-39152057D01*
X137814704Y-39552057D02*
X137214704Y-39152057D01*
X137814704Y-38752057D02*
X137814704Y-39552057D01*
X137214704Y-39152057D02*
X137814704Y-38752057D01*
X137214704Y-39152057D02*
X137214703Y-39702058D01*
X137214704Y-39152057D02*
X137214704Y-38602056D01*
X136814704Y-39152057D02*
X137214704Y-39152057D01*
X156814708Y-94402056D02*
X157314707Y-94402057D01*
X156814707Y-94802057D02*
X156214707Y-94402057D01*
X156814707Y-94002057D02*
X156814707Y-94802057D01*
X156214707Y-94402057D02*
X156814707Y-94002057D01*
X156214707Y-94402057D02*
X156214706Y-94952058D01*
X156214707Y-94402057D02*
X156214707Y-93852056D01*
X155814707Y-94402057D02*
X156214707Y-94402057D01*
X156814708Y-77402054D02*
X157314707Y-77402055D01*
X156814707Y-77802055D02*
X156214707Y-77402055D01*
X156814707Y-77002055D02*
X156814707Y-77802055D01*
X156214707Y-77402055D02*
X156814707Y-77002055D01*
X156214707Y-77402055D02*
X156214706Y-77952056D01*
X156214707Y-77402055D02*
X156214707Y-76852054D01*
X155814707Y-77402055D02*
X156214707Y-77402055D01*
X156814706Y-60402058D02*
X157314705Y-60402059D01*
X156814705Y-60802059D02*
X156214705Y-60402059D01*
X156814705Y-60002059D02*
X156814705Y-60802059D01*
X156214705Y-60402059D02*
X156814705Y-60002059D01*
X156214705Y-60402059D02*
X156214704Y-60952060D01*
X156214705Y-60402059D02*
X156214705Y-59852058D01*
X155814705Y-60402059D02*
X156214705Y-60402059D01*
X156814704Y-43402053D02*
X157314703Y-43402054D01*
X156814703Y-43802054D02*
X156214703Y-43402054D01*
X156814703Y-43002054D02*
X156814703Y-43802054D01*
X156214703Y-43402054D02*
X156814703Y-43002054D01*
X156214703Y-43402054D02*
X156214702Y-43952055D01*
X156214703Y-43402054D02*
X156214703Y-42852053D01*
X155814703Y-43402054D02*
X156214703Y-43402054D01*
X175814705Y-79952056D02*
X176314704Y-79952057D01*
X175814704Y-80352057D02*
X175214704Y-79952057D01*
X175814704Y-79552057D02*
X175814704Y-80352057D01*
X175214704Y-79952057D02*
X175814704Y-79552057D01*
X175214704Y-79952057D02*
X175214703Y-80502058D01*
X175214704Y-79952057D02*
X175214704Y-79402056D01*
X174814704Y-79952057D02*
X175214704Y-79952057D01*
X175814701Y-62952057D02*
X176314700Y-62952058D01*
X175814700Y-63352058D02*
X175214700Y-62952058D01*
X175814700Y-62552058D02*
X175814700Y-63352058D01*
X175214700Y-62952058D02*
X175814700Y-62552058D01*
X175214700Y-62952058D02*
X175214699Y-63502059D01*
X175214700Y-62952058D02*
X175214700Y-62402057D01*
X174814700Y-62952058D02*
X175214700Y-62952058D01*
X175814701Y-45952055D02*
X176314700Y-45952056D01*
X175814700Y-46352056D02*
X175214700Y-45952056D01*
X175814700Y-45552056D02*
X175814700Y-46352056D01*
X175214700Y-45952056D02*
X175814700Y-45552056D01*
X175214700Y-45952056D02*
X175214699Y-46502057D01*
X175214700Y-45952056D02*
X175214700Y-45402055D01*
X174814700Y-45952056D02*
X175214700Y-45952056D01*
X190205943Y-139864368D02*
X190559497Y-140217921D01*
X189923101Y-140147210D02*
X189781681Y-139440104D01*
X190488786Y-139581525D02*
X189923101Y-140147210D01*
X189781681Y-139440104D02*
X190488786Y-139581525D01*
X189781681Y-139440104D02*
X189392771Y-139829012D01*
X189781681Y-139440104D02*
X190170589Y-139051195D01*
X189498837Y-139157261D02*
X189781681Y-139440104D01*
X175698816Y-127592577D02*
X176108392Y-127879365D01*
X175469385Y-127920237D02*
X175207325Y-127248431D01*
X175928246Y-127264916D02*
X175469385Y-127920237D01*
X175207325Y-127248431D02*
X175928246Y-127264916D01*
X175207325Y-127248431D02*
X174891859Y-127698965D01*
X175207325Y-127248431D02*
X175522793Y-126797897D01*
X174879664Y-127019001D02*
X175207325Y-127248431D01*
X159281106Y-118026364D02*
X159734259Y-118237673D01*
X159112057Y-118388885D02*
X158737320Y-117772793D01*
X159450151Y-117663840D02*
X159112057Y-118388885D01*
X158737320Y-117772793D02*
X159450151Y-117663840D01*
X158737320Y-117772793D02*
X158504881Y-118271262D01*
X158737320Y-117772793D02*
X158969761Y-117274323D01*
X158374797Y-117603745D02*
X158737320Y-117772793D01*
D12*
X203854704Y-34522055D02*
X206514704Y-34522054D01*
X203854704Y-31922055D02*
X206514704Y-31922055D01*
X203854704Y-31922055D02*
X203854704Y-62522056D01*
X203854704Y-62522056D02*
X206514703Y-62522055D01*
X206514704Y-31922055D02*
X206514703Y-62522055D01*
X188614704Y-31922055D02*
X191274705Y-31922056D01*
X188614704Y-31922055D02*
X188614705Y-62522055D01*
X188614705Y-62522055D02*
X191274704Y-62522056D01*
X191274705Y-31922056D02*
X191274704Y-62522056D01*
D10*
X203314702Y-96202062D02*
X201814703Y-97702061D01*
X203314702Y-93702060D02*
X201814703Y-92202061D01*
X203314702Y-93702060D02*
X203314702Y-96202062D01*
X199314701Y-97702061D02*
X201814703Y-97702061D01*
X199314701Y-92202061D02*
X201814703Y-92202061D01*
X197814702Y-96202062D02*
X199314701Y-97702061D01*
X197814702Y-93702060D02*
X199314701Y-92202061D01*
X197814702Y-93702060D02*
X197814702Y-96202062D01*
M02*
