M48
INCH,TZ
T1C0.0157
T2C0.0157
T3C0.0354
T4C0.0390
T5C0.0394
T6C0.0866
%
G90
G05
T1
X78032Y-33129
T2
X38549Y-14115
X38549Y-44233
X38608Y-17954
X38608Y-24646
X38608Y-38032
X38608Y-31339
X38739Y-13656
X38739Y-14574
X38739Y-43774
X38739Y-44692
X39199Y-13465
X39199Y-14765
X39199Y-43583
X39199Y-44883
X39658Y-13656
X39658Y-14574
X39658Y-43774
X39658Y-44692
X39848Y-14115
X39848Y-44233
X41955Y-20119
X41955Y-26812
X41955Y-40198
X41955Y-33505
X46088Y-34017
X46088Y-20631
X46088Y-27324
X46088Y-13938
X49435Y-36182
X49435Y-22796
X49435Y-29489
X49435Y-16103
X53569Y-25650
X53569Y-12265
X53569Y-32343
X53569Y-18958
X56776Y-42035
X56797Y-41538
X56915Y-27816
X56915Y-14430
X56915Y-34509
X56915Y-21123
X57111Y-42402
X57164Y-41202
X57608Y-42423
X57661Y-41224
X57975Y-42087
X57996Y-41591
X61049Y-34017
X61049Y-27324
X61049Y-20631
X61049Y-13938
X63416Y-43321
X64396Y-36182
X64396Y-29489
X64396Y-22796
X64396Y-16103
X65534Y-46698
X68529Y-21635
X68529Y-28328
X68529Y-14942
X70415Y-47258
X71876Y-23800
X71876Y-30493
X71876Y-17107
X71914Y-50951
X76443Y-15091
X76443Y-16091
X76443Y-21091
X76443Y-13091
X76443Y-14091
X76443Y-17091
X76443Y-18091
X76443Y-19091
X76443Y-20091
X76443Y-22091
X76443Y-23091
X76443Y-24091
X76624Y-52350
X77459Y-56248
X78313Y-34233
X78503Y-33774
X78503Y-34692
X78962Y-33583
X78962Y-34883
X79120Y-13091
X79120Y-14091
X79120Y-16091
X79120Y-17091
X79120Y-18091
X79120Y-19091
X79120Y-22091
X79120Y-23091
X79120Y-24091
X79120Y-15091
X79120Y-20091
X79120Y-21091
X79315Y-57361
X79422Y-33774
X79422Y-34692
X79505Y-56902
X79505Y-57821
X79612Y-34233
X79965Y-56712
X79965Y-58011
X80424Y-56902
X80424Y-57821
X80614Y-57361
T4
X37699Y-34489
X37699Y-21103
X37699Y-41182
X37699Y-27796
X40699Y-34489
X40699Y-21103
X40699Y-41182
X40699Y-27796
X45179Y-30473
X45179Y-37166
X45179Y-17087
X45179Y-23780
X48179Y-30473
X48179Y-37166
X48179Y-17087
X48179Y-23780
X52659Y-22107
X52659Y-15414
X52659Y-28800
X52659Y-35493
X55659Y-22107
X55659Y-15414
X55659Y-28800
X55659Y-35493
X60140Y-17087
X60140Y-23780
X60140Y-30473
X60140Y-37166
X61260Y-45792
X63140Y-17087
X63140Y-23780
X63140Y-30473
X63140Y-37166
X63979Y-47059
X67620Y-18091
X67620Y-24784
X67620Y-31477
X67863Y-49316
X70321Y-51037
X70620Y-18091
X70620Y-24784
X70620Y-31477
X73754Y-53934
X75875Y-56056
T5
X74781Y-13091
X74781Y-14091
X74781Y-15091
X74781Y-17091
X74781Y-18091
X74781Y-19091
X74781Y-20091
X74781Y-21091
X74781Y-22091
X74781Y-23091
X74781Y-16091
X74781Y-24091
X80781Y-20091
X80781Y-13091
X80781Y-14091
X80781Y-15091
X80781Y-16091
X80781Y-17091
X80781Y-18091
X80781Y-19091
X80781Y-21091
X80781Y-22091
X80781Y-23091
X80781Y-24091
T6
X39199Y-14115
X39199Y-44233
X57386Y-41813
X78962Y-34233
X79965Y-57361
T3
G00X77388Y-30178
M15
G01X77151Y-30178
M16
G05
G00X77388Y-31083
M15
G01X77151Y-31083
M16
G05
G00X77821Y-31989
M15
G01X77585Y-31989
M16
G05
G00X77821Y-29272
M15
G01X77585Y-29272
M16
G05
G00X79396Y-31989
M15
G01X79159Y-31989
M16
G05
G00X79396Y-29272
M15
G01X79159Y-29272
M16
G05
G00X80577Y-29272
M15
G01X80340Y-29272
M16
G05
G00X80577Y-31989
M15
G01X80340Y-31989
M16
G05
M30
