G04 #@! TF.GenerationSoftware,KiCad,Pcbnew,8.0.1*
G04 #@! TF.CreationDate,2024-03-30T10:30:43-04:00*
G04 #@! TF.ProjectId,kipra-kicad,6b697072-612d-46b6-9963-61642e6b6963,v1.0.0*
G04 #@! TF.SameCoordinates,Original*
G04 #@! TF.FileFunction,Paste,Top*
G04 #@! TF.FilePolarity,Positive*
%FSLAX46Y46*%
G04 Gerber Fmt 4.6, Leading zero omitted, Abs format (unit mm)*
G04 Created by KiCad (PCBNEW 8.0.1) date 2024-03-30 10:30:43*
%MOMM*%
%LPD*%
G01*
G04 APERTURE LIST*
G04 Aperture macros list*
%AMRotRect*
0 Rectangle, with rotation*
0 The origin of the aperture is its center*
0 $1 length*
0 $2 width*
0 $3 Rotation angle, in degrees counterclockwise*
0 Add horizontal line*
21,1,$1,$2,0,0,$3*%
G04 Aperture macros list end*
%ADD10R,2.600000X2.600000*%
%ADD11RotRect,2.600000X2.600000X315.000000*%
%ADD12RotRect,2.600000X2.600000X325.000000*%
%ADD13RotRect,2.600000X2.600000X335.000000*%
%ADD14R,0.900000X1.200000*%
%ADD15RotRect,0.900000X1.200000X315.000000*%
%ADD16RotRect,0.900000X1.200000X325.000000*%
%ADD17RotRect,0.900000X1.200000X335.000000*%
%ADD18R,1.800000X1.100000*%
G04 APERTURE END LIST*
D10*
X91289702Y-95852061D03*
X91289703Y-78852062D03*
X91289702Y-61852058D03*
X91289702Y-44852061D03*
X110289700Y-85652056D03*
X110289704Y-68652057D03*
X110289704Y-51652054D03*
X110289707Y-34652060D03*
X129289703Y-81402061D03*
X129289700Y-64402057D03*
X129289705Y-47402060D03*
X129289701Y-30402060D03*
X148289700Y-85652057D03*
X148289701Y-68652060D03*
X148289703Y-51652058D03*
X148289707Y-34652060D03*
X167289700Y-71202059D03*
X167289700Y-54202061D03*
X167289704Y-37202061D03*
D11*
X190365047Y-127649105D03*
D12*
X173734334Y-115535258D03*
D13*
X155252737Y-106493354D03*
D14*
X97914707Y-104602056D03*
X101214707Y-104602056D03*
X97914704Y-87602059D03*
X101214704Y-87602059D03*
X97914709Y-70602059D03*
X101214709Y-70602059D03*
X97914705Y-53602057D03*
X101214705Y-53602057D03*
X116914705Y-94402054D03*
X120214705Y-94402054D03*
X116914704Y-77402058D03*
X120214704Y-77402058D03*
X116914706Y-60402060D03*
X120214706Y-60402060D03*
X116914706Y-43402055D03*
X120214706Y-43402055D03*
X135914707Y-90152058D03*
X139214707Y-90152058D03*
X135914705Y-73152062D03*
X139214705Y-73152062D03*
X135914703Y-56152059D03*
X139214703Y-56152059D03*
X135914704Y-39152057D03*
X139214704Y-39152057D03*
X154914707Y-94402057D03*
X158214707Y-94402057D03*
X154914707Y-77402055D03*
X158214707Y-77402055D03*
X154914705Y-60402059D03*
X158214705Y-60402059D03*
X154914703Y-43402054D03*
X158214703Y-43402054D03*
X173914704Y-79952057D03*
X177214704Y-79952057D03*
X173914700Y-62952058D03*
X177214700Y-62952058D03*
X173914700Y-45952056D03*
X177214700Y-45952056D03*
D15*
X188862441Y-138520865D03*
X191195893Y-140854317D03*
D16*
X174142427Y-126502782D03*
X176845629Y-128395584D03*
D17*
X157559120Y-117223389D03*
X160549936Y-118618029D03*
D18*
X197464702Y-93102061D03*
X203664702Y-93102061D03*
X197464702Y-96802061D03*
X203664702Y-96802061D03*
M02*
