G04 #@! TF.GenerationSoftware,KiCad,Pcbnew,8.0.1*
G04 #@! TF.CreationDate,2024-03-30T10:30:43-04:00*
G04 #@! TF.ProjectId,kipra-kicad,6b697072-612d-46b6-9963-61642e6b6963,v1.0.0*
G04 #@! TF.SameCoordinates,Original*
G04 #@! TF.FileFunction,Soldermask,Top*
G04 #@! TF.FilePolarity,Negative*
%FSLAX46Y46*%
G04 Gerber Fmt 4.6, Leading zero omitted, Abs format (unit mm)*
G04 Created by KiCad (PCBNEW 8.0.1) date 2024-03-30 10:30:43*
%MOMM*%
%LPD*%
G01*
G04 APERTURE LIST*
G04 Aperture macros list*
%AMRoundRect*
0 Rectangle with rounded corners*
0 $1 Rounding radius*
0 $2 $3 $4 $5 $6 $7 $8 $9 X,Y pos of 4 corners*
0 Add a 4 corners polygon primitive as box body*
4,1,4,$2,$3,$4,$5,$6,$7,$8,$9,$2,$3,0*
0 Add four circle primitives for the rounded corners*
1,1,$1+$1,$2,$3*
1,1,$1+$1,$4,$5*
1,1,$1+$1,$6,$7*
1,1,$1+$1,$8,$9*
0 Add four rect primitives between the rounded corners*
20,1,$1+$1,$2,$3,$4,$5,0*
20,1,$1+$1,$4,$5,$6,$7,0*
20,1,$1+$1,$6,$7,$8,$9,0*
20,1,$1+$1,$8,$9,$2,$3,0*%
%AMFreePoly0*
4,1,14,1.335355,1.335355,1.350000,1.300000,1.350000,0.000000,1.335355,-0.035355,0.035355,-1.335355,0.000000,-1.350000,-1.300000,-1.350000,-1.335355,-1.335355,-1.350000,-1.300000,-1.350000,1.300000,-1.335355,1.335355,-1.300000,1.350000,1.300000,1.350000,1.335355,1.335355,1.335355,1.335355,$1*%
G04 Aperture macros list end*
%ADD10C,3.529000*%
%ADD11C,1.801800*%
%ADD12C,3.100000*%
%ADD13RoundRect,0.050000X-1.300000X-1.300000X1.300000X-1.300000X1.300000X1.300000X-1.300000X1.300000X0*%
%ADD14FreePoly0,0.000000*%
%ADD15C,0.900000*%
%ADD16RoundRect,0.050000X-1.838478X0.000000X0.000000X-1.838478X1.838478X0.000000X0.000000X1.838478X0*%
%ADD17FreePoly0,315.000000*%
%ADD18RoundRect,0.050000X-1.810547X-0.319248X0.319248X-1.810547X1.810547X0.319248X-0.319248X1.810547X0*%
%ADD19FreePoly0,325.000000*%
%ADD20RoundRect,0.050000X-1.727604X-0.628796X0.628796X-1.727604X1.727604X0.628796X-0.628796X1.727604X0*%
%ADD21FreePoly0,335.000000*%
%ADD22RoundRect,0.050000X-0.450000X-0.600000X0.450000X-0.600000X0.450000X0.600000X-0.450000X0.600000X0*%
%ADD23RoundRect,0.050000X-0.889000X-0.889000X0.889000X-0.889000X0.889000X0.889000X-0.889000X0.889000X0*%
%ADD24C,2.005000*%
%ADD25RoundRect,0.050000X-0.742462X-0.106066X-0.106066X-0.742462X0.742462X0.106066X0.106066X0.742462X0*%
%ADD26RoundRect,0.050000X-1.257236X0.000000X0.000000X-1.257236X1.257236X0.000000X0.000000X1.257236X0*%
%ADD27RoundRect,0.050000X-0.712764X-0.233382X0.024473X-0.749601X0.712764X0.233382X-0.024473X0.749601X0*%
%ADD28RoundRect,0.050000X-1.238136X-0.218317X0.218317X-1.238136X1.238136X0.218317X-0.218317X1.238136X0*%
%ADD29RoundRect,0.050000X-0.661409X-0.353606X0.154268X-0.733963X0.661409X0.353606X-0.154268X0.733963X0*%
%ADD30RoundRect,0.050000X-1.181415X-0.430000X0.430000X-1.181415X1.181415X0.430000X-0.430000X1.181415X0*%
%ADD31C,1.800000*%
%ADD32RoundRect,0.050000X-0.300000X-0.600000X0.300000X-0.600000X0.300000X0.600000X-0.300000X0.600000X0*%
%ADD33C,1.600000*%
%ADD34O,2.300000X1.700000*%
%ADD35RoundRect,0.050000X-0.900000X-0.550000X0.900000X-0.550000X0.900000X0.550000X-0.900000X0.550000X0*%
%ADD36C,0.800000*%
%ADD37C,4.500000*%
G04 APERTURE END LIST*
D10*
X99564702Y-99602060D03*
D11*
X105064702Y-99602060D03*
X94064702Y-99602060D03*
D12*
X104564702Y-95852060D03*
X99564702Y-93652058D03*
X94564702Y-95852060D03*
D13*
X91289702Y-95852061D03*
D14*
X102839702Y-93652060D03*
D15*
X98064702Y-96602060D03*
X106564702Y-102102060D03*
D10*
X99564703Y-82602061D03*
D11*
X105064703Y-82602061D03*
X94064703Y-82602061D03*
D12*
X104564703Y-78852061D03*
X99564703Y-76652059D03*
X94564703Y-78852061D03*
D13*
X91289703Y-78852062D03*
D14*
X102839703Y-76652061D03*
D15*
X98064703Y-79602061D03*
X106564703Y-85102061D03*
D10*
X99564702Y-65602057D03*
D11*
X105064702Y-65602057D03*
X94064702Y-65602057D03*
D12*
X104564702Y-61852057D03*
X99564702Y-59652055D03*
X94564702Y-61852057D03*
D13*
X91289702Y-61852058D03*
D14*
X102839702Y-59652057D03*
D15*
X98064702Y-62602057D03*
X106564702Y-68102057D03*
D10*
X99564702Y-48602060D03*
D11*
X105064702Y-48602060D03*
X94064702Y-48602060D03*
D12*
X104564702Y-44852060D03*
X99564702Y-42652058D03*
X94564702Y-44852060D03*
D13*
X91289702Y-44852061D03*
D14*
X102839702Y-42652060D03*
D15*
X98064702Y-45602060D03*
X106564702Y-51102060D03*
D10*
X118564700Y-89402055D03*
D11*
X124064700Y-89402055D03*
X113064700Y-89402055D03*
D12*
X123564700Y-85652055D03*
X118564700Y-83452053D03*
X113564700Y-85652055D03*
D13*
X110289700Y-85652056D03*
D14*
X121839700Y-83452055D03*
D15*
X117064700Y-86402055D03*
X125564700Y-91902055D03*
D10*
X118564704Y-72402056D03*
D11*
X124064704Y-72402056D03*
X113064704Y-72402056D03*
D12*
X123564704Y-68652056D03*
X118564704Y-66452054D03*
X113564704Y-68652056D03*
D13*
X110289704Y-68652057D03*
D14*
X121839704Y-66452056D03*
D15*
X117064704Y-69402056D03*
X125564704Y-74902056D03*
D10*
X118564704Y-55402053D03*
D11*
X124064704Y-55402053D03*
X113064704Y-55402053D03*
D12*
X123564704Y-51652053D03*
X118564704Y-49452051D03*
X113564704Y-51652053D03*
D13*
X110289704Y-51652054D03*
D14*
X121839704Y-49452053D03*
D15*
X117064704Y-52402053D03*
X125564704Y-57902053D03*
D10*
X118564707Y-38402059D03*
D11*
X124064707Y-38402059D03*
X113064707Y-38402059D03*
D12*
X123564707Y-34652059D03*
X118564707Y-32452057D03*
X113564707Y-34652059D03*
D13*
X110289707Y-34652060D03*
D14*
X121839707Y-32452059D03*
D15*
X117064707Y-35402059D03*
X125564707Y-40902059D03*
D10*
X137564703Y-85152060D03*
D11*
X143064703Y-85152060D03*
X132064703Y-85152060D03*
D12*
X142564703Y-81402060D03*
X137564703Y-79202058D03*
X132564703Y-81402060D03*
D13*
X129289703Y-81402061D03*
D14*
X140839703Y-79202060D03*
D15*
X136064703Y-82152060D03*
X144564703Y-87652060D03*
D10*
X137564700Y-68152056D03*
D11*
X143064700Y-68152056D03*
X132064700Y-68152056D03*
D12*
X142564700Y-64402056D03*
X137564700Y-62202054D03*
X132564700Y-64402056D03*
D13*
X129289700Y-64402057D03*
D14*
X140839700Y-62202056D03*
D15*
X136064700Y-65152056D03*
X144564700Y-70652056D03*
D10*
X137564705Y-51152059D03*
D11*
X143064705Y-51152059D03*
X132064705Y-51152059D03*
D12*
X142564705Y-47402059D03*
X137564705Y-45202057D03*
X132564705Y-47402059D03*
D13*
X129289705Y-47402060D03*
D14*
X140839705Y-45202059D03*
D15*
X136064705Y-48152059D03*
X144564705Y-53652059D03*
D10*
X137564701Y-34152059D03*
D11*
X143064701Y-34152059D03*
X132064701Y-34152059D03*
D12*
X142564701Y-30402059D03*
X137564701Y-28202057D03*
X132564701Y-30402059D03*
D13*
X129289701Y-30402060D03*
D14*
X140839701Y-28202059D03*
D15*
X136064701Y-31152059D03*
X144564701Y-36652059D03*
D10*
X156564700Y-89402056D03*
D11*
X162064700Y-89402056D03*
X151064700Y-89402056D03*
D12*
X161564700Y-85652056D03*
X156564700Y-83452054D03*
X151564700Y-85652056D03*
D13*
X148289700Y-85652057D03*
D14*
X159839700Y-83452056D03*
D15*
X155064700Y-86402056D03*
X163564700Y-91902056D03*
D10*
X156564701Y-72402059D03*
D11*
X162064701Y-72402059D03*
X151064701Y-72402059D03*
D12*
X161564701Y-68652059D03*
X156564701Y-66452057D03*
X151564701Y-68652059D03*
D13*
X148289701Y-68652060D03*
D14*
X159839701Y-66452059D03*
D15*
X155064701Y-69402059D03*
X163564701Y-74902059D03*
D10*
X156564703Y-55402057D03*
D11*
X162064703Y-55402057D03*
X151064703Y-55402057D03*
D12*
X161564703Y-51652057D03*
X156564703Y-49452055D03*
X151564703Y-51652057D03*
D13*
X148289703Y-51652058D03*
D14*
X159839703Y-49452057D03*
D15*
X155064703Y-52402057D03*
X163564703Y-57902057D03*
D10*
X156564707Y-38402059D03*
D11*
X162064707Y-38402059D03*
X151064707Y-38402059D03*
D12*
X161564707Y-34652059D03*
X156564707Y-32452057D03*
X151564707Y-34652059D03*
D13*
X148289707Y-34652060D03*
D14*
X159839707Y-32452059D03*
D15*
X155064707Y-35402059D03*
X163564707Y-40902059D03*
D10*
X175564700Y-74952058D03*
D11*
X181064700Y-74952058D03*
X170064700Y-74952058D03*
D12*
X180564700Y-71202058D03*
X175564700Y-69002056D03*
X170564700Y-71202058D03*
D13*
X167289700Y-71202059D03*
D14*
X178839700Y-69002058D03*
D15*
X174064700Y-71952058D03*
X182564700Y-77452058D03*
D10*
X175564700Y-57952060D03*
D11*
X181064700Y-57952060D03*
X170064700Y-57952060D03*
D12*
X180564700Y-54202060D03*
X175564700Y-52002058D03*
X170564700Y-54202060D03*
D13*
X167289700Y-54202061D03*
D14*
X178839700Y-52002060D03*
D15*
X174064700Y-54952060D03*
X182564700Y-60452060D03*
D10*
X175564704Y-40952060D03*
D11*
X181064704Y-40952060D03*
X170064704Y-40952060D03*
D12*
X180564704Y-37202060D03*
X175564704Y-35002058D03*
X170564704Y-37202060D03*
D13*
X167289704Y-37202061D03*
D14*
X178839704Y-35002060D03*
D15*
X174064704Y-37952060D03*
X182564704Y-43452060D03*
D10*
X193564705Y-136152064D03*
D11*
X197453792Y-140041152D03*
X189675618Y-132262976D03*
D12*
X199751889Y-137035947D03*
X197771990Y-131944777D03*
X192680822Y-129964880D03*
D16*
X190365047Y-127649105D03*
D17*
X200087765Y-134260553D03*
D15*
X194625365Y-132970083D03*
X196746686Y-142869577D03*
D10*
X178361906Y-123353423D03*
D11*
X182867242Y-126508091D03*
X173856570Y-120198755D03*
D12*
X184608578Y-123149485D03*
X181774687Y-118479466D03*
X176417057Y-117413721D03*
D18*
X173734334Y-115535258D03*
D19*
X184457409Y-120357931D03*
D15*
X178853907Y-120035602D03*
X182662029Y-129416337D03*
D10*
X161167615Y-113389173D03*
D11*
X166152309Y-115713572D03*
X156182921Y-111064774D03*
D12*
X167283972Y-112103610D03*
X163682194Y-107996642D03*
X158220894Y-107877427D03*
D20*
X155252737Y-106493354D03*
D21*
X166650352Y-109380716D03*
D15*
X161076008Y-110036322D03*
X166455224Y-118613270D03*
D22*
X97914707Y-104602056D03*
X101214707Y-104602056D03*
D23*
X95754707Y-104602056D03*
D24*
X103374707Y-104602056D03*
D22*
X97914704Y-87602059D03*
X101214704Y-87602059D03*
D23*
X95754704Y-87602059D03*
D24*
X103374704Y-87602059D03*
D22*
X97914709Y-70602059D03*
X101214709Y-70602059D03*
D23*
X95754709Y-70602059D03*
D24*
X103374709Y-70602059D03*
D22*
X97914705Y-53602057D03*
X101214705Y-53602057D03*
D23*
X95754705Y-53602057D03*
D24*
X103374705Y-53602057D03*
D22*
X116914705Y-94402054D03*
X120214705Y-94402054D03*
D23*
X114754705Y-94402054D03*
D24*
X122374705Y-94402054D03*
D22*
X116914704Y-77402058D03*
X120214704Y-77402058D03*
D23*
X114754704Y-77402058D03*
D24*
X122374704Y-77402058D03*
D22*
X116914706Y-60402060D03*
X120214706Y-60402060D03*
D23*
X114754706Y-60402060D03*
D24*
X122374706Y-60402060D03*
D22*
X116914706Y-43402055D03*
X120214706Y-43402055D03*
D23*
X114754706Y-43402055D03*
D24*
X122374706Y-43402055D03*
D22*
X135914707Y-90152058D03*
X139214707Y-90152058D03*
D23*
X133754707Y-90152058D03*
D24*
X141374707Y-90152058D03*
D22*
X135914705Y-73152062D03*
X139214705Y-73152062D03*
D23*
X133754705Y-73152062D03*
D24*
X141374705Y-73152062D03*
D22*
X135914703Y-56152059D03*
X139214703Y-56152059D03*
D23*
X133754703Y-56152059D03*
D24*
X141374703Y-56152059D03*
D22*
X135914704Y-39152057D03*
X139214704Y-39152057D03*
D23*
X133754704Y-39152057D03*
D24*
X141374704Y-39152057D03*
D22*
X154914707Y-94402057D03*
X158214707Y-94402057D03*
D23*
X152754707Y-94402057D03*
D24*
X160374707Y-94402057D03*
D22*
X154914707Y-77402055D03*
X158214707Y-77402055D03*
D23*
X152754707Y-77402055D03*
D24*
X160374707Y-77402055D03*
D22*
X154914705Y-60402059D03*
X158214705Y-60402059D03*
D23*
X152754705Y-60402059D03*
D24*
X160374705Y-60402059D03*
D22*
X154914703Y-43402054D03*
X158214703Y-43402054D03*
D23*
X152754703Y-43402054D03*
D24*
X160374703Y-43402054D03*
D22*
X173914704Y-79952057D03*
X177214704Y-79952057D03*
D23*
X171754704Y-79952057D03*
D24*
X179374704Y-79952057D03*
D22*
X173914700Y-62952058D03*
X177214700Y-62952058D03*
D23*
X171754700Y-62952058D03*
D24*
X179374700Y-62952058D03*
D22*
X173914700Y-45952056D03*
X177214700Y-45952056D03*
D23*
X171754700Y-45952056D03*
D24*
X179374700Y-45952056D03*
D25*
X188862441Y-138520865D03*
X191195893Y-140854317D03*
D26*
X187335090Y-136993514D03*
D24*
X192723244Y-142381668D03*
D27*
X174142427Y-126502782D03*
X176845629Y-128395584D03*
D28*
X172373059Y-125263857D03*
D24*
X178614997Y-129634509D03*
D29*
X157559120Y-117223389D03*
X160549936Y-118618029D03*
D30*
X155601495Y-116310534D03*
D24*
X162507561Y-119530884D03*
D31*
X189944704Y-33252055D03*
X205184704Y-33252055D03*
D15*
X200964704Y-33252055D03*
X194164704Y-33252055D03*
D32*
X192084704Y-33252055D03*
X192984705Y-33252055D03*
X202144704Y-33252055D03*
X203044703Y-33252055D03*
D31*
X189944704Y-35792055D03*
X205184704Y-35792055D03*
D15*
X200964704Y-35792055D03*
X194164704Y-35792055D03*
D32*
X192084703Y-35792055D03*
X192984704Y-35792055D03*
X202144703Y-35792055D03*
X203044704Y-35792055D03*
D31*
X189944704Y-38332055D03*
X205184704Y-38332055D03*
D15*
X200964705Y-38332055D03*
X194164703Y-38332056D03*
D32*
X192084704Y-38332055D03*
X192984704Y-38332055D03*
X202144704Y-38332054D03*
X203044705Y-38332055D03*
D31*
X189944705Y-40872055D03*
X205184704Y-40872055D03*
D15*
X200964704Y-40872055D03*
X194164703Y-40872055D03*
D32*
X192084704Y-40872055D03*
X192984705Y-40872054D03*
X202144704Y-40872055D03*
X203044704Y-40872055D03*
D31*
X189944704Y-43412055D03*
X205184704Y-43412055D03*
D15*
X200964704Y-43412055D03*
X194164704Y-43412055D03*
D32*
X192084704Y-43412055D03*
X192984704Y-43412055D03*
X202144704Y-43412055D03*
X203044704Y-43412055D03*
D31*
X189944704Y-45952055D03*
X205184704Y-45952055D03*
D15*
X200964704Y-45952055D03*
X194164704Y-45952055D03*
D32*
X192084705Y-45952055D03*
X192984704Y-45952055D03*
X202144704Y-45952055D03*
X203044703Y-45952055D03*
D31*
X189944704Y-48492055D03*
X205184704Y-48492055D03*
D15*
X200964704Y-48492055D03*
X194164704Y-48492055D03*
D32*
X192084704Y-48492055D03*
X192984704Y-48492055D03*
X202144704Y-48492055D03*
X203044704Y-48492055D03*
D31*
X189944704Y-51032055D03*
X205184703Y-51032055D03*
D15*
X200964705Y-51032055D03*
X194164704Y-51032055D03*
D32*
X192084704Y-51032055D03*
X192984704Y-51032055D03*
X202144703Y-51032056D03*
X203044704Y-51032055D03*
D31*
X189944704Y-53572055D03*
X205184704Y-53572055D03*
D15*
X200964705Y-53572054D03*
X194164703Y-53572055D03*
D32*
X192084703Y-53572055D03*
X192984704Y-53572056D03*
X202144704Y-53572055D03*
X203044704Y-53572055D03*
D31*
X189944704Y-56112055D03*
X205184704Y-56112055D03*
D15*
X200964704Y-56112055D03*
X194164704Y-56112055D03*
D32*
X192084704Y-56112055D03*
X192984705Y-56112055D03*
X202144704Y-56112055D03*
X203044705Y-56112055D03*
D31*
X189944704Y-58652055D03*
X205184704Y-58652055D03*
D15*
X200964704Y-58652055D03*
X194164704Y-58652055D03*
D32*
X192084705Y-58652055D03*
X192984704Y-58652055D03*
X202144703Y-58652055D03*
X203044704Y-58652055D03*
D31*
X189944706Y-61192054D03*
X205184704Y-61192055D03*
D15*
X200964704Y-61192055D03*
X194164704Y-61192055D03*
D32*
X192084704Y-61192055D03*
X192984703Y-61192055D03*
X202144702Y-61192055D03*
X203044704Y-61192055D03*
D33*
X198964700Y-76652058D03*
X205964699Y-76652058D03*
X198964699Y-78952058D03*
X205964699Y-78952058D03*
D34*
X196264699Y-76652058D03*
X197364698Y-81252058D03*
X201364699Y-81252058D03*
X204364700Y-81252058D03*
X196264699Y-78952058D03*
X197364699Y-74352058D03*
X201364700Y-74352057D03*
X204364699Y-74352057D03*
D35*
X197464702Y-93102061D03*
X203664702Y-93102061D03*
X197464702Y-96802061D03*
X203664702Y-96802061D03*
D36*
X100731431Y-113518785D03*
D37*
X99564705Y-112352059D03*
D36*
X99564705Y-114002059D03*
X100731431Y-111185333D03*
X97914705Y-112352059D03*
X98397979Y-111185333D03*
X98397979Y-113518785D03*
X101214705Y-112352059D03*
X99564705Y-110702059D03*
X100731426Y-37018783D03*
D37*
X99564700Y-35852057D03*
D36*
X99564700Y-37502057D03*
X100731426Y-34685331D03*
X97914700Y-35852057D03*
X98397974Y-34685331D03*
X98397974Y-37018783D03*
X101214700Y-35852057D03*
X99564700Y-34202057D03*
X201731430Y-88118785D03*
D37*
X200564704Y-86952059D03*
D36*
X200564704Y-88602059D03*
X201731430Y-85785333D03*
X198914704Y-86952059D03*
X199397978Y-85785333D03*
X199397978Y-88118785D03*
X202214704Y-86952059D03*
X200564704Y-85302059D03*
X146324713Y-107755152D03*
D37*
X145760381Y-106204659D03*
D36*
X145063061Y-107700067D03*
X147310874Y-105640327D03*
X144264973Y-105507339D03*
X145196049Y-104654166D03*
X144209888Y-106768991D03*
X147255789Y-106901979D03*
X146457701Y-104709251D03*
X203110645Y-147347999D03*
D37*
X203110645Y-145697999D03*
D36*
X201943919Y-146864725D03*
X204760645Y-145697999D03*
X201943919Y-144531273D03*
X203110645Y-144047999D03*
X201460645Y-145697999D03*
X204277371Y-146864725D03*
X204277371Y-144531273D03*
M02*
