G04 #@! TF.GenerationSoftware,KiCad,Pcbnew,8.0.1*
G04 #@! TF.CreationDate,2024-03-30T10:30:43-04:00*
G04 #@! TF.ProjectId,kipra-kicad,6b697072-612d-46b6-9963-61642e6b6963,v1.0.0*
G04 #@! TF.SameCoordinates,Original*
G04 #@! TF.FileFunction,Legend,Bot*
G04 #@! TF.FilePolarity,Positive*
%FSLAX46Y46*%
G04 Gerber Fmt 4.6, Leading zero omitted, Abs format (unit mm)*
G04 Created by KiCad (PCBNEW 8.0.1) date 2024-03-30 10:30:43*
%MOMM*%
%LPD*%
G01*
G04 APERTURE LIST*
%ADD10C,0.150000*%
%ADD11C,0.100000*%
%ADD12C,0.120000*%
G04 APERTURE END LIST*
D10*
G36*
X141964982Y-113747020D02*
G01*
X141537069Y-113747020D01*
X141537069Y-112140879D01*
X141964982Y-112140879D01*
X141964982Y-111927899D01*
X140831695Y-111927899D01*
X140831695Y-112140879D01*
X141259609Y-112140879D01*
X141259609Y-113747020D01*
X140831695Y-113747020D01*
X140831695Y-113960000D01*
X141964982Y-113960000D01*
X141964982Y-113747020D01*
G37*
G36*
X139452212Y-113960000D02*
G01*
X139552120Y-113956050D01*
X139654051Y-113941457D01*
X139751252Y-113911614D01*
X139836007Y-113861253D01*
X139851304Y-113847648D01*
X139912871Y-113761877D01*
X139948785Y-113658090D01*
X139963948Y-113559949D01*
X139968053Y-113463698D01*
X139968053Y-112641088D01*
X140376427Y-112641088D01*
X140376427Y-112428108D01*
X139968053Y-112428108D01*
X139968053Y-112029016D01*
X139716482Y-111919595D01*
X139716482Y-112428108D01*
X139144954Y-112428108D01*
X139144954Y-112641088D01*
X139716482Y-112641088D01*
X139716482Y-113452463D01*
X139708863Y-113553145D01*
X139677127Y-113648060D01*
X139652002Y-113681563D01*
X139563709Y-113730655D01*
X139466233Y-113745997D01*
X139427787Y-113747020D01*
X139144954Y-113747020D01*
X139144954Y-113960000D01*
X139452212Y-113960000D01*
G37*
G36*
X138149420Y-111927899D02*
G01*
X137911528Y-111927899D01*
X137911528Y-112678213D01*
X138149420Y-112678213D01*
X138149420Y-111927899D01*
G37*
G36*
X136381591Y-113991263D02*
G01*
X136481004Y-113986634D01*
X136587756Y-113972750D01*
X136685100Y-113953481D01*
X136787837Y-113927412D01*
X136895966Y-113894542D01*
X136895966Y-113635645D01*
X136790470Y-113684120D01*
X136689405Y-113722565D01*
X136592771Y-113750981D01*
X136485631Y-113771457D01*
X136384521Y-113778283D01*
X136282265Y-113770490D01*
X136187961Y-113744215D01*
X136129043Y-113712337D01*
X136060322Y-113640288D01*
X136033394Y-113541904D01*
X136033300Y-113535017D01*
X136058648Y-113438657D01*
X136113412Y-113380167D01*
X136201408Y-113333083D01*
X136296260Y-113301993D01*
X136368401Y-113284912D01*
X136473426Y-113263419D01*
X136574176Y-113238201D01*
X136670295Y-113201510D01*
X136755704Y-113150410D01*
X136789965Y-113120781D01*
X136851285Y-113035945D01*
X136882633Y-112940437D01*
X136890593Y-112849672D01*
X136881189Y-112747028D01*
X136848131Y-112646590D01*
X136791270Y-112562072D01*
X136740139Y-112514570D01*
X136656974Y-112463066D01*
X136557934Y-112426277D01*
X136458250Y-112406158D01*
X136346412Y-112397305D01*
X136312226Y-112396845D01*
X136209964Y-112401286D01*
X136109199Y-112414610D01*
X136009929Y-112436816D01*
X135912156Y-112467905D01*
X135856957Y-112489658D01*
X135856957Y-112736831D01*
X135951712Y-112687344D01*
X136048336Y-112650011D01*
X136146831Y-112624833D01*
X136247196Y-112611810D01*
X136305387Y-112609825D01*
X136417775Y-112617673D01*
X136519505Y-112646668D01*
X136603796Y-112715340D01*
X136635769Y-112819329D01*
X136636092Y-112833063D01*
X136617388Y-112931344D01*
X136607759Y-112948346D01*
X136526743Y-113008698D01*
X136498339Y-113020153D01*
X136398199Y-113049584D01*
X136298090Y-113072459D01*
X136259958Y-113080237D01*
X136158841Y-113099288D01*
X136049356Y-113128859D01*
X135958428Y-113171168D01*
X135873810Y-113238750D01*
X135815913Y-113324674D01*
X135784737Y-113428939D01*
X135778799Y-113508639D01*
X135788905Y-113614823D01*
X135819221Y-113709162D01*
X135877486Y-113801134D01*
X135940488Y-113862302D01*
X136028507Y-113918722D01*
X136131364Y-113959023D01*
X136233535Y-113981062D01*
X136347066Y-113990759D01*
X136381591Y-113991263D01*
G37*
G36*
X133509295Y-111834110D02*
G01*
X133249909Y-111834110D01*
X133249909Y-113067048D01*
X132589476Y-112428108D01*
X132283196Y-112428108D01*
X132885987Y-113008429D01*
X132188918Y-113960000D01*
X132496664Y-113960000D01*
X133062330Y-113172072D01*
X133249909Y-113347438D01*
X133249909Y-113960000D01*
X133509295Y-113960000D01*
X133509295Y-111834110D01*
G37*
G36*
X131419064Y-112146741D02*
G01*
X131460097Y-112106685D01*
X131460097Y-111874166D01*
X131419064Y-111834110D01*
X131222205Y-111834110D01*
X131181172Y-111874166D01*
X131181172Y-112106685D01*
X131222205Y-112146741D01*
X131419064Y-112146741D01*
G37*
G36*
X130959888Y-113960000D02*
G01*
X131066347Y-113951085D01*
X131170860Y-113919743D01*
X131259221Y-113865836D01*
X131309155Y-113817362D01*
X131368897Y-113727932D01*
X131405587Y-113632997D01*
X131426828Y-113523531D01*
X131432742Y-113415826D01*
X131432742Y-112641088D01*
X131767843Y-112641088D01*
X131767843Y-112428108D01*
X131181172Y-112428108D01*
X131181172Y-113408011D01*
X131173784Y-113512287D01*
X131146001Y-113611709D01*
X131118646Y-113660069D01*
X131041221Y-113725282D01*
X130942460Y-113746935D01*
X130934975Y-113747020D01*
X130641395Y-113747020D01*
X130641395Y-113960000D01*
X130959888Y-113960000D01*
G37*
G36*
X130183196Y-112428108D02*
G01*
X129956538Y-112428108D01*
X129931625Y-112662581D01*
X129873837Y-112572273D01*
X129803787Y-112500648D01*
X129721475Y-112447709D01*
X129626902Y-112413454D01*
X129520067Y-112397883D01*
X129481730Y-112396845D01*
X129371821Y-112406493D01*
X129276566Y-112435436D01*
X129178106Y-112498748D01*
X129102543Y-112592209D01*
X129058579Y-112688685D01*
X129029270Y-112804456D01*
X129016905Y-112903947D01*
X129012784Y-113014291D01*
X129012784Y-113960000D01*
X129265819Y-113960000D01*
X129265819Y-113010872D01*
X129271500Y-112903298D01*
X129291134Y-112804074D01*
X129333209Y-112713216D01*
X129337627Y-112707034D01*
X129415512Y-112640582D01*
X129514791Y-112612198D01*
X129559888Y-112609825D01*
X129663825Y-112622180D01*
X129759422Y-112664312D01*
X129835394Y-112736343D01*
X129886141Y-112825625D01*
X129915743Y-112923436D01*
X129929276Y-113024262D01*
X129931625Y-113093914D01*
X129931625Y-113960000D01*
X130183196Y-113960000D01*
X130183196Y-112428108D01*
G37*
G36*
X127592756Y-112637669D02*
G01*
X127617766Y-112593774D01*
X127682677Y-112514221D01*
X127762260Y-112455952D01*
X127803156Y-112435865D01*
X127898361Y-112406600D01*
X128002595Y-112396845D01*
X128069220Y-112400150D01*
X128177329Y-112421839D01*
X128274638Y-112463770D01*
X128361148Y-112525943D01*
X128436859Y-112608360D01*
X128474526Y-112663612D01*
X128521610Y-112755392D01*
X128557393Y-112857854D01*
X128581877Y-112970997D01*
X128593647Y-113073443D01*
X128597571Y-113183307D01*
X128594661Y-113273792D01*
X128584738Y-113372884D01*
X128567773Y-113471514D01*
X128550310Y-113541306D01*
X128515414Y-113640270D01*
X128470076Y-113732365D01*
X128433287Y-113788297D01*
X128367456Y-113861203D01*
X128288848Y-113920921D01*
X128204307Y-113960969D01*
X128107183Y-113984393D01*
X128007969Y-113991263D01*
X127940252Y-113987637D01*
X127832622Y-113963845D01*
X127738828Y-113917847D01*
X127658873Y-113849642D01*
X127592756Y-113759232D01*
X127567843Y-113960000D01*
X127341186Y-113960000D01*
X127341186Y-113192588D01*
X127592756Y-113192588D01*
X127596175Y-113288087D01*
X127606434Y-113387983D01*
X127626461Y-113486779D01*
X127659190Y-113578981D01*
X127699595Y-113650080D01*
X127771053Y-113723084D01*
X127861727Y-113766154D01*
X127963028Y-113778283D01*
X128065381Y-113765939D01*
X128156468Y-113722107D01*
X128217326Y-113662358D01*
X128267355Y-113577515D01*
X128298984Y-113485680D01*
X128318646Y-113387006D01*
X128328463Y-113293196D01*
X128332323Y-113192588D01*
X128328904Y-113098433D01*
X128318646Y-112999637D01*
X128300564Y-112907280D01*
X128267355Y-112809616D01*
X128227618Y-112738276D01*
X128156468Y-112665512D01*
X128065381Y-112622061D01*
X127963028Y-112609825D01*
X127861727Y-112622061D01*
X127771053Y-112665512D01*
X127709981Y-112724667D01*
X127659190Y-112809616D01*
X127626461Y-112901329D01*
X127606434Y-112999637D01*
X127596616Y-113092394D01*
X127592756Y-113192588D01*
X127341186Y-113192588D01*
X127341186Y-111834110D01*
X127592756Y-111834110D01*
X127592756Y-112637669D01*
G37*
G36*
X126333104Y-112398738D02*
G01*
X126431725Y-112408676D01*
X126528834Y-112427131D01*
X126592917Y-112443282D01*
X126688470Y-112471286D01*
X126783335Y-112503824D01*
X126783335Y-112755882D01*
X126724106Y-112723337D01*
X126631141Y-112681617D01*
X126533230Y-112648415D01*
X126465758Y-112631532D01*
X126363405Y-112615252D01*
X126259678Y-112609825D01*
X126175048Y-112614527D01*
X126075033Y-112636345D01*
X125981242Y-112685052D01*
X125920814Y-112757821D01*
X125889923Y-112853250D01*
X125882079Y-112951765D01*
X125882079Y-112990844D01*
X126220111Y-112990844D01*
X126241893Y-112991019D01*
X126348453Y-112997164D01*
X126451102Y-113012085D01*
X126549839Y-113035785D01*
X126640590Y-113070312D01*
X126727194Y-113123170D01*
X126799944Y-113191612D01*
X126811478Y-113205751D01*
X126861617Y-113295660D01*
X126887664Y-113395227D01*
X126895198Y-113499357D01*
X126890132Y-113584669D01*
X126867616Y-113686289D01*
X126820754Y-113784044D01*
X126751095Y-113864256D01*
X126684333Y-113913744D01*
X126587575Y-113959511D01*
X126491251Y-113983325D01*
X126385219Y-113991263D01*
X126287827Y-113984727D01*
X126184223Y-113962441D01*
X126084312Y-113924340D01*
X126000964Y-113875596D01*
X125923387Y-113806000D01*
X125860586Y-113719665D01*
X125856695Y-113745901D01*
X125838604Y-113842274D01*
X125833131Y-113865464D01*
X125801479Y-113960000D01*
X125548932Y-113960000D01*
X125575121Y-113889623D01*
X125600904Y-113787133D01*
X125615366Y-113684494D01*
X125622214Y-113599280D01*
X125627540Y-113501006D01*
X125629532Y-113401172D01*
X125629532Y-113203824D01*
X125882079Y-113203824D01*
X125882079Y-113257557D01*
X125884253Y-113316341D01*
X125898095Y-113413199D01*
X125927508Y-113512547D01*
X125942840Y-113548544D01*
X125994759Y-113631867D01*
X126070146Y-113705010D01*
X126129699Y-113740430D01*
X126223408Y-113769625D01*
X126323670Y-113778283D01*
X126366933Y-113776601D01*
X126467136Y-113756490D01*
X126555212Y-113709406D01*
X126575935Y-113691088D01*
X126629036Y-113602817D01*
X126643628Y-113501311D01*
X126629138Y-113398894D01*
X126577683Y-113314221D01*
X126502456Y-113260122D01*
X126409644Y-113226782D01*
X126396865Y-113224002D01*
X126299928Y-113208868D01*
X126201060Y-113203824D01*
X125882079Y-113203824D01*
X125629532Y-113203824D01*
X125629532Y-113089030D01*
X125631232Y-112983036D01*
X125637109Y-112884117D01*
X125651025Y-112785191D01*
X125667909Y-112725355D01*
X125710773Y-112635722D01*
X125777055Y-112557069D01*
X125819984Y-112521983D01*
X125908640Y-112469103D01*
X126000781Y-112434459D01*
X126065750Y-112418003D01*
X126165034Y-112402135D01*
X126266517Y-112396845D01*
X126333104Y-112398738D01*
G37*
G36*
X122872472Y-112402725D02*
G01*
X122977772Y-112430711D01*
X123068767Y-112481745D01*
X123145456Y-112555826D01*
X123199804Y-112637669D01*
X123224717Y-112428108D01*
X123452840Y-112428108D01*
X123452840Y-114553998D01*
X123199804Y-114553998D01*
X123199804Y-113759232D01*
X123157047Y-113826077D01*
X123083804Y-113900626D01*
X122994946Y-113952968D01*
X122890474Y-113983105D01*
X122788499Y-113991263D01*
X122722241Y-113987920D01*
X122614773Y-113965981D01*
X122518105Y-113923565D01*
X122432236Y-113860674D01*
X122357166Y-113777306D01*
X122311290Y-113706452D01*
X122266502Y-113611288D01*
X122232911Y-113505066D01*
X122213471Y-113408098D01*
X122201808Y-113303451D01*
X122198021Y-113194054D01*
X122461702Y-113194054D01*
X122464862Y-113298462D01*
X122478906Y-113421698D01*
X122504185Y-113526676D01*
X122551584Y-113632226D01*
X122616537Y-113709248D01*
X122717653Y-113764019D01*
X122821228Y-113778283D01*
X122843792Y-113777689D01*
X122946593Y-113756919D01*
X123032698Y-113706477D01*
X123102107Y-113626364D01*
X123119567Y-113596654D01*
X123157729Y-113506345D01*
X123183680Y-113399916D01*
X123196369Y-113293568D01*
X123199804Y-113192588D01*
X123199710Y-113175220D01*
X123193759Y-113060667D01*
X123178552Y-112958409D01*
X123149838Y-112856598D01*
X123103084Y-112761256D01*
X123090591Y-112742918D01*
X123017881Y-112668978D01*
X122928093Y-112624613D01*
X122821228Y-112609825D01*
X122717653Y-112624088D01*
X122616537Y-112678860D01*
X122551584Y-112755882D01*
X122504185Y-112861431D01*
X122478906Y-112966410D01*
X122464862Y-113089646D01*
X122461702Y-113194054D01*
X122198021Y-113194054D01*
X122197920Y-113191123D01*
X122200385Y-113101471D01*
X122210401Y-112996232D01*
X122228120Y-112898577D01*
X122259553Y-112791404D01*
X122302080Y-112695154D01*
X122355701Y-112609825D01*
X122407870Y-112548469D01*
X122490523Y-112480040D01*
X122584396Y-112431995D01*
X122689489Y-112404333D01*
X122788499Y-112396845D01*
X122872472Y-112402725D01*
G37*
G36*
X121615645Y-112428108D02*
G01*
X121387034Y-112428108D01*
X121362609Y-112731458D01*
X121316012Y-112637749D01*
X121256822Y-112558732D01*
X121177166Y-112488785D01*
X121169169Y-112483307D01*
X121074170Y-112434081D01*
X120977389Y-112407062D01*
X120870685Y-112396930D01*
X120859469Y-112396845D01*
X120757271Y-112403762D01*
X120652781Y-112427671D01*
X120557831Y-112468658D01*
X120531207Y-112484284D01*
X120531207Y-112748066D01*
X120608601Y-112687586D01*
X120703771Y-112640200D01*
X120807520Y-112614685D01*
X120881451Y-112609825D01*
X120990963Y-112619198D01*
X121086981Y-112647316D01*
X121178872Y-112701356D01*
X121238534Y-112759790D01*
X121292817Y-112842924D01*
X121331591Y-112942362D01*
X121352795Y-113042743D01*
X121362125Y-113155607D01*
X121362609Y-113190146D01*
X121362609Y-113960000D01*
X121615645Y-113960000D01*
X121615645Y-112428108D01*
G37*
G36*
X119595909Y-112398738D02*
G01*
X119694530Y-112408676D01*
X119791639Y-112427131D01*
X119855723Y-112443282D01*
X119951275Y-112471286D01*
X120046140Y-112503824D01*
X120046140Y-112755882D01*
X119986912Y-112723337D01*
X119893947Y-112681617D01*
X119796036Y-112648415D01*
X119728564Y-112631532D01*
X119626211Y-112615252D01*
X119522484Y-112609825D01*
X119437854Y-112614527D01*
X119337838Y-112636345D01*
X119244047Y-112685052D01*
X119183620Y-112757821D01*
X119152728Y-112853250D01*
X119144884Y-112951765D01*
X119144884Y-112990844D01*
X119482916Y-112990844D01*
X119504698Y-112991019D01*
X119611258Y-112997164D01*
X119713907Y-113012085D01*
X119812644Y-113035785D01*
X119903396Y-113070312D01*
X119989999Y-113123170D01*
X120062749Y-113191612D01*
X120074284Y-113205751D01*
X120124423Y-113295660D01*
X120150469Y-113395227D01*
X120158004Y-113499357D01*
X120152938Y-113584669D01*
X120130421Y-113686289D01*
X120083560Y-113784044D01*
X120013900Y-113864256D01*
X119947139Y-113913744D01*
X119850380Y-113959511D01*
X119754057Y-113983325D01*
X119648025Y-113991263D01*
X119550633Y-113984727D01*
X119447028Y-113962441D01*
X119347117Y-113924340D01*
X119263770Y-113875596D01*
X119186192Y-113806000D01*
X119123391Y-113719665D01*
X119119501Y-113745901D01*
X119101409Y-113842274D01*
X119095937Y-113865464D01*
X119064284Y-113960000D01*
X118811737Y-113960000D01*
X118837926Y-113889623D01*
X118863709Y-113787133D01*
X118878171Y-113684494D01*
X118885019Y-113599280D01*
X118890345Y-113501006D01*
X118892337Y-113401172D01*
X118892337Y-113203824D01*
X119144884Y-113203824D01*
X119144884Y-113257557D01*
X119147058Y-113316341D01*
X119160900Y-113413199D01*
X119190314Y-113512547D01*
X119205645Y-113548544D01*
X119257564Y-113631867D01*
X119332951Y-113705010D01*
X119392504Y-113740430D01*
X119486213Y-113769625D01*
X119586475Y-113778283D01*
X119629738Y-113776601D01*
X119729941Y-113756490D01*
X119818018Y-113709406D01*
X119838740Y-113691088D01*
X119891841Y-113602817D01*
X119906434Y-113501311D01*
X119891944Y-113398894D01*
X119840488Y-113314221D01*
X119765261Y-113260122D01*
X119672449Y-113226782D01*
X119659670Y-113224002D01*
X119562734Y-113208868D01*
X119463866Y-113203824D01*
X119144884Y-113203824D01*
X118892337Y-113203824D01*
X118892337Y-113089030D01*
X118894037Y-112983036D01*
X118899915Y-112884117D01*
X118913831Y-112785191D01*
X118930714Y-112725355D01*
X118973579Y-112635722D01*
X119039860Y-112557069D01*
X119082789Y-112521983D01*
X119171446Y-112469103D01*
X119263586Y-112434459D01*
X119328555Y-112418003D01*
X119427840Y-112402135D01*
X119529323Y-112396845D01*
X119595909Y-112398738D01*
G37*
G36*
X117947084Y-112402332D02*
G01*
X118044402Y-112423941D01*
X118137138Y-112466210D01*
X118184830Y-112498518D01*
X118262237Y-112570052D01*
X118320809Y-112649392D01*
X118353324Y-112708041D01*
X118393051Y-112801624D01*
X118421926Y-112901939D01*
X118435603Y-112970846D01*
X118448792Y-113074322D01*
X118453189Y-113177934D01*
X118451235Y-113246871D01*
X118440976Y-113350507D01*
X118421926Y-113454417D01*
X118403943Y-113522255D01*
X118368154Y-113618288D01*
X118321786Y-113707452D01*
X118289335Y-113755311D01*
X118217906Y-113832780D01*
X118139092Y-113891123D01*
X118071206Y-113924418D01*
X117968670Y-113951861D01*
X117862609Y-113960000D01*
X117810609Y-113957818D01*
X117706895Y-113938129D01*
X117615436Y-113897962D01*
X117571377Y-113867241D01*
X117500718Y-113792327D01*
X117448374Y-113702568D01*
X117448374Y-113887215D01*
X117449196Y-113929488D01*
X117459038Y-114032141D01*
X117482079Y-114130969D01*
X117484203Y-114137579D01*
X117527508Y-114225736D01*
X117597362Y-114297055D01*
X117630455Y-114317308D01*
X117725704Y-114348269D01*
X117827438Y-114356650D01*
X117864883Y-114355744D01*
X117968587Y-114343562D01*
X118063377Y-114319525D01*
X118092022Y-114310045D01*
X118189515Y-114273741D01*
X118282707Y-114232575D01*
X118282707Y-114490495D01*
X118255550Y-114499303D01*
X118159780Y-114526525D01*
X118062889Y-114548136D01*
X118042014Y-114551977D01*
X117944829Y-114564907D01*
X117841116Y-114569630D01*
X117820080Y-114569444D01*
X117720382Y-114562932D01*
X117612802Y-114542839D01*
X117518378Y-114509351D01*
X117424842Y-114453352D01*
X117349211Y-114379120D01*
X117339834Y-114367083D01*
X117282533Y-114275531D01*
X117239817Y-114171216D01*
X117214813Y-114071645D01*
X117200524Y-113962697D01*
X117196803Y-113864745D01*
X117196803Y-113174515D01*
X117448374Y-113174515D01*
X117448464Y-113191848D01*
X117454144Y-113305917D01*
X117468660Y-113407270D01*
X117496068Y-113507532D01*
X117540697Y-113600474D01*
X117546552Y-113609490D01*
X117614444Y-113683908D01*
X117708740Y-113732709D01*
X117812295Y-113747020D01*
X117834331Y-113746443D01*
X117935119Y-113726274D01*
X118020261Y-113677292D01*
X118089755Y-113599497D01*
X118101645Y-113580480D01*
X118145656Y-113482155D01*
X118171736Y-113377237D01*
X118184489Y-113271910D01*
X118187941Y-113171584D01*
X118187847Y-113154405D01*
X118181926Y-113041524D01*
X118166796Y-112941547D01*
X118138227Y-112843087D01*
X118091709Y-112752463D01*
X118079346Y-112735190D01*
X118007514Y-112665543D01*
X117918986Y-112623755D01*
X117813761Y-112609825D01*
X117713376Y-112621632D01*
X117623740Y-112663558D01*
X117566786Y-112716653D01*
X117513342Y-112802777D01*
X117483339Y-112885710D01*
X117462051Y-112986448D01*
X117452234Y-113076429D01*
X117448374Y-113174515D01*
X117196803Y-113174515D01*
X117196803Y-112428108D01*
X117423949Y-112428108D01*
X117448374Y-112638646D01*
X117470157Y-112600790D01*
X117534944Y-112518106D01*
X117617878Y-112454487D01*
X117664464Y-112432027D01*
X117760035Y-112404951D01*
X117858702Y-112396845D01*
X117947084Y-112402332D01*
G37*
G36*
X116826531Y-112428108D02*
G01*
X116619902Y-112428108D01*
X116598408Y-112565373D01*
X116538933Y-112483907D01*
X116456444Y-112424659D01*
X116356686Y-112398326D01*
X116323391Y-112396845D01*
X116222871Y-112412185D01*
X116133207Y-112465213D01*
X116072332Y-112545322D01*
X116051304Y-112590774D01*
X115998212Y-112505930D01*
X115922499Y-112439457D01*
X115829862Y-112403663D01*
X115758702Y-112396845D01*
X115653353Y-112410441D01*
X115562814Y-112456802D01*
X115498827Y-112536064D01*
X115462463Y-112636588D01*
X115442407Y-112742449D01*
X115430947Y-112852461D01*
X115425437Y-112957729D01*
X115423600Y-113075352D01*
X115423600Y-113960000D01*
X115653677Y-113960000D01*
X115653677Y-113088541D01*
X115654536Y-112988964D01*
X115657833Y-112889496D01*
X115662470Y-112823293D01*
X115677468Y-112725138D01*
X115690314Y-112684563D01*
X115764014Y-112618656D01*
X115825624Y-112609825D01*
X115922276Y-112635637D01*
X115969239Y-112691402D01*
X115996716Y-112787206D01*
X116002456Y-112830132D01*
X116009118Y-112932163D01*
X116011511Y-113038054D01*
X116011737Y-113088541D01*
X116011737Y-113960000D01*
X116241325Y-113960000D01*
X116241325Y-113088541D01*
X116242480Y-112983446D01*
X116246821Y-112880080D01*
X116251095Y-112827690D01*
X116266077Y-112731089D01*
X116280893Y-112686029D01*
X116357178Y-112618830D01*
X116419134Y-112609825D01*
X116516651Y-112638068D01*
X116557376Y-112689937D01*
X116583021Y-112786748D01*
X116588639Y-112831109D01*
X116595651Y-112934628D01*
X116598170Y-113039237D01*
X116598408Y-113088541D01*
X116598408Y-113960000D01*
X116826531Y-113960000D01*
X116826531Y-112428108D01*
G37*
G36*
X114543013Y-112398738D02*
G01*
X114641634Y-112408676D01*
X114738743Y-112427131D01*
X114802827Y-112443282D01*
X114898379Y-112471286D01*
X114993244Y-112503824D01*
X114993244Y-112755882D01*
X114934016Y-112723337D01*
X114841051Y-112681617D01*
X114743140Y-112648415D01*
X114675668Y-112631532D01*
X114573315Y-112615252D01*
X114469588Y-112609825D01*
X114384958Y-112614527D01*
X114284942Y-112636345D01*
X114191151Y-112685052D01*
X114130724Y-112757821D01*
X114099832Y-112853250D01*
X114091988Y-112951765D01*
X114091988Y-112990844D01*
X114430020Y-112990844D01*
X114451802Y-112991019D01*
X114558362Y-112997164D01*
X114661011Y-113012085D01*
X114759748Y-113035785D01*
X114850500Y-113070312D01*
X114937103Y-113123170D01*
X115009853Y-113191612D01*
X115021388Y-113205751D01*
X115071527Y-113295660D01*
X115097573Y-113395227D01*
X115105108Y-113499357D01*
X115100042Y-113584669D01*
X115077525Y-113686289D01*
X115030664Y-113784044D01*
X114961004Y-113864256D01*
X114894243Y-113913744D01*
X114797484Y-113959511D01*
X114701161Y-113983325D01*
X114595129Y-113991263D01*
X114497737Y-113984727D01*
X114394132Y-113962441D01*
X114294221Y-113924340D01*
X114210874Y-113875596D01*
X114133296Y-113806000D01*
X114070495Y-113719665D01*
X114066605Y-113745901D01*
X114048513Y-113842274D01*
X114043041Y-113865464D01*
X114011388Y-113960000D01*
X113758841Y-113960000D01*
X113785030Y-113889623D01*
X113810813Y-113787133D01*
X113825275Y-113684494D01*
X113832123Y-113599280D01*
X113837449Y-113501006D01*
X113839441Y-113401172D01*
X113839441Y-113203824D01*
X114091988Y-113203824D01*
X114091988Y-113257557D01*
X114094162Y-113316341D01*
X114108004Y-113413199D01*
X114137418Y-113512547D01*
X114152749Y-113548544D01*
X114204668Y-113631867D01*
X114280055Y-113705010D01*
X114339608Y-113740430D01*
X114433317Y-113769625D01*
X114533579Y-113778283D01*
X114576842Y-113776601D01*
X114677045Y-113756490D01*
X114765122Y-113709406D01*
X114785844Y-113691088D01*
X114838945Y-113602817D01*
X114853538Y-113501311D01*
X114839048Y-113398894D01*
X114787592Y-113314221D01*
X114712365Y-113260122D01*
X114619553Y-113226782D01*
X114606774Y-113224002D01*
X114509838Y-113208868D01*
X114410969Y-113203824D01*
X114091988Y-113203824D01*
X113839441Y-113203824D01*
X113839441Y-113089030D01*
X113841141Y-112983036D01*
X113847018Y-112884117D01*
X113860935Y-112785191D01*
X113877818Y-112725355D01*
X113920683Y-112635722D01*
X113986964Y-112557069D01*
X114029893Y-112521983D01*
X114118550Y-112469103D01*
X114210690Y-112434459D01*
X114275659Y-112418003D01*
X114374944Y-112402135D01*
X114476427Y-112396845D01*
X114543013Y-112398738D01*
G37*
G36*
X112503433Y-113960000D02*
G01*
X112603342Y-113956050D01*
X112705272Y-113941457D01*
X112802473Y-113911614D01*
X112887228Y-113861253D01*
X112902526Y-113847648D01*
X112964092Y-113761877D01*
X113000006Y-113658090D01*
X113015169Y-113559949D01*
X113019274Y-113463698D01*
X113019274Y-112641088D01*
X113427648Y-112641088D01*
X113427648Y-112428108D01*
X113019274Y-112428108D01*
X113019274Y-112029016D01*
X112767704Y-111919595D01*
X112767704Y-112428108D01*
X112196175Y-112428108D01*
X112196175Y-112641088D01*
X112767704Y-112641088D01*
X112767704Y-113452463D01*
X112760084Y-113553145D01*
X112728348Y-113648060D01*
X112703224Y-113681563D01*
X112614930Y-113730655D01*
X112517454Y-113745997D01*
X112479009Y-113747020D01*
X112196175Y-113747020D01*
X112196175Y-113960000D01*
X112503433Y-113960000D01*
G37*
G36*
X111207480Y-112146741D02*
G01*
X111248513Y-112106685D01*
X111248513Y-111874166D01*
X111207480Y-111834110D01*
X111010621Y-111834110D01*
X110969588Y-111874166D01*
X110969588Y-112106685D01*
X111010621Y-112146741D01*
X111207480Y-112146741D01*
G37*
G36*
X110748304Y-113960000D02*
G01*
X110854763Y-113951085D01*
X110959276Y-113919743D01*
X111047637Y-113865836D01*
X111097571Y-113817362D01*
X111157313Y-113727932D01*
X111194003Y-113632997D01*
X111215244Y-113523531D01*
X111221158Y-113415826D01*
X111221158Y-112641088D01*
X111556259Y-112641088D01*
X111556259Y-112428108D01*
X110969588Y-112428108D01*
X110969588Y-113408011D01*
X110962199Y-113512287D01*
X110934417Y-113611709D01*
X110907062Y-113660069D01*
X110829637Y-113725282D01*
X110730876Y-113746935D01*
X110723391Y-113747020D01*
X110429811Y-113747020D01*
X110429811Y-113960000D01*
X110748304Y-113960000D01*
G37*
G36*
X109274542Y-113991263D02*
G01*
X109376660Y-113986424D01*
X109484379Y-113969045D01*
X109582511Y-113939026D01*
X109671057Y-113896367D01*
X109681451Y-113890146D01*
X109767674Y-113827008D01*
X109841146Y-113751351D01*
X109901866Y-113663175D01*
X109930090Y-113608778D01*
X109966849Y-113515264D01*
X109993105Y-113414972D01*
X110008859Y-113307902D01*
X110014028Y-113208656D01*
X110014110Y-113194054D01*
X110010066Y-113093542D01*
X109995541Y-112985312D01*
X109970453Y-112884165D01*
X109934801Y-112790101D01*
X109929602Y-112778841D01*
X109875454Y-112683946D01*
X109808633Y-112601492D01*
X109729138Y-112531481D01*
X109679497Y-112497962D01*
X109591753Y-112453723D01*
X109494117Y-112422124D01*
X109386589Y-112403165D01*
X109284388Y-112396944D01*
X109269169Y-112396845D01*
X109169772Y-112401763D01*
X109072105Y-112418059D01*
X109039581Y-112426643D01*
X108942444Y-112460560D01*
X108850040Y-112503837D01*
X108830020Y-112514570D01*
X108830020Y-112783726D01*
X108909083Y-112719150D01*
X108994408Y-112666737D01*
X109024926Y-112652323D01*
X109122421Y-112621819D01*
X109224068Y-112610199D01*
X109247187Y-112609825D01*
X109345140Y-112616046D01*
X109448802Y-112640546D01*
X109541744Y-112688471D01*
X109615589Y-112754783D01*
X109672261Y-112836482D01*
X109700502Y-112899497D01*
X109728035Y-112994029D01*
X109744139Y-113095603D01*
X109748862Y-113194054D01*
X109744092Y-113291827D01*
X109727825Y-113393207D01*
X109700013Y-113488122D01*
X109654561Y-113580446D01*
X109592211Y-113657383D01*
X109541256Y-113700125D01*
X109448817Y-113747752D01*
X109345858Y-113772100D01*
X109248653Y-113778283D01*
X109146351Y-113770803D01*
X109050595Y-113748363D01*
X109024438Y-113739204D01*
X108936014Y-113696315D01*
X108852827Y-113636034D01*
X108830020Y-113615617D01*
X108830020Y-113874026D01*
X108918077Y-113919707D01*
X109011275Y-113954168D01*
X109109616Y-113977409D01*
X109213100Y-113989431D01*
X109274542Y-113991263D01*
G37*
G36*
X107715785Y-113991263D02*
G01*
X107811629Y-113970706D01*
X107873565Y-113926294D01*
X107925309Y-113840445D01*
X107937557Y-113756789D01*
X107919497Y-113657268D01*
X107873565Y-113587773D01*
X107786835Y-113533119D01*
X107715785Y-113522316D01*
X107615730Y-113545392D01*
X107558981Y-113587773D01*
X107506842Y-113673228D01*
X107494501Y-113756789D01*
X107512699Y-113856449D01*
X107558981Y-113926294D01*
X107645131Y-113980540D01*
X107715785Y-113991263D01*
G37*
G36*
X141694916Y-103394110D02*
G01*
X141435530Y-103394110D01*
X141435530Y-104627048D01*
X140775097Y-103988108D01*
X140468817Y-103988108D01*
X141071608Y-104568429D01*
X140374539Y-105520000D01*
X140682285Y-105520000D01*
X141247952Y-104732072D01*
X141435530Y-104907438D01*
X141435530Y-105520000D01*
X141694916Y-105520000D01*
X141694916Y-103394110D01*
G37*
G36*
X139604686Y-103706741D02*
G01*
X139645719Y-103666685D01*
X139645719Y-103434166D01*
X139604686Y-103394110D01*
X139407826Y-103394110D01*
X139366793Y-103434166D01*
X139366793Y-103666685D01*
X139407826Y-103706741D01*
X139604686Y-103706741D01*
G37*
G36*
X139145509Y-105520000D02*
G01*
X139251969Y-105511085D01*
X139356481Y-105479743D01*
X139444842Y-105425836D01*
X139494776Y-105377362D01*
X139554518Y-105287932D01*
X139591208Y-105192997D01*
X139612450Y-105083531D01*
X139618363Y-104975826D01*
X139618363Y-104201088D01*
X139953465Y-104201088D01*
X139953465Y-103988108D01*
X139366793Y-103988108D01*
X139366793Y-104968011D01*
X139359405Y-105072287D01*
X139331622Y-105171709D01*
X139304267Y-105220069D01*
X139226842Y-105285282D01*
X139128081Y-105306935D01*
X139120596Y-105307020D01*
X138827017Y-105307020D01*
X138827017Y-105520000D01*
X139145509Y-105520000D01*
G37*
G36*
X137795288Y-103962725D02*
G01*
X137900588Y-103990711D01*
X137991583Y-104041745D01*
X138068272Y-104115826D01*
X138122620Y-104197669D01*
X138147533Y-103988108D01*
X138375656Y-103988108D01*
X138375656Y-106113998D01*
X138122620Y-106113998D01*
X138122620Y-105319232D01*
X138079863Y-105386077D01*
X138006620Y-105460626D01*
X137917762Y-105512968D01*
X137813290Y-105543105D01*
X137711315Y-105551263D01*
X137645057Y-105547920D01*
X137537589Y-105525981D01*
X137440921Y-105483565D01*
X137355052Y-105420674D01*
X137279982Y-105337306D01*
X137234106Y-105266452D01*
X137189318Y-105171288D01*
X137155727Y-105065066D01*
X137136287Y-104968098D01*
X137124624Y-104863451D01*
X137120837Y-104754054D01*
X137384518Y-104754054D01*
X137387678Y-104858462D01*
X137401722Y-104981698D01*
X137427001Y-105086676D01*
X137474400Y-105192226D01*
X137539353Y-105269248D01*
X137640470Y-105324019D01*
X137744044Y-105338283D01*
X137766608Y-105337689D01*
X137869409Y-105316919D01*
X137955514Y-105266477D01*
X138024923Y-105186364D01*
X138042383Y-105156654D01*
X138080546Y-105066345D01*
X138106496Y-104959916D01*
X138119186Y-104853568D01*
X138122620Y-104752588D01*
X138122526Y-104735220D01*
X138116575Y-104620667D01*
X138101368Y-104518409D01*
X138072654Y-104416598D01*
X138025900Y-104321256D01*
X138013407Y-104302918D01*
X137940697Y-104228978D01*
X137850910Y-104184613D01*
X137744044Y-104169825D01*
X137640470Y-104184088D01*
X137539353Y-104238860D01*
X137474400Y-104315882D01*
X137427001Y-104421431D01*
X137401722Y-104526410D01*
X137387678Y-104649646D01*
X137384518Y-104754054D01*
X137120837Y-104754054D01*
X137120736Y-104751123D01*
X137123201Y-104661471D01*
X137133217Y-104556232D01*
X137150936Y-104458577D01*
X137182369Y-104351404D01*
X137224896Y-104255154D01*
X137278517Y-104169825D01*
X137330686Y-104108469D01*
X137413339Y-104040040D01*
X137507212Y-103991995D01*
X137612305Y-103964333D01*
X137711315Y-103956845D01*
X137795288Y-103962725D01*
G37*
G36*
X136538461Y-103988108D02*
G01*
X136309850Y-103988108D01*
X136285425Y-104291458D01*
X136238829Y-104197749D01*
X136179638Y-104118732D01*
X136099982Y-104048785D01*
X136091985Y-104043307D01*
X135996986Y-103994081D01*
X135900205Y-103967062D01*
X135793501Y-103956930D01*
X135782285Y-103956845D01*
X135680087Y-103963762D01*
X135575597Y-103987671D01*
X135480647Y-104028658D01*
X135454023Y-104044284D01*
X135454023Y-104308066D01*
X135531417Y-104247586D01*
X135626588Y-104200200D01*
X135730336Y-104174685D01*
X135804267Y-104169825D01*
X135913779Y-104179198D01*
X136009797Y-104207316D01*
X136101688Y-104261356D01*
X136161350Y-104319790D01*
X136215633Y-104402924D01*
X136254407Y-104502362D01*
X136275611Y-104602743D01*
X136284941Y-104715607D01*
X136285425Y-104750146D01*
X136285425Y-105520000D01*
X136538461Y-105520000D01*
X136538461Y-103988108D01*
G37*
G36*
X134518725Y-103958738D02*
G01*
X134617346Y-103968676D01*
X134714455Y-103987131D01*
X134778539Y-104003282D01*
X134874091Y-104031286D01*
X134968957Y-104063824D01*
X134968957Y-104315882D01*
X134909728Y-104283337D01*
X134816763Y-104241617D01*
X134718852Y-104208415D01*
X134651380Y-104191532D01*
X134549027Y-104175252D01*
X134445300Y-104169825D01*
X134360670Y-104174527D01*
X134260654Y-104196345D01*
X134166863Y-104245052D01*
X134106436Y-104317821D01*
X134075544Y-104413250D01*
X134067700Y-104511765D01*
X134067700Y-104550844D01*
X134405733Y-104550844D01*
X134427514Y-104551019D01*
X134534075Y-104557164D01*
X134636723Y-104572085D01*
X134735460Y-104595785D01*
X134826212Y-104630312D01*
X134912815Y-104683170D01*
X134985565Y-104751612D01*
X134997100Y-104765751D01*
X135047239Y-104855660D01*
X135073285Y-104955227D01*
X135080820Y-105059357D01*
X135075754Y-105144669D01*
X135053237Y-105246289D01*
X135006376Y-105344044D01*
X134936716Y-105424256D01*
X134869955Y-105473744D01*
X134773196Y-105519511D01*
X134676873Y-105543325D01*
X134570841Y-105551263D01*
X134473449Y-105544727D01*
X134369844Y-105522441D01*
X134269934Y-105484340D01*
X134186586Y-105435596D01*
X134109008Y-105366000D01*
X134046207Y-105279665D01*
X134042317Y-105305901D01*
X134024225Y-105402274D01*
X134018753Y-105425464D01*
X133987100Y-105520000D01*
X133734553Y-105520000D01*
X133760743Y-105449623D01*
X133786525Y-105347133D01*
X133800987Y-105244494D01*
X133807835Y-105159280D01*
X133813161Y-105061006D01*
X133815153Y-104961172D01*
X133815153Y-104763824D01*
X134067700Y-104763824D01*
X134067700Y-104817557D01*
X134069874Y-104876341D01*
X134083716Y-104973199D01*
X134113130Y-105072547D01*
X134128462Y-105108544D01*
X134180380Y-105191867D01*
X134255767Y-105265010D01*
X134315320Y-105300430D01*
X134409029Y-105329625D01*
X134509291Y-105338283D01*
X134552554Y-105336601D01*
X134652757Y-105316490D01*
X134740834Y-105269406D01*
X134761556Y-105251088D01*
X134814658Y-105162817D01*
X134829250Y-105061311D01*
X134814760Y-104958894D01*
X134763304Y-104874221D01*
X134688077Y-104820122D01*
X134595265Y-104786782D01*
X134582486Y-104784002D01*
X134485550Y-104768868D01*
X134386682Y-104763824D01*
X134067700Y-104763824D01*
X133815153Y-104763824D01*
X133815153Y-104649030D01*
X133816853Y-104543036D01*
X133822731Y-104444117D01*
X133836647Y-104345191D01*
X133853530Y-104285355D01*
X133896395Y-104195722D01*
X133962676Y-104117069D01*
X134005605Y-104081983D01*
X134094262Y-104029103D01*
X134186402Y-103994459D01*
X134251371Y-103978003D01*
X134350656Y-103962135D01*
X134452139Y-103956845D01*
X134518725Y-103958738D01*
G37*
G36*
X131634553Y-105520000D02*
G01*
X131407407Y-105520000D01*
X131382983Y-105319232D01*
X131338056Y-105386077D01*
X131262174Y-105460626D01*
X131171146Y-105512968D01*
X131064971Y-105543105D01*
X130961908Y-105551263D01*
X130873719Y-105545698D01*
X130777162Y-105523785D01*
X130685914Y-105480921D01*
X130638911Y-105447758D01*
X130563029Y-105374637D01*
X130506151Y-105293831D01*
X130470972Y-105226189D01*
X130433442Y-105129870D01*
X130408454Y-105035422D01*
X130392483Y-104946788D01*
X130381747Y-104849071D01*
X130378275Y-104754054D01*
X130643416Y-104754054D01*
X130646835Y-104848332D01*
X130657093Y-104947494D01*
X130676755Y-105046046D01*
X130708384Y-105138492D01*
X130748121Y-105209926D01*
X130819271Y-105283084D01*
X130909977Y-105326154D01*
X131012222Y-105338283D01*
X131113874Y-105326154D01*
X131204686Y-105283084D01*
X131265515Y-105223686D01*
X131316549Y-105138981D01*
X131349278Y-105046779D01*
X131369305Y-104947983D01*
X131379123Y-104854202D01*
X131382983Y-104752588D01*
X131379564Y-104658189D01*
X131369305Y-104558660D01*
X131350901Y-104466060D01*
X131316549Y-104368639D01*
X131275904Y-104297967D01*
X131204686Y-104225512D01*
X131113874Y-104182061D01*
X131012222Y-104169825D01*
X130909977Y-104182061D01*
X130819271Y-104225512D01*
X130758413Y-104284667D01*
X130708384Y-104369616D01*
X130676755Y-104461451D01*
X130657093Y-104560125D01*
X130647276Y-104653584D01*
X130643416Y-104754054D01*
X130378275Y-104754054D01*
X130378168Y-104751123D01*
X130380486Y-104671950D01*
X130390790Y-104566265D01*
X130407477Y-104469267D01*
X130424544Y-104400268D01*
X130459188Y-104302724D01*
X130504686Y-104212323D01*
X130531545Y-104170523D01*
X130600580Y-104091033D01*
X130684449Y-104026699D01*
X130767531Y-103986929D01*
X130862965Y-103963667D01*
X130960443Y-103956845D01*
X131011322Y-103958923D01*
X131114961Y-103977683D01*
X131209571Y-104015952D01*
X131255602Y-104044683D01*
X131329059Y-104114412D01*
X131382983Y-104197669D01*
X131382983Y-103394110D01*
X131634553Y-103394110D01*
X131634553Y-105520000D01*
G37*
G36*
X129962467Y-105901018D02*
G01*
X129813479Y-105901018D01*
X129715293Y-105885387D01*
X129642509Y-105838492D01*
X129583377Y-105750208D01*
X129536868Y-105651685D01*
X129497541Y-105553898D01*
X129479843Y-105506322D01*
X130071887Y-103988108D01*
X129805174Y-103988108D01*
X129351371Y-105198087D01*
X128904407Y-103988108D01*
X128637693Y-103988108D01*
X129041183Y-105032979D01*
X129077982Y-105128470D01*
X129115234Y-105225427D01*
X129124225Y-105248890D01*
X129141811Y-105292365D01*
X129156465Y-105332909D01*
X129184309Y-105412533D01*
X129200917Y-105456496D01*
X129236831Y-105555268D01*
X129274429Y-105653145D01*
X129301546Y-105719790D01*
X129342504Y-105814150D01*
X129381657Y-105891249D01*
X129441680Y-105978043D01*
X129514466Y-106043519D01*
X129613278Y-106092245D01*
X129713412Y-106112040D01*
X129760234Y-106113998D01*
X129962467Y-106113998D01*
X129962467Y-105901018D01*
G37*
G36*
X126208454Y-104201088D02*
G01*
X126617317Y-104201088D01*
X126617317Y-103988108D01*
X126208454Y-103988108D01*
X126208454Y-103881618D01*
X126202938Y-103778319D01*
X126183123Y-103675775D01*
X126143608Y-103580192D01*
X126093171Y-103512812D01*
X126008221Y-103450215D01*
X125910230Y-103413700D01*
X125805999Y-103397008D01*
X125732669Y-103394110D01*
X125430296Y-103394110D01*
X125430296Y-103607090D01*
X125716061Y-103607090D01*
X125817841Y-103617561D01*
X125903639Y-103661800D01*
X125946693Y-103749538D01*
X125956884Y-103854752D01*
X125956884Y-103988108D01*
X125430296Y-103988108D01*
X125430296Y-104201088D01*
X125956884Y-104201088D01*
X125956884Y-105520000D01*
X126208454Y-105520000D01*
X126208454Y-104201088D01*
G37*
G36*
X124337197Y-103957047D02*
G01*
X124449190Y-103966709D01*
X124550844Y-103990867D01*
X124642160Y-104029518D01*
X124735630Y-104092931D01*
X124804546Y-104162986D01*
X124853378Y-104231806D01*
X124901051Y-104326007D01*
X124936806Y-104432883D01*
X124957498Y-104531627D01*
X124969912Y-104639172D01*
X124974051Y-104755519D01*
X124971410Y-104848950D01*
X124960681Y-104957860D01*
X124941700Y-105058016D01*
X124908029Y-105166649D01*
X124862474Y-105262676D01*
X124805035Y-105346099D01*
X124723867Y-105426040D01*
X124628254Y-105486347D01*
X124534803Y-105522411D01*
X124430738Y-105544050D01*
X124316061Y-105551263D01*
X124202413Y-105544101D01*
X124099242Y-105522617D01*
X124006546Y-105486811D01*
X123911641Y-105426935D01*
X123830994Y-105347564D01*
X123782444Y-105279307D01*
X123735045Y-105185655D01*
X123699497Y-105079192D01*
X123678924Y-104980686D01*
X123666581Y-104873284D01*
X123662467Y-104756985D01*
X123662590Y-104752588D01*
X123929180Y-104752588D01*
X123929573Y-104787429D01*
X123935469Y-104885792D01*
X123951290Y-104988872D01*
X123981164Y-105091278D01*
X124029808Y-105186852D01*
X124049436Y-105213915D01*
X124125838Y-105284898D01*
X124219127Y-105326304D01*
X124317526Y-105338283D01*
X124340636Y-105337691D01*
X124446051Y-105316988D01*
X124534580Y-105266708D01*
X124606221Y-105186852D01*
X124624292Y-105157304D01*
X124663790Y-105067217D01*
X124690649Y-104960704D01*
X124703783Y-104854031D01*
X124707338Y-104752588D01*
X124706944Y-104717929D01*
X124701048Y-104620087D01*
X124685227Y-104517572D01*
X124655353Y-104415753D01*
X124606709Y-104320767D01*
X124587069Y-104293792D01*
X124510438Y-104223038D01*
X124416633Y-104181765D01*
X124317526Y-104169825D01*
X124294477Y-104170415D01*
X124189367Y-104191051D01*
X124101144Y-104241169D01*
X124029808Y-104320767D01*
X124011825Y-104350128D01*
X123972517Y-104439673D01*
X123945787Y-104545583D01*
X123932718Y-104651678D01*
X123929180Y-104752588D01*
X123662590Y-104752588D01*
X123665108Y-104662532D01*
X123675836Y-104552558D01*
X123694817Y-104451576D01*
X123728489Y-104342268D01*
X123774044Y-104245909D01*
X123831483Y-104162498D01*
X123912510Y-104082366D01*
X124007702Y-104021915D01*
X124100570Y-103985765D01*
X124203844Y-103964075D01*
X124317526Y-103956845D01*
X124337197Y-103957047D01*
G37*
G36*
X122513060Y-105551263D02*
G01*
X122615178Y-105546424D01*
X122722896Y-105529045D01*
X122821029Y-105499026D01*
X122909574Y-105456367D01*
X122919968Y-105450146D01*
X123006191Y-105387008D01*
X123079663Y-105311351D01*
X123140384Y-105223175D01*
X123168608Y-105168778D01*
X123205366Y-105075264D01*
X123231622Y-104974972D01*
X123247376Y-104867902D01*
X123252545Y-104768656D01*
X123252627Y-104754054D01*
X123248583Y-104653542D01*
X123234058Y-104545312D01*
X123208970Y-104444165D01*
X123173318Y-104350101D01*
X123168119Y-104338841D01*
X123113972Y-104243946D01*
X123047150Y-104161492D01*
X122967655Y-104091481D01*
X122918014Y-104057962D01*
X122830270Y-104013723D01*
X122732634Y-103982124D01*
X122625106Y-103963165D01*
X122522905Y-103956944D01*
X122507686Y-103956845D01*
X122408289Y-103961763D01*
X122310623Y-103978059D01*
X122278098Y-103986643D01*
X122180962Y-104020560D01*
X122088558Y-104063837D01*
X122068538Y-104074570D01*
X122068538Y-104343726D01*
X122147600Y-104279150D01*
X122232925Y-104226737D01*
X122263444Y-104212323D01*
X122360938Y-104181819D01*
X122462585Y-104170199D01*
X122485705Y-104169825D01*
X122583657Y-104176046D01*
X122687319Y-104200546D01*
X122780261Y-104248471D01*
X122854107Y-104314783D01*
X122910779Y-104396482D01*
X122939019Y-104459497D01*
X122966552Y-104554029D01*
X122982657Y-104655603D01*
X122987379Y-104754054D01*
X122982609Y-104851827D01*
X122966342Y-104953207D01*
X122938531Y-105048122D01*
X122893079Y-105140446D01*
X122830728Y-105217383D01*
X122779773Y-105260125D01*
X122687335Y-105307752D01*
X122584375Y-105332100D01*
X122487170Y-105338283D01*
X122384869Y-105330803D01*
X122289112Y-105308363D01*
X122262955Y-105299204D01*
X122174532Y-105256315D01*
X122091344Y-105196034D01*
X122068538Y-105175617D01*
X122068538Y-105434026D01*
X122156594Y-105479707D01*
X122249793Y-105514168D01*
X122348134Y-105537409D01*
X122451617Y-105549431D01*
X122513060Y-105551263D01*
G37*
G36*
X121059815Y-105551263D02*
G01*
X121169037Y-105541615D01*
X121263697Y-105512672D01*
X121361542Y-105449360D01*
X121436632Y-105355899D01*
X121480321Y-105259423D01*
X121509447Y-105143652D01*
X121521734Y-105044161D01*
X121525830Y-104933817D01*
X121525830Y-103988108D01*
X121274260Y-103988108D01*
X121274260Y-104937236D01*
X121266949Y-105052772D01*
X121245018Y-105148726D01*
X121199400Y-105238021D01*
X121119568Y-105306559D01*
X121011079Y-105336716D01*
X120974818Y-105338283D01*
X120873248Y-105325928D01*
X120779372Y-105283796D01*
X120704197Y-105211765D01*
X120653708Y-105122483D01*
X120624255Y-105024672D01*
X120610792Y-104923846D01*
X120608454Y-104854193D01*
X120608454Y-103988108D01*
X120355418Y-103988108D01*
X120355418Y-105520000D01*
X120584030Y-105520000D01*
X120608454Y-105287969D01*
X120665996Y-105377448D01*
X120736040Y-105448413D01*
X120818587Y-105500867D01*
X120913636Y-105534807D01*
X121021186Y-105550234D01*
X121059815Y-105551263D01*
G37*
G36*
X119302732Y-105551263D02*
G01*
X119402145Y-105546634D01*
X119508898Y-105532750D01*
X119606242Y-105513481D01*
X119708978Y-105487412D01*
X119817107Y-105454542D01*
X119817107Y-105195645D01*
X119711612Y-105244120D01*
X119610547Y-105282565D01*
X119513912Y-105310981D01*
X119406772Y-105331457D01*
X119305663Y-105338283D01*
X119203407Y-105330490D01*
X119109102Y-105304215D01*
X119050185Y-105272337D01*
X118981463Y-105200288D01*
X118954535Y-105101904D01*
X118954442Y-105095017D01*
X118979789Y-104998657D01*
X119034553Y-104940167D01*
X119122549Y-104893083D01*
X119217401Y-104861993D01*
X119289543Y-104844912D01*
X119394567Y-104823419D01*
X119495317Y-104798201D01*
X119591436Y-104761510D01*
X119676845Y-104710410D01*
X119711106Y-104680781D01*
X119772426Y-104595945D01*
X119803774Y-104500437D01*
X119811734Y-104409672D01*
X119802331Y-104307028D01*
X119769272Y-104206590D01*
X119712411Y-104122072D01*
X119661280Y-104074570D01*
X119578116Y-104023066D01*
X119479075Y-103986277D01*
X119379392Y-103966158D01*
X119267553Y-103957305D01*
X119233367Y-103956845D01*
X119131105Y-103961286D01*
X119030340Y-103974610D01*
X118931071Y-103996816D01*
X118833297Y-104027905D01*
X118778098Y-104049658D01*
X118778098Y-104296831D01*
X118872853Y-104247344D01*
X118969478Y-104210011D01*
X119067972Y-104184833D01*
X119168337Y-104171810D01*
X119226528Y-104169825D01*
X119338916Y-104177673D01*
X119440647Y-104206668D01*
X119524937Y-104275340D01*
X119556910Y-104379329D01*
X119557233Y-104393063D01*
X119538529Y-104491344D01*
X119528901Y-104508346D01*
X119447885Y-104568698D01*
X119419480Y-104580153D01*
X119319340Y-104609584D01*
X119219231Y-104632459D01*
X119181099Y-104640237D01*
X119079982Y-104659288D01*
X118970498Y-104688859D01*
X118879570Y-104731168D01*
X118794951Y-104798750D01*
X118737054Y-104884674D01*
X118705879Y-104988939D01*
X118699940Y-105068639D01*
X118710046Y-105174823D01*
X118740363Y-105269162D01*
X118798627Y-105361134D01*
X118861629Y-105422302D01*
X118949648Y-105478722D01*
X119052505Y-105519023D01*
X119154676Y-105541062D01*
X119268208Y-105550759D01*
X119302732Y-105551263D01*
G37*
G36*
X117675739Y-103958738D02*
G01*
X117774359Y-103968676D01*
X117871469Y-103987131D01*
X117935552Y-104003282D01*
X118031104Y-104031286D01*
X118125970Y-104063824D01*
X118125970Y-104315882D01*
X118066741Y-104283337D01*
X117973776Y-104241617D01*
X117875865Y-104208415D01*
X117808393Y-104191532D01*
X117706040Y-104175252D01*
X117602313Y-104169825D01*
X117517683Y-104174527D01*
X117417667Y-104196345D01*
X117323876Y-104245052D01*
X117263449Y-104317821D01*
X117232558Y-104413250D01*
X117224714Y-104511765D01*
X117224714Y-104550844D01*
X117562746Y-104550844D01*
X117584527Y-104551019D01*
X117691088Y-104557164D01*
X117793737Y-104572085D01*
X117892474Y-104595785D01*
X117983225Y-104630312D01*
X118069828Y-104683170D01*
X118142578Y-104751612D01*
X118154113Y-104765751D01*
X118204252Y-104855660D01*
X118230298Y-104955227D01*
X118237833Y-105059357D01*
X118232767Y-105144669D01*
X118210251Y-105246289D01*
X118163389Y-105344044D01*
X118093730Y-105424256D01*
X118026968Y-105473744D01*
X117930209Y-105519511D01*
X117833886Y-105543325D01*
X117727854Y-105551263D01*
X117630462Y-105544727D01*
X117526857Y-105522441D01*
X117426947Y-105484340D01*
X117343599Y-105435596D01*
X117266021Y-105366000D01*
X117203220Y-105279665D01*
X117199330Y-105305901D01*
X117181238Y-105402274D01*
X117175766Y-105425464D01*
X117144114Y-105520000D01*
X116891566Y-105520000D01*
X116917756Y-105449623D01*
X116943539Y-105347133D01*
X116958000Y-105244494D01*
X116964848Y-105159280D01*
X116970174Y-105061006D01*
X116972167Y-104961172D01*
X116972167Y-104763824D01*
X117224714Y-104763824D01*
X117224714Y-104817557D01*
X117226888Y-104876341D01*
X117240729Y-104973199D01*
X117270143Y-105072547D01*
X117285475Y-105108544D01*
X117337394Y-105191867D01*
X117412781Y-105265010D01*
X117472333Y-105300430D01*
X117566043Y-105329625D01*
X117666305Y-105338283D01*
X117709567Y-105336601D01*
X117809771Y-105316490D01*
X117897847Y-105269406D01*
X117918569Y-105251088D01*
X117971671Y-105162817D01*
X117986263Y-105061311D01*
X117971773Y-104958894D01*
X117920317Y-104874221D01*
X117845091Y-104820122D01*
X117752278Y-104786782D01*
X117739499Y-104784002D01*
X117642563Y-104768868D01*
X117543695Y-104763824D01*
X117224714Y-104763824D01*
X116972167Y-104763824D01*
X116972167Y-104649030D01*
X116973867Y-104543036D01*
X116979744Y-104444117D01*
X116993660Y-104345191D01*
X117010543Y-104285355D01*
X117053408Y-104195722D01*
X117119689Y-104117069D01*
X117162619Y-104081983D01*
X117251275Y-104029103D01*
X117343416Y-103994459D01*
X117408384Y-103978003D01*
X117507669Y-103962135D01*
X117609152Y-103956845D01*
X117675739Y-103958738D01*
G37*
G36*
X116006919Y-105551263D02*
G01*
X116116141Y-105541615D01*
X116210801Y-105512672D01*
X116308646Y-105449360D01*
X116383736Y-105355899D01*
X116427425Y-105259423D01*
X116456551Y-105143652D01*
X116468838Y-105044161D01*
X116472934Y-104933817D01*
X116472934Y-103988108D01*
X116221364Y-103988108D01*
X116221364Y-104937236D01*
X116214053Y-105052772D01*
X116192122Y-105148726D01*
X116146504Y-105238021D01*
X116066672Y-105306559D01*
X115958183Y-105336716D01*
X115921922Y-105338283D01*
X115820352Y-105325928D01*
X115726476Y-105283796D01*
X115651301Y-105211765D01*
X115600812Y-105122483D01*
X115571359Y-105024672D01*
X115557896Y-104923846D01*
X115555558Y-104854193D01*
X115555558Y-103988108D01*
X115302522Y-103988108D01*
X115302522Y-105520000D01*
X115531134Y-105520000D01*
X115555558Y-105287969D01*
X115613100Y-105377448D01*
X115683144Y-105448413D01*
X115765691Y-105500867D01*
X115860740Y-105534807D01*
X115968290Y-105550234D01*
X116006919Y-105551263D01*
G37*
G36*
X114642578Y-103988108D02*
G01*
X114413967Y-103988108D01*
X114389543Y-104291458D01*
X114342946Y-104197749D01*
X114283755Y-104118732D01*
X114204099Y-104048785D01*
X114196102Y-104043307D01*
X114101103Y-103994081D01*
X114004322Y-103967062D01*
X113897619Y-103956930D01*
X113886402Y-103956845D01*
X113784204Y-103963762D01*
X113679714Y-103987671D01*
X113584764Y-104028658D01*
X113558140Y-104044284D01*
X113558140Y-104308066D01*
X113635535Y-104247586D01*
X113730705Y-104200200D01*
X113834453Y-104174685D01*
X113908384Y-104169825D01*
X114017897Y-104179198D01*
X114113915Y-104207316D01*
X114205805Y-104261356D01*
X114265467Y-104319790D01*
X114319750Y-104402924D01*
X114358524Y-104502362D01*
X114379728Y-104602743D01*
X114389058Y-104715607D01*
X114389543Y-104750146D01*
X114389543Y-105520000D01*
X114642578Y-105520000D01*
X114642578Y-103988108D01*
G37*
G36*
X112638321Y-105551263D02*
G01*
X112747544Y-105541615D01*
X112842203Y-105512672D01*
X112940048Y-105449360D01*
X113015139Y-105355899D01*
X113058828Y-105259423D01*
X113087953Y-105143652D01*
X113100241Y-105044161D01*
X113104337Y-104933817D01*
X113104337Y-103988108D01*
X112852767Y-103988108D01*
X112852767Y-104937236D01*
X112845456Y-105052772D01*
X112823524Y-105148726D01*
X112777906Y-105238021D01*
X112698075Y-105306559D01*
X112589586Y-105336716D01*
X112553325Y-105338283D01*
X112451754Y-105325928D01*
X112357878Y-105283796D01*
X112282704Y-105211765D01*
X112232214Y-105122483D01*
X112202762Y-105024672D01*
X112189298Y-104923846D01*
X112186961Y-104854193D01*
X112186961Y-103988108D01*
X111933925Y-103988108D01*
X111933925Y-105520000D01*
X112162536Y-105520000D01*
X112186961Y-105287969D01*
X112244503Y-105377448D01*
X112314547Y-105448413D01*
X112397094Y-105500867D01*
X112492142Y-105534807D01*
X112599693Y-105550234D01*
X112638321Y-105551263D01*
G37*
G36*
X110881238Y-105551263D02*
G01*
X110980651Y-105546634D01*
X111087404Y-105532750D01*
X111184748Y-105513481D01*
X111287485Y-105487412D01*
X111395614Y-105454542D01*
X111395614Y-105195645D01*
X111290118Y-105244120D01*
X111189053Y-105282565D01*
X111092419Y-105310981D01*
X110985279Y-105331457D01*
X110884169Y-105338283D01*
X110781913Y-105330490D01*
X110687609Y-105304215D01*
X110628691Y-105272337D01*
X110559969Y-105200288D01*
X110533042Y-105101904D01*
X110532948Y-105095017D01*
X110558296Y-104998657D01*
X110613060Y-104940167D01*
X110701056Y-104893083D01*
X110795908Y-104861993D01*
X110868049Y-104844912D01*
X110973074Y-104823419D01*
X111073824Y-104798201D01*
X111169943Y-104761510D01*
X111255352Y-104710410D01*
X111289612Y-104680781D01*
X111350933Y-104595945D01*
X111382281Y-104500437D01*
X111390241Y-104409672D01*
X111380837Y-104307028D01*
X111347779Y-104206590D01*
X111290918Y-104122072D01*
X111239787Y-104074570D01*
X111156622Y-104023066D01*
X111057582Y-103986277D01*
X110957898Y-103966158D01*
X110846060Y-103957305D01*
X110811873Y-103956845D01*
X110709612Y-103961286D01*
X110608847Y-103974610D01*
X110509577Y-103996816D01*
X110411804Y-104027905D01*
X110356605Y-104049658D01*
X110356605Y-104296831D01*
X110451360Y-104247344D01*
X110547984Y-104210011D01*
X110646479Y-104184833D01*
X110746844Y-104171810D01*
X110805035Y-104169825D01*
X110917423Y-104177673D01*
X111019153Y-104206668D01*
X111103444Y-104275340D01*
X111135417Y-104379329D01*
X111135740Y-104393063D01*
X111117036Y-104491344D01*
X111107407Y-104508346D01*
X111026391Y-104568698D01*
X110997987Y-104580153D01*
X110897847Y-104609584D01*
X110797738Y-104632459D01*
X110759606Y-104640237D01*
X110658489Y-104659288D01*
X110549004Y-104688859D01*
X110458076Y-104731168D01*
X110373458Y-104798750D01*
X110315561Y-104884674D01*
X110284385Y-104988939D01*
X110278447Y-105068639D01*
X110288553Y-105174823D01*
X110318869Y-105269162D01*
X110377134Y-105361134D01*
X110440136Y-105422302D01*
X110528155Y-105478722D01*
X110631012Y-105519023D01*
X110733183Y-105541062D01*
X110846714Y-105550759D01*
X110881238Y-105551263D01*
G37*
G36*
X141867352Y-107348108D02*
G01*
X141606500Y-107348108D01*
X141161978Y-108634291D01*
X140716479Y-107348108D01*
X140455139Y-107348108D01*
X140999312Y-108880000D01*
X141323178Y-108880000D01*
X141867352Y-107348108D01*
G37*
G36*
X139950534Y-108667020D02*
G01*
X139521155Y-108667020D01*
X139521155Y-107207424D01*
X139846975Y-107576720D01*
X139996940Y-107394026D01*
X139524086Y-106847899D01*
X139248091Y-106847899D01*
X139248091Y-108667020D01*
X138824086Y-108667020D01*
X138824086Y-108880000D01*
X139950534Y-108880000D01*
X139950534Y-108667020D01*
G37*
G36*
X136743625Y-108696329D02*
G01*
X136709431Y-108611332D01*
X136641252Y-108539575D01*
X136570017Y-108464322D01*
X136524783Y-108416427D01*
X136456491Y-108343688D01*
X136385336Y-108267133D01*
X136318850Y-108194971D01*
X136296172Y-108170230D01*
X136228340Y-108095979D01*
X136159441Y-108020589D01*
X136156465Y-108017334D01*
X136089439Y-107943142D01*
X136084658Y-107937711D01*
X136033855Y-107878115D01*
X135972518Y-107801479D01*
X135918573Y-107728639D01*
X135866414Y-107644470D01*
X135847742Y-107606517D01*
X135815018Y-107513005D01*
X135800291Y-107413020D01*
X135799871Y-107393049D01*
X135809650Y-107294007D01*
X135842997Y-107201700D01*
X135900010Y-107126824D01*
X135986426Y-107067588D01*
X136084228Y-107037305D01*
X136177470Y-107029616D01*
X136287415Y-107038615D01*
X136386231Y-107060654D01*
X136489270Y-107095917D01*
X136596535Y-107144403D01*
X136689149Y-107194909D01*
X136727017Y-107217683D01*
X136727017Y-106942177D01*
X136631419Y-106903105D01*
X136536053Y-106871190D01*
X136449557Y-106848387D01*
X136348417Y-106829039D01*
X136247965Y-106818620D01*
X136181378Y-106816636D01*
X136077308Y-106822063D01*
X135978321Y-106838343D01*
X135915153Y-106855226D01*
X135819105Y-106893440D01*
X135733376Y-106946165D01*
X135697289Y-106975394D01*
X135627894Y-107050713D01*
X135575909Y-107133794D01*
X135566375Y-107153203D01*
X135532648Y-107250148D01*
X135518242Y-107349210D01*
X135517037Y-107389630D01*
X135525487Y-107490586D01*
X135550835Y-107591954D01*
X135577121Y-107659762D01*
X135624235Y-107748259D01*
X135654790Y-107793607D01*
X135716048Y-107874270D01*
X135775446Y-107947480D01*
X135840147Y-108022264D01*
X135869724Y-108055924D01*
X135936838Y-108130422D01*
X135996730Y-108195631D01*
X136064905Y-108267793D01*
X136093451Y-108297236D01*
X136162877Y-108366845D01*
X136187240Y-108391025D01*
X136257875Y-108461861D01*
X136300080Y-108504842D01*
X136370544Y-108577871D01*
X136438047Y-108649076D01*
X136454930Y-108667020D01*
X135503360Y-108667020D01*
X135503360Y-108880000D01*
X136743625Y-108880000D01*
X136743625Y-108696329D01*
G37*
G36*
X134463194Y-107395021D02*
G01*
X134509784Y-107481574D01*
X134534204Y-107577208D01*
X134545609Y-107640736D01*
X134556186Y-107739385D01*
X134557445Y-107760054D01*
X134561559Y-107858576D01*
X134560520Y-107895895D01*
X134552767Y-107995352D01*
X134546537Y-108048999D01*
X134529808Y-108149225D01*
X134520122Y-108192665D01*
X134489752Y-108288932D01*
X134421853Y-108348527D01*
X134381603Y-108332530D01*
X134332662Y-108244053D01*
X134309989Y-108146294D01*
X134300327Y-108077166D01*
X134291427Y-107978743D01*
X134290835Y-107968756D01*
X134286542Y-107869323D01*
X134287353Y-107836245D01*
X134294846Y-107736943D01*
X134301190Y-107679799D01*
X134316828Y-107581605D01*
X134329498Y-107525238D01*
X134362746Y-107432128D01*
X134427714Y-107379371D01*
X134463194Y-107395021D01*
G37*
G36*
X134465179Y-106817672D02*
G01*
X134578718Y-106833214D01*
X134680784Y-106867406D01*
X134771379Y-106920248D01*
X134850503Y-106991741D01*
X134918154Y-107081884D01*
X134928432Y-107098767D01*
X134974929Y-107190511D01*
X135013268Y-107294467D01*
X135043451Y-107410635D01*
X135061723Y-107512362D01*
X135074775Y-107621905D01*
X135082606Y-107739263D01*
X135085216Y-107864438D01*
X135085053Y-107896404D01*
X135081137Y-108019403D01*
X135072001Y-108134617D01*
X135057644Y-108242046D01*
X135038067Y-108341689D01*
X135006253Y-108455296D01*
X134966282Y-108556737D01*
X134918154Y-108646015D01*
X134885762Y-108693418D01*
X134812375Y-108774235D01*
X134727516Y-108836403D01*
X134631185Y-108879920D01*
X134523382Y-108904787D01*
X134424783Y-108911263D01*
X134384554Y-108910226D01*
X134271307Y-108894685D01*
X134169223Y-108860493D01*
X134078302Y-108807650D01*
X133998543Y-108736158D01*
X133929947Y-108646015D01*
X133910049Y-108612653D01*
X133865713Y-108520499D01*
X133832419Y-108426874D01*
X133805384Y-108323126D01*
X133797789Y-108286225D01*
X133781188Y-108181651D01*
X133771020Y-108082785D01*
X133764919Y-107977048D01*
X133762885Y-107864438D01*
X134040345Y-107864438D01*
X134041826Y-107966676D01*
X134047841Y-108084922D01*
X134058484Y-108192553D01*
X134073754Y-108289571D01*
X134098186Y-108391981D01*
X134135111Y-108492142D01*
X134167042Y-108551528D01*
X134236959Y-108633059D01*
X134322873Y-108681977D01*
X134424783Y-108698283D01*
X134493225Y-108691036D01*
X134583265Y-108652988D01*
X134658158Y-108582329D01*
X134712013Y-108492142D01*
X134749319Y-108392816D01*
X134774003Y-108290749D01*
X134789430Y-108193755D01*
X134800183Y-108085909D01*
X134806260Y-107967211D01*
X134807756Y-107864438D01*
X134807172Y-107797777D01*
X134803806Y-107697668D01*
X134796443Y-107594679D01*
X134783820Y-107492212D01*
X134772203Y-107427180D01*
X134746958Y-107327334D01*
X134712013Y-107235757D01*
X134680142Y-107176370D01*
X134610633Y-107094840D01*
X134525514Y-107045922D01*
X134424783Y-107029616D01*
X134355065Y-107036914D01*
X134263819Y-107075232D01*
X134188570Y-107146394D01*
X134135111Y-107237222D01*
X134098186Y-107336859D01*
X134073754Y-107439006D01*
X134058484Y-107535935D01*
X134047841Y-107643597D01*
X134041826Y-107761993D01*
X134040345Y-107864438D01*
X133762885Y-107864438D01*
X133763051Y-107831620D01*
X133766247Y-107721113D01*
X133773510Y-107617386D01*
X133786791Y-107507141D01*
X133805384Y-107405750D01*
X133813700Y-107369867D01*
X133842821Y-107269073D01*
X133882520Y-107169134D01*
X133929947Y-107081884D01*
X133962601Y-107034481D01*
X134036435Y-106953663D01*
X134121638Y-106891496D01*
X134218209Y-106847979D01*
X134326149Y-106823112D01*
X134424783Y-106816636D01*
X134465179Y-106817672D01*
G37*
G36*
X133375028Y-108696329D02*
G01*
X133340834Y-108611332D01*
X133272655Y-108539575D01*
X133201420Y-108464322D01*
X133156186Y-108416427D01*
X133087894Y-108343688D01*
X133016739Y-108267133D01*
X132950252Y-108194971D01*
X132927575Y-108170230D01*
X132859743Y-108095979D01*
X132790844Y-108020589D01*
X132787868Y-108017334D01*
X132720842Y-107943142D01*
X132716061Y-107937711D01*
X132665258Y-107878115D01*
X132603921Y-107801479D01*
X132549975Y-107728639D01*
X132497816Y-107644470D01*
X132479145Y-107606517D01*
X132446420Y-107513005D01*
X132431694Y-107413020D01*
X132431273Y-107393049D01*
X132441053Y-107294007D01*
X132474400Y-107201700D01*
X132531413Y-107126824D01*
X132617829Y-107067588D01*
X132715630Y-107037305D01*
X132808873Y-107029616D01*
X132918818Y-107038615D01*
X133017633Y-107060654D01*
X133120673Y-107095917D01*
X133227938Y-107144403D01*
X133320552Y-107194909D01*
X133358419Y-107217683D01*
X133358419Y-106942177D01*
X133262822Y-106903105D01*
X133167456Y-106871190D01*
X133080959Y-106848387D01*
X132979820Y-106829039D01*
X132879367Y-106818620D01*
X132812781Y-106816636D01*
X132708710Y-106822063D01*
X132609723Y-106838343D01*
X132546556Y-106855226D01*
X132450507Y-106893440D01*
X132364778Y-106946165D01*
X132328691Y-106975394D01*
X132259297Y-107050713D01*
X132207311Y-107133794D01*
X132197777Y-107153203D01*
X132164051Y-107250148D01*
X132149645Y-107349210D01*
X132148440Y-107389630D01*
X132156889Y-107490586D01*
X132182237Y-107591954D01*
X132208524Y-107659762D01*
X132255637Y-107748259D01*
X132286193Y-107793607D01*
X132347450Y-107874270D01*
X132406849Y-107947480D01*
X132471550Y-108022264D01*
X132501127Y-108055924D01*
X132568240Y-108130422D01*
X132628133Y-108195631D01*
X132696307Y-108267793D01*
X132724853Y-108297236D01*
X132794279Y-108366845D01*
X132818643Y-108391025D01*
X132889278Y-108461861D01*
X132931483Y-108504842D01*
X133001947Y-108577871D01*
X133069450Y-108649076D01*
X133086333Y-108667020D01*
X132134763Y-108667020D01*
X132134763Y-108880000D01*
X133375028Y-108880000D01*
X133375028Y-108696329D01*
G37*
G36*
X131759117Y-108130174D02*
G01*
X131759117Y-108379790D01*
X130893520Y-108379790D01*
X130893520Y-108880000D01*
X130618503Y-108880000D01*
X130618503Y-108379790D01*
X130346416Y-108379790D01*
X130346416Y-108166810D01*
X130618503Y-108166810D01*
X130618503Y-107107773D01*
X130893520Y-107107773D01*
X130893520Y-108166810D01*
X131537345Y-108166810D01*
X130893520Y-107107773D01*
X130618503Y-107107773D01*
X130618503Y-106847899D01*
X130938461Y-106847899D01*
X131759117Y-108130174D01*
G37*
G36*
X129932181Y-107947969D02*
G01*
X128810129Y-107947969D01*
X128810129Y-108160949D01*
X129932181Y-108160949D01*
X129932181Y-107947969D01*
G37*
G36*
X127726000Y-107395021D02*
G01*
X127772589Y-107481574D01*
X127797010Y-107577208D01*
X127808414Y-107640736D01*
X127818991Y-107739385D01*
X127820251Y-107760054D01*
X127824365Y-107858576D01*
X127823326Y-107895895D01*
X127815572Y-107995352D01*
X127809342Y-108048999D01*
X127792613Y-108149225D01*
X127782927Y-108192665D01*
X127752557Y-108288932D01*
X127684658Y-108348527D01*
X127644408Y-108332530D01*
X127595468Y-108244053D01*
X127572795Y-108146294D01*
X127563133Y-108077166D01*
X127554232Y-107978743D01*
X127553641Y-107968756D01*
X127549347Y-107869323D01*
X127550158Y-107836245D01*
X127557652Y-107736943D01*
X127563996Y-107679799D01*
X127579633Y-107581605D01*
X127592304Y-107525238D01*
X127625551Y-107432128D01*
X127690520Y-107379371D01*
X127726000Y-107395021D01*
G37*
G36*
X127727984Y-106817672D02*
G01*
X127841523Y-106833214D01*
X127943590Y-106867406D01*
X128034185Y-106920248D01*
X128113308Y-106991741D01*
X128180959Y-107081884D01*
X128191238Y-107098767D01*
X128237734Y-107190511D01*
X128276074Y-107294467D01*
X128306256Y-107410635D01*
X128324528Y-107512362D01*
X128337580Y-107621905D01*
X128345411Y-107739263D01*
X128348021Y-107864438D01*
X128347858Y-107896404D01*
X128343943Y-108019403D01*
X128334807Y-108134617D01*
X128320450Y-108242046D01*
X128300872Y-108341689D01*
X128269058Y-108455296D01*
X128229088Y-108556737D01*
X128180959Y-108646015D01*
X128148568Y-108693418D01*
X128075180Y-108774235D01*
X127990321Y-108836403D01*
X127893990Y-108879920D01*
X127786188Y-108904787D01*
X127687589Y-108911263D01*
X127647359Y-108910226D01*
X127534113Y-108894685D01*
X127432029Y-108860493D01*
X127341107Y-108807650D01*
X127261349Y-108736158D01*
X127192753Y-108646015D01*
X127172855Y-108612653D01*
X127128519Y-108520499D01*
X127095224Y-108426874D01*
X127068189Y-108323126D01*
X127060594Y-108286225D01*
X127043993Y-108181651D01*
X127033825Y-108082785D01*
X127027724Y-107977048D01*
X127025691Y-107864438D01*
X127303151Y-107864438D01*
X127304631Y-107966676D01*
X127310647Y-108084922D01*
X127321289Y-108192553D01*
X127336559Y-108289571D01*
X127360991Y-108391981D01*
X127397917Y-108492142D01*
X127429847Y-108551528D01*
X127499764Y-108633059D01*
X127585678Y-108681977D01*
X127687589Y-108698283D01*
X127756030Y-108691036D01*
X127846070Y-108652988D01*
X127920963Y-108582329D01*
X127974818Y-108492142D01*
X128012125Y-108392816D01*
X128036808Y-108290749D01*
X128052236Y-108193755D01*
X128062988Y-108085909D01*
X128069066Y-107967211D01*
X128070562Y-107864438D01*
X128069977Y-107797777D01*
X128066611Y-107697668D01*
X128059248Y-107594679D01*
X128046626Y-107492212D01*
X128035008Y-107427180D01*
X128009764Y-107327334D01*
X127974818Y-107235757D01*
X127942948Y-107176370D01*
X127873438Y-107094840D01*
X127788319Y-107045922D01*
X127687589Y-107029616D01*
X127617871Y-107036914D01*
X127526625Y-107075232D01*
X127451375Y-107146394D01*
X127397917Y-107237222D01*
X127360991Y-107336859D01*
X127336559Y-107439006D01*
X127321289Y-107535935D01*
X127310647Y-107643597D01*
X127304631Y-107761993D01*
X127303151Y-107864438D01*
X127025691Y-107864438D01*
X127025857Y-107831620D01*
X127029052Y-107721113D01*
X127036315Y-107617386D01*
X127049596Y-107507141D01*
X127068189Y-107405750D01*
X127076505Y-107369867D01*
X127105627Y-107269073D01*
X127145326Y-107169134D01*
X127192753Y-107081884D01*
X127225406Y-107034481D01*
X127299240Y-106953663D01*
X127384443Y-106891496D01*
X127481014Y-106847979D01*
X127588954Y-106823112D01*
X127687589Y-106816636D01*
X127727984Y-106817672D01*
G37*
G36*
X126706221Y-108130174D02*
G01*
X126706221Y-108379790D01*
X125840624Y-108379790D01*
X125840624Y-108880000D01*
X125565607Y-108880000D01*
X125565607Y-108379790D01*
X125293520Y-108379790D01*
X125293520Y-108166810D01*
X125565607Y-108166810D01*
X125565607Y-107107773D01*
X125840624Y-107107773D01*
X125840624Y-108166810D01*
X126484449Y-108166810D01*
X125840624Y-107107773D01*
X125565607Y-107107773D01*
X125565607Y-106847899D01*
X125885565Y-106847899D01*
X126706221Y-108130174D01*
G37*
G36*
X193225315Y-82302741D02*
G01*
X192706543Y-82302741D01*
X192706543Y-84768617D01*
X191385677Y-83490738D01*
X190773116Y-83490738D01*
X191978699Y-84651380D01*
X190584561Y-86554521D01*
X191200053Y-86554521D01*
X192331386Y-84978666D01*
X192706543Y-85329398D01*
X192706543Y-86554521D01*
X193225315Y-86554521D01*
X193225315Y-82302741D01*
G37*
G36*
X192413451Y-89648003D02*
G01*
X192495517Y-89567891D01*
X192495517Y-89102853D01*
X192413451Y-89022741D01*
X192019732Y-89022741D01*
X191937666Y-89102853D01*
X191937666Y-89567891D01*
X192019732Y-89648003D01*
X192413451Y-89648003D01*
G37*
G36*
X191495098Y-93274521D02*
G01*
X191708017Y-93256691D01*
X191917042Y-93194008D01*
X192093764Y-93086194D01*
X192193633Y-92989245D01*
X192313116Y-92810385D01*
X192386496Y-92620516D01*
X192428979Y-92401583D01*
X192440807Y-92186174D01*
X192440807Y-90636698D01*
X193111009Y-90636698D01*
X193111009Y-90210738D01*
X191937666Y-90210738D01*
X191937666Y-92170543D01*
X191922890Y-92379096D01*
X191867324Y-92577940D01*
X191812614Y-92674660D01*
X191657764Y-92805086D01*
X191460242Y-92848391D01*
X191445273Y-92848561D01*
X190858113Y-92848561D01*
X190858113Y-93274521D01*
X191495098Y-93274521D01*
G37*
G36*
X192163253Y-96879971D02*
G01*
X192373854Y-96935944D01*
X192555843Y-97038011D01*
X192709222Y-97186174D01*
X192817918Y-97349859D01*
X192867743Y-96930738D01*
X193323989Y-96930738D01*
X193323989Y-101182518D01*
X192817918Y-101182518D01*
X192817918Y-99592985D01*
X192732404Y-99726675D01*
X192585917Y-99875773D01*
X192408202Y-99980458D01*
X192199258Y-100040732D01*
X191995308Y-100057047D01*
X191862791Y-100050361D01*
X191647856Y-100006483D01*
X191454520Y-99921652D01*
X191282782Y-99795869D01*
X191132642Y-99629133D01*
X191040889Y-99487425D01*
X190951313Y-99297098D01*
X190884131Y-99084653D01*
X190845252Y-98890718D01*
X190821925Y-98681423D01*
X190814352Y-98462629D01*
X191341714Y-98462629D01*
X191348034Y-98671446D01*
X191376121Y-98917917D01*
X191426680Y-99127874D01*
X191521477Y-99338973D01*
X191651383Y-99493017D01*
X191853616Y-99602560D01*
X192060765Y-99631087D01*
X192105892Y-99629900D01*
X192311495Y-99588360D01*
X192483706Y-99487476D01*
X192622523Y-99327249D01*
X192657442Y-99267829D01*
X192733768Y-99087212D01*
X192785670Y-98874354D01*
X192811048Y-98661657D01*
X192817918Y-98459698D01*
X192817729Y-98424962D01*
X192805828Y-98195855D01*
X192775414Y-97991339D01*
X192717986Y-97787717D01*
X192624477Y-97597033D01*
X192599492Y-97560358D01*
X192454072Y-97412477D01*
X192274496Y-97323748D01*
X192060765Y-97294172D01*
X191853616Y-97322698D01*
X191651383Y-97432241D01*
X191521477Y-97586286D01*
X191426680Y-97797384D01*
X191376121Y-98007342D01*
X191348034Y-98253813D01*
X191341714Y-98462629D01*
X190814352Y-98462629D01*
X190814149Y-98456768D01*
X190819080Y-98277463D01*
X190839111Y-98066985D01*
X190874550Y-97871676D01*
X190937416Y-97657330D01*
X191022469Y-97464829D01*
X191129711Y-97294172D01*
X191234048Y-97171459D01*
X191399355Y-97034602D01*
X191587102Y-96938512D01*
X191797288Y-96883187D01*
X191995308Y-96868212D01*
X192163253Y-96879971D01*
G37*
G36*
X193018197Y-103650738D02*
G01*
X192560974Y-103650738D01*
X192512125Y-104257437D01*
X192418932Y-104070019D01*
X192300550Y-103911986D01*
X192141239Y-103772091D01*
X192125245Y-103761136D01*
X191935247Y-103662684D01*
X191741684Y-103608645D01*
X191528277Y-103588381D01*
X191505845Y-103588212D01*
X191301448Y-103602045D01*
X191092468Y-103649863D01*
X190902569Y-103731837D01*
X190849320Y-103763090D01*
X190849320Y-104290654D01*
X191004109Y-104169693D01*
X191194450Y-104074922D01*
X191401946Y-104023892D01*
X191549809Y-104014172D01*
X191768833Y-104032917D01*
X191960869Y-104089154D01*
X192144650Y-104197234D01*
X192263975Y-104314102D01*
X192372541Y-104480370D01*
X192450088Y-104679245D01*
X192492496Y-104880008D01*
X192511156Y-105105735D01*
X192512125Y-105174814D01*
X192512125Y-106714521D01*
X193018197Y-106714521D01*
X193018197Y-103650738D01*
G37*
G36*
X192347323Y-110311998D02*
G01*
X192544564Y-110331873D01*
X192738783Y-110368784D01*
X192866949Y-110401085D01*
X193058054Y-110457093D01*
X193247785Y-110522169D01*
X193247785Y-111026286D01*
X193129327Y-110961195D01*
X192943397Y-110877756D01*
X192747576Y-110811352D01*
X192612631Y-110777586D01*
X192407925Y-110745025D01*
X192200472Y-110734172D01*
X192031211Y-110743575D01*
X191831180Y-110787212D01*
X191643598Y-110884625D01*
X191522744Y-111030163D01*
X191460961Y-111221022D01*
X191445273Y-111418052D01*
X191445273Y-111496209D01*
X192121337Y-111496209D01*
X192164900Y-111496560D01*
X192378021Y-111508849D01*
X192583318Y-111538692D01*
X192780793Y-111586091D01*
X192962296Y-111655146D01*
X193135502Y-111760861D01*
X193281002Y-111897745D01*
X193304071Y-111926023D01*
X193404349Y-112105841D01*
X193456442Y-112304976D01*
X193471511Y-112513236D01*
X193461379Y-112683859D01*
X193416347Y-112887100D01*
X193322623Y-113082609D01*
X193183305Y-113243034D01*
X193049781Y-113342010D01*
X192856264Y-113433544D01*
X192663617Y-113481171D01*
X192451553Y-113497047D01*
X192256770Y-113483976D01*
X192049560Y-113439404D01*
X191849739Y-113363202D01*
X191683043Y-113265714D01*
X191527888Y-113126522D01*
X191402286Y-112953851D01*
X191394506Y-113006324D01*
X191358322Y-113199070D01*
X191347377Y-113245450D01*
X191284072Y-113434521D01*
X190778978Y-113434521D01*
X190831357Y-113293768D01*
X190882923Y-113088787D01*
X190911846Y-112883509D01*
X190925542Y-112713081D01*
X190936194Y-112516534D01*
X190940179Y-112316865D01*
X190940179Y-111922169D01*
X191445273Y-111922169D01*
X191445273Y-112029636D01*
X191449620Y-112147204D01*
X191477304Y-112340919D01*
X191536131Y-112539615D01*
X191566795Y-112611609D01*
X191670633Y-112778255D01*
X191821407Y-112924541D01*
X191940512Y-112995381D01*
X192127931Y-113053771D01*
X192328455Y-113071087D01*
X192414980Y-113067724D01*
X192615387Y-113027501D01*
X192791539Y-112933334D01*
X192832984Y-112896698D01*
X192939187Y-112720156D01*
X192968371Y-112517144D01*
X192939391Y-112312310D01*
X192836480Y-112142964D01*
X192686026Y-112034765D01*
X192500402Y-111968086D01*
X192474844Y-111962526D01*
X192280972Y-111932258D01*
X192083235Y-111922169D01*
X191445273Y-111922169D01*
X190940179Y-111922169D01*
X190940179Y-111692581D01*
X190943579Y-111480593D01*
X190955333Y-111282756D01*
X190983165Y-111084904D01*
X191016932Y-110965232D01*
X191102661Y-110785965D01*
X191235224Y-110628659D01*
X191321083Y-110558488D01*
X191498396Y-110452727D01*
X191682677Y-110383439D01*
X191812614Y-110350527D01*
X192011183Y-110318791D01*
X192214149Y-110308212D01*
X192347323Y-110311998D01*
G37*
X193656496Y-33706875D02*
X193989829Y-33230684D01*
X194227924Y-33706875D02*
X194227924Y-32706875D01*
X194227924Y-32706875D02*
X193846972Y-32706875D01*
X193846972Y-32706875D02*
X193751734Y-32754494D01*
X193751734Y-32754494D02*
X193704115Y-32802113D01*
X193704115Y-32802113D02*
X193656496Y-32897351D01*
X193656496Y-32897351D02*
X193656496Y-33040208D01*
X193656496Y-33040208D02*
X193704115Y-33135446D01*
X193704115Y-33135446D02*
X193751734Y-33183065D01*
X193751734Y-33183065D02*
X193846972Y-33230684D01*
X193846972Y-33230684D02*
X194227924Y-33230684D01*
X193275543Y-33421160D02*
X192799353Y-33421160D01*
X193370781Y-33706875D02*
X193037448Y-32706875D01*
X193037448Y-32706875D02*
X192704115Y-33706875D01*
X192466019Y-32706875D02*
X192227924Y-33706875D01*
X192227924Y-33706875D02*
X192037448Y-32992589D01*
X192037448Y-32992589D02*
X191846972Y-33706875D01*
X191846972Y-33706875D02*
X191608877Y-32706875D01*
X202377672Y-33706873D02*
X202377672Y-32706873D01*
X202377672Y-32706873D02*
X201996720Y-32706873D01*
X201996720Y-32706873D02*
X201901482Y-32754492D01*
X201901482Y-32754492D02*
X201853863Y-32802111D01*
X201853863Y-32802111D02*
X201806244Y-32897349D01*
X201806244Y-32897349D02*
X201806244Y-33040206D01*
X201806244Y-33040206D02*
X201853863Y-33135444D01*
X201853863Y-33135444D02*
X201901482Y-33183063D01*
X201901482Y-33183063D02*
X201996720Y-33230682D01*
X201996720Y-33230682D02*
X202377672Y-33230682D01*
X200853863Y-33706873D02*
X201425291Y-33706873D01*
X201139577Y-33706873D02*
X201139577Y-32706873D01*
X201139577Y-32706873D02*
X201234815Y-32849730D01*
X201234815Y-32849730D02*
X201330053Y-32944968D01*
X201330053Y-32944968D02*
X201425291Y-32992587D01*
X193704115Y-35294493D02*
X193799353Y-35246874D01*
X193799353Y-35246874D02*
X193942210Y-35246874D01*
X193942210Y-35246874D02*
X194085067Y-35294493D01*
X194085067Y-35294493D02*
X194180305Y-35389731D01*
X194180305Y-35389731D02*
X194227924Y-35484969D01*
X194227924Y-35484969D02*
X194275543Y-35675445D01*
X194275543Y-35675445D02*
X194275543Y-35818302D01*
X194275543Y-35818302D02*
X194227924Y-36008778D01*
X194227924Y-36008778D02*
X194180305Y-36104016D01*
X194180305Y-36104016D02*
X194085067Y-36199255D01*
X194085067Y-36199255D02*
X193942210Y-36246874D01*
X193942210Y-36246874D02*
X193846972Y-36246874D01*
X193846972Y-36246874D02*
X193704115Y-36199255D01*
X193704115Y-36199255D02*
X193656496Y-36151635D01*
X193656496Y-36151635D02*
X193656496Y-35818302D01*
X193656496Y-35818302D02*
X193846972Y-35818302D01*
X193227924Y-36246874D02*
X193227924Y-35246874D01*
X193227924Y-35246874D02*
X192656496Y-36246874D01*
X192656496Y-36246874D02*
X192656496Y-35246874D01*
X192180305Y-36246874D02*
X192180305Y-35246874D01*
X192180305Y-35246874D02*
X191942210Y-35246874D01*
X191942210Y-35246874D02*
X191799353Y-35294493D01*
X191799353Y-35294493D02*
X191704115Y-35389731D01*
X191704115Y-35389731D02*
X191656496Y-35484969D01*
X191656496Y-35484969D02*
X191608877Y-35675445D01*
X191608877Y-35675445D02*
X191608877Y-35818302D01*
X191608877Y-35818302D02*
X191656496Y-36008778D01*
X191656496Y-36008778D02*
X191704115Y-36104016D01*
X191704115Y-36104016D02*
X191799353Y-36199255D01*
X191799353Y-36199255D02*
X191942210Y-36246874D01*
X191942210Y-36246874D02*
X192180305Y-36246874D01*
X202377673Y-36246873D02*
X202377673Y-35246873D01*
X202377673Y-35246873D02*
X201996721Y-35246873D01*
X201996721Y-35246873D02*
X201901483Y-35294492D01*
X201901483Y-35294492D02*
X201853864Y-35342111D01*
X201853864Y-35342111D02*
X201806245Y-35437349D01*
X201806245Y-35437349D02*
X201806245Y-35580206D01*
X201806245Y-35580206D02*
X201853864Y-35675444D01*
X201853864Y-35675444D02*
X201901483Y-35723063D01*
X201901483Y-35723063D02*
X201996721Y-35770682D01*
X201996721Y-35770682D02*
X202377673Y-35770682D01*
X201187197Y-35246873D02*
X201091959Y-35246873D01*
X201091959Y-35246873D02*
X200996721Y-35294492D01*
X200996721Y-35294492D02*
X200949102Y-35342111D01*
X200949102Y-35342111D02*
X200901483Y-35437349D01*
X200901483Y-35437349D02*
X200853864Y-35627825D01*
X200853864Y-35627825D02*
X200853864Y-35865920D01*
X200853864Y-35865920D02*
X200901483Y-36056396D01*
X200901483Y-36056396D02*
X200949102Y-36151634D01*
X200949102Y-36151634D02*
X200996721Y-36199254D01*
X200996721Y-36199254D02*
X201091959Y-36246873D01*
X201091959Y-36246873D02*
X201187197Y-36246873D01*
X201187197Y-36246873D02*
X201282435Y-36199254D01*
X201282435Y-36199254D02*
X201330054Y-36151634D01*
X201330054Y-36151634D02*
X201377673Y-36056396D01*
X201377673Y-36056396D02*
X201425292Y-35865920D01*
X201425292Y-35865920D02*
X201425292Y-35627825D01*
X201425292Y-35627825D02*
X201377673Y-35437349D01*
X201377673Y-35437349D02*
X201330054Y-35342111D01*
X201330054Y-35342111D02*
X201282435Y-35294492D01*
X201282435Y-35294492D02*
X201187197Y-35246873D01*
X193656496Y-38786874D02*
X193989829Y-38310683D01*
X194227924Y-38786874D02*
X194227924Y-37786874D01*
X194227924Y-37786874D02*
X193846972Y-37786874D01*
X193846972Y-37786874D02*
X193751734Y-37834493D01*
X193751734Y-37834493D02*
X193704115Y-37882112D01*
X193704115Y-37882112D02*
X193656496Y-37977350D01*
X193656496Y-37977350D02*
X193656496Y-38120207D01*
X193656496Y-38120207D02*
X193704115Y-38215445D01*
X193704115Y-38215445D02*
X193751734Y-38263064D01*
X193751734Y-38263064D02*
X193846972Y-38310683D01*
X193846972Y-38310683D02*
X194227924Y-38310683D01*
X193275543Y-38739255D02*
X193132686Y-38786874D01*
X193132686Y-38786874D02*
X192894591Y-38786874D01*
X192894591Y-38786874D02*
X192799353Y-38739255D01*
X192799353Y-38739255D02*
X192751734Y-38691635D01*
X192751734Y-38691635D02*
X192704115Y-38596397D01*
X192704115Y-38596397D02*
X192704115Y-38501159D01*
X192704115Y-38501159D02*
X192751734Y-38405921D01*
X192751734Y-38405921D02*
X192799353Y-38358302D01*
X192799353Y-38358302D02*
X192894591Y-38310683D01*
X192894591Y-38310683D02*
X193085067Y-38263064D01*
X193085067Y-38263064D02*
X193180305Y-38215445D01*
X193180305Y-38215445D02*
X193227924Y-38167826D01*
X193227924Y-38167826D02*
X193275543Y-38072588D01*
X193275543Y-38072588D02*
X193275543Y-37977350D01*
X193275543Y-37977350D02*
X193227924Y-37882112D01*
X193227924Y-37882112D02*
X193180305Y-37834493D01*
X193180305Y-37834493D02*
X193085067Y-37786874D01*
X193085067Y-37786874D02*
X192846972Y-37786874D01*
X192846972Y-37786874D02*
X192704115Y-37834493D01*
X192418400Y-37786874D02*
X191846972Y-37786874D01*
X192132686Y-38786874D02*
X192132686Y-37786874D01*
X202949102Y-37834493D02*
X203044340Y-37786874D01*
X203044340Y-37786874D02*
X203187197Y-37786874D01*
X203187197Y-37786874D02*
X203330054Y-37834493D01*
X203330054Y-37834493D02*
X203425292Y-37929731D01*
X203425292Y-37929731D02*
X203472911Y-38024969D01*
X203472911Y-38024969D02*
X203520530Y-38215445D01*
X203520530Y-38215445D02*
X203520530Y-38358302D01*
X203520530Y-38358302D02*
X203472911Y-38548778D01*
X203472911Y-38548778D02*
X203425292Y-38644016D01*
X203425292Y-38644016D02*
X203330054Y-38739255D01*
X203330054Y-38739255D02*
X203187197Y-38786874D01*
X203187197Y-38786874D02*
X203091959Y-38786874D01*
X203091959Y-38786874D02*
X202949102Y-38739255D01*
X202949102Y-38739255D02*
X202901483Y-38691635D01*
X202901483Y-38691635D02*
X202901483Y-38358302D01*
X202901483Y-38358302D02*
X203091959Y-38358302D01*
X202472911Y-38786874D02*
X202472911Y-37786874D01*
X202472911Y-37786874D02*
X201901483Y-38786874D01*
X201901483Y-38786874D02*
X201901483Y-37786874D01*
X201425292Y-38786874D02*
X201425292Y-37786874D01*
X201425292Y-37786874D02*
X201187197Y-37786874D01*
X201187197Y-37786874D02*
X201044340Y-37834493D01*
X201044340Y-37834493D02*
X200949102Y-37929731D01*
X200949102Y-37929731D02*
X200901483Y-38024969D01*
X200901483Y-38024969D02*
X200853864Y-38215445D01*
X200853864Y-38215445D02*
X200853864Y-38358302D01*
X200853864Y-38358302D02*
X200901483Y-38548778D01*
X200901483Y-38548778D02*
X200949102Y-38644016D01*
X200949102Y-38644016D02*
X201044340Y-38739255D01*
X201044340Y-38739255D02*
X201187197Y-38786874D01*
X201187197Y-38786874D02*
X201425292Y-38786874D01*
X194370781Y-40326874D02*
X194037448Y-41326874D01*
X194037448Y-41326874D02*
X193704115Y-40326874D01*
X192799353Y-41231635D02*
X192846972Y-41279255D01*
X192846972Y-41279255D02*
X192989829Y-41326874D01*
X192989829Y-41326874D02*
X193085067Y-41326874D01*
X193085067Y-41326874D02*
X193227924Y-41279255D01*
X193227924Y-41279255D02*
X193323162Y-41184016D01*
X193323162Y-41184016D02*
X193370781Y-41088778D01*
X193370781Y-41088778D02*
X193418400Y-40898302D01*
X193418400Y-40898302D02*
X193418400Y-40755445D01*
X193418400Y-40755445D02*
X193370781Y-40564969D01*
X193370781Y-40564969D02*
X193323162Y-40469731D01*
X193323162Y-40469731D02*
X193227924Y-40374493D01*
X193227924Y-40374493D02*
X193085067Y-40326874D01*
X193085067Y-40326874D02*
X192989829Y-40326874D01*
X192989829Y-40326874D02*
X192846972Y-40374493D01*
X192846972Y-40374493D02*
X192799353Y-40422112D01*
X191799353Y-41231635D02*
X191846972Y-41279255D01*
X191846972Y-41279255D02*
X191989829Y-41326874D01*
X191989829Y-41326874D02*
X192085067Y-41326874D01*
X192085067Y-41326874D02*
X192227924Y-41279255D01*
X192227924Y-41279255D02*
X192323162Y-41184016D01*
X192323162Y-41184016D02*
X192370781Y-41088778D01*
X192370781Y-41088778D02*
X192418400Y-40898302D01*
X192418400Y-40898302D02*
X192418400Y-40755445D01*
X192418400Y-40755445D02*
X192370781Y-40564969D01*
X192370781Y-40564969D02*
X192323162Y-40469731D01*
X192323162Y-40469731D02*
X192227924Y-40374493D01*
X192227924Y-40374493D02*
X192085067Y-40326874D01*
X192085067Y-40326874D02*
X191989829Y-40326874D01*
X191989829Y-40326874D02*
X191846972Y-40374493D01*
X191846972Y-40374493D02*
X191799353Y-40422112D01*
X202949102Y-40374492D02*
X203044340Y-40326873D01*
X203044340Y-40326873D02*
X203187197Y-40326873D01*
X203187197Y-40326873D02*
X203330054Y-40374492D01*
X203330054Y-40374492D02*
X203425292Y-40469730D01*
X203425292Y-40469730D02*
X203472911Y-40564968D01*
X203472911Y-40564968D02*
X203520530Y-40755444D01*
X203520530Y-40755444D02*
X203520530Y-40898301D01*
X203520530Y-40898301D02*
X203472911Y-41088777D01*
X203472911Y-41088777D02*
X203425292Y-41184015D01*
X203425292Y-41184015D02*
X203330054Y-41279254D01*
X203330054Y-41279254D02*
X203187197Y-41326873D01*
X203187197Y-41326873D02*
X203091959Y-41326873D01*
X203091959Y-41326873D02*
X202949102Y-41279254D01*
X202949102Y-41279254D02*
X202901483Y-41231634D01*
X202901483Y-41231634D02*
X202901483Y-40898301D01*
X202901483Y-40898301D02*
X203091959Y-40898301D01*
X202472911Y-41326873D02*
X202472911Y-40326873D01*
X202472911Y-40326873D02*
X201901483Y-41326873D01*
X201901483Y-41326873D02*
X201901483Y-40326873D01*
X201425292Y-41326873D02*
X201425292Y-40326873D01*
X201425292Y-40326873D02*
X201187197Y-40326873D01*
X201187197Y-40326873D02*
X201044340Y-40374492D01*
X201044340Y-40374492D02*
X200949102Y-40469730D01*
X200949102Y-40469730D02*
X200901483Y-40564968D01*
X200901483Y-40564968D02*
X200853864Y-40755444D01*
X200853864Y-40755444D02*
X200853864Y-40898301D01*
X200853864Y-40898301D02*
X200901483Y-41088777D01*
X200901483Y-41088777D02*
X200949102Y-41184015D01*
X200949102Y-41184015D02*
X201044340Y-41279254D01*
X201044340Y-41279254D02*
X201187197Y-41326873D01*
X201187197Y-41326873D02*
X201425292Y-41326873D01*
X194227924Y-43866875D02*
X194227924Y-42866875D01*
X194227924Y-42866875D02*
X193846972Y-42866875D01*
X193846972Y-42866875D02*
X193751734Y-42914494D01*
X193751734Y-42914494D02*
X193704115Y-42962113D01*
X193704115Y-42962113D02*
X193656496Y-43057351D01*
X193656496Y-43057351D02*
X193656496Y-43200208D01*
X193656496Y-43200208D02*
X193704115Y-43295446D01*
X193704115Y-43295446D02*
X193751734Y-43343065D01*
X193751734Y-43343065D02*
X193846972Y-43390684D01*
X193846972Y-43390684D02*
X194227924Y-43390684D01*
X193275543Y-42962113D02*
X193227924Y-42914494D01*
X193227924Y-42914494D02*
X193132686Y-42866875D01*
X193132686Y-42866875D02*
X192894591Y-42866875D01*
X192894591Y-42866875D02*
X192799353Y-42914494D01*
X192799353Y-42914494D02*
X192751734Y-42962113D01*
X192751734Y-42962113D02*
X192704115Y-43057351D01*
X192704115Y-43057351D02*
X192704115Y-43152589D01*
X192704115Y-43152589D02*
X192751734Y-43295446D01*
X192751734Y-43295446D02*
X193323162Y-43866875D01*
X193323162Y-43866875D02*
X192704115Y-43866875D01*
X191751734Y-43866875D02*
X192323162Y-43866875D01*
X192037448Y-43866875D02*
X192037448Y-42866875D01*
X192037448Y-42866875D02*
X192132686Y-43009732D01*
X192132686Y-43009732D02*
X192227924Y-43104970D01*
X192227924Y-43104970D02*
X192323162Y-43152589D01*
X202377673Y-43866874D02*
X202377673Y-42866874D01*
X202377673Y-42866874D02*
X201996721Y-42866874D01*
X201996721Y-42866874D02*
X201901483Y-42914493D01*
X201901483Y-42914493D02*
X201853864Y-42962112D01*
X201853864Y-42962112D02*
X201806245Y-43057350D01*
X201806245Y-43057350D02*
X201806245Y-43200207D01*
X201806245Y-43200207D02*
X201853864Y-43295445D01*
X201853864Y-43295445D02*
X201901483Y-43343064D01*
X201901483Y-43343064D02*
X201996721Y-43390683D01*
X201996721Y-43390683D02*
X202377673Y-43390683D01*
X201425292Y-42962112D02*
X201377673Y-42914493D01*
X201377673Y-42914493D02*
X201282435Y-42866874D01*
X201282435Y-42866874D02*
X201044340Y-42866874D01*
X201044340Y-42866874D02*
X200949102Y-42914493D01*
X200949102Y-42914493D02*
X200901483Y-42962112D01*
X200901483Y-42962112D02*
X200853864Y-43057350D01*
X200853864Y-43057350D02*
X200853864Y-43152588D01*
X200853864Y-43152588D02*
X200901483Y-43295445D01*
X200901483Y-43295445D02*
X201472911Y-43866874D01*
X201472911Y-43866874D02*
X200853864Y-43866874D01*
X194227924Y-46406874D02*
X194227924Y-45406874D01*
X194227924Y-45406874D02*
X193846972Y-45406874D01*
X193846972Y-45406874D02*
X193751734Y-45454493D01*
X193751734Y-45454493D02*
X193704115Y-45502112D01*
X193704115Y-45502112D02*
X193656496Y-45597350D01*
X193656496Y-45597350D02*
X193656496Y-45740207D01*
X193656496Y-45740207D02*
X193704115Y-45835445D01*
X193704115Y-45835445D02*
X193751734Y-45883064D01*
X193751734Y-45883064D02*
X193846972Y-45930683D01*
X193846972Y-45930683D02*
X194227924Y-45930683D01*
X193275543Y-45502112D02*
X193227924Y-45454493D01*
X193227924Y-45454493D02*
X193132686Y-45406874D01*
X193132686Y-45406874D02*
X192894591Y-45406874D01*
X192894591Y-45406874D02*
X192799353Y-45454493D01*
X192799353Y-45454493D02*
X192751734Y-45502112D01*
X192751734Y-45502112D02*
X192704115Y-45597350D01*
X192704115Y-45597350D02*
X192704115Y-45692588D01*
X192704115Y-45692588D02*
X192751734Y-45835445D01*
X192751734Y-45835445D02*
X193323162Y-46406874D01*
X193323162Y-46406874D02*
X192704115Y-46406874D01*
X192085067Y-45406874D02*
X191989829Y-45406874D01*
X191989829Y-45406874D02*
X191894591Y-45454493D01*
X191894591Y-45454493D02*
X191846972Y-45502112D01*
X191846972Y-45502112D02*
X191799353Y-45597350D01*
X191799353Y-45597350D02*
X191751734Y-45787826D01*
X191751734Y-45787826D02*
X191751734Y-46025921D01*
X191751734Y-46025921D02*
X191799353Y-46216397D01*
X191799353Y-46216397D02*
X191846972Y-46311635D01*
X191846972Y-46311635D02*
X191894591Y-46359255D01*
X191894591Y-46359255D02*
X191989829Y-46406874D01*
X191989829Y-46406874D02*
X192085067Y-46406874D01*
X192085067Y-46406874D02*
X192180305Y-46359255D01*
X192180305Y-46359255D02*
X192227924Y-46311635D01*
X192227924Y-46311635D02*
X192275543Y-46216397D01*
X192275543Y-46216397D02*
X192323162Y-46025921D01*
X192323162Y-46025921D02*
X192323162Y-45787826D01*
X192323162Y-45787826D02*
X192275543Y-45597350D01*
X192275543Y-45597350D02*
X192227924Y-45502112D01*
X192227924Y-45502112D02*
X192180305Y-45454493D01*
X192180305Y-45454493D02*
X192085067Y-45406874D01*
X202377673Y-46406874D02*
X202377673Y-45406874D01*
X202377673Y-45406874D02*
X201996721Y-45406874D01*
X201996721Y-45406874D02*
X201901483Y-45454493D01*
X201901483Y-45454493D02*
X201853864Y-45502112D01*
X201853864Y-45502112D02*
X201806245Y-45597350D01*
X201806245Y-45597350D02*
X201806245Y-45740207D01*
X201806245Y-45740207D02*
X201853864Y-45835445D01*
X201853864Y-45835445D02*
X201901483Y-45883064D01*
X201901483Y-45883064D02*
X201996721Y-45930683D01*
X201996721Y-45930683D02*
X202377673Y-45930683D01*
X201472911Y-45406874D02*
X200853864Y-45406874D01*
X200853864Y-45406874D02*
X201187197Y-45787826D01*
X201187197Y-45787826D02*
X201044340Y-45787826D01*
X201044340Y-45787826D02*
X200949102Y-45835445D01*
X200949102Y-45835445D02*
X200901483Y-45883064D01*
X200901483Y-45883064D02*
X200853864Y-45978302D01*
X200853864Y-45978302D02*
X200853864Y-46216397D01*
X200853864Y-46216397D02*
X200901483Y-46311635D01*
X200901483Y-46311635D02*
X200949102Y-46359255D01*
X200949102Y-46359255D02*
X201044340Y-46406874D01*
X201044340Y-46406874D02*
X201330054Y-46406874D01*
X201330054Y-46406874D02*
X201425292Y-46359255D01*
X201425292Y-46359255D02*
X201472911Y-46311635D01*
X194227924Y-48946874D02*
X194227924Y-47946874D01*
X194227924Y-47946874D02*
X193846972Y-47946874D01*
X193846972Y-47946874D02*
X193751734Y-47994493D01*
X193751734Y-47994493D02*
X193704115Y-48042112D01*
X193704115Y-48042112D02*
X193656496Y-48137350D01*
X193656496Y-48137350D02*
X193656496Y-48280207D01*
X193656496Y-48280207D02*
X193704115Y-48375445D01*
X193704115Y-48375445D02*
X193751734Y-48423064D01*
X193751734Y-48423064D02*
X193846972Y-48470683D01*
X193846972Y-48470683D02*
X194227924Y-48470683D01*
X192704115Y-48946874D02*
X193275543Y-48946874D01*
X192989829Y-48946874D02*
X192989829Y-47946874D01*
X192989829Y-47946874D02*
X193085067Y-48089731D01*
X193085067Y-48089731D02*
X193180305Y-48184969D01*
X193180305Y-48184969D02*
X193275543Y-48232588D01*
X192227924Y-48946874D02*
X192037448Y-48946874D01*
X192037448Y-48946874D02*
X191942210Y-48899255D01*
X191942210Y-48899255D02*
X191894591Y-48851635D01*
X191894591Y-48851635D02*
X191799353Y-48708778D01*
X191799353Y-48708778D02*
X191751734Y-48518302D01*
X191751734Y-48518302D02*
X191751734Y-48137350D01*
X191751734Y-48137350D02*
X191799353Y-48042112D01*
X191799353Y-48042112D02*
X191846972Y-47994493D01*
X191846972Y-47994493D02*
X191942210Y-47946874D01*
X191942210Y-47946874D02*
X192132686Y-47946874D01*
X192132686Y-47946874D02*
X192227924Y-47994493D01*
X192227924Y-47994493D02*
X192275543Y-48042112D01*
X192275543Y-48042112D02*
X192323162Y-48137350D01*
X192323162Y-48137350D02*
X192323162Y-48375445D01*
X192323162Y-48375445D02*
X192275543Y-48470683D01*
X192275543Y-48470683D02*
X192227924Y-48518302D01*
X192227924Y-48518302D02*
X192132686Y-48565921D01*
X192132686Y-48565921D02*
X191942210Y-48565921D01*
X191942210Y-48565921D02*
X191846972Y-48518302D01*
X191846972Y-48518302D02*
X191799353Y-48470683D01*
X191799353Y-48470683D02*
X191751734Y-48375445D01*
X202377673Y-48946873D02*
X202377673Y-47946873D01*
X202377673Y-47946873D02*
X201996721Y-47946873D01*
X201996721Y-47946873D02*
X201901483Y-47994492D01*
X201901483Y-47994492D02*
X201853864Y-48042111D01*
X201853864Y-48042111D02*
X201806245Y-48137349D01*
X201806245Y-48137349D02*
X201806245Y-48280206D01*
X201806245Y-48280206D02*
X201853864Y-48375444D01*
X201853864Y-48375444D02*
X201901483Y-48423063D01*
X201901483Y-48423063D02*
X201996721Y-48470682D01*
X201996721Y-48470682D02*
X202377673Y-48470682D01*
X200949102Y-48280206D02*
X200949102Y-48946873D01*
X201187197Y-47899254D02*
X201425292Y-48613539D01*
X201425292Y-48613539D02*
X200806245Y-48613539D01*
X194227924Y-51486875D02*
X194227924Y-50486875D01*
X194227924Y-50486875D02*
X193846972Y-50486875D01*
X193846972Y-50486875D02*
X193751734Y-50534494D01*
X193751734Y-50534494D02*
X193704115Y-50582113D01*
X193704115Y-50582113D02*
X193656496Y-50677351D01*
X193656496Y-50677351D02*
X193656496Y-50820208D01*
X193656496Y-50820208D02*
X193704115Y-50915446D01*
X193704115Y-50915446D02*
X193751734Y-50963065D01*
X193751734Y-50963065D02*
X193846972Y-51010684D01*
X193846972Y-51010684D02*
X194227924Y-51010684D01*
X192704115Y-51486875D02*
X193275543Y-51486875D01*
X192989829Y-51486875D02*
X192989829Y-50486875D01*
X192989829Y-50486875D02*
X193085067Y-50629732D01*
X193085067Y-50629732D02*
X193180305Y-50724970D01*
X193180305Y-50724970D02*
X193275543Y-50772589D01*
X192132686Y-50915446D02*
X192227924Y-50867827D01*
X192227924Y-50867827D02*
X192275543Y-50820208D01*
X192275543Y-50820208D02*
X192323162Y-50724970D01*
X192323162Y-50724970D02*
X192323162Y-50677351D01*
X192323162Y-50677351D02*
X192275543Y-50582113D01*
X192275543Y-50582113D02*
X192227924Y-50534494D01*
X192227924Y-50534494D02*
X192132686Y-50486875D01*
X192132686Y-50486875D02*
X191942210Y-50486875D01*
X191942210Y-50486875D02*
X191846972Y-50534494D01*
X191846972Y-50534494D02*
X191799353Y-50582113D01*
X191799353Y-50582113D02*
X191751734Y-50677351D01*
X191751734Y-50677351D02*
X191751734Y-50724970D01*
X191751734Y-50724970D02*
X191799353Y-50820208D01*
X191799353Y-50820208D02*
X191846972Y-50867827D01*
X191846972Y-50867827D02*
X191942210Y-50915446D01*
X191942210Y-50915446D02*
X192132686Y-50915446D01*
X192132686Y-50915446D02*
X192227924Y-50963065D01*
X192227924Y-50963065D02*
X192275543Y-51010684D01*
X192275543Y-51010684D02*
X192323162Y-51105922D01*
X192323162Y-51105922D02*
X192323162Y-51296398D01*
X192323162Y-51296398D02*
X192275543Y-51391636D01*
X192275543Y-51391636D02*
X192227924Y-51439256D01*
X192227924Y-51439256D02*
X192132686Y-51486875D01*
X192132686Y-51486875D02*
X191942210Y-51486875D01*
X191942210Y-51486875D02*
X191846972Y-51439256D01*
X191846972Y-51439256D02*
X191799353Y-51391636D01*
X191799353Y-51391636D02*
X191751734Y-51296398D01*
X191751734Y-51296398D02*
X191751734Y-51105922D01*
X191751734Y-51105922D02*
X191799353Y-51010684D01*
X191799353Y-51010684D02*
X191846972Y-50963065D01*
X191846972Y-50963065D02*
X191942210Y-50915446D01*
X202377673Y-51486874D02*
X202377673Y-50486874D01*
X202377673Y-50486874D02*
X201996721Y-50486874D01*
X201996721Y-50486874D02*
X201901483Y-50534493D01*
X201901483Y-50534493D02*
X201853864Y-50582112D01*
X201853864Y-50582112D02*
X201806245Y-50677350D01*
X201806245Y-50677350D02*
X201806245Y-50820207D01*
X201806245Y-50820207D02*
X201853864Y-50915445D01*
X201853864Y-50915445D02*
X201901483Y-50963064D01*
X201901483Y-50963064D02*
X201996721Y-51010683D01*
X201996721Y-51010683D02*
X202377673Y-51010683D01*
X200901483Y-50486874D02*
X201377673Y-50486874D01*
X201377673Y-50486874D02*
X201425292Y-50963064D01*
X201425292Y-50963064D02*
X201377673Y-50915445D01*
X201377673Y-50915445D02*
X201282435Y-50867826D01*
X201282435Y-50867826D02*
X201044340Y-50867826D01*
X201044340Y-50867826D02*
X200949102Y-50915445D01*
X200949102Y-50915445D02*
X200901483Y-50963064D01*
X200901483Y-50963064D02*
X200853864Y-51058302D01*
X200853864Y-51058302D02*
X200853864Y-51296397D01*
X200853864Y-51296397D02*
X200901483Y-51391635D01*
X200901483Y-51391635D02*
X200949102Y-51439255D01*
X200949102Y-51439255D02*
X201044340Y-51486874D01*
X201044340Y-51486874D02*
X201282435Y-51486874D01*
X201282435Y-51486874D02*
X201377673Y-51439255D01*
X201377673Y-51439255D02*
X201425292Y-51391635D01*
X194227924Y-54026874D02*
X194227924Y-53026874D01*
X194227924Y-53026874D02*
X193846972Y-53026874D01*
X193846972Y-53026874D02*
X193751734Y-53074493D01*
X193751734Y-53074493D02*
X193704115Y-53122112D01*
X193704115Y-53122112D02*
X193656496Y-53217350D01*
X193656496Y-53217350D02*
X193656496Y-53360207D01*
X193656496Y-53360207D02*
X193704115Y-53455445D01*
X193704115Y-53455445D02*
X193751734Y-53503064D01*
X193751734Y-53503064D02*
X193846972Y-53550683D01*
X193846972Y-53550683D02*
X194227924Y-53550683D01*
X192704115Y-54026874D02*
X193275543Y-54026874D01*
X192989829Y-54026874D02*
X192989829Y-53026874D01*
X192989829Y-53026874D02*
X193085067Y-53169731D01*
X193085067Y-53169731D02*
X193180305Y-53264969D01*
X193180305Y-53264969D02*
X193275543Y-53312588D01*
X191799353Y-53026874D02*
X192275543Y-53026874D01*
X192275543Y-53026874D02*
X192323162Y-53503064D01*
X192323162Y-53503064D02*
X192275543Y-53455445D01*
X192275543Y-53455445D02*
X192180305Y-53407826D01*
X192180305Y-53407826D02*
X191942210Y-53407826D01*
X191942210Y-53407826D02*
X191846972Y-53455445D01*
X191846972Y-53455445D02*
X191799353Y-53503064D01*
X191799353Y-53503064D02*
X191751734Y-53598302D01*
X191751734Y-53598302D02*
X191751734Y-53836397D01*
X191751734Y-53836397D02*
X191799353Y-53931635D01*
X191799353Y-53931635D02*
X191846972Y-53979255D01*
X191846972Y-53979255D02*
X191942210Y-54026874D01*
X191942210Y-54026874D02*
X192180305Y-54026874D01*
X192180305Y-54026874D02*
X192275543Y-53979255D01*
X192275543Y-53979255D02*
X192323162Y-53931635D01*
X202377673Y-54026874D02*
X202377673Y-53026874D01*
X202377673Y-53026874D02*
X201996721Y-53026874D01*
X201996721Y-53026874D02*
X201901483Y-53074493D01*
X201901483Y-53074493D02*
X201853864Y-53122112D01*
X201853864Y-53122112D02*
X201806245Y-53217350D01*
X201806245Y-53217350D02*
X201806245Y-53360207D01*
X201806245Y-53360207D02*
X201853864Y-53455445D01*
X201853864Y-53455445D02*
X201901483Y-53503064D01*
X201901483Y-53503064D02*
X201996721Y-53550683D01*
X201996721Y-53550683D02*
X202377673Y-53550683D01*
X200949102Y-53026874D02*
X201139578Y-53026874D01*
X201139578Y-53026874D02*
X201234816Y-53074493D01*
X201234816Y-53074493D02*
X201282435Y-53122112D01*
X201282435Y-53122112D02*
X201377673Y-53264969D01*
X201377673Y-53264969D02*
X201425292Y-53455445D01*
X201425292Y-53455445D02*
X201425292Y-53836397D01*
X201425292Y-53836397D02*
X201377673Y-53931635D01*
X201377673Y-53931635D02*
X201330054Y-53979255D01*
X201330054Y-53979255D02*
X201234816Y-54026874D01*
X201234816Y-54026874D02*
X201044340Y-54026874D01*
X201044340Y-54026874D02*
X200949102Y-53979255D01*
X200949102Y-53979255D02*
X200901483Y-53931635D01*
X200901483Y-53931635D02*
X200853864Y-53836397D01*
X200853864Y-53836397D02*
X200853864Y-53598302D01*
X200853864Y-53598302D02*
X200901483Y-53503064D01*
X200901483Y-53503064D02*
X200949102Y-53455445D01*
X200949102Y-53455445D02*
X201044340Y-53407826D01*
X201044340Y-53407826D02*
X201234816Y-53407826D01*
X201234816Y-53407826D02*
X201330054Y-53455445D01*
X201330054Y-53455445D02*
X201377673Y-53503064D01*
X201377673Y-53503064D02*
X201425292Y-53598302D01*
X194227924Y-56566875D02*
X194227924Y-55566875D01*
X194227924Y-55566875D02*
X193846972Y-55566875D01*
X193846972Y-55566875D02*
X193751734Y-55614494D01*
X193751734Y-55614494D02*
X193704115Y-55662113D01*
X193704115Y-55662113D02*
X193656496Y-55757351D01*
X193656496Y-55757351D02*
X193656496Y-55900208D01*
X193656496Y-55900208D02*
X193704115Y-55995446D01*
X193704115Y-55995446D02*
X193751734Y-56043065D01*
X193751734Y-56043065D02*
X193846972Y-56090684D01*
X193846972Y-56090684D02*
X194227924Y-56090684D01*
X192704115Y-56566875D02*
X193275543Y-56566875D01*
X192989829Y-56566875D02*
X192989829Y-55566875D01*
X192989829Y-55566875D02*
X193085067Y-55709732D01*
X193085067Y-55709732D02*
X193180305Y-55804970D01*
X193180305Y-55804970D02*
X193275543Y-55852589D01*
X191846972Y-55900208D02*
X191846972Y-56566875D01*
X192085067Y-55519256D02*
X192323162Y-56233541D01*
X192323162Y-56233541D02*
X191704115Y-56233541D01*
X202377673Y-56566874D02*
X202377673Y-55566874D01*
X202377673Y-55566874D02*
X201996721Y-55566874D01*
X201996721Y-55566874D02*
X201901483Y-55614493D01*
X201901483Y-55614493D02*
X201853864Y-55662112D01*
X201853864Y-55662112D02*
X201806245Y-55757350D01*
X201806245Y-55757350D02*
X201806245Y-55900207D01*
X201806245Y-55900207D02*
X201853864Y-55995445D01*
X201853864Y-55995445D02*
X201901483Y-56043064D01*
X201901483Y-56043064D02*
X201996721Y-56090683D01*
X201996721Y-56090683D02*
X202377673Y-56090683D01*
X201472911Y-55566874D02*
X200806245Y-55566874D01*
X200806245Y-55566874D02*
X201234816Y-56566874D01*
X194227925Y-59106875D02*
X194227925Y-58106875D01*
X194227925Y-58106875D02*
X193846973Y-58106875D01*
X193846973Y-58106875D02*
X193751735Y-58154494D01*
X193751735Y-58154494D02*
X193704116Y-58202113D01*
X193704116Y-58202113D02*
X193656497Y-58297351D01*
X193656497Y-58297351D02*
X193656497Y-58440208D01*
X193656497Y-58440208D02*
X193704116Y-58535446D01*
X193704116Y-58535446D02*
X193751735Y-58583065D01*
X193751735Y-58583065D02*
X193846973Y-58630684D01*
X193846973Y-58630684D02*
X194227925Y-58630684D01*
X192704116Y-59106875D02*
X193275544Y-59106875D01*
X192989830Y-59106875D02*
X192989830Y-58106875D01*
X192989830Y-58106875D02*
X193085068Y-58249732D01*
X193085068Y-58249732D02*
X193180306Y-58344970D01*
X193180306Y-58344970D02*
X193275544Y-58392589D01*
X191846973Y-58106875D02*
X192037449Y-58106875D01*
X192037449Y-58106875D02*
X192132687Y-58154494D01*
X192132687Y-58154494D02*
X192180306Y-58202113D01*
X192180306Y-58202113D02*
X192275544Y-58344970D01*
X192275544Y-58344970D02*
X192323163Y-58535446D01*
X192323163Y-58535446D02*
X192323163Y-58916398D01*
X192323163Y-58916398D02*
X192275544Y-59011636D01*
X192275544Y-59011636D02*
X192227925Y-59059256D01*
X192227925Y-59059256D02*
X192132687Y-59106875D01*
X192132687Y-59106875D02*
X191942211Y-59106875D01*
X191942211Y-59106875D02*
X191846973Y-59059256D01*
X191846973Y-59059256D02*
X191799354Y-59011636D01*
X191799354Y-59011636D02*
X191751735Y-58916398D01*
X191751735Y-58916398D02*
X191751735Y-58678303D01*
X191751735Y-58678303D02*
X191799354Y-58583065D01*
X191799354Y-58583065D02*
X191846973Y-58535446D01*
X191846973Y-58535446D02*
X191942211Y-58487827D01*
X191942211Y-58487827D02*
X192132687Y-58487827D01*
X192132687Y-58487827D02*
X192227925Y-58535446D01*
X192227925Y-58535446D02*
X192275544Y-58583065D01*
X192275544Y-58583065D02*
X192323163Y-58678303D01*
X202377673Y-59106873D02*
X202377673Y-58106873D01*
X202377673Y-58106873D02*
X201996721Y-58106873D01*
X201996721Y-58106873D02*
X201901483Y-58154492D01*
X201901483Y-58154492D02*
X201853864Y-58202111D01*
X201853864Y-58202111D02*
X201806245Y-58297349D01*
X201806245Y-58297349D02*
X201806245Y-58440206D01*
X201806245Y-58440206D02*
X201853864Y-58535444D01*
X201853864Y-58535444D02*
X201901483Y-58583063D01*
X201901483Y-58583063D02*
X201996721Y-58630682D01*
X201996721Y-58630682D02*
X202377673Y-58630682D01*
X201234816Y-58535444D02*
X201330054Y-58487825D01*
X201330054Y-58487825D02*
X201377673Y-58440206D01*
X201377673Y-58440206D02*
X201425292Y-58344968D01*
X201425292Y-58344968D02*
X201425292Y-58297349D01*
X201425292Y-58297349D02*
X201377673Y-58202111D01*
X201377673Y-58202111D02*
X201330054Y-58154492D01*
X201330054Y-58154492D02*
X201234816Y-58106873D01*
X201234816Y-58106873D02*
X201044340Y-58106873D01*
X201044340Y-58106873D02*
X200949102Y-58154492D01*
X200949102Y-58154492D02*
X200901483Y-58202111D01*
X200901483Y-58202111D02*
X200853864Y-58297349D01*
X200853864Y-58297349D02*
X200853864Y-58344968D01*
X200853864Y-58344968D02*
X200901483Y-58440206D01*
X200901483Y-58440206D02*
X200949102Y-58487825D01*
X200949102Y-58487825D02*
X201044340Y-58535444D01*
X201044340Y-58535444D02*
X201234816Y-58535444D01*
X201234816Y-58535444D02*
X201330054Y-58583063D01*
X201330054Y-58583063D02*
X201377673Y-58630682D01*
X201377673Y-58630682D02*
X201425292Y-58725920D01*
X201425292Y-58725920D02*
X201425292Y-58916396D01*
X201425292Y-58916396D02*
X201377673Y-59011634D01*
X201377673Y-59011634D02*
X201330054Y-59059254D01*
X201330054Y-59059254D02*
X201234816Y-59106873D01*
X201234816Y-59106873D02*
X201044340Y-59106873D01*
X201044340Y-59106873D02*
X200949102Y-59059254D01*
X200949102Y-59059254D02*
X200901483Y-59011634D01*
X200901483Y-59011634D02*
X200853864Y-58916396D01*
X200853864Y-58916396D02*
X200853864Y-58725920D01*
X200853864Y-58725920D02*
X200901483Y-58630682D01*
X200901483Y-58630682D02*
X200949102Y-58583063D01*
X200949102Y-58583063D02*
X201044340Y-58535444D01*
X194227924Y-61646874D02*
X194227924Y-60646874D01*
X194227924Y-60646874D02*
X193846972Y-60646874D01*
X193846972Y-60646874D02*
X193751734Y-60694493D01*
X193751734Y-60694493D02*
X193704115Y-60742112D01*
X193704115Y-60742112D02*
X193656496Y-60837350D01*
X193656496Y-60837350D02*
X193656496Y-60980207D01*
X193656496Y-60980207D02*
X193704115Y-61075445D01*
X193704115Y-61075445D02*
X193751734Y-61123064D01*
X193751734Y-61123064D02*
X193846972Y-61170683D01*
X193846972Y-61170683D02*
X194227924Y-61170683D01*
X192704115Y-61646874D02*
X193275543Y-61646874D01*
X192989829Y-61646874D02*
X192989829Y-60646874D01*
X192989829Y-60646874D02*
X193085067Y-60789731D01*
X193085067Y-60789731D02*
X193180305Y-60884969D01*
X193180305Y-60884969D02*
X193275543Y-60932588D01*
X192085067Y-60646874D02*
X191989829Y-60646874D01*
X191989829Y-60646874D02*
X191894591Y-60694493D01*
X191894591Y-60694493D02*
X191846972Y-60742112D01*
X191846972Y-60742112D02*
X191799353Y-60837350D01*
X191799353Y-60837350D02*
X191751734Y-61027826D01*
X191751734Y-61027826D02*
X191751734Y-61265921D01*
X191751734Y-61265921D02*
X191799353Y-61456397D01*
X191799353Y-61456397D02*
X191846972Y-61551635D01*
X191846972Y-61551635D02*
X191894591Y-61599255D01*
X191894591Y-61599255D02*
X191989829Y-61646874D01*
X191989829Y-61646874D02*
X192085067Y-61646874D01*
X192085067Y-61646874D02*
X192180305Y-61599255D01*
X192180305Y-61599255D02*
X192227924Y-61551635D01*
X192227924Y-61551635D02*
X192275543Y-61456397D01*
X192275543Y-61456397D02*
X192323162Y-61265921D01*
X192323162Y-61265921D02*
X192323162Y-61027826D01*
X192323162Y-61027826D02*
X192275543Y-60837350D01*
X192275543Y-60837350D02*
X192227924Y-60742112D01*
X192227924Y-60742112D02*
X192180305Y-60694493D01*
X192180305Y-60694493D02*
X192085067Y-60646874D01*
X202377673Y-61646874D02*
X202377673Y-60646874D01*
X202377673Y-60646874D02*
X201996721Y-60646874D01*
X201996721Y-60646874D02*
X201901483Y-60694493D01*
X201901483Y-60694493D02*
X201853864Y-60742112D01*
X201853864Y-60742112D02*
X201806245Y-60837350D01*
X201806245Y-60837350D02*
X201806245Y-60980207D01*
X201806245Y-60980207D02*
X201853864Y-61075445D01*
X201853864Y-61075445D02*
X201901483Y-61123064D01*
X201901483Y-61123064D02*
X201996721Y-61170683D01*
X201996721Y-61170683D02*
X202377673Y-61170683D01*
X201330054Y-61646874D02*
X201139578Y-61646874D01*
X201139578Y-61646874D02*
X201044340Y-61599255D01*
X201044340Y-61599255D02*
X200996721Y-61551635D01*
X200996721Y-61551635D02*
X200901483Y-61408778D01*
X200901483Y-61408778D02*
X200853864Y-61218302D01*
X200853864Y-61218302D02*
X200853864Y-60837350D01*
X200853864Y-60837350D02*
X200901483Y-60742112D01*
X200901483Y-60742112D02*
X200949102Y-60694493D01*
X200949102Y-60694493D02*
X201044340Y-60646874D01*
X201044340Y-60646874D02*
X201234816Y-60646874D01*
X201234816Y-60646874D02*
X201330054Y-60694493D01*
X201330054Y-60694493D02*
X201377673Y-60742112D01*
X201377673Y-60742112D02*
X201425292Y-60837350D01*
X201425292Y-60837350D02*
X201425292Y-61075445D01*
X201425292Y-61075445D02*
X201377673Y-61170683D01*
X201377673Y-61170683D02*
X201330054Y-61218302D01*
X201330054Y-61218302D02*
X201234816Y-61265921D01*
X201234816Y-61265921D02*
X201044340Y-61265921D01*
X201044340Y-61265921D02*
X200949102Y-61218302D01*
X200949102Y-61218302D02*
X200901483Y-61170683D01*
X200901483Y-61170683D02*
X200853864Y-61075445D01*
X205612322Y-31161874D02*
X206088512Y-31161874D01*
X206088512Y-31161874D02*
X206088512Y-30161874D01*
X205278988Y-31066635D02*
X205231369Y-31114255D01*
X205231369Y-31114255D02*
X205278988Y-31161874D01*
X205278988Y-31161874D02*
X205326607Y-31114255D01*
X205326607Y-31114255D02*
X205278988Y-31066635D01*
X205278988Y-31066635D02*
X205278988Y-31161874D01*
X204088512Y-31114255D02*
X203945655Y-31161874D01*
X203945655Y-31161874D02*
X203707560Y-31161874D01*
X203707560Y-31161874D02*
X203612322Y-31114255D01*
X203612322Y-31114255D02*
X203564703Y-31066635D01*
X203564703Y-31066635D02*
X203517084Y-30971397D01*
X203517084Y-30971397D02*
X203517084Y-30876159D01*
X203517084Y-30876159D02*
X203564703Y-30780921D01*
X203564703Y-30780921D02*
X203612322Y-30733302D01*
X203612322Y-30733302D02*
X203707560Y-30685683D01*
X203707560Y-30685683D02*
X203898036Y-30638064D01*
X203898036Y-30638064D02*
X203993274Y-30590445D01*
X203993274Y-30590445D02*
X204040893Y-30542826D01*
X204040893Y-30542826D02*
X204088512Y-30447588D01*
X204088512Y-30447588D02*
X204088512Y-30352350D01*
X204088512Y-30352350D02*
X204040893Y-30257112D01*
X204040893Y-30257112D02*
X203993274Y-30209493D01*
X203993274Y-30209493D02*
X203898036Y-30161874D01*
X203898036Y-30161874D02*
X203659941Y-30161874D01*
X203659941Y-30161874D02*
X203517084Y-30209493D01*
X203088512Y-31161874D02*
X203088512Y-30495207D01*
X203088512Y-30161874D02*
X203136131Y-30209493D01*
X203136131Y-30209493D02*
X203088512Y-30257112D01*
X203088512Y-30257112D02*
X203040893Y-30209493D01*
X203040893Y-30209493D02*
X203088512Y-30161874D01*
X203088512Y-30161874D02*
X203088512Y-30257112D01*
X202183751Y-31161874D02*
X202183751Y-30161874D01*
X202183751Y-31114255D02*
X202278989Y-31161874D01*
X202278989Y-31161874D02*
X202469465Y-31161874D01*
X202469465Y-31161874D02*
X202564703Y-31114255D01*
X202564703Y-31114255D02*
X202612322Y-31066635D01*
X202612322Y-31066635D02*
X202659941Y-30971397D01*
X202659941Y-30971397D02*
X202659941Y-30685683D01*
X202659941Y-30685683D02*
X202612322Y-30590445D01*
X202612322Y-30590445D02*
X202564703Y-30542826D01*
X202564703Y-30542826D02*
X202469465Y-30495207D01*
X202469465Y-30495207D02*
X202278989Y-30495207D01*
X202278989Y-30495207D02*
X202183751Y-30542826D01*
X201326608Y-31114255D02*
X201421846Y-31161874D01*
X201421846Y-31161874D02*
X201612322Y-31161874D01*
X201612322Y-31161874D02*
X201707560Y-31114255D01*
X201707560Y-31114255D02*
X201755179Y-31019016D01*
X201755179Y-31019016D02*
X201755179Y-30638064D01*
X201755179Y-30638064D02*
X201707560Y-30542826D01*
X201707560Y-30542826D02*
X201612322Y-30495207D01*
X201612322Y-30495207D02*
X201421846Y-30495207D01*
X201421846Y-30495207D02*
X201326608Y-30542826D01*
X201326608Y-30542826D02*
X201278989Y-30638064D01*
X201278989Y-30638064D02*
X201278989Y-30733302D01*
X201278989Y-30733302D02*
X201755179Y-30828540D01*
X200088512Y-30780921D02*
X199326608Y-30780921D01*
X197802798Y-30161874D02*
X197802798Y-30876159D01*
X197802798Y-30876159D02*
X197850417Y-31019016D01*
X197850417Y-31019016D02*
X197945655Y-31114255D01*
X197945655Y-31114255D02*
X198088512Y-31161874D01*
X198088512Y-31161874D02*
X198183750Y-31161874D01*
X196898036Y-30495207D02*
X196898036Y-31161874D01*
X197326607Y-30495207D02*
X197326607Y-31019016D01*
X197326607Y-31019016D02*
X197278988Y-31114255D01*
X197278988Y-31114255D02*
X197183750Y-31161874D01*
X197183750Y-31161874D02*
X197040893Y-31161874D01*
X197040893Y-31161874D02*
X196945655Y-31114255D01*
X196945655Y-31114255D02*
X196898036Y-31066635D01*
X196421845Y-31161874D02*
X196421845Y-30495207D01*
X196421845Y-30590445D02*
X196374226Y-30542826D01*
X196374226Y-30542826D02*
X196278988Y-30495207D01*
X196278988Y-30495207D02*
X196136131Y-30495207D01*
X196136131Y-30495207D02*
X196040893Y-30542826D01*
X196040893Y-30542826D02*
X195993274Y-30638064D01*
X195993274Y-30638064D02*
X195993274Y-31161874D01*
X195993274Y-30638064D02*
X195945655Y-30542826D01*
X195945655Y-30542826D02*
X195850417Y-30495207D01*
X195850417Y-30495207D02*
X195707560Y-30495207D01*
X195707560Y-30495207D02*
X195612321Y-30542826D01*
X195612321Y-30542826D02*
X195564702Y-30638064D01*
X195564702Y-30638064D02*
X195564702Y-31161874D01*
X195088512Y-30495207D02*
X195088512Y-31495207D01*
X195088512Y-30542826D02*
X194993274Y-30495207D01*
X194993274Y-30495207D02*
X194802798Y-30495207D01*
X194802798Y-30495207D02*
X194707560Y-30542826D01*
X194707560Y-30542826D02*
X194659941Y-30590445D01*
X194659941Y-30590445D02*
X194612322Y-30685683D01*
X194612322Y-30685683D02*
X194612322Y-30971397D01*
X194612322Y-30971397D02*
X194659941Y-31066635D01*
X194659941Y-31066635D02*
X194707560Y-31114255D01*
X194707560Y-31114255D02*
X194802798Y-31161874D01*
X194802798Y-31161874D02*
X194993274Y-31161874D01*
X194993274Y-31161874D02*
X195088512Y-31114255D01*
X193802798Y-31114255D02*
X193898036Y-31161874D01*
X193898036Y-31161874D02*
X194088512Y-31161874D01*
X194088512Y-31161874D02*
X194183750Y-31114255D01*
X194183750Y-31114255D02*
X194231369Y-31019016D01*
X194231369Y-31019016D02*
X194231369Y-30638064D01*
X194231369Y-30638064D02*
X194183750Y-30542826D01*
X194183750Y-30542826D02*
X194088512Y-30495207D01*
X194088512Y-30495207D02*
X193898036Y-30495207D01*
X193898036Y-30495207D02*
X193802798Y-30542826D01*
X193802798Y-30542826D02*
X193755179Y-30638064D01*
X193755179Y-30638064D02*
X193755179Y-30733302D01*
X193755179Y-30733302D02*
X194231369Y-30828540D01*
X193326607Y-31161874D02*
X193326607Y-30495207D01*
X193326607Y-30685683D02*
X193278988Y-30590445D01*
X193278988Y-30590445D02*
X193231369Y-30542826D01*
X193231369Y-30542826D02*
X193136131Y-30495207D01*
X193136131Y-30495207D02*
X193040893Y-30495207D01*
X191945654Y-31161874D02*
X191945654Y-30161874D01*
X191945654Y-30638064D02*
X191374226Y-30638064D01*
X191374226Y-31161874D02*
X191374226Y-30161874D01*
X190517083Y-31114255D02*
X190612321Y-31161874D01*
X190612321Y-31161874D02*
X190802797Y-31161874D01*
X190802797Y-31161874D02*
X190898035Y-31114255D01*
X190898035Y-31114255D02*
X190945654Y-31019016D01*
X190945654Y-31019016D02*
X190945654Y-30638064D01*
X190945654Y-30638064D02*
X190898035Y-30542826D01*
X190898035Y-30542826D02*
X190802797Y-30495207D01*
X190802797Y-30495207D02*
X190612321Y-30495207D01*
X190612321Y-30495207D02*
X190517083Y-30542826D01*
X190517083Y-30542826D02*
X190469464Y-30638064D01*
X190469464Y-30638064D02*
X190469464Y-30733302D01*
X190469464Y-30733302D02*
X190945654Y-30828540D01*
X190040892Y-31161874D02*
X190040892Y-30495207D01*
X190040892Y-30685683D02*
X189993273Y-30590445D01*
X189993273Y-30590445D02*
X189945654Y-30542826D01*
X189945654Y-30542826D02*
X189850416Y-30495207D01*
X189850416Y-30495207D02*
X189755178Y-30495207D01*
X189040892Y-31114255D02*
X189136130Y-31161874D01*
X189136130Y-31161874D02*
X189326606Y-31161874D01*
X189326606Y-31161874D02*
X189421844Y-31114255D01*
X189421844Y-31114255D02*
X189469463Y-31019016D01*
X189469463Y-31019016D02*
X189469463Y-30638064D01*
X189469463Y-30638064D02*
X189421844Y-30542826D01*
X189421844Y-30542826D02*
X189326606Y-30495207D01*
X189326606Y-30495207D02*
X189136130Y-30495207D01*
X189136130Y-30495207D02*
X189040892Y-30542826D01*
X189040892Y-30542826D02*
X188993273Y-30638064D01*
X188993273Y-30638064D02*
X188993273Y-30733302D01*
X188993273Y-30733302D02*
X189469463Y-30828540D01*
D11*
X99814708Y-104602055D02*
X100314707Y-104602056D01*
X99814707Y-105002056D02*
X99214707Y-104602056D01*
X99814707Y-104202056D02*
X99814707Y-105002056D01*
X99214707Y-104602056D02*
X99814707Y-104202056D01*
X99214707Y-104602056D02*
X99214706Y-105152057D01*
X99214707Y-104602056D02*
X99214707Y-104052055D01*
X98814707Y-104602056D02*
X99214707Y-104602056D01*
X99814705Y-87602058D02*
X100314704Y-87602059D01*
X99814704Y-88002059D02*
X99214704Y-87602059D01*
X99814704Y-87202059D02*
X99814704Y-88002059D01*
X99214704Y-87602059D02*
X99814704Y-87202059D01*
X99214704Y-87602059D02*
X99214703Y-88152060D01*
X99214704Y-87602059D02*
X99214704Y-87052058D01*
X98814704Y-87602059D02*
X99214704Y-87602059D01*
X99814710Y-70602058D02*
X100314709Y-70602059D01*
X99814709Y-71002059D02*
X99214709Y-70602059D01*
X99814709Y-70202059D02*
X99814709Y-71002059D01*
X99214709Y-70602059D02*
X99814709Y-70202059D01*
X99214709Y-70602059D02*
X99214708Y-71152060D01*
X99214709Y-70602059D02*
X99214709Y-70052058D01*
X98814709Y-70602059D02*
X99214709Y-70602059D01*
X99814706Y-53602056D02*
X100314705Y-53602057D01*
X99814705Y-54002057D02*
X99214705Y-53602057D01*
X99814705Y-53202057D02*
X99814705Y-54002057D01*
X99214705Y-53602057D02*
X99814705Y-53202057D01*
X99214705Y-53602057D02*
X99214704Y-54152058D01*
X99214705Y-53602057D02*
X99214705Y-53052056D01*
X98814705Y-53602057D02*
X99214705Y-53602057D01*
X118814706Y-94402053D02*
X119314705Y-94402054D01*
X118814705Y-94802054D02*
X118214705Y-94402054D01*
X118814705Y-94002054D02*
X118814705Y-94802054D01*
X118214705Y-94402054D02*
X118814705Y-94002054D01*
X118214705Y-94402054D02*
X118214704Y-94952055D01*
X118214705Y-94402054D02*
X118214705Y-93852053D01*
X117814705Y-94402054D02*
X118214705Y-94402054D01*
X118814705Y-77402057D02*
X119314704Y-77402058D01*
X118814704Y-77802058D02*
X118214704Y-77402058D01*
X118814704Y-77002058D02*
X118814704Y-77802058D01*
X118214704Y-77402058D02*
X118814704Y-77002058D01*
X118214704Y-77402058D02*
X118214703Y-77952059D01*
X118214704Y-77402058D02*
X118214704Y-76852057D01*
X117814704Y-77402058D02*
X118214704Y-77402058D01*
X118814707Y-60402059D02*
X119314706Y-60402060D01*
X118814706Y-60802060D02*
X118214706Y-60402060D01*
X118814706Y-60002060D02*
X118814706Y-60802060D01*
X118214706Y-60402060D02*
X118814706Y-60002060D01*
X118214706Y-60402060D02*
X118214705Y-60952061D01*
X118214706Y-60402060D02*
X118214706Y-59852059D01*
X117814706Y-60402060D02*
X118214706Y-60402060D01*
X118814707Y-43402054D02*
X119314706Y-43402055D01*
X118814706Y-43802055D02*
X118214706Y-43402055D01*
X118814706Y-43002055D02*
X118814706Y-43802055D01*
X118214706Y-43402055D02*
X118814706Y-43002055D01*
X118214706Y-43402055D02*
X118214705Y-43952056D01*
X118214706Y-43402055D02*
X118214706Y-42852054D01*
X117814706Y-43402055D02*
X118214706Y-43402055D01*
X137814708Y-90152057D02*
X138314707Y-90152058D01*
X137814707Y-90552058D02*
X137214707Y-90152058D01*
X137814707Y-89752058D02*
X137814707Y-90552058D01*
X137214707Y-90152058D02*
X137814707Y-89752058D01*
X137214707Y-90152058D02*
X137214706Y-90702059D01*
X137214707Y-90152058D02*
X137214707Y-89602057D01*
X136814707Y-90152058D02*
X137214707Y-90152058D01*
X137814706Y-73152061D02*
X138314705Y-73152062D01*
X137814705Y-73552062D02*
X137214705Y-73152062D01*
X137814705Y-72752062D02*
X137814705Y-73552062D01*
X137214705Y-73152062D02*
X137814705Y-72752062D01*
X137214705Y-73152062D02*
X137214704Y-73702063D01*
X137214705Y-73152062D02*
X137214705Y-72602061D01*
X136814705Y-73152062D02*
X137214705Y-73152062D01*
X137814704Y-56152058D02*
X138314703Y-56152059D01*
X137814703Y-56552059D02*
X137214703Y-56152059D01*
X137814703Y-55752059D02*
X137814703Y-56552059D01*
X137214703Y-56152059D02*
X137814703Y-55752059D01*
X137214703Y-56152059D02*
X137214702Y-56702060D01*
X137214703Y-56152059D02*
X137214703Y-55602058D01*
X136814703Y-56152059D02*
X137214703Y-56152059D01*
X137814705Y-39152056D02*
X138314704Y-39152057D01*
X137814704Y-39552057D02*
X137214704Y-39152057D01*
X137814704Y-38752057D02*
X137814704Y-39552057D01*
X137214704Y-39152057D02*
X137814704Y-38752057D01*
X137214704Y-39152057D02*
X137214703Y-39702058D01*
X137214704Y-39152057D02*
X137214704Y-38602056D01*
X136814704Y-39152057D02*
X137214704Y-39152057D01*
X156814708Y-94402056D02*
X157314707Y-94402057D01*
X156814707Y-94802057D02*
X156214707Y-94402057D01*
X156814707Y-94002057D02*
X156814707Y-94802057D01*
X156214707Y-94402057D02*
X156814707Y-94002057D01*
X156214707Y-94402057D02*
X156214706Y-94952058D01*
X156214707Y-94402057D02*
X156214707Y-93852056D01*
X155814707Y-94402057D02*
X156214707Y-94402057D01*
X156814708Y-77402054D02*
X157314707Y-77402055D01*
X156814707Y-77802055D02*
X156214707Y-77402055D01*
X156814707Y-77002055D02*
X156814707Y-77802055D01*
X156214707Y-77402055D02*
X156814707Y-77002055D01*
X156214707Y-77402055D02*
X156214706Y-77952056D01*
X156214707Y-77402055D02*
X156214707Y-76852054D01*
X155814707Y-77402055D02*
X156214707Y-77402055D01*
X156814706Y-60402058D02*
X157314705Y-60402059D01*
X156814705Y-60802059D02*
X156214705Y-60402059D01*
X156814705Y-60002059D02*
X156814705Y-60802059D01*
X156214705Y-60402059D02*
X156814705Y-60002059D01*
X156214705Y-60402059D02*
X156214704Y-60952060D01*
X156214705Y-60402059D02*
X156214705Y-59852058D01*
X155814705Y-60402059D02*
X156214705Y-60402059D01*
X156814704Y-43402053D02*
X157314703Y-43402054D01*
X156814703Y-43802054D02*
X156214703Y-43402054D01*
X156814703Y-43002054D02*
X156814703Y-43802054D01*
X156214703Y-43402054D02*
X156814703Y-43002054D01*
X156214703Y-43402054D02*
X156214702Y-43952055D01*
X156214703Y-43402054D02*
X156214703Y-42852053D01*
X155814703Y-43402054D02*
X156214703Y-43402054D01*
X175814705Y-79952056D02*
X176314704Y-79952057D01*
X175814704Y-80352057D02*
X175214704Y-79952057D01*
X175814704Y-79552057D02*
X175814704Y-80352057D01*
X175214704Y-79952057D02*
X175814704Y-79552057D01*
X175214704Y-79952057D02*
X175214703Y-80502058D01*
X175214704Y-79952057D02*
X175214704Y-79402056D01*
X174814704Y-79952057D02*
X175214704Y-79952057D01*
X175814701Y-62952057D02*
X176314700Y-62952058D01*
X175814700Y-63352058D02*
X175214700Y-62952058D01*
X175814700Y-62552058D02*
X175814700Y-63352058D01*
X175214700Y-62952058D02*
X175814700Y-62552058D01*
X175214700Y-62952058D02*
X175214699Y-63502059D01*
X175214700Y-62952058D02*
X175214700Y-62402057D01*
X174814700Y-62952058D02*
X175214700Y-62952058D01*
X175814701Y-45952055D02*
X176314700Y-45952056D01*
X175814700Y-46352056D02*
X175214700Y-45952056D01*
X175814700Y-45552056D02*
X175814700Y-46352056D01*
X175214700Y-45952056D02*
X175814700Y-45552056D01*
X175214700Y-45952056D02*
X175214699Y-46502057D01*
X175214700Y-45952056D02*
X175214700Y-45402055D01*
X174814700Y-45952056D02*
X175214700Y-45952056D01*
X190205943Y-139864368D02*
X190559497Y-140217921D01*
X189923101Y-140147210D02*
X189781681Y-139440104D01*
X190488786Y-139581525D02*
X189923101Y-140147210D01*
X189781681Y-139440104D02*
X190488786Y-139581525D01*
X189781681Y-139440104D02*
X189392771Y-139829012D01*
X189781681Y-139440104D02*
X190170589Y-139051195D01*
X189498837Y-139157261D02*
X189781681Y-139440104D01*
X175698816Y-127592577D02*
X176108392Y-127879365D01*
X175469385Y-127920237D02*
X175207325Y-127248431D01*
X175928246Y-127264916D02*
X175469385Y-127920237D01*
X175207325Y-127248431D02*
X175928246Y-127264916D01*
X175207325Y-127248431D02*
X174891859Y-127698965D01*
X175207325Y-127248431D02*
X175522793Y-126797897D01*
X174879664Y-127019001D02*
X175207325Y-127248431D01*
X159281106Y-118026364D02*
X159734259Y-118237673D01*
X159112057Y-118388885D02*
X158737320Y-117772793D01*
X159450151Y-117663840D02*
X159112057Y-118388885D01*
X158737320Y-117772793D02*
X159450151Y-117663840D01*
X158737320Y-117772793D02*
X158504881Y-118271262D01*
X158737320Y-117772793D02*
X158969761Y-117274323D01*
X158374797Y-117603745D02*
X158737320Y-117772793D01*
D12*
X188614704Y-34522055D02*
X191274705Y-34522056D01*
X191274705Y-31922056D02*
X188614704Y-31922055D01*
X191274705Y-31922056D02*
X191274704Y-62522056D01*
X191274704Y-62522056D02*
X188614705Y-62522055D01*
X188614704Y-31922055D02*
X188614705Y-62522055D01*
X206514704Y-31922055D02*
X203854704Y-31922055D01*
X206514704Y-31922055D02*
X206514703Y-62522055D01*
X206514703Y-62522055D02*
X203854704Y-62522056D01*
X203854704Y-31922055D02*
X203854704Y-62522056D01*
M02*
