G04 #@! TF.GenerationSoftware,KiCad,Pcbnew,8.0.1*
G04 #@! TF.CreationDate,2024-03-30T10:30:43-04:00*
G04 #@! TF.ProjectId,kipra-kicad,6b697072-612d-46b6-9963-61642e6b6963,v1.0.0*
G04 #@! TF.SameCoordinates,Original*
G04 #@! TF.FileFunction,Profile,NP*
%FSLAX46Y46*%
G04 Gerber Fmt 4.6, Leading zero omitted, Abs format (unit mm)*
G04 Created by KiCad (PCBNEW 8.0.1) date 2024-03-30 10:30:43*
%MOMM*%
%LPD*%
G01*
G04 APERTURE LIST*
G04 #@! TA.AperFunction,Profile*
%ADD10C,0.150000*%
G04 #@! TD*
G04 APERTURE END LIST*
D10*
X90564706Y-119602059D02*
X129564703Y-119602058D01*
X88564700Y-117602058D02*
X88564703Y-33602059D01*
X90564701Y-31602060D02*
X105564705Y-31602056D01*
X129564705Y-119552060D02*
X129564703Y-119602058D01*
X109564701Y-24402054D02*
X124564703Y-24402059D01*
X107564707Y-29602057D02*
X107564700Y-26402060D01*
X129564705Y-119552060D02*
X147912364Y-119552058D01*
X128564706Y-20152061D02*
X146564703Y-20152055D01*
X148564702Y-22152057D02*
X148564704Y-22402057D01*
X126564705Y-22402056D02*
X126564705Y-22152055D01*
X150564703Y-24402059D02*
X165564705Y-24402060D01*
X167564700Y-26402057D02*
X167564705Y-26952059D01*
X210564703Y-125453572D02*
X210564703Y-30952055D01*
X169564703Y-28952056D02*
X208564708Y-28952060D01*
X211150487Y-126867783D02*
X217606333Y-133323635D01*
X199433691Y-154324703D02*
X217606333Y-136152058D01*
X180822579Y-138542013D02*
X196605265Y-154324701D01*
X164680195Y-127201915D02*
X180555515Y-138317930D01*
X164680195Y-127201915D02*
X164700069Y-127173535D01*
X148757600Y-119739443D02*
X164700069Y-127173535D01*
X90564706Y-119602059D02*
G75*
G02*
X88564705Y-117602058I-1J2000000D01*
G01*
X88564703Y-33602059D02*
G75*
G02*
X90564701Y-31602057I2000000J2D01*
G01*
X107564707Y-29602057D02*
G75*
G02*
X105564705Y-31602060I-2000002J-1D01*
G01*
X107564700Y-26402060D02*
G75*
G02*
X109564701Y-24402053I2000002J5D01*
G01*
X126564705Y-22402056D02*
G75*
G02*
X124564703Y-24402059I-2000002J-1D01*
G01*
X126564705Y-22152055D02*
G75*
G02*
X128564706Y-20152058I2000000J-3D01*
G01*
X146564703Y-20152055D02*
G75*
G02*
X148564704Y-22152057I2J-1999999D01*
G01*
X150564703Y-24402059D02*
G75*
G02*
X148564700Y-22402057I-2J2000001D01*
G01*
X165564705Y-24402060D02*
G75*
G02*
X167564709Y-26402057I4J-2000000D01*
G01*
X169564703Y-28952056D02*
G75*
G02*
X167564702Y-26952059I-1J2000000D01*
G01*
X208564708Y-28952060D02*
G75*
G02*
X210564701Y-30952055I-6J-1999999D01*
G01*
X211150487Y-126867783D02*
G75*
G02*
X210564705Y-125453572I1414219J1414210D01*
G01*
X217606333Y-133323636D02*
G75*
G02*
X217606333Y-136152058I-1414214J-1414211D01*
G01*
X199433691Y-154324706D02*
G75*
G02*
X196605259Y-154324707I-1414217J1414219D01*
G01*
X180555515Y-138317928D02*
G75*
G02*
X180822574Y-138542018I-1147151J-1638301D01*
G01*
X147912364Y-119552057D02*
G75*
G02*
X148757601Y-119739442I0J-1999998D01*
G01*
M02*
