M48
INCH,TZ
T1C0.0591
T2C0.0670
T3C0.1181
T4C0.1350
%
G90
G05
T1
X78333Y-31083
X78333Y-30178
X81088Y-30178
X81088Y-31083
T2
X37033Y-19135
X37033Y-25828
X37033Y-39213
X37033Y-32520
X41364Y-19135
X41364Y-25828
X41364Y-39213
X41364Y-32520
X44514Y-35198
X44514Y-21812
X44514Y-28505
X44514Y-15119
X48844Y-35198
X48844Y-21812
X48844Y-28505
X48844Y-15119
X51994Y-26832
X51994Y-13446
X51994Y-33524
X51994Y-20139
X56325Y-26832
X56325Y-13446
X56325Y-33524
X56325Y-20139
X59474Y-35198
X59474Y-28505
X59474Y-21812
X59474Y-15119
X61489Y-43726
X63805Y-35198
X63805Y-28505
X63805Y-21812
X63805Y-15119
X65414Y-45557
X66955Y-22816
X66955Y-29509
X66955Y-16123
X68447Y-47322
X71285Y-22816
X71285Y-29509
X71285Y-16123
X71995Y-49806
X74675Y-52072
X77738Y-55134
T3
X37230Y-17658
X37230Y-24351
X37230Y-37737
X37230Y-31044
X39199Y-16792
X39199Y-23485
X39199Y-36871
X39199Y-30178
X41167Y-17658
X41167Y-24351
X41167Y-37737
X41167Y-31044
X44711Y-33721
X44711Y-20335
X44711Y-27028
X44711Y-13643
X46679Y-32855
X46679Y-19469
X46679Y-26162
X46679Y-12776
X48648Y-33721
X48648Y-20335
X48648Y-27028
X48648Y-13643
X52191Y-25355
X52191Y-11969
X52191Y-32048
X52191Y-18662
X54159Y-24489
X54159Y-11103
X54159Y-31182
X54159Y-17796
X56128Y-25355
X56128Y-11969
X56128Y-32048
X56128Y-18662
X59671Y-33721
X59671Y-27028
X59671Y-20335
X59671Y-13643
X61640Y-32855
X61640Y-26162
X61640Y-19469
X61640Y-12776
X62292Y-42471
X63608Y-33721
X63608Y-27028
X63608Y-20335
X63608Y-13643
X64442Y-42518
X65860Y-44135
X67151Y-21339
X67151Y-28032
X67151Y-14646
X69120Y-20473
X69120Y-27166
X69120Y-13780
X69456Y-46226
X71088Y-21339
X71088Y-28032
X71088Y-14646
X71565Y-46645
X72681Y-48484
X75859Y-51167
X77863Y-51947
X78642Y-53951
T4
X39199Y-19135
X39199Y-25828
X39199Y-39213
X39199Y-32520
X46679Y-35198
X46679Y-21812
X46679Y-28505
X46679Y-15119
X54159Y-26832
X54159Y-13446
X54159Y-33524
X54159Y-20139
X61640Y-35198
X61640Y-28505
X61640Y-21812
X61640Y-15119
X63452Y-44641
X69120Y-22816
X69120Y-29509
X69120Y-16123
X70221Y-48564
X76207Y-53603
M30
